<svg width="508" height="148" viewBox="0 0 508 148" fill="none" xmlns="http://www.w3.org/2000/svg">
<g clip-path="url(#clip0_954_29025)">
<rect width="508" height="148" fill="#033860"/>
<rect width="121" height="62" transform="translate(0 62)" fill="#033860"/>
<rect width="120" height="62" transform="translate(194 62)" fill="#033860"/>
<rect width="121" height="62" transform="translate(387 62)" fill="#033860"/>
<rect y="124" width="24" height="24" rx="2" fill="white"/>
<rect x="97" y="124" width="24" height="24" rx="2" fill="white"/>
<path d="M9.77992 116C9.50377 116 9.30851 116.338 9.44658 116.577L11.6667 120.423C11.8047 120.662 12.1953 120.662 12.3333 120.423L14.5534 116.577C14.6915 116.338 14.4962 116 14.2201 116H9.77992ZM106.78 116C106.504 116 106.309 116.338 106.447 116.577L108.667 120.423C108.805 120.662 109.195 120.662 109.333 120.423L111.553 116.577C111.691 116.338 111.496 116 111.22 116H106.78ZM12 116.5H12.5V71H12H11.5V116.5H12ZM20 63V63.5H101V63V62.5H20V63ZM109 71H108.5V116.5H109H109.5V71H109ZM101 63V63.5C105.142 63.5 108.5 66.8579 108.5 71H109H109.5C109.5 66.3056 105.694 62.5 101 62.5V63ZM12 71H12.5C12.5 66.8579 15.8579 63.5 20 63.5V63V62.5C15.3056 62.5 11.5 66.3056 11.5 71H12Z" fill="white"/>
<rect x="194" y="124" width="24" height="24" rx="2" fill="white"/>
<rect x="291" y="124" width="24" height="24" rx="2" fill="white"/>
<path d="M203.78 116C203.504 116 203.309 116.338 203.447 116.577L205.667 120.423C205.805 120.662 206.195 120.662 206.333 120.423L208.553 116.577C208.691 116.338 208.496 116 208.22 116H203.78ZM300.78 116C300.504 116 300.309 116.338 300.447 116.577L302.667 120.423C302.805 120.662 303.195 120.662 303.333 120.423L305.553 116.577C305.691 116.338 305.496 116 305.22 116H300.78ZM206 116.5H206.5V71H206H205.5V116.5H206ZM214 63V63.5H295V63V62.5H214V63ZM303 71H302.5V116.5H303H303.5V71H303ZM295 63V63.5C299.142 63.5 302.5 66.8579 302.5 71H303H303.5C303.5 66.3056 299.694 62.5 295 62.5V63ZM206 71H206.5C206.5 66.8579 209.858 63.5 214 63.5V63V62.5C209.306 62.5 205.5 66.3056 205.5 71H206Z" fill="white"/>
<rect x="387" y="124" width="24" height="24" rx="2" fill="white"/>
<rect x="484" y="124" width="24" height="24" rx="2" fill="white"/>
<path d="M396.78 116C396.504 116 396.309 116.338 396.447 116.577L398.667 120.423C398.805 120.662 399.195 120.662 399.333 120.423L401.553 116.577C401.691 116.338 401.496 116 401.22 116H396.78ZM493.78 116C493.504 116 493.309 116.338 493.447 116.577L495.667 120.423C495.805 120.662 496.195 120.662 496.333 120.423L498.553 116.577C498.691 116.338 498.496 116 498.22 116H493.78ZM399 116.5H399.5V71H399H398.5V116.5H399ZM407 63V63.5H488V63V62.5H407V63ZM496 71H495.5V116.5H496H496.5V71H496ZM488 63V63.5C492.142 63.5 495.5 66.8579 495.5 71H496H496.5C496.5 66.3056 492.694 62.5 488 62.5V63ZM399 71H399.5C399.5 66.8579 402.858 63.5 407 63.5V63V62.5C402.306 62.5 398.5 66.3056 398.5 71H399Z" fill="white"/>
<path d="M58.2799 54C58.0038 54 57.8085 54.3382 57.9466 54.5774L60.1667 58.4226C60.3047 58.6618 60.6953 58.6618 60.8333 58.4226L63.0534 54.5774C63.1915 54.3382 62.9962 54 62.7201 54H58.2799ZM251.78 54C251.504 54 251.309 54.3382 251.447 54.5774L253.667 58.4226C253.805 58.6618 254.195 58.6618 254.333 58.4226L256.553 54.5774C256.691 54.3382 256.496 54 256.22 54H251.78ZM60.5 54.5H61V9H60.5H60V54.5H60.5ZM68.5 1V1.5H246V1V0.5H68.5V1ZM254 9H253.5V54.5H254H254.5V9H254ZM246 1V1.5C250.142 1.5 253.5 4.85786 253.5 9H254H254.5C254.5 4.30558 250.694 0.5 246 0.5V1ZM60.5 9H61C61 4.85787 64.3579 1.5 68.5 1.5V1V0.5C63.8056 0.5 60 4.30558 60 9H60.5Z" fill="white"/>
<path d="M251.78 54C251.504 54 251.309 54.3382 251.447 54.5774L253.667 58.4226C253.805 58.6618 254.195 58.6618 254.333 58.4226L256.553 54.5774C256.691 54.3382 256.496 54 256.22 54H251.78ZM445.28 54C445.004 54 444.809 54.3382 444.947 54.5774L447.167 58.4226C447.305 58.6618 447.695 58.6618 447.833 58.4226L450.053 54.5774C450.191 54.3382 449.996 54 449.72 54H445.28ZM254 54.5H254.5V9H254H253.5V54.5H254ZM262 1V1.5H439.5V1V0.5H262V1ZM447.5 9H447V54.5H447.5H448V9H447.5ZM439.5 1V1.5C443.642 1.5 447 4.85786 447 9H447.5H448C448 4.30558 444.194 0.5 439.5 0.5V1ZM254 9H254.5C254.5 4.85787 257.858 1.5 262 1.5V1V0.5C257.306 0.5 253.5 4.30558 253.5 9H254Z" fill="white"/>
</g>
<defs>
<clipPath id="clip0_954_29025">
<rect width="508" height="148" fill="white"/>
</clipPath>
</defs>
</svg>
