<svg width="508" height="147" viewBox="0 0 508 147" fill="none" xmlns="http://www.w3.org/2000/svg">
<g clip-path="url(#clip0_956_29299)">
<rect x="24" y="147" width="24" height="24" rx="2" transform="rotate(180 24 147)" fill="white"/>
<rect x="97" width="24" height="24" rx="2" fill="white"/>
<rect x="193" y="123" width="24" height="24" rx="2" fill="white"/>
<rect x="291" width="24" height="24" rx="2" fill="white"/>
<path d="M89 14.2201C89 14.4962 89.3382 14.6915 89.5774 14.5534L93.4227 12.3333C93.6618 12.1953 93.6618 11.8047 93.4227 11.6667L89.5774 9.44658C89.3382 9.30851 89 9.50377 89 9.77992V14.2201ZM27 135V135.5H36.5V135V134.5H27V135ZM60.5 111H61V36H60.5H60V111H60.5ZM84.5 12V12.5H89.5V12V11.5H84.5V12ZM60.5 36H61C61 23.0213 71.5213 12.5 84.5 12.5V12V11.5C70.969 11.5 60 22.469 60 36H60.5ZM36.5 135V135.5C50.031 135.5 61 124.531 61 111H60.5H60C60 123.979 49.4787 134.5 36.5 134.5V135Z" fill="white"/>
<path d="M185 137.22C185 137.496 185.338 137.691 185.577 137.553L189.423 135.333C189.662 135.195 189.662 134.805 189.423 134.667L185.577 132.447C185.338 132.309 185 132.504 185 132.78V137.22ZM124 12V12.5H133V12V11.5H124V12ZM157 36H156.5V111H157H157.5V36H157ZM181 135V135.5H185.5V135V134.5H181V135ZM157 111H156.5C156.5 124.531 167.469 135.5 181 135.5V135V134.5C168.021 134.5 157.5 123.979 157.5 111H157ZM133 12V12.5C145.979 12.5 156.5 23.0213 156.5 36H157H157.5C157.5 22.469 146.531 11.5 133 11.5V12Z" fill="white"/>
<path d="M283 14.2201C283 14.4962 283.338 14.6915 283.577 14.5534L287.423 12.3333C287.662 12.1953 287.662 11.8047 287.423 11.6667L283.577 9.44658C283.338 9.30851 283 9.50377 283 9.77992V14.2201ZM220 135V135.5H230V135V134.5H220V135ZM254 111H254.5V36H254H253.5V111H254ZM278 12V12.5H283.5V12V11.5H278V12ZM254 36H254.5C254.5 23.0213 265.021 12.5 278 12.5V12V11.5C264.469 11.5 253.5 22.469 253.5 36H254ZM230 135V135.5C243.531 135.5 254.5 124.531 254.5 111H254H253.5C253.5 123.979 242.979 134.5 230 134.5V135Z" fill="white"/>
<rect x="387" y="123" width="24" height="24" rx="2" fill="white"/>
<path d="M379 137.22C379 137.496 379.338 137.691 379.577 137.553L383.423 135.333C383.662 135.195 383.662 134.805 383.423 134.667L379.577 132.447C379.338 132.309 379 132.504 379 132.78V137.22ZM318 12V12.5H327V12V11.5H318V12ZM351 36H350.5V111H351H351.5V36H351ZM375 135V135.5H379.5V135V134.5H375V135ZM351 111H350.5C350.5 124.531 361.469 135.5 375 135.5V135V134.5C362.021 134.5 351.5 123.979 351.5 111H351ZM327 12V12.5C339.979 12.5 350.5 23.0213 350.5 36H351H351.5C351.5 22.469 340.531 11.5 327 11.5V12Z" fill="white"/>
<rect x="484" width="24" height="24" rx="2" fill="white"/>
<path d="M476 14.2201C476 14.4962 476.338 14.6915 476.577 14.5534L480.423 12.3333C480.662 12.1953 480.662 11.8047 480.423 11.6667L476.577 9.44658C476.338 9.30851 476 9.50377 476 9.77992V14.2201ZM414 135V135.5H423.5V135V134.5H414V135ZM447.5 111H448V36H447.5H447V111H447.5ZM471.5 12V12.5H476.5V12V11.5H471.5V12ZM447.5 36H448C448 23.0213 458.521 12.5 471.5 12.5V12V11.5C457.969 11.5 447 22.469 447 36H447.5ZM423.5 135V135.5C437.031 135.5 448 124.531 448 111H447.5H447C447 123.979 436.479 134.5 423.5 134.5V135Z" fill="white"/>
</g>
<defs>
<clipPath id="clip0_956_29299">
<rect width="508" height="147" fill="white"/>
</clipPath>
</defs>
</svg>
