<svg width="61" height="61" viewBox="0 0 61 61" fill="none" xmlns="http://www.w3.org/2000/svg">
<g clip-path="url(#clip0_895_12356)">
<path d="M17.792 12.7083C17.792 11.3601 18.3276 10.0672 19.2809 9.11387C20.2342 8.16056 21.5271 7.625 22.8753 7.625H48.292C49.6402 7.625 50.9331 8.16056 51.8864 9.11387C52.8398 10.0672 53.3753 11.3601 53.3753 12.7083V38.125C53.3753 39.4732 52.8398 40.7661 51.8864 41.7195C50.9331 42.6728 49.6402 43.2083 48.292 43.2083H22.8753C21.5271 43.2083 20.2342 42.6728 19.2809 41.7195C18.3276 40.7661 17.792 39.4732 17.792 38.125V12.7083Z" stroke="#0091EC" stroke-width="1.5" stroke-linecap="round" stroke-linejoin="round"/>
<path d="M43.2083 43.2077V48.291C43.2083 49.6392 42.6728 50.9322 41.7195 51.8855C40.7661 52.8388 39.4732 53.3743 38.125 53.3743H12.7083C11.3601 53.3743 10.0672 52.8388 9.11387 51.8855C8.16056 50.9322 7.625 49.6392 7.625 48.291V22.8743C7.625 21.5262 8.16056 20.2332 9.11387 19.2799C10.0672 18.3266 11.3601 17.791 12.7083 17.791H17.7917" stroke="#0091EC" stroke-width="1.5" stroke-linecap="round" stroke-linejoin="round"/>
<path d="M35.5833 35.5833V15.25L30.5 20.3333" stroke="#0091EC" stroke-width="1.5" stroke-linecap="round" stroke-linejoin="round"/>
</g>
<defs>
<clipPath id="clip0_895_12356">
<rect width="61" height="61" fill="white"/>
</clipPath>
</defs>
</svg>
