<svg width="60" height="60" viewBox="0 0 60 60" fill="none" xmlns="http://www.w3.org/2000/svg">
<g clip-path="url(#clip0_895_12367)">
<path d="M17.5 12.5C17.5 11.1739 18.0268 9.90215 18.9645 8.96447C19.9021 8.02678 21.1739 7.5 22.5 7.5H47.5C48.8261 7.5 50.0979 8.02678 51.0355 8.96447C51.9732 9.90215 52.5 11.1739 52.5 12.5V37.5C52.5 38.8261 51.9732 40.0979 51.0355 41.0355C50.0979 41.9732 48.8261 42.5 47.5 42.5H22.5C21.1739 42.5 19.9021 41.9732 18.9645 41.0355C18.0268 40.0979 17.5 38.8261 17.5 37.5V12.5Z" stroke="#0091EC" stroke-width="1.5" stroke-linecap="round" stroke-linejoin="round"/>
<path d="M42.5 42.5V47.5C42.5 48.8261 41.9732 50.0979 41.0355 51.0355C40.0979 51.9732 38.8261 52.5 37.5 52.5H12.5C11.1739 52.5 9.90215 51.9732 8.96447 51.0355C8.02678 50.0979 7.5 48.8261 7.5 47.5V22.5C7.5 21.1739 8.02678 19.9021 8.96447 18.9645C9.90215 18.0268 11.1739 17.5 12.5 17.5H17.5" stroke="#0091EC" stroke-width="1.5" stroke-linecap="round" stroke-linejoin="round"/>
<path d="M30 20C30 18.6739 30.5268 17.4021 31.4645 16.4645C32.4021 15.5268 33.6739 15 35 15C36.3261 15 37.5979 15.5268 38.5355 16.4645C39.4732 17.4021 40 18.6739 40 20C40 21.4775 38.9575 23.295 37.96 24.645L30 35.0025H40" stroke="#0091EC" stroke-width="1.5" stroke-linecap="round" stroke-linejoin="round"/>
</g>
<defs>
<clipPath id="clip0_895_12367">
<rect width="60" height="60" fill="white"/>
</clipPath>
</defs>
</svg>
