<svg width="60" height="60" viewBox="0 0 60 60" fill="none" xmlns="http://www.w3.org/2000/svg">
<g clip-path="url(#clip0_639_10410)">
<path d="M25 12.5C25 11.1739 25.5268 9.90215 26.4645 8.96447C27.4021 8.02678 28.6739 7.5 30 7.5C31.3261 7.5 32.5979 8.02678 33.5355 8.96447C34.4732 9.90215 35 11.1739 35 12.5C37.871 13.8576 40.3185 15.9708 42.0801 18.6132C43.8417 21.2557 44.8511 24.3277 45 27.5V35C45.1881 36.5543 45.7386 38.0426 46.607 39.3453C47.4755 40.648 48.6377 41.7285 50 42.5H10C11.3623 41.7285 12.5245 40.648 13.393 39.3453C14.2614 38.0426 14.8119 36.5543 15 35V27.5C15.1489 24.3277 16.1583 21.2557 17.9199 18.6132C19.6815 15.9708 22.129 13.8576 25 12.5Z" stroke="#0091EC" stroke-width="1.5" stroke-linecap="round" stroke-linejoin="round"/>
<path d="M22.5 42.5V45C22.5 46.9891 23.2902 48.8968 24.6967 50.3033C26.1032 51.7098 28.0109 52.5 30 52.5C31.9891 52.5 33.8968 51.7098 35.3033 50.3033C36.7098 48.8968 37.5 46.9891 37.5 45V42.5" stroke="#0091EC" stroke-width="1.5" stroke-linecap="round" stroke-linejoin="round"/>
<path d="M52.5026 16.8175C50.8627 13.2506 48.4815 10.0742 45.5176 7.5" stroke="#0091EC" stroke-width="1.5" stroke-linecap="round" stroke-linejoin="round"/>
<path d="M7.5 16.8175C9.13837 13.2511 11.5179 10.0747 14.48 7.5" stroke="#0091EC" stroke-width="1.5" stroke-linecap="round" stroke-linejoin="round"/>
</g>
<defs>
<clipPath id="clip0_639_10410">
<rect width="60" height="60" fill="white"/>
</clipPath>
</defs>
</svg>
