<svg width="60" height="60" viewBox="0 0 60 60" fill="none" xmlns="http://www.w3.org/2000/svg">
<g clip-path="url(#clip0_533_8466)">
<path d="M7.5 47.4988C10.9204 45.524 14.8004 44.4844 18.75 44.4844C22.6996 44.4844 26.5796 45.524 30 47.4988C33.4204 45.524 37.3004 44.4844 41.25 44.4844C45.1996 44.4844 49.0796 45.524 52.5 47.4988" stroke="#0091EC" stroke-width="1.5" stroke-linecap="round" stroke-linejoin="round"/>
<path d="M7.5 14.9988C10.9204 13.024 14.8004 11.9844 18.75 11.9844C22.6996 11.9844 26.5796 13.024 30 14.9988C33.4204 13.024 37.3004 11.9844 41.25 11.9844C45.1996 11.9844 49.0796 13.024 52.5 14.9988" stroke="#0091EC" stroke-width="1.5" stroke-linecap="round" stroke-linejoin="round"/>
<path d="M7.5 15V47.5" stroke="#0091EC" stroke-width="1.5" stroke-linecap="round" stroke-linejoin="round"/>
<path d="M30 15V47.5" stroke="#0091EC" stroke-width="1.5" stroke-linecap="round" stroke-linejoin="round"/>
<path d="M52.5 15V47.5" stroke="#0091EC" stroke-width="1.5" stroke-linecap="round" stroke-linejoin="round"/>
</g>
<defs>
<clipPath id="clip0_533_8466">
<rect width="60" height="60" fill="white"/>
</clipPath>
</defs>
</svg>
