<svg width="60" height="60" viewBox="0 0 60 60" fill="none" xmlns="http://www.w3.org/2000/svg">
<g clip-path="url(#clip0_933_14297)">
<path d="M31.25 52.5H15C13.6739 52.5 12.4021 51.9732 11.4645 51.0355C10.5268 50.0979 10 48.8261 10 47.5V17.5C10 16.1739 10.5268 14.9021 11.4645 13.9645C12.4021 13.0268 13.6739 12.5 15 12.5H45C46.3261 12.5 47.5979 13.0268 48.5355 13.9645C49.4732 14.9021 50 16.1739 50 17.5V30" stroke="#0091EC" stroke-width="1.5" stroke-linecap="round" stroke-linejoin="round"/>
<path d="M47.5 40V55" stroke="#0091EC" stroke-width="1.5" stroke-linecap="round" stroke-linejoin="round"/>
<path d="M55 47.5L47.5 55L40 47.5" stroke="#0091EC" stroke-width="1.5" stroke-linecap="round" stroke-linejoin="round"/>
<path d="M40 7.5V17.5" stroke="#0091EC" stroke-width="1.5" stroke-linecap="round" stroke-linejoin="round"/>
<path d="M20 7.5V17.5" stroke="#0091EC" stroke-width="1.5" stroke-linecap="round" stroke-linejoin="round"/>
<path d="M10 27.5H50" stroke="#0091EC" stroke-width="1.5" stroke-linecap="round" stroke-linejoin="round"/>
</g>
<defs>
<clipPath id="clip0_933_14297">
<rect width="60" height="60" fill="white"/>
</clipPath>
</defs>
</svg>
