<svg width="60" height="60" viewBox="0 0 60 60" fill="none" xmlns="http://www.w3.org/2000/svg">
<g clip-path="url(#clip0_906_14239)">
<path d="M35 7.5V17.5C35 18.163 35.2634 18.7989 35.7322 19.2678C36.2011 19.7366 36.837 20 37.5 20H47.5" stroke="#0091EC" stroke-width="1.5" stroke-linecap="round" stroke-linejoin="round"/>
<path d="M12.5 20V12.5C12.5 11.1739 13.0268 9.90215 13.9645 8.96447C14.9021 8.02678 16.1739 7.5 17.5 7.5H35L47.5 20V47.5C47.5 48.8261 46.9732 50.0979 46.0355 51.0355C45.0979 51.9732 43.8261 52.5 42.5 52.5H30" stroke="#0091EC" stroke-width="1.5" stroke-linecap="round" stroke-linejoin="round"/>
<path d="M7.5 35C7.5 36.9891 8.29018 38.8968 9.6967 40.3033C11.1032 41.7098 13.0109 42.5 15 42.5C16.9891 42.5 18.8968 41.7098 20.3033 40.3033C21.7098 38.8968 22.5 36.9891 22.5 35C22.5 33.0109 21.7098 31.1032 20.3033 29.6967C18.8968 28.2902 16.9891 27.5 15 27.5C13.0109 27.5 11.1032 28.2902 9.6967 29.6967C8.29018 31.1032 7.5 33.0109 7.5 35Z" stroke="#0091EC" stroke-width="1.5" stroke-linecap="round" stroke-linejoin="round"/>
<path d="M11.25 42.5L7.5 55L15 51.25L22.5 55L18.75 42.5" stroke="#0091EC" stroke-width="1.5" stroke-linecap="round" stroke-linejoin="round"/>
</g>
<defs>
<clipPath id="clip0_906_14239">
<rect width="60" height="60" fill="white"/>
</clipPath>
</defs>
</svg>
