<svg width="60" height="60" viewBox="0 0 60 60" fill="none" xmlns="http://www.w3.org/2000/svg">
<g clip-path="url(#clip0_893_10053)">
<path d="M7.5 17.5C7.5 18.8261 8.02678 20.0979 8.96447 21.0355C9.90215 21.9732 11.1739 22.5 12.5 22.5C13.8261 22.5 15.0979 21.9732 16.0355 21.0355C16.9732 20.0979 17.5 18.8261 17.5 17.5C17.5 16.1739 16.9732 14.9021 16.0355 13.9645C15.0979 13.0268 13.8261 12.5 12.5 12.5C11.1739 12.5 9.90215 13.0268 8.96447 13.9645C8.02678 14.9021 7.5 16.1739 7.5 17.5Z" stroke="#0091EC" stroke-width="1.5" stroke-linecap="round" stroke-linejoin="round"/>
<path d="M35 37.5C35 38.8261 35.5268 40.0979 36.4645 41.0355C37.4021 41.9732 38.6739 42.5 40 42.5C41.3261 42.5 42.5979 41.9732 43.5355 41.0355C44.4732 40.0979 45 38.8261 45 37.5C45 36.1739 44.4732 34.9021 43.5355 33.9645C42.5979 33.0268 41.3261 32.5 40 32.5C38.6739 32.5 37.4021 33.0268 36.4645 33.9645C35.5268 34.9021 35 36.1739 35 37.5Z" stroke="#0091EC" stroke-width="1.5" stroke-linecap="round" stroke-linejoin="round"/>
<path d="M37.5 15C37.5 16.9891 38.2902 18.8968 39.6967 20.3033C41.1032 21.7098 43.0109 22.5 45 22.5C46.9891 22.5 48.8968 21.7098 50.3033 20.3033C51.7098 18.8968 52.5 16.9891 52.5 15C52.5 13.0109 51.7098 11.1032 50.3033 9.6967C48.8968 8.29018 46.9891 7.5 45 7.5C43.0109 7.5 41.1032 8.29018 39.6967 9.6967C38.2902 11.1032 37.5 13.0109 37.5 15Z" stroke="#0091EC" stroke-width="1.5" stroke-linecap="round" stroke-linejoin="round"/>
<path d="M7.5 45C7.5 46.9891 8.29018 48.8968 9.6967 50.3033C11.1032 51.7098 13.0109 52.5 15 52.5C16.9891 52.5 18.8968 51.7098 20.3033 50.3033C21.7098 48.8968 22.5 46.9891 22.5 45C22.5 43.0109 21.7098 41.1032 20.3033 39.6967C18.8968 38.2902 16.9891 37.5 15 37.5C13.0109 37.5 11.1032 38.2902 9.6967 39.6967C8.29018 41.1032 7.5 43.0109 7.5 45Z" stroke="#0091EC" stroke-width="1.5" stroke-linecap="round" stroke-linejoin="round"/>
<path d="M22.5 42.5L35 38.75" stroke="#0091EC" stroke-width="1.5" stroke-linecap="round" stroke-linejoin="round"/>
<path d="M16.25 21.25L35.775 34.675" stroke="#0091EC" stroke-width="1.5" stroke-linecap="round" stroke-linejoin="round"/>
<path d="M17.5 17.5L37.5 15" stroke="#0091EC" stroke-width="1.5" stroke-linecap="round" stroke-linejoin="round"/>
</g>
<defs>
<clipPath id="clip0_893_10053">
<rect width="60" height="60" fill="white"/>
</clipPath>
</defs>
</svg>
