<svg width="60" height="60" viewBox="0 0 60 60" fill="none" xmlns="http://www.w3.org/2000/svg">
<g clip-path="url(#clip0_699_11732)">
<path d="M24.9988 51.942C22.8228 51.4485 20.733 50.6319 18.7988 49.5195" stroke="#0091EC" stroke-width="1.5" stroke-linecap="round" stroke-linejoin="round"/>
<path d="M35 8.05469C39.9704 9.18987 44.4081 11.9789 47.5866 15.9652C50.7651 19.9515 52.4961 24.8988 52.4961 29.9972C52.4961 35.0956 50.7651 40.0429 47.5866 44.0292C44.4081 48.0155 39.9704 50.8045 35 51.9397" stroke="#0091EC" stroke-width="1.5" stroke-linecap="round" stroke-linejoin="round"/>
<path d="M11.4464 42.7339C10.0827 40.7526 9.04691 38.5646 8.37891 36.2539" stroke="#0091EC" stroke-width="1.5" stroke-linecap="round" stroke-linejoin="round"/>
<path d="M7.8125 26.2469C8.2125 23.8719 8.9825 21.6219 10.0625 19.5594L10.485 18.7969" stroke="#0091EC" stroke-width="1.5" stroke-linecap="round" stroke-linejoin="round"/>
<path d="M17.2656 11.4447C19.6048 9.83444 22.2289 8.68398 24.9981 8.05469" stroke="#0091EC" stroke-width="1.5" stroke-linecap="round" stroke-linejoin="round"/>
<path d="M22.5 30L27.5 35L37.5 25" stroke="#0091EC" stroke-width="1.5" stroke-linecap="round" stroke-linejoin="round"/>
</g>
<defs>
<clipPath id="clip0_699_11732">
<rect width="60" height="60" fill="white"/>
</clipPath>
</defs>
</svg>
