<svg width="60" height="60" viewBox="0 0 60 60" fill="none" xmlns="http://www.w3.org/2000/svg">
<g clip-path="url(#clip0_639_10421)">
<path d="M22.5 12.5H17.5C16.1739 12.5 14.9021 13.0268 13.9645 13.9645C13.0268 14.9021 12.5 16.1739 12.5 17.5V47.5C12.5 48.8261 13.0268 50.0979 13.9645 51.0355C14.9021 51.9732 16.1739 52.5 17.5 52.5H42.5C43.8261 52.5 45.0979 51.9732 46.0355 51.0355C46.9732 50.0979 47.5 48.8261 47.5 47.5V17.5C47.5 16.1739 46.9732 14.9021 46.0355 13.9645C45.0979 13.0268 43.8261 12.5 42.5 12.5H37.5" stroke="#0091EC" stroke-width="1.5" stroke-linecap="round" stroke-linejoin="round"/>
<path d="M22.5 12.5C22.5 11.1739 23.0268 9.90215 23.9645 8.96447C24.9021 8.02678 26.1739 7.5 27.5 7.5H32.5C33.8261 7.5 35.0979 8.02678 36.0355 8.96447C36.9732 9.90215 37.5 11.1739 37.5 12.5C37.5 13.8261 36.9732 15.0979 36.0355 16.0355C35.0979 16.9732 33.8261 17.5 32.5 17.5H27.5C26.1739 17.5 24.9021 16.9732 23.9645 16.0355C23.0268 15.0979 22.5 13.8261 22.5 12.5Z" stroke="#0091EC" stroke-width="1.5" stroke-linecap="round" stroke-linejoin="round"/>
</g>
<defs>
<clipPath id="clip0_639_10421">
<rect width="60" height="60" fill="white"/>
</clipPath>
</defs>
</svg>
