<svg width="60" height="60" viewBox="0 0 60 60" fill="none" xmlns="http://www.w3.org/2000/svg">
<g clip-path="url(#clip0_894_11446)">
<path d="M10 12.5C10 11.837 10.2634 11.2011 10.7322 10.7322C11.2011 10.2634 11.837 10 12.5 10H22.5C23.163 10 23.7989 10.2634 24.2678 10.7322C24.7366 11.2011 25 11.837 25 12.5V22.5C25 23.163 24.7366 23.7989 24.2678 24.2678C23.7989 24.7366 23.163 25 22.5 25H12.5C11.837 25 11.2011 24.7366 10.7322 24.2678C10.2634 23.7989 10 23.163 10 22.5V12.5Z" stroke="#0091EC" stroke-width="1.5" stroke-linecap="round" stroke-linejoin="round"/>
<path d="M35 12.5C35 11.837 35.2634 11.2011 35.7322 10.7322C36.2011 10.2634 36.837 10 37.5 10H47.5C48.163 10 48.7989 10.2634 49.2678 10.7322C49.7366 11.2011 50 11.837 50 12.5V22.5C50 23.163 49.7366 23.7989 49.2678 24.2678C48.7989 24.7366 48.163 25 47.5 25H37.5C36.837 25 36.2011 24.7366 35.7322 24.2678C35.2634 23.7989 35 23.163 35 22.5V12.5Z" stroke="#0091EC" stroke-width="1.5" stroke-linecap="round" stroke-linejoin="round"/>
<path d="M10 37.5C10 36.837 10.2634 36.2011 10.7322 35.7322C11.2011 35.2634 11.837 35 12.5 35H22.5C23.163 35 23.7989 35.2634 24.2678 35.7322C24.7366 36.2011 25 36.837 25 37.5V47.5C25 48.163 24.7366 48.7989 24.2678 49.2678C23.7989 49.7366 23.163 50 22.5 50H12.5C11.837 50 11.2011 49.7366 10.7322 49.2678C10.2634 48.7989 10 48.163 10 47.5V37.5Z" stroke="#0091EC" stroke-width="1.5" stroke-linecap="round" stroke-linejoin="round"/>
<path d="M35 42.5H50M42.5 35V50" stroke="#0091EC" stroke-width="1.5" stroke-linecap="round" stroke-linejoin="round"/>
</g>
<defs>
<clipPath id="clip0_894_11446">
<rect width="60" height="60" fill="white"/>
</clipPath>
</defs>
</svg>
