<svg width="60" height="60" viewBox="0 0 60 60" fill="none" xmlns="http://www.w3.org/2000/svg">
<g clip-path="url(#clip0_531_7381)">
<path d="M31.25 40H10C9.33696 40 8.70107 39.7366 8.23223 39.2678C7.76339 38.7989 7.5 38.163 7.5 37.5V12.5C7.5 11.837 7.76339 11.2011 8.23223 10.7322C8.70107 10.2634 9.33696 10 10 10H50C50.663 10 51.2989 10.2634 51.7678 10.7322C52.2366 11.2011 52.5 11.837 52.5 12.5V32.5" stroke="#0091EC" stroke-width="1.5" stroke-linecap="round" stroke-linejoin="round"/>
<path d="M17.5 50H27.5" stroke="#0091EC" stroke-width="1.5" stroke-linecap="round" stroke-linejoin="round"/>
<path d="M22.5 40V50" stroke="#0091EC" stroke-width="1.5" stroke-linecap="round" stroke-linejoin="round"/>
<path d="M50 52.5L55 47.5L50 42.5" stroke="#0091EC" stroke-width="1.5" stroke-linecap="round" stroke-linejoin="round"/>
<path d="M42.5 42.5L37.5 47.5L42.5 52.5" stroke="#0091EC" stroke-width="1.5" stroke-linecap="round" stroke-linejoin="round"/>
</g>
<defs>
<clipPath id="clip0_531_7381">
<rect width="60" height="60" fill="white"/>
</clipPath>
</defs>
</svg>
