<svg width="48" height="48" viewBox="0 0 48 48" fill="none" xmlns="http://www.w3.org/2000/svg">
<rect width="48" height="48" fill="white"/>
<path d="M8.07993 24.9003C8.02912 24.9465 8 25.013 8 25.0829V33.2395C8 33.446 8.23358 33.5586 8.38695 33.426L25.1079 18.9684C25.2613 18.8358 25.4949 18.9483 25.4949 19.1548V25.0392C25.4949 25.2462 25.7295 25.3586 25.8827 25.2249L33.7965 18.3179C33.8125 18.3039 33.8218 18.2833 33.8218 18.2616V9.24325C33.8218 9.10891 33.7163 9 33.5861 9L25.6649 9C25.6075 9 25.5522 9.02157 25.5091 9.06067L8.07993 24.9003Z" fill="#1FA8FF"/>
<path d="M18.5166 27.0845C18.4605 27.0845 18.4062 27.1052 18.3635 27.1428L11.3453 33.3324C11.1788 33.4792 11.2794 33.7606 11.4983 33.7606H25.2593C25.3894 33.7606 25.4949 33.8695 25.4949 34.0038V38.7568C25.4949 38.8911 25.6004 39 25.7305 39H33.7544C33.8845 39 33.99 38.8911 33.99 38.7568V33.871C33.99 33.8008 34.0194 33.7341 34.0706 33.6879L40.9189 27.5109C41.0828 27.3631 40.9816 27.0845 40.7639 27.0845H18.5166Z" fill="#1FA8FF"/>
</svg>
