<svg width="60" height="60" viewBox="0 0 60 60" fill="none" xmlns="http://www.w3.org/2000/svg">
<g clip-path="url(#clip0_906_14263)">
<path d="M25 35C25 36.3261 25.5268 37.5979 26.4645 38.5355C27.4021 39.4732 28.6739 40 30 40C31.3261 40 32.5979 39.4732 33.5355 38.5355C34.4732 37.5979 35 36.3261 35 35C35 33.6739 34.4732 32.4021 33.5355 31.4645C32.5979 30.5268 31.3261 30 30 30C28.6739 30 27.4021 30.5268 26.4645 31.4645C25.5268 32.4021 25 33.6739 25 35Z" stroke="#0091EC" stroke-width="1.5" stroke-linecap="round" stroke-linejoin="round"/>
<path d="M30 26.25V30" stroke="#0091EC" stroke-width="1.5" stroke-linecap="round" stroke-linejoin="round"/>
<path d="M30 40V43.75" stroke="#0091EC" stroke-width="1.5" stroke-linecap="round" stroke-linejoin="round"/>
<path d="M37.5737 30.625L34.3262 32.5" stroke="#0091EC" stroke-width="1.5" stroke-linecap="round" stroke-linejoin="round"/>
<path d="M25.6719 37.5L22.4219 39.375" stroke="#0091EC" stroke-width="1.5" stroke-linecap="round" stroke-linejoin="round"/>
<path d="M37.4996 39.5087L34.2871 37.5762" stroke="#0091EC" stroke-width="1.5" stroke-linecap="round" stroke-linejoin="round"/>
<path d="M25.7125 32.4247L22.5 30.4922" stroke="#0091EC" stroke-width="1.5" stroke-linecap="round" stroke-linejoin="round"/>
<path d="M35 7.5V17.5C35 18.163 35.2634 18.7989 35.7322 19.2678C36.2011 19.7366 36.837 20 37.5 20H47.5" stroke="#0091EC" stroke-width="1.5" stroke-linecap="round" stroke-linejoin="round"/>
<path d="M42.5 52.5H17.5C16.1739 52.5 14.9021 51.9732 13.9645 51.0355C13.0268 50.0979 12.5 48.8261 12.5 47.5V12.5C12.5 11.1739 13.0268 9.90215 13.9645 8.96447C14.9021 8.02678 16.1739 7.5 17.5 7.5H35L47.5 20V47.5C47.5 48.8261 46.9732 50.0979 46.0355 51.0355C45.0979 51.9732 43.8261 52.5 42.5 52.5Z" stroke="#0091EC" stroke-width="1.5" stroke-linecap="round" stroke-linejoin="round"/>
</g>
<defs>
<clipPath id="clip0_906_14263">
<rect width="60" height="60" fill="white"/>
</clipPath>
</defs>
</svg>
