<svg width="60" height="60" viewBox="0 0 60 60" fill="none" xmlns="http://www.w3.org/2000/svg">
<g clip-path="url(#clip0_895_12629)">
<path d="M30 30C35 22.6 30 12.5 27.5 10C27.5 17.595 23.0675 21.8525 20 25C16.935 28.15 15 33.1 15 37.5C15 41.4782 16.5804 45.2936 19.3934 48.1066C22.2064 50.9196 26.0218 52.5 30 52.5C33.9782 52.5 37.7936 50.9196 40.6066 48.1066C43.4196 45.2936 45 41.4782 45 37.5C45 33.67 42.36 27.65 40 25C35.535 32.5 33.0225 32.5 30 30Z" stroke="#0091EC" stroke-width="1.5" stroke-linecap="round" stroke-linejoin="round"/>
</g>
<defs>
<clipPath id="clip0_895_12629">
<rect width="60" height="60" fill="white"/>
</clipPath>
</defs>
</svg>
