<svg width="60" height="60" viewBox="0 0 60 60" fill="none" xmlns="http://www.w3.org/2000/svg">
<g clip-path="url(#clip0_890_14461)">
<path d="M22.5 10H30L35 15H47.5C48.8261 15 50.0979 15.5268 51.0355 16.4645C51.9732 17.4021 52.5 18.6739 52.5 20V37.5C52.5 38.8261 51.9732 40.0979 51.0355 41.0355C50.0979 41.9732 48.8261 42.5 47.5 42.5H22.5C21.1739 42.5 19.9021 41.9732 18.9645 41.0355C18.0268 40.0979 17.5 38.8261 17.5 37.5V15C17.5 13.6739 18.0268 12.4021 18.9645 11.4645C19.9021 10.5268 21.1739 10 22.5 10Z" stroke="#0091EC" stroke-width="1.5" stroke-linecap="round" stroke-linejoin="round"/>
<path d="M42.5 42.5V47.5C42.5 48.8261 41.9732 50.0979 41.0355 51.0355C40.0979 51.9732 38.8261 52.5 37.5 52.5H12.5C11.1739 52.5 9.90215 51.9732 8.96447 51.0355C8.02678 50.0979 7.5 48.8261 7.5 47.5V25C7.5 23.6739 8.02678 22.4021 8.96447 21.4645C9.90215 20.5268 11.1739 20 12.5 20H17.5" stroke="#0091EC" stroke-width="1.5" stroke-linecap="round" stroke-linejoin="round"/>
</g>
<defs>
<clipPath id="clip0_890_14461">
<rect width="60" height="60" fill="white"/>
</clipPath>
</defs>
</svg>
