<svg width="60" height="60" viewBox="0 0 60 60" fill="none" xmlns="http://www.w3.org/2000/svg">
<g clip-path="url(#clip0_913_9927)">
<path d="M25 45C25 46.3261 25.5268 47.5979 26.4645 48.5355C27.4021 49.4732 28.6739 50 30 50C31.3261 50 32.5979 49.4732 33.5355 48.5355C34.4732 47.5979 35 46.3261 35 45C35 43.6739 34.4732 42.4021 33.5355 41.4645C32.5979 40.5268 31.3261 40 30 40C28.6739 40 27.4021 40.5268 26.4645 41.4645C25.5268 42.4021 25 43.6739 25 45Z" stroke="#0091EC" stroke-width="1.5" stroke-linecap="round" stroke-linejoin="round"/>
<path d="M12.5 15C12.5 16.3261 13.0268 17.5979 13.9645 18.5355C14.9021 19.4732 16.1739 20 17.5 20C18.8261 20 20.0979 19.4732 21.0355 18.5355C21.9732 17.5979 22.5 16.3261 22.5 15C22.5 13.6739 21.9732 12.4021 21.0355 11.4645C20.0979 10.5268 18.8261 10 17.5 10C16.1739 10 14.9021 10.5268 13.9645 11.4645C13.0268 12.4021 12.5 13.6739 12.5 15Z" stroke="#0091EC" stroke-width="1.5" stroke-linecap="round" stroke-linejoin="round"/>
<path d="M37.5 15C37.5 16.3261 38.0268 17.5979 38.9645 18.5355C39.9021 19.4732 41.1739 20 42.5 20C43.8261 20 45.0979 19.4732 46.0355 18.5355C46.9732 17.5979 47.5 16.3261 47.5 15C47.5 13.6739 46.9732 12.4021 46.0355 11.4645C45.0979 10.5268 43.8261 10 42.5 10C41.1739 10 39.9021 10.5268 38.9645 11.4645C38.0268 12.4021 37.5 13.6739 37.5 15Z" stroke="#0091EC" stroke-width="1.5" stroke-linecap="round" stroke-linejoin="round"/>
<path d="M17.5 20V25C17.5 26.3261 18.0268 27.5979 18.9645 28.5355C19.9021 29.4732 21.1739 30 22.5 30H37.5C38.8261 30 40.0979 29.4732 41.0355 28.5355C41.9732 27.5979 42.5 26.3261 42.5 25V20" stroke="#0091EC" stroke-width="1.5" stroke-linecap="round" stroke-linejoin="round"/>
<path d="M30 30V40" stroke="#0091EC" stroke-width="1.5" stroke-linecap="round" stroke-linejoin="round"/>
</g>
<defs>
<clipPath id="clip0_913_9927">
<rect width="60" height="60" fill="white"/>
</clipPath>
</defs>
</svg>
