<svg width="60" height="60" viewBox="0 0 60 60" fill="none" xmlns="http://www.w3.org/2000/svg">
<g clip-path="url(#clip0_699_11757)">
<path d="M7.5 47.5H52.5" stroke="#0091EC" stroke-width="1.5" stroke-linecap="round" stroke-linejoin="round"/>
<path d="M12.5 17.5C12.5 16.837 12.7634 16.2011 13.2322 15.7322C13.7011 15.2634 14.337 15 15 15H45C45.663 15 46.2989 15.2634 46.7678 15.7322C47.2366 16.2011 47.5 16.837 47.5 17.5V37.5C47.5 38.163 47.2366 38.7989 46.7678 39.2678C46.2989 39.7366 45.663 40 45 40H15C14.337 40 13.7011 39.7366 13.2322 39.2678C12.7634 38.7989 12.5 38.163 12.5 37.5V17.5Z" stroke="#0091EC" stroke-width="1.5" stroke-linecap="round" stroke-linejoin="round"/>
</g>
<defs>
<clipPath id="clip0_699_11757">
<rect width="60" height="60" fill="white"/>
</clipPath>
</defs>
</svg>
