<svg width="60" height="60" viewBox="0 0 60 60" fill="none" xmlns="http://www.w3.org/2000/svg">
<g clip-path="url(#clip0_583_9405)">
<path d="M37.5 52.5H15C13.0109 52.5 11.1032 51.7098 9.6967 50.3033C8.29018 48.8968 7.5 46.9891 7.5 45V42.5H32.5V47.5C32.5 48.8261 33.0268 50.0979 33.9645 51.0355C34.9021 51.9732 36.1739 52.5 37.5 52.5ZM37.5 52.5C38.8261 52.5 40.0979 51.9732 41.0355 51.0355C41.9732 50.0979 42.5 48.8261 42.5 47.5V12.5C42.5 11.5111 42.7932 10.5444 43.3427 9.72215C43.8921 8.89991 44.673 8.25904 45.5866 7.8806C46.5002 7.50217 47.5055 7.40315 48.4755 7.59608C49.4454 7.789 50.3363 8.26521 51.0355 8.96447C51.7348 9.66373 52.211 10.5546 52.4039 11.5246C52.5969 12.4945 52.4978 13.4998 52.1194 14.4134C51.741 15.3271 51.1001 16.1079 50.2779 16.6574C49.4556 17.2068 48.4889 17.5 47.5 17.5H42.5M47.5 7.5H20C18.0109 7.5 16.1032 8.29018 14.6967 9.6967C13.2902 11.1032 12.5 13.0109 12.5 15V42.5" stroke="#0091EC" stroke-width="1.5" stroke-linecap="round" stroke-linejoin="round"/>
<path d="M22.5 17.5H32.5" stroke="#0091EC" stroke-width="1.5" stroke-linecap="round" stroke-linejoin="round"/>
<path d="M22.5 27.5H32.5" stroke="#0091EC" stroke-width="1.5" stroke-linecap="round" stroke-linejoin="round"/>
</g>
<defs>
<clipPath id="clip0_583_9405">
<rect width="60" height="60" fill="white"/>
</clipPath>
</defs>
</svg>
