<svg width="16" height="16" viewBox="0 0 16 16" fill="none" xmlns="http://www.w3.org/2000/svg">
<path d="M0 2.66667C0 1.19391 1.21732 0 2.71895 0H13.281C14.7827 0 16 1.19391 16 2.66667V13.3333C16 14.8061 14.7827 16 13.281 16H2.71896C1.21732 16 0 14.8061 0 13.3333V2.66667Z" fill="#0077B5"/>
<path d="M11.2625 13.7508H13.6718V8.98499C13.6718 6.63129 12.219 5.8285 10.8746 5.8285C9.63153 5.8285 8.78706 6.63835 8.55391 7.11274V6.04508H6.23686V13.7508H8.64617V9.57299C8.64617 8.45906 9.34696 7.91733 10.0619 7.91733C10.7381 7.91733 11.2625 8.30029 11.2625 9.54207V13.7508Z" fill="white"/>
<path d="M2.19581 3.57912C2.19581 4.38359 2.8177 4.97148 3.58482 4.97148C4.35205 4.97148 4.97394 4.38359 4.97394 3.57912C4.97394 2.77476 4.35205 2.1862 3.58482 2.1862C2.8177 2.1862 2.19581 2.77476 2.19581 3.57912Z" fill="white"/>
<path d="M2.38022 13.7448H4.78942V6.03914H2.38022V13.7448Z" fill="white"/>
</svg>
