<svg width="60" height="60" viewBox="0 0 60 60" fill="none" xmlns="http://www.w3.org/2000/svg">
<g clip-path="url(#clip0_699_11741)">
<path d="M25.8125 10.7925C26.8775 6.4025 33.1225 6.4025 34.1875 10.7925C34.3473 11.452 34.6606 12.0644 35.1018 12.58C35.543 13.0956 36.0997 13.4996 36.7266 13.7594C37.3535 14.0191 38.0329 14.1271 38.7095 14.0747C39.386 14.0222 40.0406 13.8108 40.62 13.4575C44.4775 11.1075 48.895 15.5225 46.545 19.3825C46.1922 19.9616 45.9811 20.6158 45.9288 21.2919C45.8765 21.968 45.9844 22.6469 46.2438 23.2734C46.5032 23.9 46.9068 24.4564 47.4218 24.8976C47.9368 25.3388 48.5486 25.6523 49.2075 25.8125C53.5975 26.8775 53.5975 33.1225 49.2075 34.1875C48.548 34.3473 47.9356 34.6606 47.42 35.1018C46.9044 35.543 46.5004 36.0997 46.2406 36.7266C45.9809 37.3535 45.8729 38.0329 45.9253 38.7095C45.9778 39.386 46.1892 40.0406 46.5425 40.62C48.8925 44.4775 44.4775 48.895 40.6175 46.545C40.0384 46.1922 39.3842 45.9811 38.7081 45.9288C38.032 45.8765 37.3531 45.9844 36.7266 46.2438C36.1 46.5032 35.5436 46.9068 35.1024 47.4218C34.6612 47.9368 34.3477 48.5486 34.1875 49.2075C33.1225 53.5975 26.8775 53.5975 25.8125 49.2075C25.6527 48.548 25.3394 47.9356 24.8982 47.42C24.457 46.9044 23.9003 46.5004 23.2734 46.2406C22.6465 45.9809 21.9671 45.8729 21.2905 45.9253C20.614 45.9778 19.9594 46.1892 19.38 46.5425C15.5225 48.8925 11.105 44.4775 13.455 40.6175C13.8078 40.0384 14.0189 39.3842 14.0712 38.7081C14.1235 38.032 14.0156 37.3531 13.7562 36.7266C13.4968 36.1 13.0932 35.5436 12.5782 35.1024C12.0632 34.6612 11.4514 34.3477 10.7925 34.1875C6.4025 33.1225 6.4025 26.8775 10.7925 25.8125C11.452 25.6527 12.0644 25.3394 12.58 24.8982C13.0956 24.457 13.4996 23.9003 13.7594 23.2734C14.0191 22.6465 14.1271 21.9671 14.0747 21.2905C14.0222 20.614 13.8108 19.9594 13.4575 19.38C11.1075 15.5225 15.5225 11.105 19.3825 13.455C21.8825 14.975 25.1225 13.63 25.8125 10.7925Z" stroke="#0091EC" stroke-width="1.5" stroke-linecap="round" stroke-linejoin="round"/>
<path d="M22.5 30C22.5 31.9891 23.2902 33.8968 24.6967 35.3033C26.1032 36.7098 28.0109 37.5 30 37.5C31.9891 37.5 33.8968 36.7098 35.3033 35.3033C36.7098 33.8968 37.5 31.9891 37.5 30C37.5 28.0109 36.7098 26.1032 35.3033 24.6967C33.8968 23.2902 31.9891 22.5 30 22.5C28.0109 22.5 26.1032 23.2902 24.6967 24.6967C23.2902 26.1032 22.5 28.0109 22.5 30Z" stroke="#0091EC" stroke-width="1.5" stroke-linecap="round" stroke-linejoin="round"/>
</g>
<defs>
<clipPath id="clip0_699_11741">
<rect width="60" height="60" fill="white"/>
</clipPath>
</defs>
</svg>
