<svg width="60" height="60" viewBox="0 0 60 60" fill="none" xmlns="http://www.w3.org/2000/svg">
<g clip-path="url(#clip0_909_8959)">
<path d="M12.5012 18.0012C12.5012 16.5425 13.0806 15.1435 14.1121 14.1121C15.1435 13.0806 16.5425 12.5012 18.0012 12.5012H20.5012C21.9534 12.5003 23.3464 11.9252 24.3762 10.9012L26.1262 9.15115C26.6373 8.63715 27.245 8.22926 27.9143 7.95092C28.5836 7.67258 29.3013 7.5293 30.0262 7.5293C30.751 7.5293 31.4687 7.67258 32.138 7.95092C32.8074 8.22926 33.415 8.63715 33.9262 9.15115L35.6762 10.9012C36.7062 11.9262 38.1012 12.5012 39.5512 12.5012H42.0512C43.5098 12.5012 44.9088 13.0806 45.9402 14.1121C46.9717 15.1435 47.5512 16.5425 47.5512 18.0012V20.5012C47.5512 21.9512 48.1262 23.3462 49.1512 24.3762L50.9012 26.1262C51.4152 26.6373 51.823 27.245 52.1014 27.9143C52.3797 28.5836 52.523 29.3013 52.523 30.0262C52.523 30.751 52.3797 31.4687 52.1014 32.138C51.823 32.8074 51.4152 33.415 50.9012 33.9262L49.1512 35.6762C48.1271 36.7059 47.552 38.0989 47.5512 39.5512V42.0512C47.5512 43.5098 46.9717 44.9088 45.9402 45.9402C44.9088 46.9717 43.5098 47.5512 42.0512 47.5512H39.5512C38.0989 47.552 36.7059 48.1271 35.6762 49.1512L33.9262 50.9012C33.415 51.4152 32.8074 51.823 32.138 52.1014C31.4687 52.3797 30.751 52.523 30.0262 52.523C29.3013 52.523 28.5836 52.3797 27.9143 52.1014C27.245 51.823 26.6373 51.4152 26.1262 50.9012L24.3762 49.1512C23.3464 48.1271 21.9534 47.552 20.5012 47.5512H18.0012C16.5425 47.5512 15.1435 46.9717 14.1121 45.9402C13.0806 44.9088 12.5012 43.5098 12.5012 42.0512V39.5512C12.5003 38.0989 11.9252 36.7059 10.9012 35.6762L9.15115 33.9262C8.63715 33.415 8.22926 32.8074 7.95092 32.138C7.67258 31.4687 7.5293 30.751 7.5293 30.0262C7.5293 29.3013 7.67258 28.5836 7.95092 27.9143C8.22926 27.245 8.63715 26.6373 9.15115 26.1262L10.9012 24.3762C11.9252 23.3464 12.5003 21.9534 12.5012 20.5012V18.0012Z" stroke="#0091EC" stroke-width="1.5" stroke-linecap="round" stroke-linejoin="round"/>
<path d="M22.5 30L27.5 35L37.5 25" stroke="#0091EC" stroke-width="1.5" stroke-linecap="round" stroke-linejoin="round"/>
</g>
<defs>
<clipPath id="clip0_909_8959">
<rect width="60" height="60" fill="white"/>
</clipPath>
</defs>
</svg>
