<svg width="233" height="42" viewBox="0 0 233 42" fill="none" xmlns="http://www.w3.org/2000/svg">
<path d="M16.9468 41.7579C13.2732 40.9983 9.84526 39.3039 7.15418 36.9175C0.245554 30.7909 -1.88959 21.1665 1.76009 12.6029C2.65635 10.4999 4.11344 8.36562 5.91881 6.51146L7.51046 4.87679L7.62272 14.4444C7.73017 23.6024 7.75439 24.0637 8.18825 25.2177C9.05621 27.5265 9.98672 28.9964 11.5886 30.5893C15.7265 34.704 21.7961 35.7309 26.9557 33.1893C31.8054 30.8003 34.8629 25.6057 34.5076 20.3587C34.2689 16.8343 33.0818 14.2498 30.5189 11.6748C28.581 9.72768 26.3009 8.45582 23.8186 7.93722C21.293 7.40959 21.4142 7.33249 21.4142 9.46699V11.3098L22.7988 11.5645C28.161 12.551 31.7074 17.8086 30.5897 23.1145C30.2327 24.8092 29.4365 26.3056 28.1584 27.6841C26.2159 29.779 23.4831 30.7803 21.0969 30.7757C17.1512 30.7681 13.8566 28.5294 12.2597 25.2188C12.2597 25.2188 11.8414 24.2725 11.707 23.6877C10.9164 20.2489 11.4217 13.0098 11.4217 13.0098L11.3605 2.42512L11.9863 2.102C12.3305 1.92428 12.6606 1.77887 12.7199 1.77887C12.7792 1.77887 12.8544 6.64043 12.8871 12.5823C12.8871 12.5823 12.1271 20.3713 13.0663 23.3562C13.2018 23.7869 13.459 24.5235 13.459 24.5235C14.2822 26.1981 15.6017 27.6712 17.316 28.4821C18.6174 29.0976 19.2726 29.3761 21.1979 29.3761C22.4558 29.3761 23.5702 28.9796 24.8525 28.3908C26.3641 27.6966 28.0981 25.8562 28.7389 24.1758C30.5043 19.5462 28.046 14.5652 23.3102 13.1763C21.3748 12.6087 21.4142 12.5774 21.4142 14.6788V16.5144L22.3433 16.7625C25.6922 17.6568 26.714 22.1388 24.085 24.4417C23.1562 25.2553 22.3192 25.615 20.8551 25.615C19.2907 25.615 17.789 24.6695 17.017 23.2194C16.5532 22.3482 16.5141 21.522 16.5141 21.1435C16.5141 17.6479 16.4382 11.361 16.4382 11.361L16.3756 0.576757L16.8564 0.457522C17.1208 0.391941 18.1896 0.22967 19.2314 0.0969183C22.7648 -0.353301 27.9923 0.801285 31.5042 2.80759C36.2921 5.54288 39.9149 10.2417 41.4233 15.6728C41.9422 17.541 42 18.0842 42 21.0894C42 24.0812 41.9409 24.6424 41.433 26.4697C39.3814 33.8512 34.1627 39.128 26.7006 41.3659C25.1301 41.8369 24.3944 41.9267 21.6233 41.9857C19.387 42.0334 17.9376 41.9627 16.9468 41.7579Z" fill="#C60C30"/>
<path d="M68.8132 9.68182V31.5H64.8608V13.5277H64.733L59.63 16.7876V13.1655L65.0526 9.68182H68.8132ZM93.2415 17.0433H89.2571C89.1435 16.3899 88.9339 15.8111 88.6286 15.3068C88.3232 14.7955 87.9432 14.3622 87.4886 14.0071C87.0341 13.652 86.5156 13.3857 85.9332 13.2081C85.358 13.0234 84.7365 12.9311 84.0689 12.9311C82.8828 12.9311 81.8317 13.2294 80.9155 13.826C79.9993 14.4155 79.282 15.282 78.7635 16.4254C78.245 17.5618 77.9858 18.9503 77.9858 20.5909C77.9858 22.2599 78.245 23.6662 78.7635 24.8097C79.2891 25.946 80.0064 26.8054 80.9155 27.3878C81.8317 27.9631 82.8793 28.2507 84.0582 28.2507C84.7116 28.2507 85.3224 28.1655 85.8906 27.995C86.4659 27.8175 86.9808 27.5582 87.4354 27.2173C87.897 26.8764 88.2841 26.4574 88.5966 25.9602C88.9162 25.4631 89.1364 24.8949 89.2571 24.2557L93.2415 24.277C93.0923 25.3139 92.7692 26.2869 92.272 27.196C91.782 28.1051 91.1392 28.9077 90.3438 29.6037C89.5483 30.2926 88.6179 30.8324 87.5526 31.223C86.4872 31.6065 85.3047 31.7983 84.005 31.7983C82.0874 31.7983 80.3757 31.3544 78.87 30.4666C77.3643 29.5788 76.1783 28.2969 75.3118 26.6207C74.4453 24.9446 74.0121 22.9347 74.0121 20.5909C74.0121 18.2401 74.4489 16.2301 75.3224 14.5611C76.196 12.8849 77.3857 11.603 78.8913 10.7152C80.397 9.82741 82.1016 9.38352 84.005 9.38352C85.2195 9.38352 86.3487 9.55398 87.3928 9.89489C88.4368 10.2358 89.3672 10.7365 90.1839 11.397C91.0007 12.0504 91.6719 12.853 92.1974 13.8047C92.7301 14.7493 93.0781 15.8288 93.2415 17.0433ZM106.609 19.0036V22.1783H96.7864V19.0036H106.609ZM110.836 31.5V9.68182H124.866V12.995H114.788V18.1087H118.996C120.665 18.1087 122.096 18.3821 123.289 18.929C124.49 19.4687 125.409 20.2322 126.049 21.2195C126.688 22.2067 127.007 23.3679 127.007 24.7031C127.007 26.0455 126.688 27.228 126.049 28.2507C125.409 29.2663 124.49 30.0618 123.289 30.6371C122.096 31.2124 120.665 31.5 118.996 31.5H110.836ZM114.788 28.2614H118.996C119.877 28.2614 120.623 28.0945 121.233 27.7607C121.844 27.4268 122.306 26.9865 122.618 26.4396C122.938 25.8928 123.098 25.2997 123.098 24.6605C123.098 23.7372 122.743 22.9524 122.032 22.3061C121.329 21.6527 120.317 21.326 118.996 21.326H114.788V28.2614ZM134.012 26.2798L140.564 15.1364H144.527V31.5H140.798V20.3459L134.268 31.5H130.294V15.1364H134.012V26.2798ZM146.655 18.3004V15.1364H160.973V18.3004H155.678V31.5H151.95V18.3004H146.655ZM164.044 37.6364V15.1364H167.837V17.8423H168.06C168.259 17.4446 168.54 17.022 168.902 16.5746C169.264 16.12 169.754 15.733 170.372 15.4134C170.99 15.0866 171.778 14.9233 172.737 14.9233C174.001 14.9233 175.141 15.2464 176.157 15.8928C177.18 16.532 177.989 17.4801 178.586 18.7372C179.19 19.9872 179.491 21.5213 179.491 23.3395C179.491 25.1364 179.197 26.6634 178.607 27.9205C178.018 29.1776 177.215 30.1364 176.2 30.7969C175.184 31.4574 174.033 31.7876 172.748 31.7876C171.81 31.7876 171.033 31.6314 170.415 31.3189C169.797 31.0064 169.3 30.63 168.923 30.1896C168.554 29.7422 168.266 29.3196 168.06 28.9219H167.901V37.6364H164.044ZM167.826 23.3182C167.826 24.3764 167.975 25.3033 168.273 26.0987C168.579 26.8942 169.016 27.5156 169.584 27.9631C170.159 28.4034 170.855 28.6236 171.672 28.6236C172.524 28.6236 173.238 28.3963 173.813 27.9418C174.388 27.4801 174.822 26.8516 175.113 26.0561C175.411 25.2536 175.56 24.3409 175.56 23.3182C175.56 22.3026 175.415 21.4006 175.124 20.6122C174.832 19.8239 174.399 19.206 173.824 18.7585C173.249 18.3111 172.531 18.0874 171.672 18.0874C170.848 18.0874 170.148 18.304 169.573 18.7372C168.998 19.1705 168.561 19.7777 168.263 20.5589C167.972 21.3402 167.826 22.2599 167.826 23.3182ZM186.512 26.2798L193.064 15.1364H197.027V31.5H193.298V20.3459L186.768 31.5H182.794V15.1364H186.512V26.2798ZM200.987 31.5V15.1364H204.844V21.7415H206.25L211.172 15.1364H215.817L209.755 23.169L215.881 31.5H211.215L206.73 25.3317H204.844V31.5H200.987ZM224.531 31.8196C222.898 31.8196 221.495 31.4609 220.323 30.7436C219.159 30.0263 218.26 29.0355 217.628 27.7713C217.003 26.5 216.691 25.0369 216.691 23.3821C216.691 21.7202 217.01 20.2536 217.649 18.9822C218.289 17.7038 219.191 16.7095 220.355 15.9993C221.527 15.282 222.912 14.9233 224.51 14.9233C225.838 14.9233 227.014 15.1683 228.036 15.6584C229.066 16.1413 229.887 16.8267 230.497 17.7145C231.108 18.5952 231.456 19.625 231.541 20.804H227.855C227.706 20.0156 227.351 19.3587 226.79 18.8331C226.236 18.3004 225.494 18.0341 224.563 18.0341C223.775 18.0341 223.083 18.2472 222.486 18.6733C221.889 19.0923 221.424 19.696 221.09 20.4844C220.764 21.2727 220.6 22.2173 220.6 23.3182C220.6 24.4332 220.764 25.392 221.09 26.1946C221.417 26.9901 221.875 27.6044 222.465 28.0376C223.061 28.4638 223.761 28.6768 224.563 28.6768C225.132 28.6768 225.639 28.5703 226.087 28.3572C226.541 28.1371 226.921 27.821 227.227 27.4091C227.532 26.9972 227.742 26.4964 227.855 25.907H231.541C231.449 27.0646 231.108 28.0909 230.519 28.9858C229.929 29.8736 229.127 30.5696 228.111 31.0739C227.095 31.571 225.902 31.8196 224.531 31.8196Z" fill="#1A1A1E"/>
</svg>
