<svg width="177" height="35" viewBox="0 0 177 35" fill="none" xmlns="http://www.w3.org/2000/svg">
<path d="M137.779 25.522H156.08V21.6033H144.018C145.682 15.1725 155.872 13.7658 155.872 6.63171C155.872 2.81345 153.169 0 147.45 0C143.914 0 140.795 1.0048 138.715 2.00961L139.963 5.6269C141.835 4.72258 144.018 3.91874 146.722 3.91874C148.802 3.91874 150.777 4.82306 150.777 7.13411C150.777 12.3591 138.819 12.761 137.779 25.522ZM156.6 19.2922H168.351V25.522H173.03V19.2922H176.981V15.474H173.03V0H169.598L156.6 16.2778V19.2922ZM161.904 15.6749L168.558 7.03363C168.558 7.73699 168.351 9.94756 168.351 11.9572V15.5745H165.231C164.295 15.5745 162.527 15.6749 161.904 15.6749Z" fill="#005893"/>
<path d="M4.88724 21.7049V13.7669H6.86293C8.63065 13.7669 10.0864 13.9679 11.1263 14.5707C12.1661 15.1736 12.79 16.1784 12.79 17.7861C12.79 20.4991 11.1263 21.7049 7.17488 21.7049H4.88724ZM0.103984 25.5231H7.0709C14.8697 25.5231 17.6772 22.2073 17.6772 17.5852C17.6772 14.4703 16.3255 12.3602 13.9338 11.1544C12.0621 10.1496 9.67049 9.84816 6.75895 9.84816H4.88724V3.81934H15.3896L16.6374 0.101562H0V25.5231H0.103984ZM20.9007 25.5231H25.476L31.4031 17.2837C32.5469 15.7765 33.3788 14.2693 33.8987 13.4655H34.0027C33.8987 14.5707 33.7947 15.9775 33.7947 17.3842V25.4226H38.474V7.33615H33.8987L27.9716 15.5755C26.9318 17.0828 25.9959 18.59 25.476 19.3938H25.372C25.476 18.2885 25.58 16.8818 25.58 15.4751V7.43663H20.9007V25.5231ZM46.4807 25.5231H51.264V11.1544H56.8791L58.1269 7.33615H40.7616V11.1544H46.4807V25.5231ZM59.7907 34.6668H64.4699V25.5231C65.4058 25.8246 66.3416 25.925 67.3815 25.925C73.3086 25.925 77.156 22.0063 77.156 16.3794C77.156 10.5515 73.6205 6.83375 66.8616 6.83375C64.262 6.83375 61.7664 7.33615 59.6867 7.93904V34.6668H59.7907ZM64.4699 21.6044V10.9534C65.1978 10.7525 65.8217 10.652 66.6536 10.652C70.0851 10.652 72.2687 12.4607 72.2687 16.3794C72.2687 19.8962 70.501 22.1068 66.9656 22.1068C66.0297 22.1068 65.3018 21.9058 64.4699 21.6044ZM79.9635 25.5231H84.5388L90.4659 17.2837C91.6097 15.7765 92.4416 14.2693 92.9615 13.4655H93.0655C92.9615 14.5707 92.8575 15.9775 92.8575 17.3842V25.4226H97.5368V7.33615H92.9615L87.0344 15.5755C85.9946 17.0828 85.0587 18.59 84.5388 19.3938H84.4348C84.5388 18.2885 84.6428 16.8818 84.6428 15.4751V7.43663H79.9635V25.5231ZM101.28 25.5231H106.063V17.9871H108.871C109.391 17.9871 109.911 18.4895 110.535 19.6952L112.926 25.5231H118.022L114.59 18.59C113.966 17.3842 113.342 16.6808 112.406 16.3794V16.2789C113.966 15.3746 114.174 12.7621 115.11 11.4559C115.422 11.0539 115.838 10.853 116.462 10.853C116.774 10.853 117.19 10.853 117.502 11.0539V7.13519C116.982 6.93423 116.046 6.83375 115.526 6.83375C113.862 6.83375 112.822 7.43663 112.095 8.44144C110.535 10.652 110.535 14.4703 108.247 14.4703H106.063V7.33615H101.28V25.5231ZM128.628 25.925C131.228 25.925 133.619 25.1212 135.075 24.1164L133.723 21.0015C132.371 21.7049 131.124 22.2073 129.356 22.2073C126.132 22.2073 124.053 20.1976 124.053 16.4799C124.053 13.164 126.132 10.5515 129.668 10.5515C131.539 10.5515 132.891 11.0539 134.243 11.9583V8.03952C133.203 7.43663 131.539 6.83375 129.148 6.83375C123.533 6.83375 119.165 10.853 119.165 16.5804C119.165 21.8053 122.493 25.925 128.628 25.925Z" fill="#0BBBEF"/>
</svg>
