<svg width="321" height="197" viewBox="0 0 321 197" fill="none" xmlns="http://www.w3.org/2000/svg">
<path fill-rule="evenodd" clip-rule="evenodd" d="M199.37 0.479079C190.217 1.84535 181.611 5.20644 174.014 10.3811C171.816 11.8783 170.018 13.1903 170.018 13.2962C170.018 13.4027 171.724 12.6538 173.81 11.6329C178.216 9.47528 178.373 9.4422 178.373 10.6768C178.373 11.3914 170.824 15.0608 168.698 15.3803C167.645 15.5385 162.042 21.64 161.43 23.2954C160.38 26.1345 161.25 31.016 163.417 34.4433C164.925 36.8285 165.918 37.6006 168.646 38.5097C172.27 39.7171 174.535 42.0917 175.866 46.0794C176.507 47.9968 176.445 48.536 175.463 49.6403C174.364 50.8749 174.448 50.8696 177.082 49.5311C180.44 47.8254 180.557 47.8168 180.623 49.2784C180.654 49.9698 180.809 50.1034 181.008 49.6092C181.47 48.4613 182.55 48.5711 182.55 49.766C182.55 50.3065 181.586 51.1687 180.406 51.6808C179.227 52.1929 176.482 53.3924 174.305 54.3471L170.347 56.0819L172.326 54.4206C173.415 53.5062 173.897 52.7572 173.4 52.7553C172.632 52.7526 172.632 52.5812 173.4 51.6325C173.897 51.0165 173.977 50.7101 173.576 50.9503C173.176 51.1911 171.604 53.0047 170.084 54.981C167.888 57.8359 167.408 58.9236 167.747 60.2767L168.173 61.9797L170.25 60.3938C172.407 58.747 183.192 54.4993 183.764 55.0723C183.942 55.2516 183.743 55.3985 183.32 55.3985C182.487 55.3985 182.216 60.798 183.009 61.5927C183.261 61.8461 183.518 62.4164 183.579 62.861C183.64 63.3056 183.9 65.3759 184.155 67.4626C184.411 69.5494 184.902 71.4311 185.245 71.6435C185.589 71.8565 185.699 72.3078 185.49 72.6465C185.281 72.9853 185.442 73.2625 185.848 73.2625C186.254 73.2625 186.423 73.5272 186.223 73.8507C185.791 74.552 186.497 78.015 188.787 86.4323C189.719 89.8549 190.403 92.7251 190.308 92.8098C190.106 92.9917 178.652 97.7435 178.42 97.7422C178.333 97.7416 178.18 96.4759 178.079 94.9303C177.978 93.3841 177.736 91.5983 177.54 90.9612C177.344 90.324 177.47 89.8033 177.818 89.8033C178.218 89.8033 178.205 88.8248 177.782 87.1568C177.414 85.7012 176.862 84.5102 176.554 84.5102C176.247 84.5102 176.161 84.0782 176.363 83.5496C176.879 82.2012 175.958 80.7866 175.28 81.8869C174.964 82.3996 174.2 80.9335 173.265 78.0223C172.436 75.4426 171.549 73.4617 171.293 73.6205C171.037 73.7793 170.305 75.8475 169.665 78.2168C168.894 81.0731 168.171 82.5254 167.519 82.5254C166.718 82.5254 166.606 81.8326 166.919 78.7964C167.208 75.9898 167.801 74.4455 169.32 72.55C171.451 69.8895 171.748 68.9646 170.685 68.3049C169.483 67.5599 164.134 70.5009 161.514 73.3472C158.985 76.0943 158.809 76.1677 154.41 76.2948C151.929 76.3669 149.042 76.7645 147.994 77.1781C145.662 78.0997 142.105 81.0168 142.949 81.3159C143.727 81.5911 140.946 89.9535 139.841 90.6634C139.388 90.9545 139.016 91.773 139.016 92.4829C139.016 93.1922 138.655 93.7731 138.214 93.7731C137.772 93.7731 133.097 95.3948 127.825 97.377C122.553 99.3593 106.069 105.004 91.1953 109.922C76.3213 114.839 60.2929 120.242 55.5768 121.929C50.8606 123.615 44.6274 125.744 41.7252 126.66C38.8229 127.576 33.4802 129.518 29.8524 130.977C14.6169 137.101 10.6712 137.798 14.3933 133.707L16.0007 131.941L14.0219 133.095C10.1006 135.38 1.49478 142.484 0.513292 144.246C-1.9213 148.615 4.71825 153.862 11.7133 153.098C13.3458 152.92 17.3529 151.867 20.6179 150.759C23.883 149.65 29.3741 147.977 32.8206 147.04C50.8884 142.128 61.7988 138.305 107.026 121.036C114.644 118.126 126.928 113.596 134.323 110.967C146.805 106.53 147.944 106.241 150.23 106.928C155.918 108.637 161.007 107.399 165.079 103.314C167.282 101.105 167.627 100.978 170.213 101.432C171.738 101.699 174.058 101.863 175.37 101.794C177.247 101.696 177.977 102.012 178.807 103.284C179.773 104.762 183.06 106.203 187.879 107.262C189.773 107.678 191.125 110.033 191.125 112.917C191.125 114.018 190.099 116.268 188.651 118.345C186.264 121.768 186.178 122.09 186.178 127.516C186.178 132.161 186.436 133.579 187.662 135.659C188.479 137.044 189.146 138.263 189.146 138.366C189.146 138.47 182.839 138.753 175.129 138.996C159.441 139.491 148.988 140.306 143.739 141.444C140.756 142.09 140.268 142.402 140.549 143.479C140.799 144.442 140.271 145.063 138.373 146.033C136.995 146.739 134.792 148.784 133.479 150.578C132.083 152.486 130.375 154.021 129.365 154.275L127.638 154.71L127.923 170.313C128.277 189.784 127.022 188.168 144.013 191.018C160.845 193.84 169.823 194.386 205.306 194.745C231.494 195.01 240.65 195.316 244.023 196.04C252.448 197.847 284.879 196.955 296.331 194.6C298.871 194.078 305.087 193.068 310.145 192.356C320.147 190.948 322.604 189.867 320.077 187.985C318.35 186.699 311.403 184.687 305.401 183.733L300.619 182.974L300.547 172.944C300.445 158.64 299.997 155.19 298.122 154.256C297.293 153.843 295.957 152.204 295.154 150.614C294.093 148.515 292.924 147.356 290.89 146.387C289.144 145.555 288.086 144.608 288.086 143.876C288.086 143.23 287.376 142.43 286.509 142.1C282.982 140.754 244.076 138.329 236.967 139.011C233.684 139.326 233.291 139.264 234.659 138.64C245.571 133.672 249.015 131.803 251.366 129.573C252.879 128.138 255.23 125.926 256.59 124.659C258.836 122.567 259.064 122.04 259.064 118.918C259.064 114.113 257.403 108.868 255.256 106.893C254.266 105.983 252.056 104.722 250.343 104.09C246.695 102.744 243.893 99.7225 243.893 97.1342C243.893 95.7487 244.701 94.62 247.215 92.4942C251.748 88.6594 252.782 86.996 251.788 85.1342C251.362 84.3369 250.926 83.0514 250.818 82.2779C250.556 80.4028 244.198 52.8234 242.868 47.7897C240.776 39.8766 239.392 38.5335 231.613 36.8635L228.238 36.139L227.848 32.8375C227.385 28.9167 227.828 27.563 230.892 23.5356C234.096 19.3263 234.659 18.1188 234.659 15.4564C234.659 8.76204 231.389 5.78272 220.477 2.53345C212.078 0.032478 206.195 -0.540495 199.37 0.479079ZM180.15 10.0767C179.941 10.6226 179.654 11.0692 179.511 11.0692C179.369 11.0692 179.252 10.6226 179.252 10.0767C179.252 9.53086 179.54 9.08426 179.891 9.08426C180.242 9.08426 180.359 9.53086 180.15 10.0767ZM219.831 11.7467C221.453 13.5437 220.598 14.2655 215.951 15.0244C211.812 15.6999 210.557 15.4644 209.959 13.9009C209.421 12.495 209.61 12.3798 214.003 11.4185C216.113 10.9573 218.015 10.5412 218.231 10.4935C218.447 10.4466 219.167 11.0103 219.831 11.7467ZM179.912 13.0071C179.912 13.8956 177.978 15.7006 177.027 15.7006C176.149 15.7006 169.358 22.1091 169.358 22.9375C169.358 23.7447 164.265 25.8176 163.479 25.33C160.374 23.4053 167.842 16.5819 176.594 13.3465C179.483 12.2786 179.912 12.2343 179.912 13.0071ZM214.87 30.9181C214.87 31.282 214.74 31.5797 214.58 31.5797C214.419 31.5797 214.105 31.282 213.881 30.9181C213.657 30.5542 213.788 30.2565 214.172 30.2565C214.556 30.2565 214.87 30.5542 214.87 30.9181ZM226.743 42.1533C226.743 42.8539 225.514 43.1907 220.642 43.8245C218.918 44.0482 217.509 43.9655 217.509 43.6399C217.509 43.3144 217.88 43.0048 218.333 42.9519C222.295 42.4907 225.129 42.0203 225.363 41.7861C225.88 41.2673 226.743 41.4969 226.743 42.1533ZM183.095 46.0119C181.973 47.3722 180.991 47.8618 179.444 47.8314C177.566 47.7943 177.439 47.6779 178.311 46.7973C179.197 45.9034 182.698 44.3294 184.084 44.201C184.384 44.1732 183.938 44.9884 183.095 46.0119ZM233.091 45.7711C233.921 46.354 234.478 47.5045 234.512 48.7074C234.542 49.7944 234.875 51.2593 235.249 51.962C235.625 52.6646 235.751 53.4202 235.53 53.6412C235.31 53.8622 235.441 54.4226 235.82 54.8864C236.199 55.3502 236.727 57.5157 236.992 59.6991C237.257 61.8825 237.776 64.4132 238.146 65.3229C238.954 67.3111 238.965 67.3594 239.551 71.9055C239.807 73.8878 240.485 76.4185 241.059 77.5294C243.375 82.01 243.533 81.6771 238.856 82.18C236.492 82.4341 231.538 83.1731 227.847 83.8235C220.187 85.1725 219.813 85.0369 219.238 80.696C219.033 79.1444 218.555 77.2958 218.178 76.5879C217.8 75.8799 217.544 75.0655 217.608 74.7783C217.732 74.2232 216.991 70.9541 216.364 69.2927C215.427 66.807 214.108 61.8705 213.934 60.1999C213.85 59.3841 213.581 58.5154 213.336 58.2706C213.092 58.0251 212.885 57.0552 212.877 56.115C212.869 55.1748 212.267 53.0894 211.539 51.4803C210.751 49.7382 210.457 48.3131 210.812 47.9571C211.551 47.2161 224.681 44.9579 228.74 44.8739C230.383 44.8402 232.341 45.2437 233.091 45.7711ZM241.828 56.0601C241.81 56.6059 241.235 54.9684 240.551 52.4211C239.866 49.8738 239.33 47.1942 239.359 46.4664C239.389 45.7386 239.964 47.3762 240.636 50.1054C241.309 52.8346 241.845 55.5143 241.828 56.0601ZM185.08 48.7008C185.758 49.1322 185.671 49.3359 184.694 49.592C183.905 49.7991 183.429 49.5854 183.429 49.0223C183.429 47.9875 183.834 47.9088 185.08 48.7008ZM244.478 67.3078C244.454 67.8537 243.873 66.2161 243.189 63.6689C242.504 61.1216 241.964 58.5908 241.989 58.045C242.013 57.4991 242.594 59.1367 243.278 61.684C243.962 64.2312 244.502 66.762 244.478 67.3078ZM245.003 70.0787C244.793 70.6061 244.636 70.4493 244.605 69.6785C244.576 68.9811 244.732 68.5907 244.951 68.8104C245.17 69.0301 245.194 69.601 245.003 70.0787ZM245.663 72.7253C245.452 73.2526 245.296 73.0958 245.264 72.325C245.236 71.6276 245.392 71.2373 245.611 71.4569C245.83 71.6766 245.853 72.2476 245.663 72.7253ZM163.875 73.5086C163.684 74.0082 162.878 76.6137 162.085 79.2979C160.358 85.1381 160.126 85.5788 159.391 84.4156C157.954 82.139 159.104 76.7639 161.602 74.0896C163.149 72.4322 164.41 72.1106 163.875 73.5086ZM156.043 83.9188C155.878 85.5556 155.262 86.2953 153.015 87.5577C151.464 88.4291 149.905 89.1417 149.552 89.1417C148.67 89.1417 148.744 86.0631 149.669 84.3012C150.703 82.3308 151.509 81.8856 154.064 81.8736C156.115 81.8644 156.237 81.9901 156.043 83.9188ZM140.638 83.2313C140.399 83.619 140.345 84.0789 140.518 84.2522C140.69 84.4256 141.008 84.108 141.223 83.5463C141.669 82.3805 141.289 82.1754 140.638 83.2313ZM138.993 86.1048C138.462 86.6176 134.492 88.1651 130.172 89.5433C125.852 90.9215 122.595 92.1422 122.935 92.2553C123.274 92.3691 126.644 91.417 130.424 90.1401C134.204 88.8631 137.797 87.8184 138.409 87.8184C139.022 87.8184 139.677 87.2229 139.867 86.4951C140.278 84.9198 140.238 84.902 138.993 86.1048ZM237.957 85.7356C237.957 86.3417 229.316 87.9732 228.808 87.4631C228.108 86.7611 229.709 86.1478 233.226 85.7693C235.283 85.5477 237.189 85.3227 237.462 85.2691C237.734 85.2156 237.957 85.4253 237.957 85.7356ZM107.685 96.7623C100.792 99.0589 95.416 100.963 95.7379 100.994C96.7603 101.093 121.075 93.3549 121.812 92.6959C122.65 91.9463 118.922 93.0195 107.685 96.7623ZM188.157 96.0967C181.549 99.344 180.317 99.6894 182.248 97.7522C183.398 96.5983 191.652 93.2359 193.433 93.1948C193.796 93.1862 191.422 94.4923 188.157 96.0967ZM231.031 98.4045C231.255 98.7684 231.124 99.0661 230.74 99.0661C230.356 99.0661 230.041 98.7684 230.041 98.4045C230.041 98.0406 230.172 97.7429 230.332 97.7429C230.492 97.7429 230.806 98.0406 231.031 98.4045ZM73.1545 107.752C62.1438 111.392 53.2464 114.482 53.3823 114.618C53.5182 114.755 62.9722 111.781 74.3913 108.01C85.8103 104.239 94.7076 101.148 94.1635 101.143C93.6193 101.138 84.1652 104.112 73.1545 107.752ZM198.906 108.894C199.607 109.34 199.607 109.562 198.906 110.124C197.427 111.31 193.655 113.072 193.319 112.735C192.713 112.128 194.507 109.578 195.95 108.995C197.799 108.248 197.887 108.245 198.906 108.894ZM195.082 113.622C194.538 113.975 193.796 114.263 193.433 114.263C193.071 114.263 193.219 113.975 193.763 113.622C194.307 113.269 195.049 112.981 195.412 112.981C195.775 112.981 195.627 113.269 195.082 113.622ZM244.833 114.364C244.405 115.058 243.233 114.501 243.233 113.604C243.233 113.273 243.677 113.173 244.219 113.381C244.761 113.59 245.037 114.032 244.833 114.364ZM243.635 115.226C244.161 116.599 242.848 119.137 241.528 119.301C240.833 119.387 239.598 119.616 238.781 119.81C237.964 120.004 237.297 119.882 237.297 119.539C237.297 119.196 236.82 118.915 236.237 118.915C235.587 118.915 235.317 118.548 235.54 117.966C235.74 117.443 235.57 116.904 235.162 116.768C234.755 116.632 234.611 116.024 234.843 115.416C235.177 114.544 236.107 114.325 239.297 114.37C241.791 114.405 243.446 114.732 243.635 115.226ZM50.6298 115.607C50.0856 115.96 49.9372 116.248 50.3 116.248C50.6628 116.248 51.4048 115.96 51.949 115.607C52.4932 115.254 52.6416 114.966 52.2788 114.966C51.916 114.966 51.174 115.254 50.6298 115.607ZM202.008 116.269C201.784 116.632 201.201 116.93 200.712 116.93C200.223 116.93 198.283 118.419 196.402 120.238C193.486 123.058 192.599 123.547 190.403 123.547C188.297 123.547 187.827 123.314 187.827 122.268C187.827 120.639 190.544 118.728 194.753 117.397C200.446 115.596 202.632 115.256 202.008 116.269ZM42.055 118.915C41.5108 119.268 41.3624 119.556 41.7252 119.556C42.088 119.556 42.83 119.268 43.3742 118.915C43.9183 118.562 44.0668 118.274 43.704 118.274C43.3412 118.274 42.5991 118.562 42.055 118.915ZM38.0974 120.569C37.1904 121.089 36.7452 121.515 37.108 121.515C37.4707 121.515 38.5096 121.089 39.4166 120.569C40.3235 120.049 40.7688 119.624 40.406 119.624C40.0432 119.624 39.0043 120.049 38.0974 120.569ZM30.8418 123.877C28.4837 125.116 26.8512 126.129 27.2139 126.129C27.5767 126.129 29.8029 125.116 32.161 123.877C34.519 122.639 36.1515 121.626 35.7888 121.626C35.426 121.626 33.1998 122.639 30.8418 123.877ZM23.5861 127.516C22.9918 127.901 22.9101 128.161 23.3823 128.168C23.8144 128.173 24.3513 127.88 24.5755 127.516C25.0815 126.695 24.8532 126.695 23.5861 127.516ZM147.769 145.153C147.322 145.334 146.432 145.345 145.79 145.177C145.148 145.009 145.513 144.861 146.602 144.848C147.69 144.835 148.215 144.971 147.769 145.153ZM154.022 145.836C153.388 146.003 152.348 146.003 151.714 145.836C151.079 145.67 151.598 145.534 152.868 145.534C154.138 145.534 154.657 145.67 154.022 145.836ZM152.193 147.009C154.923 147.54 158.491 148.249 160.124 148.583L163.092 149.191L159.134 149.26C156.957 149.299 153.396 148.898 151.219 148.371C149.042 147.844 146.371 147.397 145.283 147.378C144.194 147.36 142.859 147.056 142.314 146.704C140.775 145.706 146.398 145.88 152.193 147.009ZM253.952 149.173C252.41 149.312 249.887 149.312 248.345 149.173C246.804 149.034 248.065 148.919 251.149 148.919C254.232 148.919 255.493 149.034 253.952 149.173ZM148.251 150.953C150.972 151.47 154.682 151.97 156.496 152.064C158.31 152.158 160.633 152.516 161.659 152.86L163.525 153.485L160.726 154.742C159.187 155.434 157.235 156.057 156.387 156.127C153.907 156.333 154.605 157.092 157.98 157.857C160.744 158.485 160.331 158.536 154.458 158.294C148.501 158.049 143.941 157.286 136.213 155.244C133.488 154.523 133.037 153.211 134.831 151.222C136.196 149.709 141.184 149.609 148.251 150.953ZM141.655 158.319C144.013 158.854 148.465 159.546 151.549 159.857L157.155 160.422L150.889 160.509C146.145 160.575 142.94 160.18 137.697 158.884C133.888 157.941 130.623 157.014 130.442 156.825C129.945 156.303 136.793 157.216 141.655 158.319ZM258.414 157.455C258.421 158.051 258.586 158.025 259.003 157.366C259.408 156.723 260.146 156.596 261.467 156.94C263.17 157.385 263.224 157.481 262.032 157.938C259.924 158.747 247.575 159.261 246.51 158.585C245.814 158.144 246.237 157.969 248.015 157.961C249.376 157.956 250.489 157.654 250.489 157.29C250.489 156.922 252.248 156.628 254.447 156.628C257.167 156.628 258.407 156.887 258.414 157.455Z" fill="white"/>
</svg>
