<svg width="508" height="147" viewBox="0 0 508 147" fill="none" xmlns="http://www.w3.org/2000/svg">
<g clip-path="url(#clip0_954_29025)">
<rect width="508" height="147" fill="#033860"/>
<rect width="121" height="62" transform="translate(0 61)" fill="#033860"/>
<rect width="120" height="62" transform="translate(194 61)" fill="#033860"/>
<rect width="121" height="62" transform="translate(387 61)" fill="#033860"/>
<rect y="123" width="24" height="24" rx="2" fill="white"/>
<rect x="97" y="123" width="24" height="24" rx="2" fill="white"/>
<path d="M9.77992 115C9.50377 115 9.30851 115.338 9.44658 115.577L11.6667 119.423C11.8047 119.662 12.1953 119.662 12.3333 119.423L14.5534 115.577C14.6915 115.338 14.4962 115 14.2201 115H9.77992ZM106.78 115C106.504 115 106.309 115.338 106.447 115.577L108.667 119.423C108.805 119.662 109.195 119.662 109.333 119.423L111.553 115.577C111.691 115.338 111.496 115 111.22 115H106.78ZM12 115.5H12.5V70H12H11.5V115.5H12ZM20 62V62.5H101V62V61.5H20V62ZM109 70H108.5V115.5H109H109.5V70H109ZM101 62V62.5C105.142 62.5 108.5 65.8579 108.5 70H109H109.5C109.5 65.3056 105.694 61.5 101 61.5V62ZM12 70H12.5C12.5 65.8579 15.8579 62.5 20 62.5V62V61.5C15.3056 61.5 11.5 65.3056 11.5 70H12Z" fill="white"/>
<rect x="194" y="123" width="24" height="24" rx="2" fill="white"/>
<rect x="291" y="123" width="24" height="24" rx="2" fill="white"/>
<path d="M203.78 115C203.504 115 203.309 115.338 203.447 115.577L205.667 119.423C205.805 119.662 206.195 119.662 206.333 119.423L208.553 115.577C208.691 115.338 208.496 115 208.22 115H203.78ZM300.78 115C300.504 115 300.309 115.338 300.447 115.577L302.667 119.423C302.805 119.662 303.195 119.662 303.333 119.423L305.553 115.577C305.691 115.338 305.496 115 305.22 115H300.78ZM206 115.5H206.5V70H206H205.5V115.5H206ZM214 62V62.5H295V62V61.5H214V62ZM303 70H302.5V115.5H303H303.5V70H303ZM295 62V62.5C299.142 62.5 302.5 65.8579 302.5 70H303H303.5C303.5 65.3056 299.694 61.5 295 61.5V62ZM206 70H206.5C206.5 65.8579 209.858 62.5 214 62.5V62V61.5C209.306 61.5 205.5 65.3056 205.5 70H206Z" fill="white"/>
<rect x="387" y="123" width="24" height="24" rx="2" fill="white"/>
<rect x="484" y="123" width="24" height="24" rx="2" fill="white"/>
<path d="M396.78 115C396.504 115 396.309 115.338 396.447 115.577L398.667 119.423C398.805 119.662 399.195 119.662 399.333 119.423L401.553 115.577C401.691 115.338 401.496 115 401.22 115H396.78ZM493.78 115C493.504 115 493.309 115.338 493.447 115.577L495.667 119.423C495.805 119.662 496.195 119.662 496.333 119.423L498.553 115.577C498.691 115.338 498.496 115 498.22 115H493.78ZM399 115.5H399.5V70H399H398.5V115.5H399ZM407 62V62.5H488V62V61.5H407V62ZM496 70H495.5V115.5H496H496.5V70H496ZM488 62V62.5C492.142 62.5 495.5 65.8579 495.5 70H496H496.5C496.5 65.3056 492.694 61.5 488 61.5V62ZM399 70H399.5C399.5 65.8579 402.858 62.5 407 62.5V62V61.5C402.306 61.5 398.5 65.3056 398.5 70H399Z" fill="white"/>
<path d="M58.2799 53C58.0038 53 57.8085 53.3382 57.9466 53.5774L60.1667 57.4226C60.3047 57.6618 60.6953 57.6618 60.8333 57.4226L63.0534 53.5774C63.1915 53.3382 62.9962 53 62.7201 53H58.2799ZM251.78 53C251.504 53 251.309 53.3382 251.447 53.5774L253.667 57.4226C253.805 57.6618 254.195 57.6618 254.333 57.4226L256.553 53.5774C256.691 53.3382 256.496 53 256.22 53H251.78ZM60.5 53.5H61V8H60.5H60V53.5H60.5ZM68.5 0V0.5H246V0V-0.5H68.5V0ZM254 8H253.5V53.5H254H254.5V8H254ZM246 0V0.5C250.142 0.5 253.5 3.85786 253.5 8H254H254.5C254.5 3.30558 250.694 -0.5 246 -0.5V0ZM60.5 8H61C61 3.85787 64.3579 0.5 68.5 0.5V0V-0.5C63.8056 -0.5 60 3.30558 60 8H60.5Z" fill="white"/>
<path d="M251.78 53C251.504 53 251.309 53.3382 251.447 53.5774L253.667 57.4226C253.805 57.6618 254.195 57.6618 254.333 57.4226L256.553 53.5774C256.691 53.3382 256.496 53 256.22 53H251.78ZM445.28 53C445.004 53 444.809 53.3382 444.947 53.5774L447.167 57.4226C447.305 57.6618 447.695 57.6618 447.833 57.4226L450.053 53.5774C450.191 53.3382 449.996 53 449.72 53H445.28ZM254 53.5H254.5V8H254H253.5V53.5H254ZM262 0V0.5H439.5V0V-0.5H262V0ZM447.5 8H447V53.5H447.5H448V8H447.5ZM439.5 0V0.5C443.642 0.5 447 3.85786 447 8H447.5H448C448 3.30558 444.194 -0.5 439.5 -0.5V0ZM254 8H254.5C254.5 3.85787 257.858 0.5 262 0.5V0V-0.5C257.306 -0.5 253.5 3.30558 253.5 8H254Z" fill="white"/>
</g>
<defs>
<clipPath id="clip0_954_29025">
<rect width="508" height="147" fill="white"/>
</clipPath>
</defs>
</svg>
