<svg width="230" height="24" viewBox="0 0 230 24" fill="none" xmlns="http://www.w3.org/2000/svg">
<g clip-path="url(#clip0_123_2214)">
<mask id="mask0_123_2214" style="mask-type:luminance" maskUnits="userSpaceOnUse" x="0" y="0" width="230" height="24">
<path d="M230 0H0V23.2911H230V0Z" fill="white"/>
</mask>
<g mask="url(#mask0_123_2214)">
<path d="M81.7417 21.4746C82.3998 21.5394 83.0618 21.5394 83.7198 21.4746C84.3367 21.5362 84.9602 21.455 85.5417 21.2372C86.1233 21.0193 86.649 20.6704 87.0778 20.2168C87.8311 19.0957 88.1876 17.7496 88.0898 16.3971C88.195 15.0799 87.8541 13.7658 87.1238 12.6706C86.6729 12.2234 86.1291 11.8829 85.5327 11.6735C84.9363 11.4641 84.3014 11.391 83.6738 11.4594H81.7417V21.4746ZM84.9158 10.1086C87.1575 9.91408 89.4049 10.4179 91.3558 11.5526C91.9891 12.0801 92.4894 12.7518 92.8171 13.5128C93.1457 14.2739 93.2903 15.1025 93.2418 15.9313C93.278 16.9729 93.0521 18.0067 92.5855 18.9356C92.1189 19.8645 91.4265 20.658 90.5738 21.2416C88.3913 22.63 85.8309 23.2824 83.2598 23.1049H74.5197L76.5437 21.7075C76.6623 21.697 76.7733 21.6446 76.8574 21.5594C76.9416 21.4741 76.9934 21.3617 77.0037 21.2416V2.6088C77.0175 2.49214 76.9872 2.3745 76.919 2.27948C76.8508 2.18446 76.7496 2.11905 76.6357 2.09639L74.4277 0.652344H91.2638L90.2978 6.47512L88.2738 2.18956H81.7417V10.1551L84.9158 10.1086Z" fill="#138056"/>
<path d="M72.5415 6.47611L70.4715 2.05079C69.5256 1.80722 68.5455 1.72847 67.5735 1.81789C66.5287 1.76962 65.4887 1.98738 64.5485 2.45122C63.6083 2.91507 62.7979 3.61021 62.1915 4.47307C60.8267 6.51583 60.1491 8.95 60.2595 11.4138C60.1122 14.0475 60.913 16.6459 62.5135 18.7272C63.2837 19.6309 64.2479 20.3442 65.3322 20.8125C66.4165 21.2807 67.5923 21.4917 68.7695 21.429C70.3256 21.4914 71.8808 21.2867 73.3695 20.8234C71.3595 22.4393 68.8956 23.3689 66.3315 23.4786C63.3919 23.5501 60.5393 22.4649 58.3735 20.4507C56.2751 18.11 55.1396 15.0455 55.1995 11.8848C55.2594 8.72391 56.51 5.70584 58.6955 3.44827C61.2413 1.22119 64.5351 0.0704331 67.8955 0.234091C69.814 0.250117 71.7258 0.46868 73.5995 0.886242L72.5415 6.47611Z" fill="#138056"/>
<path d="M45.1262 6.47492C45.1262 7.03391 44.7582 7.63949 44.5282 8.19846L43.2402 11.6456L47.6102 14.0213L45.6782 8.24504L45.1262 6.47492ZM42.7802 12.717L40.5722 18.6795C40.5722 19.2851 40.2042 19.7509 40.0662 20.1235C40.038 20.3867 40.038 20.6522 40.0662 20.9154C40.0124 21.0499 40.0124 21.2002 40.0662 21.3346C40.5722 21.847 41.4922 22.3595 42.0902 22.8719H34.8682C35.7726 22.3227 36.6201 21.6829 37.3982 20.962C37.6332 20.5612 37.8333 20.1403 37.9962 19.7043L45.8162 0.465814L47.6102 0L54.4182 19.518C54.573 20.0556 54.8223 20.5605 55.1542 21.0085C55.9337 21.714 56.7812 22.3382 57.6842 22.8719H47.7942C48.3462 22.3595 49.2202 21.847 49.7262 21.3346C49.7798 21.2002 49.7798 21.0499 49.7262 20.9154C49.7634 20.6372 49.7634 20.3551 49.7262 20.077L49.2662 18.7261L48.2082 15.7914L42.7802 12.717Z" fill="#138056"/>
<path d="M112.424 6.47492L107.824 18.6795L107.272 20.077C107.247 20.3559 107.247 20.6364 107.272 20.9154C107.24 20.9804 107.223 21.0522 107.223 21.1251C107.223 21.1978 107.24 21.2696 107.272 21.3346C107.904 21.8685 108.564 22.3661 109.25 22.8252H102.166C103.079 22.3075 103.928 21.6821 104.696 20.962C104.95 20.5715 105.151 20.1485 105.294 19.7043L113.114 0.465814L114.908 0L121.716 19.518C121.883 20.0507 122.132 20.5536 122.452 21.0085C123.23 21.7029 124.078 22.3119 124.982 22.8252H115.092C115.763 22.366 116.409 21.8683 117.024 21.3346C117.077 21.2002 117.077 21.0499 117.024 20.9154C117.061 20.6372 117.061 20.3551 117.024 20.077C117.024 19.7043 116.748 19.2851 116.564 18.6795L115.506 15.7914L112.424 6.47492Z" fill="#138056"/>
<path d="M133.676 15.1389L141.174 4.89074C141.174 4.00568 141.174 3.1672 141.174 2.46846C141.174 1.76973 139.334 0.931256 138.874 0.605177H143.474H148.074C147.568 0.977838 145.636 1.90948 145.636 2.60821C145.636 3.30694 145.636 4.19201 145.636 5.2634V18.0269C145.636 19.2846 145.636 20.356 145.636 21.1945C145.636 22.033 147.706 22.7783 148.166 23.1044H139.104C139.564 22.7317 141.312 21.8 141.312 21.1945C141.312 20.5889 141.312 19.2846 141.312 18.0269V7.54592L133.63 17.8406C133.63 19.1914 133.63 20.3095 133.63 21.1479C133.63 21.9864 135.424 22.6851 135.93 23.0578H126.454C126.914 22.7317 128.892 21.7069 128.938 21.1945V2.56163C128.938 1.86289 126.914 0.931248 126.362 0.558594H131.238H135.838C135.424 0.884666 133.676 1.90948 133.63 2.42188C133.584 2.93429 133.63 4.09884 133.63 5.12364L133.676 15.1389Z" fill="#138056"/>
<path d="M173.88 15.092L181.562 4.84386C181.562 3.91222 181.562 3.12032 181.562 2.42159C181.562 1.72286 179.676 0.837794 179.262 0.558302H188.784C188.278 0.884376 186.392 1.8626 186.346 2.51476C186.3 3.16691 186.346 4.09854 186.346 5.16994V17.9335C186.346 19.1912 186.346 20.2626 186.346 21.1477C186.346 22.0327 188.416 22.7315 188.922 23.0109H179.262C179.768 22.6849 181.516 21.7532 181.516 21.1011C181.516 20.4489 181.516 19.1912 181.516 17.9335V7.45247L173.834 17.7472C173.834 19.098 173.834 20.216 173.834 21.0545C173.834 21.893 175.628 22.6383 176.134 22.9644H166.658C167.072 22.6849 169.096 21.6601 169.096 21.1011C169.096 20.5421 169.096 19.1912 169.096 17.8869V5.12336C169.096 4.05196 169.096 3.16691 169.096 2.46817C169.096 1.76944 167.072 0.837794 166.566 0.511719H176.088C175.674 0.837794 173.926 1.81603 173.926 2.37502C173.926 2.934 173.926 4.05197 173.926 5.07678L173.88 15.092Z" fill="#138056"/>
<path d="M153.272 2.28081L151.34 6.65954L150.374 1.39575C152.514 0.692547 154.749 0.331088 156.998 0.324356C159.186 0.184544 161.37 0.668674 163.3 1.72181C163.992 2.14788 164.56 2.75128 164.948 3.47105C165.335 4.19082 165.528 5.00145 165.508 5.82105C165.528 7.03001 165.082 8.19931 164.266 9.08181C163.392 9.98958 162.297 10.6483 161.092 10.9917C162.612 11.1953 164.028 11.8801 165.14 12.9481C165.608 13.3878 165.981 13.9213 166.234 14.5148C166.488 15.1082 166.616 15.7486 166.612 16.3952C166.643 17.4674 166.385 18.5281 165.867 19.4635C165.348 20.3989 164.588 21.1739 163.668 21.7056C161.439 23.027 158.89 23.6888 156.308 23.6155C154.146 23.6783 151.995 23.265 150.006 22.4043L150.88 16.6747L153.042 21.6124C154.045 21.981 155.104 22.1701 156.17 22.1714C157.621 22.2831 159.058 21.815 160.172 20.8671C160.672 20.3775 161.057 19.7794 161.296 19.1178C161.535 18.4562 161.623 17.7483 161.552 17.0474C161.605 16.4056 161.526 15.7596 161.32 15.1503C161.115 14.5409 160.786 13.9814 160.356 13.5071C159.294 12.6411 157.942 12.2239 156.584 12.3426C155.61 12.3554 154.64 12.4646 153.686 12.6686V10.3395C154.523 10.4742 155.368 10.5521 156.216 10.5724C156.84 10.6451 157.473 10.5874 158.074 10.4032C158.675 10.2189 159.232 9.91189 159.712 9.50105C160.462 8.59011 160.84 7.42397 160.77 6.24029C160.805 5.66044 160.721 5.07943 160.523 4.53414C160.325 3.98885 160.018 3.49118 159.62 3.07271C158.672 2.30453 157.474 1.92248 156.262 2.00132C155.302 2.01952 154.352 2.20872 153.456 2.5603" fill="#138056"/>
<path d="M197.662 8.84994V17.9335C197.662 19.1912 197.662 20.216 197.662 21.0545C197.662 21.893 199.456 22.6383 199.962 23.0109H190.44C190.9 22.6849 192.878 21.6601 192.878 21.1011C192.878 20.5421 192.878 19.1912 192.878 17.9335V5.12336C192.878 4.09855 192.878 3.21349 192.878 2.46817C192.878 1.72286 190.854 0.884376 190.348 0.511719H199.916C199.456 0.837794 197.708 1.81603 197.708 2.37502C197.708 2.934 197.708 4.05197 197.708 5.07678V7.12639H205.574V2.46817C205.574 1.90919 203.688 0.930958 203.228 0.604885H207.828H212.428C211.922 0.977541 210.036 1.90919 209.99 2.60792C209.944 3.30665 209.99 4.19172 209.99 5.26311V18.0266C209.99 19.2844 209.99 20.3558 209.99 21.2408C209.99 22.1259 212.06 22.778 212.52 23.1041H203.182C203.688 22.7315 205.39 21.8464 205.436 21.1942V8.84994H197.662Z" fill="#138056"/>
<path d="M221.352 17.9803C221.352 19.238 221.352 20.2628 221.352 21.0547C221.352 21.8466 223.606 22.7317 224.158 23.0578H214.13C214.59 22.7317 216.568 21.7535 216.614 21.1945V2.56163C216.614 1.86289 214.59 0.931248 214.038 0.558594H218.27H222.042H230L228.896 6.75402L226.826 2.0958H221.352V17.9803Z" fill="#138056"/>
<path d="M23.1378 0.09375H0V23.5245H23.1378V0.09375Z" fill="#138056"/>
<path fill-rule="evenodd" clip-rule="evenodd" d="M6.66992 8.01008L11.4081 1.53516L16.238 8.01008L11.4541 14.485L6.66992 8.01008Z" fill="white"/>
<path fill-rule="evenodd" clip-rule="evenodd" d="M12.0059 15.3265L16.7437 8.85156L21.5739 15.3265L16.7898 21.8014L12.0059 15.3265Z" fill="white"/>
<path fill-rule="evenodd" clip-rule="evenodd" d="M10.8562 15.2796L6.07227 8.80469L1.28809 15.2796L6.07227 21.7546L10.8562 15.2796Z" fill="white"/>
</g>
</g>
<defs>
<clipPath id="clip0_123_2214">
<rect width="230" height="23.2911" fill="white"/>
</clipPath>
</defs>
</svg>
