<svg width="230" height="43" viewBox="0 0 230 43" fill="none" xmlns="http://www.w3.org/2000/svg">
<g clip-path="url(#clip0_483_6602)">
<path fill-rule="evenodd" clip-rule="evenodd" d="M19.5768 41.7659C31.3061 41.7659 40.8724 32.4354 40.8724 20.9959C40.8724 9.55639 31.3061 0.226562 19.5768 0.226562C7.84744 0.226562 -1.71875 9.55639 -1.71875 20.9959C-1.71875 32.4354 7.84744 41.7659 19.5768 41.7659Z" fill="white"/>
<path fill-rule="evenodd" clip-rule="evenodd" d="M222.7 25.1939H219.451V21.6567L223.047 21.6588L223.357 21.6739L223.369 21.6746L223.382 21.676L223.395 21.6767L223.408 21.6782L223.421 21.6796L223.434 21.681L223.447 21.6825L223.46 21.6835L223.473 21.685L223.487 21.6857L223.499 21.6878L223.512 21.6893L223.526 21.6907L223.539 21.6921L223.552 21.6936L223.565 21.695L223.578 21.6964L223.591 21.6979L223.604 21.7L223.618 21.7015L223.63 21.7029L223.643 21.705L223.657 21.7065L223.669 21.7086L223.682 21.7101L223.696 21.7122L223.709 21.7136L223.721 21.7158L223.735 21.7176L223.748 21.719L223.761 21.7212L223.772 21.7226L224.019 21.7738L224.241 21.8376L224.438 21.9139L224.611 22.0027L224.762 22.1026L224.893 22.213L225.004 22.3365L225.098 22.4737L225.176 22.6263L225.237 22.7972L225.283 22.9863L225.31 23.1951L225.32 23.4254L225.31 23.683L225.281 23.9127L225.236 24.1147L225.172 24.2909L225.095 24.4442L224.999 24.5771L224.886 24.6943L224.752 24.7985L224.594 24.8905L224.41 24.9711L224.198 25.0399L223.956 25.0961L223.686 25.1391L223.673 25.1405L223.658 25.1427L223.645 25.1441L223.629 25.1456L223.616 25.1477L223.601 25.1491L223.587 25.1506L223.572 25.152L223.558 25.1534L223.544 25.1549L223.529 25.1563L223.515 25.1577L223.5 25.1592L223.486 25.1606L223.471 25.162L223.457 25.1627L223.443 25.1642L223.429 25.1656L223.414 25.1663L223.399 25.1674L223.385 25.1688L223.37 25.1703L223.356 25.171L223.342 25.1724L223.327 25.1731L223.313 25.1746L223.298 25.176L223.283 25.1767L223.269 25.1774L223.254 25.1789L223.24 25.1796L223.227 25.1803L223.211 25.181L223.194 25.1824H223.178L223.162 25.1832L223.144 25.1839L223.128 25.1846L223.112 25.1853L223.095 25.186L223.079 25.1867H223.063L223.046 25.1875L223.03 25.1882H223.013L222.997 25.1889L222.98 25.1896H222.963L222.947 25.1903H222.931L222.914 25.191H222.898L222.881 25.1918H222.865L222.849 25.1925H222.832H222.816L222.799 25.1932H222.783H222.766L222.749 25.1939H222.733H222.716H222.7ZM223.043 28.3084H223.082L223.119 28.3077L223.157 28.307L223.196 28.3063H223.233L223.272 28.3056L223.309 28.3049L223.347 28.3042L223.386 28.3027L223.423 28.302L223.462 28.3013L223.499 28.3006L223.537 28.2999L223.576 28.2984L223.613 28.2977L223.651 28.2963L223.689 28.2956L223.727 28.2941L223.766 28.2927L223.804 28.2913L223.842 28.2902L223.879 28.2887L223.917 28.2873L223.956 28.2859L223.994 28.2845L224.032 28.2823L224.07 28.2809L224.109 28.2787L224.146 28.2766L224.171 28.2751L224.195 28.2737L224.219 28.2723L224.244 28.2708L224.268 28.2694L224.292 28.268L224.316 28.2658L224.34 28.2644L224.364 28.263L224.389 28.2615L224.413 28.2594L224.437 28.2572L224.461 28.2562L224.485 28.254L224.51 28.2526L224.534 28.2504L224.558 28.2483L224.582 28.2468L224.606 28.2447L224.63 28.2425L224.655 28.2404L224.679 28.2382L224.703 28.2361L224.727 28.234L224.752 28.2318L224.776 28.2297L224.8 28.2275L224.824 28.2254L224.849 28.2228L224.873 28.2207L224.896 28.2185L224.921 28.2157L224.94 28.2135L224.957 28.2114L224.974 28.2092L224.993 28.2071L225.01 28.2049L225.027 28.2028L225.046 28.2006L225.064 28.1985L225.082 28.1963L225.099 28.1942L225.116 28.1917L225.134 28.1903L225.152 28.1874L225.169 28.1852L225.187 28.1831L225.204 28.1802L225.222 28.1781L225.24 28.1752L225.257 28.1731L225.275 28.1702L225.293 28.168L225.31 28.1652L225.328 28.163L225.346 28.1602L225.362 28.1577L225.381 28.1555L225.398 28.1526L225.416 28.1505L225.433 28.1476L225.451 28.1448L225.469 28.1419L225.487 28.139L225.504 28.1355L225.52 28.1326L225.537 28.1297L225.553 28.1269L225.569 28.1244L225.586 28.1215L225.601 28.1186L225.617 28.115L225.634 28.1122L225.65 28.1086L225.666 28.1057L225.683 28.1029L225.699 28.0993L225.716 28.0964L225.731 28.0928L225.747 28.0896L225.763 28.0867L225.78 28.0832L225.796 28.0803L225.812 28.0767L225.828 28.0731L225.844 28.0696L225.861 28.066L225.876 28.0624L225.893 28.0592L225.909 28.0556L225.924 28.052L225.941 28.0484L225.957 28.0448L225.973 28.0413L225.99 28.0377L226.006 28.0334L226.019 28.0298L226.03 28.0273L226.041 28.0244L226.053 28.0216L226.064 28.0187L226.074 28.0158L226.097 28.0101L226.109 28.0065L226.12 28.0037L226.131 28.0008L226.142 27.9972L226.153 27.9943L226.165 27.9911L226.175 27.9883L226.187 27.9854L226.198 27.9818L226.21 27.9789L226.221 27.9754L226.231 27.9725L226.243 27.9696L226.254 27.966L226.265 27.9632L226.276 27.96L226.287 27.9571L226.299 27.9535L226.31 27.9499L226.32 27.9463L226.332 27.9435L226.343 27.9399L226.354 27.9363L226.367 27.9327L226.378 27.9284L226.388 27.9252L226.399 27.9223L226.409 27.9188L226.42 27.9152L226.431 27.9109L226.441 27.9073L226.451 27.9044L226.461 27.9001L226.472 27.8966L226.482 27.8933L226.493 27.8898L226.503 27.8855L226.513 27.8819L226.524 27.8783L226.535 27.8747L226.545 27.8704L226.555 27.8668L226.566 27.8633L226.576 27.86L226.586 27.8557L226.596 27.8521L226.607 27.8478L226.618 27.8443L226.627 27.84L226.639 27.8364L226.648 27.8321L226.659 27.8282L226.67 27.8246L226.679 27.8203L226.69 27.8167L226.703 27.8117L226.91 27.7189L226.922 27.7132L226.931 27.7089L226.94 27.7039L226.949 27.6989L226.958 27.6949L226.968 27.6899L226.976 27.6856L226.986 27.6806L226.995 27.6756L227.004 27.6706L227.014 27.6655L227.023 27.6616L227.032 27.6566L227.041 27.6516L227.05 27.6466L227.059 27.6415L227.068 27.6365L227.076 27.6319L227.086 27.6269L227.095 27.6218L227.103 27.6168L227.113 27.6118L227.122 27.6068L227.131 27.6018L227.14 27.5964L227.148 27.5914L227.158 27.5864L227.167 27.5806L227.176 27.5756L227.184 27.5706L227.193 27.5652L227.204 27.5588L227.459 27.3922L227.697 27.2106L227.923 27.0164L228.132 26.8091L228.327 26.5891L228.505 26.3559L228.667 26.1116L228.813 25.8552L228.942 25.5872L229.054 25.3078L229.149 25.0188L229.227 24.719L229.288 24.4101L229.331 24.091L229.358 23.7629V23.7461L229.358 23.7303V23.7149L229.359 23.6992L229.36 23.6838V23.668L229.361 23.6526L229.362 23.6368V23.6221L229.362 23.6064V23.5906V23.5752V23.5594V23.544L229.363 23.5282V23.5128V23.4971L229.364 23.4817V23.4659V23.4505V23.4348V23.4201V23.4036V23.3889V23.3724V23.3578V23.342V23.3266V23.3108V23.2944V23.2797V23.2625L229.363 23.2478L229.362 23.2328V23.2181V23.203L229.362 23.1883L229.361 23.174L229.36 23.1593V23.1443L229.359 23.1292L229.358 23.1146L229.358 23.1002V23.0855L229.357 23.0705L229.356 23.0565L229.355 23.0415L229.354 23.0268L229.354 23.0125L229.353 22.9978L229.351 22.9828L229.35 22.9677L229.35 22.9537L229.349 22.9387V22.924L229.348 22.9097L229.346 22.895L229.346 22.88L229.344 22.8653L229.343 22.8509L229.342 22.8359L229.341 22.8212L229.34 22.8062L229.339 22.7908L229.338 22.7757L229.336 22.7618L229.334 22.7474L229.333 22.7342L229.331 22.7198L229.33 22.7055L229.328 22.6915L229.327 22.6779L229.326 22.6639L229.324 22.6496L229.322 22.6356L229.32 22.622L229.319 22.6077L229.318 22.5937L229.315 22.5801L229.314 22.5661L229.312 22.5518L229.31 22.5382L229.309 22.5242L229.306 22.5099L229.305 22.4966L229.302 22.4823L229.301 22.4683L229.299 22.454L229.297 22.4404L229.296 22.4264L229.293 22.4121L229.291 22.3988L229.289 22.3845L229.287 22.3706L229.285 22.3569L229.283 22.3412L229.28 22.3272L229.277 22.3136L229.275 22.3003L229.273 22.2875L229.27 22.2742L229.268 22.2606L229.265 22.247L229.262 22.2337L229.261 22.2208L229.258 22.2076L229.256 22.194L229.253 22.1811L229.249 22.1678L229.247 22.1542L229.245 22.1417L229.241 22.1281L229.239 22.1145L229.236 22.1019L229.233 22.0883L229.231 22.0751L229.228 22.0622L229.225 22.0486L229.222 22.0353L229.22 22.0224L229.217 22.0092L229.213 21.9955L229.211 21.9827L229.208 21.9694L229.204 21.9565L229.201 21.9433L229.198 21.9296L229.195 21.9153L229.192 21.9014L229.188 21.8885L229.184 21.8766L229.181 21.8637L229.178 21.8509L229.174 21.8383L229.171 21.8254L229.167 21.8129L229.164 21.8007L229.16 21.7878L229.156 21.7753L229.152 21.7631L229.15 21.7502L229.145 21.7376L229.142 21.7247L229.138 21.7129L229.134 21.7007L229.131 21.6878L229.128 21.6753L229.124 21.6624L229.12 21.6502L229.116 21.6377L229.112 21.6255L229.108 21.6129L229.104 21.6L229.099 21.5879L229.095 21.5753L229.091 21.5624L229.088 21.5506L229.083 21.5384L229.08 21.5255L229.075 21.5116L228.977 21.2562L228.971 21.2429L228.966 21.2308L228.961 21.2197L228.956 21.2082L228.95 21.1967L228.945 21.1856L228.94 21.1742L228.934 21.162L228.93 21.1516L228.924 21.1394L228.919 21.1287L228.914 21.1169L228.908 21.1054L228.903 21.0947L228.897 21.0836L228.892 21.0721L228.887 21.0606L228.881 21.0495L228.876 21.0381L228.87 21.0266L228.865 21.0155L228.859 21.004L228.853 20.9929L228.848 20.9815L228.842 20.9707L228.836 20.9596L228.831 20.9482L228.825 20.9367L228.82 20.9256L228.814 20.9149L228.808 20.9034L228.8 20.8902L228.666 20.6612L228.516 20.442L228.349 20.2339L228.17 20.0376L227.975 19.8517L227.766 19.6779L227.543 19.515L227.291 19.3549L227.035 19.2141L226.773 19.0905L226.76 19.0844L226.747 19.0794L226.734 19.0744L226.722 19.0687L226.709 19.0637L226.697 19.0587L226.685 19.0536L226.672 19.049L226.659 19.044L226.648 19.039L226.635 19.0339L226.623 19.0289L226.61 19.0239L226.598 19.0193L226.586 19.0142L226.572 19.0099L226.56 19.0049L226.548 18.9999L226.536 18.9956L226.522 18.9906L226.51 18.9859L226.497 18.9816L226.485 18.9766L226.473 18.9716L226.46 18.9673L226.448 18.963L226.435 18.958L226.422 18.9541L226.41 18.9491L226.397 18.9448L226.384 18.9397L226.371 18.9354L226.356 18.9304L226.344 18.9268L226.331 18.9226L226.319 18.9186L226.305 18.9143L226.292 18.9107L226.279 18.9064L226.267 18.9029L226.254 18.8986L226.241 18.895L226.229 18.8907L226.215 18.8875L226.203 18.8832L226.19 18.8796L226.177 18.8753L226.164 18.8717L226.152 18.8681L226.138 18.8645L226.126 18.8609L226.113 18.8567L226.1 18.8534L226.087 18.8498L226.074 18.8463L226.061 18.8427L226.049 18.8391L226.035 18.8355L226.022 18.8319L226.009 18.8276L225.997 18.8248L225.984 18.8215L225.971 18.8179L225.956 18.8144L225.943 18.8108L225.93 18.8072L225.916 18.8043L225.903 18.8007L225.89 18.7979L225.876 18.795L225.863 18.7922L225.851 18.7896L225.837 18.7861L225.824 18.7832L225.81 18.7803L225.798 18.7775L225.785 18.7739L225.77 18.7717L225.758 18.7681L225.745 18.7653L225.731 18.7624L225.718 18.7603L225.705 18.757L225.692 18.7549L225.678 18.752L225.665 18.7491L225.653 18.7463L225.638 18.7434L225.625 18.7406L225.612 18.7384L225.599 18.7355L225.586 18.7327L225.572 18.7298L225.559 18.7276L225.546 18.7248L225.531 18.7223L225.512 18.7194L225.494 18.7158L225.476 18.713L225.458 18.7101L225.439 18.7065L225.421 18.7036L225.402 18.7008L225.385 18.6979L225.366 18.695L225.349 18.6922L225.33 18.6897L225.312 18.6868L225.293 18.6846L225.276 18.6818L225.257 18.6789L225.239 18.6768L225.22 18.6739L225.203 18.671L225.184 18.6689L225.166 18.666L225.148 18.6639L225.13 18.6617L225.112 18.6589L225.093 18.6571L225.075 18.6542L225.056 18.652L225.038 18.6499L225.02 18.647L225.002 18.6456L224.983 18.6427L224.965 18.6413L224.946 18.6384L224.931 18.637L224.917 18.6356L224.903 18.6341L224.888 18.6327L224.875 18.6313L224.86 18.6298L224.846 18.6291L224.832 18.6277L224.817 18.6263L224.804 18.6252L224.789 18.6237L224.776 18.623L224.761 18.6216L224.747 18.6202L224.732 18.6187L224.706 18.6166L224.69 18.6151L224.676 18.6137L224.662 18.613L224.648 18.6116L224.634 18.6108L224.619 18.6094L224.606 18.608L224.59 18.6073L224.577 18.6058L224.562 18.6051L224.549 18.6037L224.534 18.603L224.521 18.6015L224.506 18.6008L224.491 18.5994L224.44 18.5965L224.389 18.5937L224.338 18.5912L224.287 18.5883L224.236 18.5861L224.185 18.584L224.134 18.5818L224.084 18.5797L224.033 18.5775L223.982 18.5761L223.931 18.5747L223.88 18.5725L223.83 18.5711L223.778 18.5704L223.727 18.5689L223.677 18.5675L223.627 18.5668L223.575 18.5661L223.524 18.5654L223.474 18.5639L223.422 18.5632H223.372L223.321 18.5625L223.271 18.5618H223.22L223.17 18.5611H223.119H223.067L223.017 18.5603H222.966H222.915H222.864H219.451V13.6487H215.752V28.3106L222.929 28.3099L222.967 28.3092H223.006L223.043 28.3084ZM206.486 16.7249V28.3106H210.288V16.7249H215.031V13.6677H201.76V16.7249H206.486ZM185.535 14.3859L185.23 14.5395L184.939 14.709L184.661 14.8938L184.398 15.0944L184.151 15.3104L183.917 15.5414L183.699 15.7882L183.495 16.0505L183.307 16.3266L183.133 16.6182L182.975 16.9242L182.83 17.2454L182.701 17.5803L182.585 17.93L182.483 18.2942L182.397 18.6718L182.323 19.0651L182.264 19.472L182.217 19.8944L182.185 20.331L182.165 20.7823L182.159 21.2487L182.167 21.7283L182.194 22.1918L182.239 22.6403L182.301 23.0734L182.382 23.4903L182.48 23.8919L182.599 24.2783L182.735 24.648L182.89 25.0026L183.065 25.3411L183.258 25.6628L183.472 25.9691L183.704 26.2581L183.956 26.5304L184.227 26.7854L184.515 27.0222L184.795 27.2263L185.075 27.4083L185.356 27.5699L185.637 27.7125L185.651 27.7189L185.665 27.7246L185.679 27.7304L185.691 27.7365L185.704 27.7422L185.718 27.7479L185.731 27.7537L185.744 27.7594L185.757 27.7648L185.77 27.7712L185.784 27.7769L185.796 27.7827L185.81 27.7877L185.823 27.7941L185.836 27.7988L185.849 27.8045L185.863 27.8102L185.876 27.816L185.889 27.8217L185.902 27.8267L185.916 27.8321L185.929 27.8371L185.942 27.8428L185.956 27.8486L185.969 27.8536L185.982 27.8593L185.995 27.864L186.009 27.8697L186.022 27.8747L186.036 27.8804L186.05 27.8855L186.064 27.8912L186.079 27.8958L186.091 27.9009L186.105 27.9059L186.118 27.9102L186.131 27.9152L186.145 27.9195L186.158 27.9245L186.172 27.9284L186.185 27.9327L186.198 27.9377L186.212 27.942L186.224 27.9463L186.239 27.9514L186.252 27.9557L186.265 27.96L186.279 27.9639L186.292 27.9682L186.305 27.9732L186.319 27.9768L186.332 27.9818L186.345 27.9861L186.359 27.9904L186.372 27.9943L186.386 27.9979L186.399 28.0022L186.413 28.0065L186.426 28.0108L186.439 28.0151L186.454 28.0194L186.467 28.0237L186.48 28.0273L186.495 28.0319L186.509 28.0355L186.523 28.0391L186.537 28.0427L186.55 28.0463L186.564 28.0499L186.577 28.0534L186.591 28.057L186.604 28.0602L186.618 28.0638L186.631 28.0674L186.645 28.071L186.659 28.0739L186.673 28.0774L186.685 28.081L186.699 28.0846L186.713 28.0875L186.726 28.091L186.74 28.0943L186.754 28.0978L186.767 28.1007L186.781 28.1043L186.794 28.1072L186.808 28.1107L186.822 28.1136L186.836 28.1165L186.849 28.1201L186.863 28.1229L186.876 28.1261L186.891 28.129L186.904 28.1319L186.917 28.1355L186.932 28.1383L186.947 28.1412L186.96 28.1441L186.975 28.1469L186.988 28.1491L187.002 28.1519L187.016 28.1548L187.029 28.1577L187.044 28.1595L187.057 28.1616L187.071 28.1645L187.085 28.1673L187.098 28.1695L187.113 28.1723L187.126 28.1745L187.14 28.1774L187.154 28.1795L187.167 28.1817L187.182 28.1838L187.195 28.1867L187.21 28.1888L187.223 28.191L187.237 28.1935L187.251 28.1956L187.264 28.1978L187.279 28.1999L187.292 28.2021L187.306 28.2049L187.319 28.2071L187.334 28.2092L187.348 28.2114L187.362 28.2135L187.376 28.2157L187.392 28.2178L187.405 28.2193L187.42 28.2214L187.433 28.2228L187.449 28.2246L187.462 28.2268L187.477 28.2282L187.49 28.2304L187.504 28.2318L187.518 28.234L187.532 28.2354L187.547 28.2368L187.561 28.239L187.575 28.2404L187.589 28.2418L187.603 28.244L187.618 28.2454L187.631 28.2468L187.646 28.2483L187.659 28.2504L187.674 28.2519L187.687 28.2533L187.702 28.2547L187.716 28.2562L187.731 28.2572L187.744 28.2587L187.759 28.2608L187.772 28.2622L187.787 28.263L187.8 28.2651L187.815 28.2665L187.83 28.268L187.861 28.2701L187.889 28.2723L187.919 28.2751L187.948 28.2773L187.978 28.2794L188.006 28.2816L188.036 28.283L188.066 28.2852L188.095 28.2873L188.125 28.2887L188.154 28.2905L188.183 28.292L188.212 28.2934L188.243 28.2956L188.272 28.297L188.301 28.2984L188.33 28.2999L188.36 28.3013L188.39 28.3027L188.418 28.3042L188.448 28.3056L188.478 28.3063L188.507 28.307L188.536 28.3084L188.566 28.3099L188.596 28.3106L188.624 28.3113L188.654 28.3127L188.684 28.3135L188.713 28.3142L188.742 28.3149L188.773 28.3156L188.816 28.3163L188.859 28.317L188.903 28.3178H188.946L188.99 28.3185H189.033L189.077 28.3192H189.12H189.163L189.207 28.3199H189.25H189.293L189.337 28.3206H189.38H189.424H189.467H189.51H189.554H189.598H189.641H189.684H189.728H189.771H189.814L189.857 28.3199H189.943H189.988H190.031H190.074H190.076V28.8526H193.774V28.3199H193.796H193.849H193.903H193.956L194.009 28.3206H194.063H194.116H194.169H194.222H194.276H194.329H194.382H194.435H194.489H194.542L194.596 28.3199H194.649L194.702 28.3192H194.755L194.809 28.3185L194.863 28.3178H194.916L194.969 28.3163L195.022 28.3156L195.076 28.3149L195.13 28.3142L195.183 28.3127L195.237 28.3113L195.29 28.3099L195.344 28.3084L195.397 28.3063L195.422 28.3056L195.447 28.3042L195.471 28.3027L195.495 28.302L195.519 28.3006L195.543 28.2991L195.567 28.2977L195.592 28.297L195.616 28.2956L195.64 28.2941L195.664 28.2927L195.688 28.2913L195.712 28.2895L195.736 28.2887L195.76 28.2866L195.785 28.2852L195.809 28.283L195.833 28.2816L195.857 28.2802L195.881 28.278L195.906 28.2766L195.93 28.2744L195.954 28.2723L195.978 28.2701L196.002 28.2687L196.027 28.2665L196.051 28.2644L196.075 28.2622L196.099 28.2601L196.123 28.2572L196.147 28.2554L196.172 28.2533L196.187 28.2511L196.201 28.2497L196.215 28.2483L196.229 28.2461L196.243 28.2447L196.257 28.2425L196.271 28.2411L196.285 28.2397L196.299 28.2375L196.314 28.2361L196.328 28.234L196.342 28.2318L196.355 28.2304L196.369 28.2282L196.383 28.2268L196.398 28.2246L196.411 28.2236L196.426 28.2214L196.439 28.2193L196.453 28.2171L196.467 28.2157L196.482 28.2135L196.496 28.2114L196.509 28.2092L196.524 28.2078L196.537 28.2057L196.551 28.2035L196.565 28.2014L196.58 28.1992L196.593 28.1971L196.607 28.1949L196.622 28.1928L196.637 28.191L196.651 28.1881L196.665 28.186L196.678 28.1831L196.692 28.1809L196.706 28.1781L196.719 28.1752L196.734 28.1731L196.748 28.1702L196.761 28.168L196.774 28.1652L196.788 28.1623L196.803 28.1602L196.816 28.1577L196.83 28.1548L196.843 28.1519L196.857 28.1491L196.871 28.1469L196.885 28.1441L196.899 28.1412L196.912 28.1383L196.925 28.1355L196.94 28.1326L196.953 28.1297L196.967 28.1269L196.98 28.1244L196.994 28.1215L197.009 28.1186L197.022 28.1158L197.036 28.1129L197.049 28.1093L197.064 28.1064L197.079 28.1029L197.093 28.0993L197.106 28.0957L197.119 28.0928L197.133 28.0896L197.147 28.086L197.161 28.0824L197.174 28.0789L197.187 28.0753L197.201 28.0717L197.215 28.0681L197.228 28.0645L197.242 28.061L197.255 28.0577L197.269 28.0542L197.283 28.0506L197.296 28.047L197.309 28.0427L197.323 28.0391L197.336 28.0355L197.349 28.0319L197.363 28.0276L197.377 28.0244L197.39 28.0201L197.404 28.0165L197.417 28.013L197.43 28.0087L197.444 28.0051L197.457 28.0008L197.471 27.9972L197.485 27.9933L197.499 27.989L197.514 27.984L197.527 27.9797L197.541 27.9754L197.554 27.9703L197.567 27.966L197.581 27.9617L197.595 27.9571L197.608 27.9528L197.622 27.9478L197.635 27.9435L197.648 27.9385L197.661 27.9335L197.675 27.9292L197.688 27.9245L197.702 27.9202L197.715 27.9152L197.728 27.9102L197.741 27.9059L197.755 27.9009L197.768 27.8958L197.781 27.8912L197.795 27.8869L197.808 27.8819L197.821 27.8761L197.834 27.8718L197.848 27.8668L197.861 27.8615L197.873 27.8564L197.888 27.8521L197.901 27.8464L197.914 27.8414L197.93 27.8357L198.212 27.7125L198.495 27.5699L198.775 27.4083L199.054 27.2263L199.335 27.0222L199.623 26.7854L199.894 26.5304L200.145 26.2581L200.378 25.9691L200.591 25.6628L200.785 25.3411L200.96 25.0026L201.115 24.648L201.251 24.2783L201.369 23.8919L201.468 23.4903L201.549 23.0734L201.611 22.6403L201.656 22.1918L201.683 21.7283L201.692 21.2487L201.684 20.7823L201.665 20.331L201.632 19.8944L201.586 19.472L201.526 19.0651L201.453 18.6718L201.365 18.2942L201.264 17.93L201.149 17.5803L201.019 17.2454L200.876 16.9242L200.717 16.6182L200.543 16.3266L200.354 16.0505L200.151 15.7882L199.932 15.5414L199.7 15.3104L199.451 15.0944L199.189 14.8938L198.912 14.709L198.621 14.5395L198.315 14.3859L197.995 14.2476L197.662 14.1241L197.316 14.0159L196.954 13.9231L196.58 13.845L196.192 13.7812L195.791 13.7314L195.375 13.6967L194.945 13.6763L194.505 13.6691H193.774V13.0391H190.076V13.6691H189.345L188.903 13.6763L188.475 13.6967L188.059 13.7314L187.657 13.7812L187.269 13.845L186.895 13.9231L186.535 14.0159L186.188 14.1241L185.854 14.2476L185.535 14.3859ZM195.005 16.7514L195.178 16.7711L195.344 16.7973L195.505 16.8292L195.657 16.8661L195.803 16.9095L195.942 16.9567L196.074 17.0108L196.2 17.0696L196.32 17.1333L196.433 17.2028L196.54 17.2773L196.643 17.3572L196.739 17.4428L196.83 17.5345L196.916 17.6315L196.997 17.7351L197.073 17.844L197.143 17.9604L197.209 18.0829L197.27 18.2126L197.327 18.3494L197.377 18.4927L197.424 18.6434L197.464 18.8015L197.499 18.9666L197.529 19.1389L197.574 19.5074L197.587 19.6966L197.607 22.1259L197.592 22.564L197.576 22.7675L197.554 22.9616L197.526 23.1457L197.492 23.3201L197.453 23.4853L197.409 23.6411L197.359 23.7869L197.304 23.9245L197.243 24.0527L197.178 24.1734L197.106 24.2851L197.03 24.3894L196.948 24.4871L196.861 24.5778L196.767 24.6616L196.667 24.7401L196.561 24.8125L196.447 24.8791L196.326 24.9407L196.197 24.9976L196.06 25.0485L195.914 25.094L195.762 25.1344L195.599 25.1681L195.428 25.1982L195.249 25.2222L194.862 25.2541L194.827 25.2548L194.79 25.2562L194.754 25.2577L194.718 25.2584L194.681 25.2598L194.645 25.2605L194.607 25.2612L194.571 25.262L194.534 25.2627L194.498 25.2634H194.462L194.425 25.2641H194.387L194.351 25.2648H194.314H194.278H194.241H194.205H194.168H194.131H194.094H194.058H194.021H193.984H193.947H193.91H193.873H193.837H193.8H193.774V16.7242L194.636 16.7271L195.005 16.7514ZM190.013 25.2648H189.976H189.939H189.903H189.865H189.829H189.792H189.756H189.719H189.683H189.645H189.609H189.572H189.535H189.499L189.461 25.2641H189.425L189.388 25.2634H189.352L189.315 25.2627L189.279 25.262L189.242 25.2612L189.206 25.2605L189.169 25.2598L189.132 25.2584L189.096 25.2577L189.059 25.2562L189.023 25.2548L188.988 25.2541L188.601 25.2222L188.422 25.1982L188.251 25.1681L188.088 25.1344L187.934 25.094L187.789 25.0485L187.652 24.9976L187.523 24.9407L187.402 24.8791L187.289 24.8125L187.182 24.7401L187.082 24.6616L186.989 24.5778L186.901 24.4871L186.82 24.3894L186.743 24.2851L186.673 24.1734L186.607 24.0527L186.546 23.9245L186.491 23.7869L186.441 23.6411L186.396 23.4853L186.357 23.3201L186.323 23.1457L186.296 22.9616L186.274 22.7679L186.248 22.3491L186.243 22.1266L186.262 19.6966L186.296 19.3187L186.32 19.1396L186.35 18.9666L186.386 18.8015L186.426 18.6434L186.472 18.4927L186.523 18.3494L186.58 18.2126L186.64 18.0829L186.707 17.9604L186.778 17.844L186.854 17.7351L186.935 17.6315L187.02 17.5345L187.111 17.4428L187.207 17.3572L187.309 17.2773L187.417 17.2028L187.53 17.1333L187.65 17.0696L187.776 17.0108L187.908 16.9567L188.047 16.9095L188.192 16.8661L188.346 16.8292L188.505 16.7973L188.672 16.7711L188.845 16.7514L189.214 16.7271L189.411 16.7242H190.076V25.2648H190.051H190.013ZM170.889 14.6889L170.612 14.8741L170.349 15.0747L170.1 15.2907L169.867 15.5225L169.649 15.7696L169.445 16.0311L169.256 16.3084L169.083 16.6003L168.923 16.9066L168.78 17.2268L168.65 17.5628L168.534 17.9121L168.433 18.2763L168.345 18.6556L168.272 19.0483L168.213 19.4555L168.167 19.8779L168.134 20.3152L168.114 20.7666L168.107 21.2329L168.116 21.7136L168.143 22.1775L168.187 22.6263L168.249 23.0594L168.33 23.4774L168.429 23.8786L168.547 24.2654L168.684 24.6355L168.84 24.9905L169.015 25.3293L169.208 25.6517L169.422 25.9576L169.654 26.247L169.906 26.5189L170.177 26.7743L170.466 27.0114L170.745 27.2156L171.026 27.3979L171.306 27.5602L171.588 27.7017L171.603 27.7082L171.616 27.7146L171.629 27.7203L171.642 27.7261L171.656 27.7314L171.669 27.7379L171.682 27.7436L171.695 27.7494L171.709 27.7551L171.722 27.7608L171.735 27.7662L171.747 27.7719L171.761 27.7776L171.775 27.7834L171.787 27.7891L171.8 27.7948L171.814 27.7995L171.828 27.8052L171.84 27.811L171.854 27.8167L171.868 27.8217L171.88 27.8274L171.893 27.8328L171.908 27.8378L171.92 27.8436L171.933 27.8486L171.947 27.8543L171.961 27.86L171.974 27.8647L171.987 27.8697L172.001 27.8754L172.016 27.8812L172.03 27.8862L172.043 27.8912L172.057 27.8955L172.07 27.9001L172.083 27.9044L172.097 27.9095L172.11 27.9138L172.123 27.9188L172.136 27.9231L172.151 27.9274L172.163 27.932L172.177 27.9363L172.19 27.9406L172.203 27.9456L172.217 27.9499L172.23 27.9542L172.244 27.9585L172.257 27.9625L172.27 27.9675L172.284 27.9711L172.297 27.9754L172.311 27.9797L172.324 27.9847L172.337 27.989L172.352 27.9925L172.365 27.9965L172.378 28.0008L172.392 28.0051L172.405 28.0094L172.419 28.013L172.433 28.0173L172.447 28.0216L172.462 28.0259L172.475 28.0291L172.489 28.0327L172.502 28.0362L172.516 28.0405L172.53 28.0434L172.543 28.047L172.556 28.0506L172.571 28.0542L172.583 28.0577L172.597 28.061L172.611 28.0638L172.624 28.0674L172.638 28.071L172.652 28.0746L172.664 28.0774L172.679 28.081L172.692 28.0846L172.706 28.0875L172.72 28.091L172.733 28.0943L172.747 28.0971L172.761 28.1007L172.774 28.1036L172.788 28.1072L172.801 28.11L172.815 28.1129L172.829 28.1165L172.842 28.1193L172.856 28.1222L172.87 28.1258L172.885 28.1283L172.899 28.1312L172.913 28.134L172.927 28.1369L172.94 28.1398L172.955 28.1419L172.968 28.1448L172.982 28.1476L172.995 28.1498L173.009 28.1526L173.024 28.1548L173.037 28.1577L173.052 28.1595L173.065 28.1616L173.079 28.1645L173.093 28.1666L173.107 28.1695L173.12 28.1716L173.134 28.1745L173.148 28.1766L173.161 28.1788L173.176 28.1817L173.189 28.1838L173.203 28.186L173.217 28.1881L173.23 28.191L173.245 28.1928L173.259 28.1949L173.273 28.1971L173.286 28.1992L173.3 28.2014L173.314 28.2035L173.329 28.2057L173.344 28.2078L173.359 28.2092L173.372 28.2114L173.387 28.2135L173.4 28.215L173.415 28.2171L173.429 28.2185L173.444 28.2207L173.457 28.2221L173.472 28.2243L173.485 28.2254L173.499 28.2268L173.513 28.2289L173.528 28.2304L173.542 28.2318L173.556 28.234L173.57 28.2354L173.584 28.2368L173.598 28.239L173.612 28.2404L173.627 28.2418L173.641 28.2433L173.655 28.2447L173.669 28.2468L173.683 28.2483L173.698 28.2497L173.711 28.2511L173.726 28.2526L173.739 28.254L173.754 28.2554L173.768 28.2569L173.783 28.2579L173.813 28.2601L173.842 28.263L173.872 28.2651L173.901 28.2673L173.931 28.2694L173.961 28.2716L173.989 28.2737L174.019 28.2751L174.048 28.2773L174.078 28.2794L174.107 28.2809L174.137 28.283L174.166 28.2845L174.195 28.2859L174.224 28.2873L174.255 28.2887L174.284 28.2905L174.313 28.2913L174.343 28.2927L174.372 28.2941L174.401 28.2956L174.431 28.2963L174.461 28.2977L174.49 28.2984L174.519 28.2999L174.548 28.3006L174.578 28.302L174.607 28.3027L174.637 28.3034L174.667 28.3042L174.696 28.3049L174.726 28.3056L174.742 28.3063H174.757L174.788 28.307H174.804H174.819H174.834H174.85L174.865 28.3077H174.88L174.896 28.3084H174.91H174.927H174.943H174.958H174.973L175.003 28.3092H175.019H175.035H175.05L175.066 28.3099H175.08H175.096H175.112H175.127H175.143H175.157H175.173L175.188 28.3106H175.219H180.725V25.2526L175.148 25.2498L174.742 25.2286L174.555 25.21L174.375 25.1867L174.204 25.157L174.042 25.1223L173.888 25.0818L173.742 25.0363L173.605 24.9855L173.476 24.9296L173.355 24.868L173.242 24.8006L173.135 24.7283L173.035 24.6495L172.941 24.5653L172.854 24.4753L172.771 24.3775L172.695 24.2733L172.624 24.1605L172.558 24.0409L172.498 23.9119L172.442 23.7744L172.393 23.6275L172.348 23.4724L172.309 23.3073L172.275 23.1321L172.248 22.948L172.245 22.9305L172.244 22.9111L172.242 22.8921L172.239 22.8721L172.237 22.8531L172.236 22.8338L172.233 22.8148L172.231 22.7958L172.228 22.7764L172.227 22.7575L172.225 22.7374L172.223 22.7184L172.221 22.6994L172.219 22.6801L172.218 22.6611L172.216 22.6417L172.215 22.6227L172.213 22.6034L172.211 22.5844L172.21 22.5654L172.208 22.5461L172.207 22.5271L172.206 22.5077L172.205 22.4887L172.204 22.4698L172.203 22.4504L172.202 22.4314V22.42H180.725V19.362H172.243L172.272 19.1217L172.302 18.9498L172.337 18.7846L172.378 18.6263L172.424 18.4755L172.474 18.3315L172.531 18.195L172.592 18.0654L172.658 17.9425L172.729 17.8264L172.805 17.7164L172.886 17.6129L172.972 17.5158L173.063 17.4245L173.16 17.3396L173.262 17.2587L173.369 17.1842L173.483 17.1147L173.603 17.0509L173.728 16.9922L173.86 16.9385L174 16.8908L174.146 16.8478L174.299 16.8109L174.458 16.779L174.625 16.7525L174.798 16.7321L175.168 16.7088L180.725 16.7059V13.6487H175.299L174.858 13.6551L174.428 13.6763L174.012 13.711L173.61 13.7608L173.222 13.8246L172.847 13.9023L172.486 13.9959L172.139 14.1037L171.806 14.2269L171.486 14.3651L171.18 14.5195L170.889 14.6889ZM158.053 13.6487H154.354V28.3106H158.053V22.4397H163.067V28.3106H166.767V13.6487H163.067V19.343H158.053V13.6487ZM147.458 16.6669H152.818V13.6487H147.393L146.953 13.6544L146.525 13.672L146.112 13.701L145.711 13.7429L145.325 13.7973L144.953 13.8647L144.594 13.9457L144.25 14.0399L143.918 14.1484L143.6 14.2716L143.295 14.4092L143.004 14.5621L142.727 14.7301L142.465 14.9135L142.218 15.1134L141.984 15.3283L141.765 15.5593L141.562 15.8058L141.373 16.0688L141.2 16.3467L141.042 16.64L140.898 16.9492L140.768 17.2737L140.654 17.6143L140.553 17.9701L140.468 18.3422L140.394 18.7305L140.335 19.136L140.29 19.5569L140.257 19.9957L140.238 20.4513L140.231 20.9242L140.236 21.3583L140.252 21.7817L140.28 22.1918L140.319 22.5894L140.371 22.9756L140.436 23.3499L140.512 23.7113L140.601 24.0613L140.706 24.398L140.822 24.7233L140.953 25.0352L141.099 25.3347L141.26 25.6206L141.436 25.8939L141.628 26.1535L141.834 26.3992L142.057 26.6311L142.296 26.8478L142.55 27.0498L142.82 27.2378L143.107 27.4097L143.409 27.567L143.726 27.7089L144.059 27.8357L144.409 27.9478L144.775 28.0441L145.156 28.1258L145.554 28.192L145.967 28.244L146.4 28.2809L146.848 28.3027L147.311 28.3106H152.818V25.2526H147.458L147.229 25.2491L147.013 25.2376L146.808 25.2186L146.611 25.1932L146.427 25.1592L146.252 25.1187L146.086 25.0711L145.931 25.0159L145.783 24.9543L145.645 24.8848L145.516 24.8082L145.394 24.7247L145.28 24.6341L145.171 24.5355L145.07 24.4277L144.975 24.3127L144.886 24.1874L144.803 24.0534L144.725 23.9098L144.654 23.7551L144.587 23.5913L144.527 23.4165L144.473 23.2306L144.424 23.0343L144.382 22.8277L144.345 22.6091L144.315 22.3802L144.289 22.141L144.255 21.6269L144.245 21.07L144.255 20.4542L144.289 19.8922L144.315 19.6321L144.346 19.3839L144.383 19.1489L144.425 18.9268L144.474 18.718L144.529 18.521L144.59 18.3365L144.655 18.1646L144.727 18.0041L144.805 17.8555L144.888 17.7179L144.977 17.5903L145.071 17.4736L145.172 17.3658L145.28 17.2673L145.393 17.1774L145.515 17.095L145.643 17.0198L145.781 16.9524L145.927 16.8923L146.083 16.8392L146.248 16.793L146.424 16.7547L146.61 16.7228L146.805 16.6981L147.012 16.6805L147.228 16.6705L147.458 16.6669ZM126.488 13.6487L132.46 22.3677L129.402 28.3106H133.478L141.541 13.6487H137.265L134.283 19.2438L130.71 13.6487H126.488ZM120.566 16.7647H120.582L120.597 16.7654H120.615H120.631H120.648L120.664 16.7661H120.681H120.697L120.714 16.7669H120.73L120.746 16.7676H120.763L120.78 16.7683H120.796L120.813 16.769H120.828L120.845 16.7697H120.862L120.879 16.7704L120.895 16.7711H120.911L120.928 16.7719L120.944 16.7726L120.96 16.7733H120.977L120.993 16.774L121.01 16.7747L121.027 16.7754L121.043 16.7762L121.059 16.7769L121.076 16.7776L121.091 16.7783L121.406 16.8023L121.417 16.8038L121.431 16.8052L121.444 16.8073L121.457 16.8088L121.47 16.8102L121.484 16.8116L121.497 16.8138L121.509 16.8152L121.523 16.8174L121.536 16.8185L121.549 16.8206L121.562 16.822L121.575 16.8242L121.588 16.8256L121.602 16.8278L121.615 16.8299L121.627 16.8314L121.64 16.8335L121.654 16.8356L121.667 16.8378L121.679 16.8392L121.693 16.8414L121.706 16.8435L121.719 16.8457L121.732 16.8478L121.745 16.85L121.758 16.8518L121.771 16.8539L121.784 16.8561L121.797 16.8582L121.81 16.8604L121.821 16.8625L122.063 16.9191L122.275 16.9879L122.459 17.0681L122.617 17.1609L122.751 17.2644L122.863 17.3819L122.959 17.5151L123.038 17.6677L123.1 17.844L123.147 18.046L123.176 18.2756L123.185 18.5328L123.176 18.7631L123.147 18.9731L123.102 19.1622L123.041 19.3323L122.963 19.4852L122.869 19.6221L122.757 19.7453L122.627 19.856L122.476 19.956L122.303 20.0444L122.106 20.1211L121.884 20.1848L121.638 20.2353L121.366 20.2719L121.353 20.2733L121.34 20.2747L121.325 20.2754L121.31 20.2769L121.296 20.2776L121.282 20.279L121.267 20.2805L121.254 20.2812L121.239 20.2826L121.226 20.2833L121.21 20.2848L121.197 20.2855L121.182 20.2862L121.168 20.2869L121.154 20.2883L121.14 20.2891L121.126 20.2898L121.111 20.2912H121.097L121.083 20.2919L121.069 20.2933L121.055 20.2941L121.041 20.2948L121.026 20.2955L121.012 20.2962L120.997 20.2969L120.983 20.2976L120.969 20.2984H120.955L120.94 20.2991L120.926 20.2998H120.912L117.317 20.3019V16.7647H120.566ZM113.617 13.6487V28.3106H117.317V23.3979H120.9H120.942H120.982L121.023 23.3971H121.064L121.104 23.3964H121.145L121.186 23.3957H121.227L121.266 23.395L121.307 23.3943L121.348 23.3936H121.388L121.429 23.3929L121.469 23.3925L121.509 23.3911L121.55 23.3903L121.591 23.3896L121.632 23.3889L121.672 23.3875L121.713 23.3868L121.754 23.3853L121.794 23.3846L121.835 23.3832L121.875 23.3817L121.916 23.3803L121.957 23.3782L121.998 23.3767L122.039 23.3753L122.079 23.3732L122.12 23.3717L122.16 23.3696L122.201 23.3674L122.221 23.3667L122.24 23.3653L122.259 23.3638L122.278 23.3631L122.297 23.3617L122.316 23.3603L122.335 23.3592L122.354 23.3578L122.374 23.3563L122.392 23.3549L122.411 23.3535L122.43 23.352L122.448 23.3506L122.468 23.3492L122.487 23.3477L122.506 23.3463L122.525 23.3449L122.544 23.3434L122.563 23.3413L122.582 23.3398L122.601 23.3384L122.62 23.337L122.639 23.3348L122.657 23.3334L122.677 23.332L122.696 23.3298L122.715 23.3277L122.734 23.3266L122.753 23.3244L122.772 23.323L122.79 23.3209L122.811 23.3187L122.83 23.3166L122.847 23.3144L122.866 23.3123L122.884 23.3101L122.903 23.308L122.921 23.3051L122.94 23.303L122.957 23.3008L122.976 23.2987L122.994 23.2958L123.013 23.2936L123.031 23.2911L123.049 23.289L123.067 23.2861L123.085 23.284L123.103 23.2811L123.122 23.2782L123.14 23.2761L123.158 23.2732L123.177 23.2704L123.194 23.2675L123.213 23.2646L123.231 23.2618L123.249 23.2593L123.267 23.2564L123.285 23.2535L123.304 23.2507L123.321 23.2478L123.34 23.2442L123.359 23.2413L123.376 23.2378L123.396 23.2349L123.41 23.232L123.423 23.2299L123.437 23.2274L123.45 23.2245L123.463 23.2216L123.476 23.2195L123.489 23.2166L123.503 23.2138L123.516 23.2109L123.529 23.208L123.542 23.2052L123.556 23.2023L123.569 23.2002L123.582 23.1973L123.595 23.1941L123.609 23.1919L123.622 23.1883L123.635 23.1855L123.648 23.1833L123.661 23.1797L123.675 23.1769L123.688 23.174L123.701 23.1711L123.714 23.1683L123.727 23.1647L123.74 23.1622L123.753 23.1593L123.767 23.1565L123.78 23.1529L123.793 23.1493L123.806 23.1464L123.821 23.1436L123.834 23.1393L123.848 23.1357L123.861 23.1321L123.873 23.1292L123.887 23.1253L123.899 23.1217L123.912 23.1181L123.925 23.1146L123.938 23.111L123.951 23.1074L123.963 23.1038L123.977 23.1002L123.99 23.0963L124.002 23.0927L124.015 23.0891L124.028 23.0855L124.041 23.0812L124.054 23.0777L124.067 23.0741L124.079 23.0698L124.092 23.0662L124.105 23.0623L124.118 23.0587L124.131 23.0544L124.144 23.0508L124.157 23.0465L124.169 23.0429L124.182 23.0386L124.194 23.0343L124.208 23.0304L124.221 23.0268L124.234 23.0218L124.248 23.0175L124.261 23.0125L124.273 23.0082L124.286 23.0032L124.298 22.9989L124.311 22.9949L124.324 22.9899L124.337 22.9856L124.349 22.9806L124.361 22.9763L124.374 22.9713L124.386 22.9663L124.398 22.9623L124.411 22.9573L124.424 22.9523L124.436 22.9473L124.449 22.943L124.462 22.938L124.474 22.933L124.486 22.9283L124.498 22.9233L124.511 22.919L124.524 22.9133L124.536 22.9083L124.548 22.9032L124.561 22.8986L124.573 22.8936L124.585 22.8886L124.597 22.8835L124.61 22.8785L124.623 22.8728L124.637 22.8671L124.899 22.7439L125.155 22.603L125.408 22.4433L125.631 22.2796L125.642 22.2706L125.651 22.2627L125.662 22.2549L125.671 22.2463L125.681 22.2387L125.691 22.2309L125.701 22.2223L125.71 22.2144L125.72 22.2069L125.73 22.1983L125.74 22.1904L125.748 22.1818L125.758 22.1743L125.768 22.1657L125.777 22.1578L125.787 22.1492L125.797 22.141L125.806 22.1331L125.815 22.1245L125.825 22.1159L125.834 22.1077L125.844 22.0998L125.853 22.0912L125.862 22.0826L125.872 22.0743L125.881 22.0657L125.891 22.0579L125.9 22.0493L125.909 22.0403L125.918 22.0317L125.928 22.0231L125.939 22.0131L126.126 21.8226L126.298 21.6198L126.456 21.4073L126.599 21.1828L126.727 20.9482L126.733 20.9353L126.739 20.9235L126.745 20.912L126.75 20.9005L126.754 20.8894L126.761 20.878L126.766 20.8658L126.771 20.8547L126.777 20.8432L126.782 20.8318L126.787 20.8207L126.792 20.8085L126.797 20.797L126.802 20.7859L126.808 20.7744L126.813 20.7626L126.818 20.7512L126.823 20.7397L126.827 20.7286L126.832 20.7164L126.838 20.7049L126.843 20.6938L126.848 20.6816L126.853 20.6702L126.858 20.6591L126.863 20.6469L126.867 20.6347L126.872 20.6236L126.877 20.6114L126.882 20.5999L126.887 20.5881L126.892 20.5752L126.896 20.562L126.901 20.5498L126.906 20.5369L126.91 20.5251L126.914 20.5129L126.919 20.5007L126.923 20.4882L126.927 20.476L126.932 20.4642L126.936 20.452L126.94 20.4398L126.944 20.4273L126.949 20.4151L126.952 20.4029L126.956 20.3911L126.961 20.3782L126.964 20.3664L126.968 20.3542L126.972 20.3413L126.977 20.3295L126.98 20.3173L126.984 20.3045L126.989 20.2926L126.992 20.2797L126.997 20.2679L127.001 20.2557L127.004 20.2428L127.008 20.231L127.012 20.2181L127.016 20.206L127.019 20.1934L127.023 20.1798L127.027 20.1658L127.03 20.153L127.033 20.1393L127.037 20.1268L127.04 20.1139L127.044 20.1007L127.048 20.0878L127.05 20.0749L127.053 20.0616L127.057 20.0487L127.06 20.0362L127.062 20.0233L127.066 20.0097L127.069 19.9971L127.072 19.9843L127.076 19.971L127.078 19.9581L127.081 19.9452L127.085 19.9327L127.087 19.9191L127.091 19.9065L127.093 19.8936L127.097 19.88L127.099 19.8675L127.102 19.8539L127.105 19.8413L127.108 19.8277L127.11 19.8148L127.114 19.8023L127.116 19.7887L127.118 19.7754L127.122 19.7611L127.124 19.746L127.126 19.7328L127.13 19.7192L127.131 19.7052L127.134 19.6916L127.137 19.6779L127.138 19.664L127.141 19.6504L127.143 19.6371L127.146 19.6228L127.147 19.6095L127.15 19.5959L127.152 19.5816L127.154 19.5683L127.156 19.5547L127.158 19.5415L127.16 19.5271L127.162 19.5135L127.164 19.4996L127.166 19.4859L127.169 19.4727L127.17 19.4584L127.172 19.4451L127.174 19.4315L127.176 19.4172L127.178 19.4039L127.179 19.3896L127.182 19.3763L127.183 19.3627L127.185 19.3488L127.187 19.3352L127.189 19.3201L127.191 19.3047L127.191 19.2897L127.193 19.2757L127.194 19.2614L127.195 19.2467L127.197 19.2324L127.199 19.218L127.199 19.2034L127.201 19.189L127.202 19.1743L127.203 19.16L127.205 19.146L127.206 19.131L127.207 19.117L127.208 19.1027L127.209 19.0877L127.21 19.0737L127.211 19.0587L127.213 19.0447L127.214 19.0296L127.215 19.0157L127.215 19.0013L127.216 18.9874L127.217 18.9723L127.218 18.958L127.219 18.944L127.22 18.929L127.221 18.9143L127.222 18.9V18.886L127.223 18.871L127.224 18.8563V18.8391L127.225 18.824V18.8086L127.226 18.7929L127.227 18.7782V18.7624L127.227 18.7477V18.732V18.7165L127.228 18.7015V18.6861L127.229 18.671V18.6556V18.6406V18.6252V18.6094V18.5937V18.579V18.5632V18.5485V18.5328V18.5181V18.5023V18.4869V18.4719V18.4565V18.4407V18.426V18.4103V18.3956V18.3798V18.363L127.211 18.0306L127.177 17.7064L127.124 17.3926L127.055 17.0885L126.968 16.7944L126.864 16.5104L126.744 16.2367L126.607 15.9746L126.453 15.7245L126.282 15.4848L126.096 15.2588L125.894 15.0447L125.677 14.8437L125.445 14.6563L125.198 14.4822L124.974 14.344L124.964 14.3375L124.954 14.3325L124.944 14.3275L124.935 14.3225L124.927 14.3186L124.917 14.3135L124.908 14.3085L124.899 14.3035L124.889 14.2985L124.88 14.2935L124.871 14.2892L124.861 14.2845L124.851 14.2795L124.843 14.2752L124.834 14.2702L124.824 14.2652L124.815 14.2609L124.805 14.2559L124.796 14.2512L124.786 14.2469L124.777 14.2419L124.768 14.2376L124.758 14.2333L124.749 14.2283L124.739 14.224L124.73 14.2201L124.722 14.215L124.711 14.2107L124.702 14.2065L124.692 14.2014L124.683 14.1971L124.672 14.1921L124.661 14.1882L124.651 14.1832L124.641 14.1789L124.631 14.1746L124.621 14.1703L124.61 14.1667L124.6 14.1624L124.591 14.1581L124.58 14.1542L124.57 14.1499L124.56 14.1463L124.55 14.142L124.54 14.1384L124.529 14.1341L124.52 14.1298L124.509 14.1262L124.499 14.1223L124.489 14.118L124.479 14.1144L124.468 14.1101L124.459 14.1065L124.449 14.1029L124.438 14.0986L124.428 14.0951L124.418 14.0908L124.407 14.0875L124.398 14.0832L124.387 14.0797L124.377 14.0761L124.367 14.0725L124.357 14.0689L124.346 14.0646L124.334 14.0603L124.323 14.0571L124.312 14.0535L124.3 14.0499L124.289 14.0464L124.279 14.0428L124.269 14.0392L124.257 14.0356L124.247 14.032L124.235 14.0292L124.225 14.0256L124.213 14.0224L124.202 14.0188L124.192 14.0152L124.18 14.0123L124.17 14.0087L124.159 14.0059L124.148 14.0023L124.137 13.9987L124.126 13.9951L124.116 13.9923L124.104 13.9898L124.093 13.9862L124.083 13.9826L124.071 13.9797L124.061 13.9762L124.05 13.9733L124.039 13.9697L124.027 13.9668L124.017 13.964L124.006 13.9604L123.994 13.9579L123.978 13.9536L123.962 13.9493L123.946 13.9457L123.93 13.9414L123.914 13.9371L123.898 13.9335L123.882 13.9299L123.866 13.9256L123.851 13.9224L123.835 13.9188L123.82 13.9152L123.803 13.9109L123.788 13.9074L123.772 13.9038L123.756 13.9002L123.74 13.8966L123.725 13.893L123.709 13.8898L123.693 13.8862L123.677 13.8833L123.661 13.8798L123.646 13.8762L123.63 13.8726L123.614 13.8697L123.598 13.8661L123.582 13.8633L123.566 13.8597L123.55 13.8572L123.535 13.8536L123.518 13.8507L123.502 13.8471L123.486 13.8443L123.468 13.8407L123.451 13.8378L123.433 13.835L123.417 13.8321L123.399 13.8285L123.382 13.8267L123.364 13.8231L123.347 13.8203L123.33 13.8181L123.313 13.8145L123.295 13.8124L123.278 13.8095L123.261 13.8067L123.244 13.8038L123.227 13.8016L123.209 13.7988L123.191 13.7959L123.175 13.7941L123.158 13.7913L123.14 13.7891L123.122 13.7862L123.106 13.7841L123.089 13.7812L123.071 13.7791L123.053 13.7762L123.037 13.774L123.02 13.7719L123.001 13.769L122.984 13.7669L122.968 13.7647L122.95 13.7626L122.932 13.7608L122.917 13.7586L122.903 13.7572L122.89 13.7558L122.862 13.7522L122.847 13.7508L122.834 13.7493L122.807 13.7465L122.793 13.745L122.779 13.7436L122.75 13.74L122.737 13.7386L122.723 13.7372L122.709 13.7357L122.694 13.7343L122.681 13.7329L122.667 13.7314L122.653 13.73L122.64 13.7286L122.625 13.7275L122.612 13.7261L122.597 13.7253L122.584 13.7239L122.57 13.7225L122.556 13.721L122.542 13.7196L122.528 13.7182L122.514 13.7175L122.499 13.716L122.486 13.7146L122.438 13.711L122.39 13.7074L122.343 13.7038L122.297 13.7003L122.249 13.6974L122.203 13.6949L122.155 13.6913L122.108 13.6884L122.06 13.6863L122.014 13.6834L121.967 13.6813L121.92 13.6784L121.873 13.6763L121.825 13.6741L121.778 13.672L121.732 13.6698L121.685 13.6684L121.638 13.6662L121.59 13.6648L121.543 13.6634L121.496 13.6616L121.449 13.6602L121.401 13.6594L121.355 13.658L121.307 13.6566L121.261 13.6551L121.214 13.6544L121.166 13.6537L121.12 13.653L121.072 13.6516H121.025L120.977 13.6501L120.607 13.6487H113.617ZM105.421 25.4013L105.416 25.402L105.412 25.4027H105.409L105.404 25.4034L105.4 25.4041H105.396L105.392 25.4049L105.387 25.4056L105.383 25.4063H105.379H105.374L105.37 25.407H105.365L105.36 25.4077H105.355L105.347 25.4084H105.342L105.337 25.4092H105.332H105.327L105.323 25.4099H105.317H105.313L105.308 25.4106L105.302 25.4113H105.298H105.293L105.289 25.412L105.244 25.4142L105.199 25.4163L105.154 25.4178L105.109 25.4199L105.064 25.4213L105.018 25.4228L104.973 25.4249L104.927 25.4264L104.882 25.4278L104.837 25.4285L104.792 25.4299L104.746 25.4303L104.701 25.4317L104.656 25.4324L104.611 25.4332L104.565 25.4339L104.52 25.4346L104.474 25.4353L104.429 25.436H104.383L104.337 25.4367L104.292 25.4375H104.247H104.202L104.156 25.4382H104.111H104.066L104.02 25.4389H103.975H103.929H103.884H103.839L103.796 25.4396H103.752H103.709H103.665H103.622L103.579 25.4389H103.535H103.492H103.449H103.405H103.362L103.319 25.4382H103.275L103.232 25.4375H103.189L103.145 25.4367L103.102 25.436H103.059L103.015 25.4353L102.972 25.4346L102.929 25.4339L102.886 25.4332L102.843 25.4317L102.8 25.431L102.756 25.4303L102.713 25.4292L102.67 25.4278L102.627 25.4264L102.583 25.4256L102.541 25.4242L102.497 25.4221L102.454 25.4206L102.448 25.4199H102.439H102.432L102.424 25.4192H102.416L102.409 25.4185H102.401L102.393 25.4178H102.385L102.378 25.417H102.37L102.362 25.4163H102.355H102.348L102.34 25.4156L102.333 25.4149H102.325L102.317 25.4142L102.31 25.4135L102.303 25.4127H102.295L102.288 25.412L102.282 25.4113L102.274 25.4106L102.267 25.4092L102.26 25.4084L102.254 25.4077L102.247 25.407L102.24 25.4063L102.234 25.4049L102.227 25.4041L102.224 25.4034L102.034 25.3504L101.844 25.2902L101.66 25.2251L101.484 25.1541L101.315 25.0789L101.155 24.9991L101.001 24.9131L100.854 24.8225L100.713 24.7261L100.58 24.6255L100.454 24.519L100.333 24.4073L100.219 24.2894L100.11 24.1662L100.009 24.0373L99.9124 23.9019L99.8219 23.7608L99.7377 23.6128L99.6583 23.458L99.5854 23.2965L99.5181 23.1289L99.4563 22.9537L99.4002 22.7707L99.3505 22.5808L99.3056 22.3838L99.2672 22.1789L99.2351 21.9665L99.2086 21.7477L99.1878 21.5205L99.1637 21.0417V20.5605L99.1878 20.1168L99.2102 19.9058L99.2367 19.7002L99.2704 19.501L99.3096 19.3083L99.3545 19.1217L99.4058 18.9412L99.4627 18.7681L99.5253 18.6008L99.5934 18.4393L99.668 18.2849L99.7481 18.1359L99.8331 17.9937L99.9253 17.8576L100.021 17.7272L100.124 17.6025L100.232 17.484L100.347 17.3715L100.467 17.2644L100.594 17.1623L100.727 17.0667L100.866 16.9761L101.011 16.8908L101.163 16.8116L101.322 16.7378L101.487 16.669L101.659 16.6067L101.678 16.601L101.699 16.5938L101.719 16.5877L101.74 16.5813L101.76 16.5748L101.781 16.5684L101.802 16.5619L101.822 16.5562L101.843 16.5501L101.864 16.5437L101.884 16.5379L101.905 16.5315L101.925 16.5258L101.945 16.5204L101.966 16.5147L101.987 16.5089L102.007 16.5032L102.028 16.4982L102.049 16.4925L102.069 16.4878L102.09 16.4828L102.11 16.4778L102.131 16.4728L102.151 16.4685L102.173 16.4642L102.193 16.4592L102.214 16.4559L102.234 16.4516L102.256 16.448L102.276 16.4438L102.296 16.4409L102.316 16.4373L102.345 16.4337L102.376 16.4301L102.407 16.4266L102.438 16.4237L102.469 16.4212L102.5 16.4183L102.531 16.4155L102.561 16.4126L102.592 16.4104L102.623 16.4076L102.654 16.4054L102.686 16.4033L102.716 16.4018L102.748 16.3997L102.778 16.3983L102.809 16.3961L102.841 16.3947L102.872 16.3932L102.903 16.3918L102.935 16.3907L102.966 16.3893L102.997 16.3879L103.028 16.3872L103.059 16.3864L103.091 16.385L103.123 16.3843L103.153 16.3829L103.185 16.3821L103.216 16.3814L103.247 16.3807L103.279 16.38L103.31 16.3793L103.363 16.3778L103.416 16.3771L103.469 16.3764L103.522 16.3757L103.576 16.375L103.63 16.3743H103.682L103.735 16.3736H103.788H103.842H103.896H103.949H104.001L104.055 16.3743H104.108L104.162 16.375L104.215 16.3757L104.268 16.3764L104.321 16.3778L104.374 16.3786L104.428 16.38L104.481 16.3814L104.534 16.3829L104.587 16.385L104.64 16.3872L104.693 16.3886L104.746 16.3911L104.799 16.3932L104.852 16.3954L104.906 16.3983L104.959 16.4018L105.011 16.4047L105.025 16.4054L105.039 16.4061L105.052 16.4076L105.066 16.4083L105.079 16.409L105.093 16.4104L105.107 16.4119L105.121 16.4126L105.134 16.4133L105.147 16.4147L105.161 16.4162L105.175 16.4169L105.189 16.4183L105.202 16.4198L105.216 16.4212L105.229 16.4219L105.242 16.4233L105.256 16.4244L105.27 16.4258L105.283 16.4273L105.296 16.4294L105.31 16.4309L105.323 16.4323L105.336 16.4344L105.35 16.4359L105.363 16.438L105.376 16.4395L105.389 16.4416L105.402 16.4438L105.415 16.4459L105.428 16.448L105.44 16.4502L105.638 16.4932L105.828 16.5422L106.01 16.5981L106.184 16.659L106.353 16.7271L106.513 16.8009L106.667 16.8804L106.814 16.9653L106.954 17.0567L107.087 17.153L107.214 17.2558L107.335 17.3651L107.449 17.4797L107.558 17.6011L107.661 17.7279L107.757 17.8619L107.848 18.0016L107.934 18.1481L108.014 18.301L108.086 18.4608L108.155 18.627L108.216 18.8L108.273 18.9809L108.324 19.1672L108.369 19.3613L108.408 19.5619L108.44 19.769L108.467 19.9835L108.488 20.2035L108.512 20.6666V21.1487L108.503 21.3812L108.488 21.6072L108.466 21.8261L108.438 22.0375L108.405 22.2416L108.365 22.439L108.32 22.6292L108.268 22.8126L108.21 22.9892L108.147 23.1593L108.078 23.3223L108.003 23.4788L107.924 23.6289L107.836 23.7737L107.745 23.9119L107.647 24.0437L107.543 24.1705L107.433 24.2916L107.318 24.4073L107.196 24.5176L107.068 24.6226L106.933 24.7226L106.793 24.8182L106.645 24.9081L106.49 24.9933L106.329 25.0739L106.161 25.1491L105.986 25.22L105.804 25.286L105.616 25.3468L105.428 25.3998L105.424 25.4006L105.421 25.4013ZM95.3417 21.619L95.3729 22.0253L95.4162 22.4193L95.4731 22.8012L95.5421 23.1711L95.6254 23.5297L95.7216 23.8765L95.8314 24.211L95.9541 24.5341L96.0912 24.8443L96.2427 25.1434L96.407 25.4299L96.5866 25.7033L96.7806 25.9641L96.9874 26.213L97.2102 26.4483L97.4459 26.6708L97.6968 26.8796L97.9613 27.0752L98.2395 27.2582L98.5321 27.4276L98.8375 27.5835L99.1573 27.7254L99.49 27.855L99.8371 27.9703L100.198 28.0739L100.571 28.1638L100.959 28.2404L101.361 28.3049L101.776 28.3564L101.797 28.3586L101.816 28.36L101.836 28.3622L101.856 28.3636L101.876 28.3658L101.895 28.3672L101.914 28.3693L101.934 28.3715L101.953 28.3729L101.973 28.3751L101.993 28.3765L102.013 28.3779L102.033 28.3801L102.052 28.3815L102.072 28.3837L102.091 28.3851L102.111 28.3865L102.131 28.3887L102.151 28.3898L102.171 28.3919L102.19 28.3933L102.21 28.3948L102.229 28.3969L102.249 28.3983L102.268 28.3998L102.288 28.4012L102.308 28.4026L102.328 28.4041L102.348 28.4055L102.368 28.4069L102.387 28.4084L102.407 28.4098L102.454 28.4127L102.502 28.4163L102.55 28.4184L102.597 28.4213L102.645 28.4238L102.692 28.4259L102.74 28.4288L102.788 28.4302L102.835 28.4331L102.882 28.4345L102.93 28.4374L102.977 28.4388L103.024 28.441L103.072 28.4424L103.121 28.4439L103.167 28.4453L103.215 28.4467L103.262 28.4482L103.31 28.4496L103.358 28.4503L103.405 28.4517L103.452 28.4525L103.5 28.4532L103.548 28.4539L103.595 28.4546L103.642 28.455H103.69L103.738 28.4557H103.786H103.832H103.88H103.929L103.969 28.455H104.011L104.053 28.4546L104.094 28.4539H104.135L104.176 28.4525L104.217 28.4517L104.258 28.451L104.3 28.4503L104.341 28.4496L104.382 28.4482L104.423 28.4467L104.464 28.4453L104.505 28.4446L104.547 28.4431L104.588 28.4417L104.629 28.4403L104.67 28.4381L104.711 28.4367L104.753 28.4345L104.793 28.4331L104.835 28.431L104.876 28.4295L104.917 28.4274L104.958 28.4252L104.999 28.4231L105.04 28.4206L105.081 28.4184L105.123 28.4163L105.164 28.4134L105.205 28.4113L105.246 28.4084L105.266 28.4069L105.286 28.4055L105.306 28.4041L105.325 28.4026L105.345 28.4012L105.364 28.3998L105.384 28.3983L105.403 28.3962L105.423 28.3948L105.443 28.3933L105.462 28.3919L105.482 28.3898L105.501 28.3887L105.521 28.3865L105.541 28.3851L105.561 28.3837L105.58 28.3815L105.599 28.3801L105.619 28.3779L105.638 28.3765L105.678 28.3729L105.697 28.3708L105.716 28.3686L105.736 28.3672L105.755 28.3658L105.775 28.3636L105.794 28.3622L105.814 28.36L105.852 28.3564L105.873 28.3547L106.284 28.3027L106.683 28.2382L107.067 28.1616L107.439 28.0717L107.797 27.9696L108.142 27.8543L108.474 27.7261L108.793 27.5849L109.097 27.4305L109.39 27.2639L109.668 27.0831L109.933 26.8897L110.184 26.6841L110.421 26.4644L110.644 26.2327L110.853 25.9884L111.048 25.7316L111.23 25.4625L111.396 25.181L111.549 24.8884L111.687 24.5835L111.812 24.2669L111.924 23.9395L112.022 23.5999L112.106 23.2492L112.177 22.8871L112.234 22.5135L112.279 22.1288L112.311 21.7333L112.331 21.3257L112.337 20.907L112.331 20.4882L112.311 20.0785L112.28 19.6787L112.236 19.289L112.179 18.9093L112.107 18.5399L112.024 18.1814L111.926 17.8336L111.816 17.4961L111.691 17.1702L111.553 16.8561L111.402 16.5537L111.236 16.2629L111.055 15.9846L110.862 15.7187L110.652 15.4666L110.429 15.2277L110.192 15.0024L109.941 14.791L109.675 14.5947L109.396 14.4135L109.102 14.2462L108.795 14.0943L108.474 13.9586L108.14 13.8378L107.792 13.7329L107.431 13.6444L107.056 13.5713L106.668 13.5147L106.267 13.4735L105.852 13.4495L105.427 13.4417L102.226 13.4431L101.805 13.4517L101.394 13.4764L100.996 13.5169L100.611 13.5735L100.238 13.6465L99.8788 13.7343L99.5333 13.8385L99.1998 13.9586L98.88 14.0929L98.5738 14.2433L98.2804 14.4077L98.0014 14.5875L97.7353 14.781L97.4836 14.9895L97.2455 15.2112L97.021 15.4465L96.811 15.6947L96.6154 15.9563L96.4343 16.2289L96.2659 16.5147L96.1128 16.8116L95.9725 17.1204L95.8475 17.4403L95.7344 17.7705L95.6358 18.1105L95.5509 18.4619L95.4787 18.823L95.4202 19.194L95.3745 19.5748L95.3433 19.9646L95.3232 20.3635L95.3168 20.7716L95.3232 21.201L95.3417 21.619ZM87.2205 13.6458L87.1853 13.6465L87.15 13.6473L87.1139 13.648L87.0786 13.6494L87.0426 13.6501L87.0073 13.6516L86.972 13.6523L86.9367 13.6537L86.9015 13.6551L86.8654 13.6559L86.8309 13.6573L86.7941 13.6587L86.7588 13.6602L86.7363 13.6616L86.7147 13.6627L86.6931 13.6634L86.6706 13.6648L86.649 13.6662L86.6273 13.6677L86.6057 13.6691L86.584 13.6698L86.5624 13.672L86.54 13.6734L86.5191 13.6748L86.4975 13.6763L86.4758 13.6777L86.4542 13.6791L86.4325 13.6806L86.4101 13.6827L86.3884 13.6841L86.3668 13.6856L86.346 13.687L86.3243 13.6892L86.3019 13.6913L86.2802 13.6927L86.2586 13.6949L86.2369 13.696L86.2153 13.6981L86.1937 13.7003L86.172 13.7024L86.1504 13.7038L86.1287 13.706L86.1071 13.7081L86.0854 13.7103L86.063 13.7124L86.047 13.7146L86.0309 13.7167L86.0157 13.7182L85.9997 13.7203L85.9844 13.7225L85.9692 13.7246L85.9532 13.7261L85.9379 13.7282L85.9227 13.73L85.9075 13.7321L85.8915 13.7343L85.8762 13.7357L85.861 13.7379L85.8458 13.74L85.8305 13.7422L85.8145 13.7443L85.7993 13.7472L85.784 13.7486L85.7688 13.7515L85.7536 13.7536L85.7375 13.7558L85.7223 13.7579L85.7071 13.7601L85.6918 13.7619L85.6766 13.7647L85.6606 13.7669L85.6454 13.7698L85.6301 13.7719L85.6149 13.774L85.5989 13.7769L85.5836 13.7791L85.5668 13.7819L85.2494 13.8457L85.2333 13.85L85.2189 13.8536L85.2045 13.8572L85.19 13.8604L85.1756 13.864L85.1612 13.8676L85.1468 13.8712L85.1315 13.8747L85.1179 13.879L85.1027 13.8826L85.0882 13.8862L85.0738 13.8905L85.0602 13.8937L85.0458 13.898L85.0313 13.9016L85.0169 13.9059L85.0025 13.9095L84.988 13.9138L84.9736 13.9181L84.9592 13.9217L84.9455 13.9256L84.9311 13.9292L84.9167 13.9335L84.9023 13.9378L84.8878 13.9421L84.8734 13.9464L84.859 13.9507L84.8445 13.955L84.8309 13.959L84.8165 13.9632L84.8021 13.9676L84.786 13.9726L84.487 14.0804L84.196 14.2086L83.9107 14.3587L83.6333 14.5317L83.3616 14.7301L83.0962 14.9533L82.8357 15.203L82.6241 15.4304L82.4325 15.6621L82.2618 15.8993L82.1094 16.1425L81.9756 16.3911L81.8593 16.6465L81.8537 16.6597L81.8497 16.6726L81.8441 16.6848L81.8401 16.6973L81.8345 16.7088L81.8305 16.7213L81.8257 16.7335L81.8217 16.7457L81.8161 16.7583L81.812 16.7704L81.8072 16.7826L81.8032 16.7944L81.7976 16.8066L81.7936 16.8192L81.7888 16.8314L81.7848 16.8435L81.7808 16.8561L81.776 16.8683L81.772 16.8804L81.7672 16.8923L81.7631 16.9052L81.7583 16.917L81.7543 16.9299L81.7503 16.9421L81.7455 16.9539L81.7415 16.9668L81.7367 16.9789L81.7335 16.9915L81.7287 17.0037L81.7255 17.0162L81.7215 17.0284L81.7167 17.0427L81.7126 17.056L81.7086 17.0688L81.7054 17.0814L81.7006 17.0943L81.6974 17.1072L81.6942 17.1197L81.6902 17.1326L81.687 17.1455L81.6838 17.158L81.6798 17.1709L81.6758 17.1835L81.6726 17.1964L81.6694 17.2092L81.6662 17.2218L81.6621 17.2347L81.6581 17.2472L81.6557 17.2601L81.6525 17.273L81.6485 17.2855L81.6453 17.2984L81.6421 17.3113L81.6389 17.3239L81.6365 17.3368L81.6325 17.3493L81.6293 17.3622L81.6261 17.3751L81.6229 17.3876L81.6197 17.4012L81.6165 17.4138L81.614 17.4267L81.6108 17.4395L81.6068 17.4535L81.6044 17.4678L81.6012 17.4811L81.598 17.4947L81.5964 17.5076L81.5932 17.5209L81.59 17.5345L81.5876 17.5477L81.5852 17.5613L81.5828 17.5746L81.5796 17.5875L81.5772 17.6011L81.5756 17.6143L81.5724 17.6272L81.57 17.6405L81.5676 17.6541L81.5651 17.6677L81.5627 17.6802L81.5595 17.6946L81.5579 17.7071L81.5547 17.7207L81.5531 17.7343L81.5507 17.7476L81.5475 17.7612L81.5451 17.7745L81.5435 17.7881L81.5411 17.801L81.5387 17.8143L81.5371 17.8279L81.5347 17.8411L81.5323 17.8548L81.5299 17.8684L81.5283 17.8823L81.5259 17.8974L81.5235 17.9114L81.5211 17.925L81.5195 17.9389L81.5179 17.9533L81.5163 17.9669L81.5146 17.9808L81.513 17.9952L81.5106 18.0084L81.509 18.0227L81.5066 18.0367L81.5058 18.051L81.5042 18.0646L81.5018 18.0786L81.5002 18.0929L81.4986 18.1062L81.497 18.1205L81.4954 18.1345L81.4938 18.1481L81.4914 18.1624L81.4898 18.1764L81.489 18.19L81.4874 18.2047L81.485 18.2323L81.4834 18.2459L81.4818 18.2602L81.4794 18.2742L81.4778 18.2885L81.4762 18.3018L81.4754 18.3161L81.4738 18.3308L81.4706 18.3616L81.4682 18.392L81.4665 18.4225L81.4641 18.4529L81.4617 18.4826L81.4593 18.5131L81.4577 18.5428L81.4553 18.5732L81.4529 18.603L81.4521 18.6334L81.4505 18.6631L81.4481 18.6936L81.4465 18.7244L81.4457 18.7542L81.4441 18.7846L81.4417 18.8144L81.4401 18.8448L81.4393 18.8746L81.4377 18.905L81.4369 18.9354L81.4353 18.9652L81.4345 18.9956L81.4329 19.0253L81.4321 19.0558L81.4305 19.0859L81.4297 19.1163L81.4289 19.1468V19.1765L81.4281 19.2069L81.4273 19.2374L81.4265 19.2671L81.4257 19.2983L81.4225 19.6436V28.3063L84.2121 28.3042L84.3307 28.2934L84.3556 28.2902L84.3676 28.288L84.3788 28.2859L84.39 28.2845L84.4021 28.2816L84.4133 28.2794L84.4245 28.2773L84.4357 28.2751L84.4469 28.2723L84.4582 28.2694L84.4694 28.2665L84.4806 28.2644L84.4918 28.2615L84.5031 28.2579L84.5143 28.2554L84.5247 28.2519L84.5351 28.249L84.5463 28.2454L84.5576 28.2418L84.5688 28.2382L84.58 28.234L84.5904 28.2304L84.6017 28.2261L84.6129 28.2221L84.6233 28.2178L84.6345 28.2128L84.6449 28.2085L84.6562 28.2035L84.6674 28.1985L84.6914 28.1881L84.7107 28.1774L84.7179 28.1731L84.7259 28.168L84.7339 28.1638L84.7419 28.1587L84.75 28.1541L84.7564 28.1491L84.7644 28.1441L84.7724 28.139L84.7804 28.134L84.7876 28.129L84.7948 28.1244L84.8037 28.1186L84.8213 28.105L84.8397 28.0903L84.8453 28.0853L84.851 28.0803L84.8558 28.0753L84.8622 28.0703L84.867 28.0653L84.8726 28.0599L84.8782 28.0556L84.883 28.0506L84.8886 28.0448L84.8934 28.0398L84.8982 28.0348L84.9031 28.0298L84.9087 28.0244L84.9135 28.0187L84.9183 28.0137L84.9239 28.0079L84.9279 28.0022L84.9327 27.9972L84.9375 27.9918L84.9423 27.9861L84.9472 27.9804L84.952 27.9746L84.956 27.9689L84.9608 27.9632L84.9656 27.9578L84.9712 27.9499L84.9856 27.9299L85.0313 27.8514L85.0441 27.826L85.049 27.8138L85.0538 27.8016L85.0594 27.7898L85.0634 27.7776L85.0682 27.7655L85.0722 27.7537L85.077 27.7415L85.081 27.7297L85.085 27.7168L85.0882 27.7046L85.0922 27.6928L85.0946 27.6806L85.0979 27.6684L85.1011 27.6559L85.1035 27.6437L85.1067 27.6319L85.1091 27.6197L85.1115 27.6068L85.1131 27.595L85.1155 27.5828L85.1179 27.5699L85.1187 27.5573L85.1203 27.5444L85.1219 27.5326L85.1227 27.5197L85.1243 27.5068L85.1251 27.4943L85.1267 27.4814L85.1275 27.4685L85.1283 27.4545L85.1291 27.385V19.6349V19.5902V19.5458V19.501V19.4555L85.1299 19.4111V19.3663L85.1307 19.3215V19.2771V19.2317L85.1315 19.1869L85.1331 19.1425L85.1339 19.0977L85.1355 19.0533L85.1371 19.0092L85.1387 18.9645L85.1395 18.92L85.1419 18.8753L85.1443 18.8305L85.1476 18.7868L85.1492 18.742L85.1524 18.6979L85.1556 18.6535L85.1596 18.6094L85.1636 18.5654L85.1684 18.521L85.1724 18.4776L85.178 18.4336L85.1836 18.3899L85.1884 18.3458L85.1948 18.3018L85.2013 18.2588L85.2085 18.2154L85.2101 18.2054L85.2125 18.1957L85.2149 18.185L85.2173 18.1742L85.2189 18.1639L85.2213 18.1538L85.2229 18.1438L85.2253 18.1331L85.2277 18.1227L85.2301 18.1126L85.2317 18.1019L85.2341 18.0922L85.2373 18.0822L85.2389 18.0715L85.2421 18.0618L85.2445 18.051L85.247 18.041L85.2494 18.0313L85.2518 18.0206L85.255 18.0106L85.2574 18.0002L85.2598 17.9901L85.2622 17.9801L85.2654 17.9694L85.2686 17.9597L85.271 17.9497L85.2742 17.9396L85.2774 17.9293L85.2798 17.9192L85.283 17.9085L85.2862 17.8988L85.2886 17.8902L85.2902 17.8838L85.2926 17.8766L85.2959 17.8698L85.2983 17.8626L85.3007 17.8555L85.3039 17.8483L85.3063 17.8411L85.3087 17.8343L85.3111 17.8272L85.3143 17.82L85.3167 17.8135L85.3191 17.8064L85.3223 17.7988L85.3247 17.7924L85.3279 17.7852L85.3303 17.7788L85.3327 17.7716L85.3367 17.7648L85.3391 17.7576L85.3415 17.7505L85.3456 17.744L85.3472 17.7372L85.3504 17.7301L85.3544 17.7236L85.3568 17.7164L85.36 17.7093L85.3624 17.7025L85.3664 17.696L85.3688 17.6888L85.3728 17.6824L85.376 17.6752L85.3784 17.6699L85.38 17.6663L85.3824 17.662L85.3856 17.657L85.3872 17.6519L85.3896 17.6476L85.392 17.6426L85.3953 17.6387L85.3977 17.6337L85.4001 17.6294L85.4033 17.6244L85.4057 17.6201L85.4081 17.6151L85.4105 17.6108L85.4137 17.6061L85.4161 17.6011L85.4185 17.5968L85.4217 17.5925L85.4233 17.5875L85.4265 17.5832L85.4289 17.5782L85.4321 17.5742L85.4345 17.5699L85.4369 17.5649L85.4401 17.5606L85.4433 17.5563L85.4458 17.5513L85.4482 17.547L85.4514 17.5427L85.4546 17.538L85.457 17.5337L85.4594 17.5287L85.4618 17.5259L85.4706 17.513L85.481 17.499L85.4906 17.4854L85.5019 17.4714L85.5131 17.4578L85.5235 17.4442L85.5347 17.431L85.5451 17.4173L85.5564 17.4041L85.5676 17.3912L85.5796 17.3783L85.5916 17.3651L85.6029 17.3522L85.6141 17.3396L85.6261 17.3274L85.6381 17.3145L85.651 17.302L85.663 17.2898L85.675 17.278L85.6878 17.2658L85.7007 17.2537L85.7135 17.2418L85.7263 17.2297L85.7391 17.2175L85.752 17.2057L85.7648 17.1942L85.7784 17.182L85.7921 17.1709L85.8049 17.1595L85.8201 17.1473L85.8329 17.1362L85.8458 17.1254L85.8506 17.1219L85.8562 17.1176L85.8618 17.1136L85.8674 17.11L85.873 17.1057L85.8786 17.1014L85.8842 17.0971L85.8955 17.0885L85.9019 17.0842L85.9075 17.0803L85.9131 17.076L85.9187 17.0717L85.9243 17.0681L85.9299 17.0638L85.9355 17.0595L85.942 17.0552L85.9476 17.0517L85.9532 17.0477L85.9596 17.0441L85.9644 17.0398L85.9708 17.0355L85.9764 17.032L85.982 17.0277L85.9884 17.0234L85.9949 17.0198L86.0005 17.0155L86.0061 17.0123L86.0117 17.008L86.0181 17.0044L86.0245 17.0001L86.0285 16.9972L86.0349 16.9929L86.0438 16.9879L86.0518 16.9836L86.0606 16.9789L86.0686 16.9739L86.0766 16.9689L86.0846 16.9646L86.0935 16.9596L86.1015 16.9553L86.1103 16.9503L86.1183 16.9464L86.1263 16.9421L86.1343 16.937L86.1424 16.9327L86.1504 16.9284L86.1592 16.9242L86.1672 16.9191L86.176 16.9152L86.184 16.9109L86.1929 16.9066L86.2009 16.9023L86.2097 16.8987L86.2185 16.8944L86.2265 16.8901L86.2345 16.8858L86.2426 16.8819L86.2514 16.8776L86.2602 16.8733L86.269 16.8697L86.2778 16.8654L86.2866 16.8611L86.2939 16.8575L86.3011 16.8546L86.3107 16.8511L86.3195 16.8471L86.3291 16.8435L86.3388 16.84L86.3476 16.8356L86.3564 16.8321L86.366 16.8285L86.3756 16.8249L86.3844 16.8213L86.3941 16.8181L86.4029 16.8145L86.4117 16.8109L86.4213 16.8081L86.4309 16.8045L86.439 16.8009L86.4486 16.7973L86.4582 16.7944L86.4678 16.7909L86.4774 16.7873L86.4862 16.7848L86.4951 16.7812L86.5047 16.7783L86.5143 16.7747L86.5239 16.7719L86.5335 16.769L86.5424 16.7654L86.552 16.7625L86.5616 16.7597L86.5704 16.7561L86.5808 16.7532L86.5889 16.7507L86.5985 16.7486L86.6081 16.7457L86.6185 16.7428L86.6297 16.7393L86.6394 16.7371L86.6498 16.7342L86.661 16.7314L86.6706 16.7285L86.681 16.7264L86.6915 16.7235L86.7019 16.7206L86.7123 16.7188L86.7227 16.716L86.7323 16.7131L86.7436 16.7109L86.7532 16.7088L86.7644 16.7059L86.7748 16.7038L86.7844 16.7009L86.7957 16.6988L86.8053 16.6966L86.8157 16.6938L86.8269 16.6916L86.8365 16.6895L86.8478 16.6873L86.8582 16.6855L86.8686 16.6834L86.879 16.6805L86.8903 16.6791L86.8999 16.6762L86.9111 16.6748L86.9199 16.6726L87.1011 16.6429L87.1331 16.6393L87.166 16.635L87.1989 16.6314L87.2317 16.6278L87.2654 16.6243L87.2975 16.621L87.3311 16.6182L87.364 16.6146L87.3969 16.6117L87.4297 16.6096L87.4634 16.6067L87.4955 16.6046L87.5291 16.6024L87.562 16.6003L87.5949 16.5981L87.6285 16.5967L87.6614 16.5945L87.6943 16.5931L87.7279 16.5917L87.7616 16.5902L87.7937 16.5888L87.8273 16.5881L87.861 16.5877L87.8939 16.5863L87.9275 16.5856L87.9612 16.5849H87.9941L88.0277 16.5842L88.0606 16.5834H88.0943H88.1279L88.1608 16.5827H90.245V28.3027H93.9044V13.6394H92.1039V13.6379H87.8947L87.8594 13.6387H87.8233H87.7881H87.7536L87.7175 13.6394H87.6822H87.6462L87.6109 13.6401H87.5756L87.5404 13.6408H87.5043L87.4698 13.6415H87.4338L87.3977 13.6422L87.3632 13.643L87.3271 13.6437L87.2919 13.6444L87.2566 13.6451L87.2205 13.6458ZM70.8389 14.1037L70.5052 14.2269L70.1858 14.3651L69.8803 14.5195L69.5887 14.6889L69.3115 14.8741L69.0489 15.0747L68.7999 15.2907L68.567 15.5225L68.3481 15.7696L68.1449 16.0311L67.9564 16.3084L67.7821 16.6003L67.623 16.9066L67.4789 17.2268L67.349 17.5628L67.2342 17.9121L67.1327 18.2763L67.0458 18.6556L66.9717 19.0483L66.9122 19.4555L66.8665 19.8779L66.8338 20.3152L66.8132 20.7666L66.807 21.2329L66.8162 21.7136L66.8426 22.1775L66.8866 22.6263L66.949 23.0594L67.0296 23.4774L67.129 23.8786L67.2467 24.2654L67.3839 24.6355L67.539 24.9905L67.7139 25.3293L67.9076 25.6517L68.1211 25.9576L68.3539 26.247L68.6055 26.5189L68.8762 26.7743L69.1652 27.0114L69.4449 27.2156L69.7252 27.3979L70.0061 27.5602L70.2881 27.7017L70.3027 27.7082L70.3156 27.7146L70.3288 27.7203L70.342 27.7261L70.3556 27.7314L70.3688 27.7379L70.3816 27.7436L70.3948 27.7494L70.408 27.7551L70.4209 27.7608L70.4348 27.7662L70.4477 27.7719L70.4608 27.7776L70.474 27.7834L70.4869 27.7891L70.5001 27.7948L70.514 27.7995L70.5269 27.8052L70.54 27.811L70.5536 27.8167L70.5668 27.8224L70.58 27.8274L70.5936 27.8328L70.6068 27.8378L70.6196 27.8436L70.6336 27.8486L70.6468 27.8543L70.6603 27.86L70.6736 27.8647L70.6871 27.8697L70.7011 27.8754L70.715 27.8812L70.7293 27.8862L70.7432 27.8912L70.756 27.8955L70.77 27.9001L70.7832 27.9044L70.796 27.9095L70.81 27.9138L70.8228 27.9188L70.836 27.9231L70.8499 27.9274L70.8627 27.932L70.8767 27.9363L70.8895 27.9406L70.9027 27.9456L70.9167 27.9499L70.9302 27.9542L70.9435 27.9585L70.957 27.9625L70.9702 27.9675L70.9835 27.9711L70.997 27.9754L71.0102 27.9797L71.0238 27.9847L71.037 27.989L71.0509 27.9925L71.0645 27.9965L71.0777 28.0008L71.0913 28.0051L71.1044 28.0094L71.1184 28.013L71.132 28.0173L71.1466 28.0216L71.1609 28.0259L71.1749 28.0291L71.1884 28.0327L71.2017 28.0362L71.2156 28.0405L71.2292 28.0434L71.2424 28.047L71.2559 28.0506L71.2699 28.0542L71.283 28.0577L71.2967 28.061L71.3106 28.0638L71.3242 28.0674L71.3373 28.071L71.3512 28.0746L71.3649 28.0774L71.378 28.081L71.3916 28.0846L71.4055 28.0875L71.4187 28.091L71.4323 28.0943L71.4462 28.0971L71.4599 28.1007L71.4737 28.1036L71.4877 28.1072L71.5005 28.11L71.5145 28.1129L71.5281 28.1165L71.5419 28.1193L71.5559 28.1222L71.5694 28.1258L71.5842 28.1283L71.5985 28.1312L71.6131 28.134L71.6267 28.1369L71.6406 28.1398L71.6539 28.1419L71.6681 28.1448L71.6821 28.1476L71.6956 28.1498L71.7096 28.1526L71.7235 28.1548L71.7371 28.1577L71.751 28.1595L71.7646 28.1616L71.7785 28.1645L71.7925 28.1666L71.806 28.1695L71.8199 28.1716L71.8335 28.1745L71.8474 28.1766L71.8618 28.1788L71.8749 28.1817L71.8896 28.1838L71.9032 28.186L71.9172 28.1881L71.9307 28.191L71.9447 28.1928L71.9586 28.1949L71.9722 28.1971L71.9861 28.1992L71.9997 28.2014L72.0136 28.2035L72.0286 28.2057L72.0441 28.2078L72.0579 28.2092L72.0716 28.2114L72.0862 28.2135L72.1005 28.215L72.1145 28.2171L72.1284 28.2185L72.1427 28.2207L72.1566 28.2221L72.1709 28.2243L72.1848 28.2254L72.1992 28.2268L72.2131 28.2289L72.2278 28.2304L72.2414 28.2318L72.256 28.234L72.2696 28.2354L72.2835 28.2368L72.2978 28.239L72.3125 28.2404L72.3264 28.2418L72.34 28.2433L72.3547 28.2447L72.3682 28.2468L72.3829 28.2483L72.3969 28.2497L72.4111 28.2511L72.4258 28.2526L72.4394 28.254L72.4533 28.2554L72.4677 28.2569L72.483 28.2579L72.5127 28.2601L72.5424 28.263L72.5714 28.2651L72.6011 28.2673L72.6305 28.2694L72.6602 28.2716L72.6891 28.2737L72.7189 28.2751L72.7485 28.2773L72.7776 28.2794L72.8072 28.2809L72.8366 28.283L72.8663 28.2845L72.8952 28.2859L72.925 28.2873L72.9539 28.2887L72.9836 28.2905L73.0126 28.2913L73.0423 28.2927L73.0717 28.2941L73.1013 28.2956L73.1303 28.2963L73.16 28.2977L73.1897 28.2984L73.2187 28.2999L73.2484 28.3006L73.2774 28.302L73.3074 28.3027L73.3372 28.3034L73.3661 28.3042L73.3958 28.3049L73.4256 28.3056L73.4417 28.3063H73.4568L73.4879 28.307H73.5033H73.5183H73.5337H73.5488L73.5649 28.3077H73.58L73.5954 28.3084H73.6103H73.6265H73.6419H73.6569H73.6724L73.7035 28.3092H73.7186H73.734H73.7497L73.7651 28.3099H73.7802H73.7956H73.8117H73.8268H73.8422H73.8572H73.8734L73.8883 28.3106H73.9195H79.424V25.2526L73.8469 25.2498L73.4428 25.2286L73.255 25.21L73.075 25.1867L72.9036 25.157L72.7412 25.1223L72.5876 25.0818L72.4416 25.0363L72.3044 24.9855L72.1753 24.9296L72.0543 24.868L71.941 24.8006L71.8343 24.7283L71.7342 24.6495L71.6406 24.5653L71.5537 24.4753L71.4716 24.3775L71.3945 24.2733L71.3234 24.1605L71.2574 24.0402L71.1973 23.9119L71.1423 23.7744L71.092 23.6275L71.0473 23.4724L71.0087 23.3073L70.9754 23.1321L70.9472 22.948L70.9456 22.9305L70.9435 22.9111L70.9412 22.8921L70.9391 22.8721L70.9369 22.8531L70.9346 22.8338L70.9325 22.8148L70.9302 22.7958L70.9281 22.7764L70.9266 22.7575L70.9244 22.7374L70.9229 22.7184L70.9207 22.6994L70.9193 22.6801L70.9174 22.6611L70.916 22.6417L70.9145 22.6227L70.913 22.6034L70.9108 22.5844L70.9094 22.5654L70.9086 22.5461L70.9072 22.5271L70.9057 22.5077L70.905 22.4887L70.9035 22.4698L70.9027 22.4504L70.9013 22.4314V22.42H79.424V19.362H70.942L70.9717 19.1217L71.0014 18.9498L71.037 18.7846L71.0777 18.6263L71.1232 18.4755L71.1749 18.3315L71.2306 18.195L71.2915 18.0654L71.3582 17.9425L71.4287 17.8264L71.5049 17.7164L71.5856 17.6129L71.6718 17.5158L71.7631 17.4245L71.8592 17.3396L71.9615 17.2587L72.0686 17.1842L72.1827 17.1147L72.3015 17.0509L72.4281 16.9922L72.5608 16.9385L72.7001 16.8908L72.8458 16.8478L72.9983 16.8109L73.1578 16.779L73.3247 16.7525L73.4974 16.7321L73.8675 16.7088L79.424 16.7059V13.6487H73.998L73.5568 13.6551L73.1274 13.6763L72.7115 13.711L72.3096 13.7608L71.9216 13.8246L71.5471 13.9023L71.1866 13.9959L70.8389 14.1037ZM59.081 25.1853H55.8335V21.6491L59.4293 21.6502L59.7392 21.6653L59.7506 21.6667L59.7638 21.6674L59.7777 21.6689L59.7906 21.6703L59.8038 21.6717L59.8166 21.6731L59.8306 21.6739L59.8438 21.6753L59.8566 21.6767L59.8698 21.6782L59.8834 21.6796L59.8965 21.681L59.9098 21.6825L59.9226 21.6835L59.9358 21.685L59.9486 21.6871L59.9619 21.6886L59.9751 21.69L59.9879 21.6914L60.0011 21.6936L60.0143 21.695L60.0271 21.6964L60.0411 21.6986L60.0539 21.7L60.0671 21.7022L60.0803 21.7036L60.0932 21.7058L60.1063 21.7072L60.1191 21.7093L60.1324 21.7115L60.1463 21.7136L60.1562 21.7151L60.4067 21.766L60.6308 21.8297L60.831 21.9064L61.0074 21.9955L61.1618 22.0962L61.2953 22.2076L61.4093 22.3308L61.5058 22.4683L61.5858 22.6206L61.6488 22.7908L61.6954 22.9792L61.7236 23.1883L61.7336 23.4179L61.7236 23.6744L61.6947 23.9026L61.6466 24.1046L61.5821 24.2801L61.5007 24.4341L61.4552 24.5022L61.405 24.5653L61.2891 24.6835L61.1519 24.7885L60.9906 24.8812L60.8035 24.9622L60.5878 25.0309L60.3436 25.0875L60.3319 25.0897L60.3187 25.0918L60.3058 25.094L60.2927 25.0968L60.2798 25.099L60.2666 25.1004L60.2534 25.1029L60.2406 25.1044L60.2266 25.1065L60.2138 25.1087L60.2006 25.1108L60.1873 25.113L60.1745 25.1151L60.1614 25.1173L60.1485 25.1187L60.1353 25.1208L60.1214 25.123L60.1093 25.1244L60.0953 25.1266L60.0821 25.128L60.0693 25.1302L60.0561 25.1316L60.0425 25.1337L60.0294 25.1348L60.0161 25.137L60.0033 25.1384L59.9894 25.1398L59.9765 25.1413L59.9633 25.1434L59.9494 25.1448L59.9365 25.1463L59.9241 25.1477L59.9105 25.1491L59.8951 25.1506L59.8797 25.152L59.8646 25.1527L59.8492 25.1541L59.8342 25.1556L59.8189 25.157L59.8038 25.1577L59.7891 25.1592L59.774 25.1606L59.7586 25.1613L59.7437 25.1627L59.7283 25.1635L59.7128 25.1649L59.6978 25.1656L59.6824 25.1663L59.6681 25.1674L59.6527 25.1681L59.6377 25.1695L59.6222 25.1703L59.6072 25.171L59.5918 25.1717L59.5768 25.1724L59.5614 25.1738L59.5467 25.1746L59.5309 25.1753L59.5162 25.176L59.5004 25.1767L59.4859 25.1774L59.4708 25.1781L59.4554 25.1789L59.441 25.1796L59.081 25.1853ZM59.3872 28.3006H59.4249L59.4627 28.2999H59.5013L59.539 28.2991L59.5772 28.2984L59.6149 28.2977L59.6534 28.297L59.6912 28.2963L59.729 28.2956L59.7675 28.2948L59.8052 28.2941L59.8431 28.2934L59.8811 28.292L59.919 28.2913L59.9574 28.2905L59.9952 28.2895L60.033 28.2887L60.0715 28.2873L60.1093 28.2859L60.1477 28.2845L60.1852 28.283L60.2229 28.2816L60.2615 28.2802L60.2993 28.2787L60.3377 28.2773L60.3755 28.2759L60.4133 28.2737L60.4518 28.2723L60.4892 28.2701L60.5277 28.2687L60.5526 28.2665L60.5773 28.2651L60.6011 28.2637L60.6249 28.2622L60.6499 28.2608L60.6737 28.2594L60.6982 28.2572L60.7221 28.2562L60.7463 28.2547L60.7708 28.2526L60.7947 28.2511L60.8189 28.2497L60.8427 28.2476L60.8674 28.2454L60.8912 28.244L60.9154 28.2418L60.9399 28.2397L60.9638 28.2382L60.988 28.2361L61.0118 28.234L61.0364 28.2318L61.0602 28.2297L61.0852 28.2275L61.109 28.2254L61.1329 28.2236L61.1578 28.2214L61.1816 28.2185L61.2055 28.2164L61.23 28.2143L61.2542 28.2121L61.2781 28.2092L61.3026 28.2071L61.3217 28.2049L61.3389 28.2028L61.3566 28.2006L61.3745 28.1985L61.3921 28.1963L61.4093 28.1942L61.4277 28.192L61.4449 28.1903L61.4622 28.1881L61.4805 28.186L61.4977 28.1831L61.5154 28.1809L61.5333 28.1788L61.5509 28.1766L61.5681 28.1738L61.5858 28.1716L61.6037 28.1695L61.6214 28.1666L61.6386 28.1645L61.6561 28.1616L61.6742 28.1595L61.6917 28.1569L61.709 28.1541L61.7273 28.1519L61.7446 28.1491L61.7622 28.1462L61.7794 28.1433L61.7977 28.1412L61.8149 28.1383L61.8322 28.1355L61.8505 28.1326L61.8685 28.1297L61.8854 28.1269L61.9019 28.1244L61.918 28.1215L61.9338 28.1186L61.9507 28.1158L61.9672 28.1122L61.9833 28.1093L61.9995 28.1064L62.0152 28.1029L62.0321 28.1L62.0478 28.0971L62.064 28.0936L62.0805 28.091L62.0966 28.0875L62.1124 28.0846L62.1285 28.081L62.1443 28.0774L62.1612 28.0739L62.177 28.071L62.1931 28.0674L62.2096 28.0638L62.2257 28.0602L62.2415 28.057L62.2576 28.0542L62.2734 28.0506L62.2903 28.047L62.306 28.0427L62.3222 28.0391L62.3379 28.0355L62.3548 28.0319L62.3706 28.0284L62.3882 28.0244L62.4036 28.0201L62.4186 28.0165L62.434 28.0122L62.4483 28.0087L62.4638 28.0051L62.478 28.0008L62.4927 27.9965L62.5078 27.9933L62.5224 27.989L62.5371 27.9847L62.5521 27.9804L62.5668 27.9761L62.5818 27.9718L62.5965 27.9675L62.6108 27.9632L62.6262 27.96L62.6405 27.9557L62.6552 27.9506L62.6699 27.9463L62.6849 27.942L62.6995 27.9377L62.7139 27.9327L62.7293 27.9284L62.7435 27.9245L62.7582 27.9195L62.7729 27.9152L62.7872 27.9102L62.8019 27.9059L62.8169 27.9009L62.8315 27.8958L62.8459 27.8912L62.862 27.8862L62.8737 27.8819L62.8837 27.8783L62.8939 27.8747L62.9042 27.8704L62.9141 27.8668L62.9244 27.8633L62.9346 27.86L62.9445 27.8557L62.9548 27.8521L62.9651 27.8478L62.9757 27.8436L62.9859 27.84L62.9955 27.8364L63.0057 27.8321L63.0157 27.8282L63.0259 27.8246L63.0362 27.821L63.0461 27.8167L63.0564 27.8124L63.0667 27.8088L63.0765 27.8045L63.0869 27.8002L63.0963 27.7963L63.1067 27.792L63.1165 27.7877L63.1268 27.7841L63.137 27.7798L63.147 27.7755L63.1572 27.7712L63.1675 27.7669L63.1778 27.763L63.1884 27.7579L63.1994 27.7529L63.2089 27.7486L63.2181 27.7443L63.2283 27.7393L63.2372 27.735L63.2471 27.7311L63.2566 27.7261L63.2655 27.7218L63.275 27.7175L63.2841 27.7125L63.2937 27.7082L63.3032 27.7031L63.3124 27.6989L63.3219 27.6942L63.3314 27.6899L63.341 27.6849L63.3501 27.6806L63.3597 27.6756L63.3685 27.6706L63.378 27.6663L63.3871 27.6616L63.3967 27.6566L63.4055 27.6516L63.4147 27.6473L63.4243 27.6423L63.4337 27.6372L63.4425 27.6326L63.4518 27.6276L63.4613 27.6226L63.4708 27.6183L63.4804 27.6125L63.4902 27.6068L63.5035 27.6L63.514 27.5928L63.5251 27.5864L63.5368 27.5799L63.5478 27.5727L63.5585 27.5659L63.5702 27.5595L63.5812 27.5523L63.5918 27.5459L63.6029 27.5387L63.6138 27.5326L63.6244 27.5255L63.6355 27.5183L63.6465 27.5111L63.6571 27.504L63.6681 27.4979L63.6791 27.4907L63.6898 27.4835L63.7007 27.4764L63.711 27.4692L63.7217 27.4624L63.7326 27.4552L63.7436 27.448L63.7543 27.4409L63.7645 27.4341L63.7755 27.4269L63.7862 27.419L63.7972 27.4119L63.8074 27.4047L63.8181 27.3979L63.8291 27.3907L63.8416 27.3821L64.0803 27.1995L64.3059 27.0032L64.5157 26.7926L64.71 26.568L64.8886 26.3305L65.0503 26.0797L65.1963 25.8161L65.3246 25.5403L65.4361 25.2534L65.5315 24.9543L65.6089 24.6437L65.669 24.3227L65.7127 23.9911L65.7387 23.649L65.7395 23.6311L65.7402 23.615V23.5985L65.7409 23.5831L65.7416 23.5666V23.5512L65.7424 23.5347V23.5186L65.7431 23.5028L65.7438 23.4867V23.4702L65.7446 23.4548V23.4383L65.7453 23.4222V23.4065V23.3903V23.3739L65.746 23.3585V23.342V23.3266V23.3101V23.2944V23.2782V23.2618V23.2464V23.2299V23.2145V23.198V23.1819V23.1654V23.1493V23.1321L65.7453 23.1174L65.7446 23.1024V23.0884L65.7438 23.0734L65.7431 23.0594L65.7424 23.0444L65.7416 23.0304V23.0153L65.7409 23.0003L65.7402 22.9863L65.7395 22.9713L65.7387 22.9573L65.738 22.9423L65.7372 22.9283L65.7365 22.9133L65.7358 22.8993L65.7354 22.8843L65.7347 22.8699L65.7332 22.8552L65.7325 22.8409L65.7317 22.8262L65.731 22.8112L65.7303 22.7972L65.7288 22.7829L65.7281 22.7679L65.7274 22.7539L65.7258 22.7388L65.7251 22.7249L65.7237 22.7098L65.723 22.6951L65.7222 22.6808L65.7207 22.6654L65.7193 22.6503L65.7178 22.6367L65.7163 22.6227L65.7149 22.6091L65.7134 22.5951L65.7112 22.5815L65.7097 22.5683L65.7083 22.5539L65.7068 22.5403L65.7053 22.5271L65.7039 22.5135L65.7016 22.4995L65.7006 22.4859L65.6991 22.4719L65.6969 22.4583L65.6955 22.4447L65.6932 22.4314L65.6918 22.4178L65.6903 22.4039L65.6881 22.3902L65.6859 22.3759L65.6844 22.3627L65.6822 22.3491L65.68 22.3358L65.6786 22.3215L65.6764 22.3079L65.6741 22.2946L65.672 22.281L65.6705 22.267L65.6683 22.2534L65.6665 22.2402L65.6643 22.2251L65.6613 22.2108L65.6592 22.1983L65.6562 22.1847L65.654 22.1721L65.6518 22.1592L65.6489 22.1463L65.6466 22.1331L65.6438 22.1202L65.6415 22.1077L65.6386 22.0948L65.6364 22.0819L65.6338 22.0686L65.6309 22.0557L65.628 22.0432L65.6257 22.0303L65.6228 22.0174L65.6199 22.0049L65.617 21.992L65.6147 21.9791L65.6118 21.9665L65.6089 21.9529L65.6059 21.9404L65.603 21.9275L65.6005 21.9146L65.5975 21.9021L65.5945 21.8892L65.5917 21.8766L65.588 21.8637L65.585 21.8509L65.5821 21.8376L65.5792 21.8247L65.5755 21.8115L65.5719 21.7978L65.5682 21.7857L65.5649 21.7731L65.5612 21.7609L65.5583 21.7488L65.5546 21.7369L65.5509 21.7247L65.5472 21.7122L65.5436 21.7L65.54 21.6878L65.5363 21.676L65.533 21.6638L65.5293 21.6516L65.5256 21.6398L65.522 21.6276L65.5183 21.6158L65.5146 21.6036L65.5102 21.5914L65.5065 21.5796L65.5029 21.5674L65.4996 21.5553L65.4952 21.5434L65.4915 21.5313L65.4879 21.5191L65.4834 21.5073L65.4798 21.4951L65.4754 21.4833L65.471 21.4718L65.4673 21.4589L65.4633 21.4478L65.4589 21.4349L65.4538 21.4213L65.3551 21.1763L65.241 20.9417L65.112 20.7178L64.9689 20.5043L64.9605 20.4932L64.9532 20.4832L64.9458 20.4739L64.9385 20.4642L64.9311 20.4549L64.9242 20.4449L64.9161 20.4355L64.9088 20.4266L64.9015 20.4173L64.8941 20.4072L64.8871 20.3983L64.8798 20.389L64.8725 20.379L64.8644 20.3696L64.8575 20.3607L64.8501 20.3514L64.8421 20.3421L64.8347 20.3331L64.8266 20.3238L64.8196 20.3138L64.8116 20.3045L64.8042 20.2962L64.7962 20.2869L64.7885 20.2776L64.7812 20.2679L64.7731 20.2593L64.7658 20.25L64.7581 20.2407L64.75 20.2317L64.7419 20.2224L64.7346 20.2131L64.7254 20.2027L64.7166 20.1927L64.7078 20.1841L64.6997 20.1755L64.692 20.1666L64.6833 20.158L64.6745 20.1487L64.6664 20.1401L64.6579 20.1311L64.6498 20.1225L64.641 20.1132L64.633 20.105L64.6246 20.0964L64.6165 20.0878L64.6077 20.0785L64.5989 20.0702L64.5904 20.0616L64.5824 20.053L64.5736 20.0444L64.5648 20.0362L64.5564 20.0276L64.5476 20.019L64.5395 20.0104L64.5306 20.0022L64.5222 19.9936L64.5134 19.985L64.5046 19.9764L64.4959 19.9681L64.4874 19.9595L64.4786 19.9509L64.4698 19.9423L64.4603 19.9341L64.4511 19.9248L64.4408 19.9155L64.4313 19.9072L64.4221 19.8994L64.4133 19.8908L64.403 19.8829L64.3942 19.8747L64.3851 19.8668L64.3755 19.8582L64.366 19.8503L64.3565 19.8421L64.3473 19.8342L64.3378 19.8263L64.3282 19.8184L64.3191 19.8098L64.3096 19.8023L64.3 19.7937L64.2905 19.7858L64.2813 19.7779L64.2717 19.7704L64.2622 19.7625L64.2523 19.7546L64.2428 19.7468L64.2332 19.7392L64.2237 19.7313L64.2146 19.7227L64.205 19.7149L64.1948 19.7073L64.1856 19.7002L64.1753 19.6923L64.1658 19.6837L64.1562 19.6762L64.1448 19.6676L63.9233 19.5067L63.6718 19.3473L63.4154 19.2069L63.4018 19.1998L63.3894 19.194L63.3773 19.1876L63.3656 19.1822L63.3531 19.1765L63.341 19.1708L63.3285 19.165L63.316 19.1593L63.3047 19.1529L63.2922 19.1475L63.2797 19.1418L63.2676 19.1367L63.2559 19.1303L63.2438 19.1253L63.2313 19.1195L63.2189 19.1142L63.2068 19.1084L63.1943 19.1027L63.1818 19.0977L63.1705 19.092L63.158 19.0862L63.1455 19.0809L63.1334 19.0758L63.1209 19.0701L63.1081 19.0651L63.0956 19.0594L63.0839 19.0544L63.0711 19.049L63.0586 19.044L63.0461 19.0382L63.034 19.0332L63.0201 19.0275L63.0065 19.0225L62.994 19.0178L62.9815 19.0128L62.9687 19.0078L62.9563 19.0035L62.9438 18.9985L62.9317 18.9942L62.9185 18.9892L62.9064 18.9852L62.8939 18.9802L62.8815 18.9759L62.8686 18.9709L62.8562 18.9666L62.8429 18.9623L62.8308 18.9573L62.8184 18.9534L62.8055 18.9491L62.7931 18.9448L62.7798 18.9397L62.7677 18.9354L62.7553 18.9311L62.7428 18.9268L62.73 18.9226L62.7168 18.9186L62.7047 18.9143L62.6922 18.91L62.679 18.9057L62.6662 18.9014L62.6537 18.8971L62.6405 18.8928L62.6284 18.8892L62.6137 18.8846L62.6001 18.8803L62.587 18.8767L62.5738 18.8731L62.5616 18.8695L62.5484 18.8652L62.5356 18.8617L62.5224 18.8581L62.5092 18.8549L62.4971 18.8513L62.4839 18.8477L62.4711 18.8441L62.4578 18.8405L62.4447 18.8369L62.4326 18.8334L62.4194 18.8298L62.4061 18.8262L62.3933 18.823L62.3801 18.8194L62.3673 18.8165L62.3541 18.8129L62.3409 18.8093L62.3288 18.8058L62.3155 18.8029L62.3027 18.7993L62.2895 18.7965L62.2764 18.7929L62.2635 18.7896L62.2503 18.7868L62.2371 18.7832L62.2242 18.7803L62.211 18.7767L62.1975 18.7732L62.1828 18.7703L62.1689 18.7674L62.156 18.7646L62.1428 18.7617L62.13 18.7588L62.116 18.7563L62.1029 18.7535L62.0893 18.7513L62.0761 18.7484L62.0633 18.7456L62.0493 18.7434L62.0361 18.7398L62.0233 18.7377L62.0093 18.7348L61.9965 18.7327L61.9826 18.7298L61.9693 18.7269L61.9558 18.7248L61.9426 18.7223L61.9297 18.7201L61.9166 18.7173L61.9026 18.7151L61.8898 18.7122L61.8759 18.7094L61.863 18.7072L61.8491 18.7051L61.8359 18.7022L61.8223 18.7001L61.8091 18.6979L61.7955 18.695L61.7823 18.6929L61.7676 18.6904L61.749 18.6882L61.7306 18.6854L61.7119 18.6825L61.694 18.6796L61.6756 18.6768L61.6569 18.6739L61.6386 18.6718L61.6198 18.6689L61.6016 18.6667L61.5836 18.6639L61.5645 18.6617L61.5465 18.6589L61.5285 18.6571L61.5094 18.6542L61.4915 18.652L61.4731 18.6499L61.4552 18.647L61.4361 18.6456L61.4181 18.6427L61.3991 18.6413L61.3811 18.6384L61.362 18.6363L61.3441 18.6341L61.3254 18.632L61.307 18.6298L61.2891 18.6284L61.2707 18.6263L61.252 18.6245L61.233 18.6223L61.215 18.6202L61.1959 18.6187L61.1772 18.6166L61.1618 18.6151L61.1482 18.6137L61.1336 18.613L61.1193 18.6116L61.1054 18.6101L61.091 18.6094L61.0756 18.608L61.0481 18.6058L61.0335 18.6044L61.0192 18.603L61.0052 18.6023L60.9906 18.6015L60.9762 18.6001L60.9615 18.5994L60.948 18.598L60.9333 18.5972L60.9191 18.5958L60.9044 18.5944L60.8904 18.5937L60.8761 18.5933L60.8614 18.5926L60.8479 18.5912L60.8332 18.5904L60.8189 18.589L60.8043 18.5883L60.7903 18.5876L60.7628 18.5854L60.7478 18.5847L60.7331 18.584L60.7181 18.5826L60.6715 18.5804L60.6257 18.5783L60.5794 18.5761L60.5336 18.574L60.487 18.5725L60.4415 18.5704L60.395 18.5689L60.3495 18.5675L60.3037 18.5661L60.2571 18.5646L60.2116 18.5632L60.165 18.5625L60.1191 18.5611L60.0737 18.56L60.0271 18.5593L59.9813 18.5586L59.9358 18.5578L59.8892 18.5571L59.8438 18.5564L59.7979 18.5557L59.7514 18.555H59.7058L59.66 18.5543L59.6135 18.5535H59.5679H59.5221L59.4755 18.5528H59.4301H59.3842H59.338L59.2922 18.5521H59.2463H55.8335V16.7299H64.7159V13.6147L52.1338 13.6408V28.302L59.3101 28.3013H59.3486L59.3872 28.3006Z" fill="#00B053"/>
<path fill-rule="evenodd" clip-rule="evenodd" d="M19.6688 40.5504C30.5624 40.5504 39.447 31.8719 39.447 21.2319C39.447 10.5918 30.5624 1.91406 19.6688 1.91406C8.77525 1.91406 -0.109375 10.5918 -0.109375 21.2319C-0.109375 31.8719 8.77525 40.5504 19.6688 40.5504Z" fill="#00B053"/>
<path fill-rule="evenodd" clip-rule="evenodd" d="M30.6896 16.1997L30.6125 16.1982L30.5341 16.1975H30.4537L30.3716 16.199L30.2868 16.2018L30.1981 16.2068L30.1068 16.214L30.0118 16.2244L29.9139 16.2394L29.813 16.2584L29.7107 16.2828L29.6062 16.3125L29.5017 16.3472L29.3971 16.3881L29.2941 16.435L29.1925 16.4866L29.0924 16.5443L28.9952 16.6059L28.9002 16.6718L28.8075 16.742L28.7158 16.8162L28.6259 16.895L28.5962 16.9226V11.3281H20.9834L20.898 11.3296L20.8034 11.3346L20.7098 11.3425L20.6171 11.3532L20.525 11.3672L20.4341 11.3844L20.3435 11.4041L20.2551 11.4266L20.167 11.4524L20.0809 11.4807L19.9951 11.5112L19.9118 11.5452L19.8289 11.5814L19.7486 11.6194L19.6694 11.6606L19.5917 11.7046L19.5425 11.7337L19.5121 11.7154L19.4351 11.6728L19.3573 11.6315L19.2785 11.5932L19.1978 11.557L19.1153 11.5237L19.0316 11.4925L18.9477 11.4642L18.8611 11.4381L18.7742 11.4148L18.6854 11.3948L18.5964 11.3772L18.5186 11.3643L18.2872 11.3281H10.4925V16.9233L10.4621 16.895L10.3719 16.8162L10.2805 16.742L10.1878 16.6718L10.0928 16.6059L9.99483 16.5443L9.89551 16.4866L9.79386 16.435L9.69086 16.3881L9.58633 16.3472L9.4818 16.3125L9.37727 16.2828L9.27498 16.2584L9.17414 16.2394L9.07618 16.2244L8.98191 16.214L8.88948 16.2068L8.80187 16.2018L8.71642 16.199L8.63425 16.1975H8.55361L8.47545 16.1982L8.39922 16.1997L8.32291 16.2004L8.24771 16.2018L8.1714 16.2025L8.09292 16.2033H2.36523L19.544 36.4567L36.7224 16.2033H30.9951L30.9166 16.2025L30.8403 16.2018L30.7647 16.2004L30.6896 16.1997Z" fill="white"/>
<path fill-rule="evenodd" clip-rule="evenodd" d="M19.6303 29.1811L10.4655 18.2549C10.4149 18.1936 10.364 18.1328 10.3126 18.0719C9.4482 17.0413 9.09718 17.171 8.18149 17.171H7.97099H4.56543L19.6303 34.9327L34.6952 17.171H31.2893H31.0791C30.1627 17.171 29.812 17.0413 28.9481 18.0719C28.8967 18.1328 28.8457 18.1936 28.7944 18.2549L19.6303 29.1811ZM18.6152 12.3535L18.6709 12.3686L18.7263 12.3847L18.7799 12.4033L18.833 12.423L18.8851 12.4441L18.9372 12.4678L18.9874 12.4918L19.0377 12.5179L19.0861 12.5455L19.1341 12.5745L19.1803 12.6049L19.2262 12.6361L19.2705 12.6694L19.3138 12.7042L19.356 12.7403L19.3967 12.7772L19.4367 12.8155L19.4752 12.8553L19.5119 12.8958L19.5482 12.938L19.5823 12.9807L19.6156 13.0247L19.6303 13.0459L19.6468 13.0226L19.6802 12.9778L19.7157 12.9337L19.752 12.8915L19.7898 12.8503L19.8291 12.8098L19.8698 12.7708L19.9112 12.7335L19.9537 12.6974L19.9981 12.6626L20.044 12.6286L20.0902 12.5967L20.1375 12.5655L20.1859 12.5362L20.2354 12.5086L20.286 12.4825L20.3378 12.4577L20.3898 12.4352L20.4438 12.413L20.498 12.394L20.553 12.3754L20.6091 12.3592L20.6656 12.3449L20.7228 12.3324L20.7804 12.3216L20.8391 12.3123L20.8985 12.3062L20.9579 12.3012L21.0184 12.2976L21.0786 12.2969H24.1533V15.5615H25.8433V12.2969H27.6882V17.9343L25.8433 20.1347V17.364H24.1533V22.1496L22.3075 24.35V14.099H20.992V14.0954L20.553 14.099V25.0765H21.6987L19.6303 27.5419L17.5623 25.0765H18.7079V14.0969L18.2946 14.099H13.4178V15.5615H17.0184V24.3941L11.5727 17.8981V12.2969H18.2946V12.3048L18.328 12.3066L18.3867 12.3123L18.4446 12.3202L18.5026 12.3295L18.5594 12.3406L18.6152 12.3535ZM15.1722 19.3703V17.364H13.5036L15.1722 19.3703Z" fill="#E4390F"/>
</g>
<defs>
<clipPath id="clip0_483_6602">
<rect width="230" height="43" fill="white"/>
</clipPath>
</defs>
</svg>
