<svg width="977" height="212" viewBox="0 0 977 212" fill="none" xmlns="http://www.w3.org/2000/svg">
<g clip-path="url(#clip0_890_19927)">
<path d="M230.086 143.982C230.086 123.021 245.453 106.338 267.651 106.338C289.849 106.338 289.422 111.043 296.252 117.46L286.007 129.01C280.457 123.877 274.908 120.882 267.651 120.882C255.272 120.882 246.734 131.149 246.734 143.555C246.734 155.96 255.272 166.655 267.651 166.655C280.03 166.655 280.884 163.232 286.86 158.099L297.105 168.366C289.849 176.494 281.311 181.199 267.651 181.199C246.307 181.199 230.513 164.516 230.513 143.982H230.086Z" fill="#231F20"/>
<path d="M309.484 107.621H325.279V136.282H354.733V107.621H370.528V179.916H354.733V150.827H325.279V179.916H309.484V107.621Z" fill="#231F20"/>
<path d="M389.737 108.049H444.377V122.166H405.532V136.71H439.682V150.827H405.532V165.799H444.804V179.916H389.737V107.193V108.049Z" fill="#231F20"/>
<path d="M455.477 144.41C455.477 123.449 471.271 106.766 493.042 106.766C514.812 106.766 514.812 111.471 521.642 117.888L511.397 129.438C505.848 124.305 500.299 121.31 493.042 121.31C480.662 121.31 472.125 131.577 472.125 143.982C472.125 156.388 480.662 167.082 493.042 167.082C501.152 167.082 506.275 163.66 512.251 158.527L522.496 168.794C515.239 176.921 506.702 181.627 493.042 181.627C471.698 181.627 455.903 164.944 455.903 144.41H455.477Z" fill="#231F20"/>
<path d="M534.021 108.477H549.816V140.132L579.27 108.477H598.48L569.025 139.277L599.76 181.199H580.551L558.353 150.399L549.816 158.954V181.199H534.021V108.904V108.477Z" fill="#231F20"/>
<path d="M642.875 108.477H672.329C689.404 108.477 700.076 118.743 700.076 133.716C700.076 150.827 686.843 159.382 670.622 159.382H658.669V181.199H642.875V108.904V108.477ZM671.049 145.266C679.159 145.266 683.428 140.56 683.855 134.143C683.855 126.871 678.733 123.021 671.049 123.021H658.669V145.266H671.476H671.049Z" fill="#231F20"/>
<path d="M710.321 145.266C710.321 124.304 726.542 107.621 748.74 107.621C770.937 107.621 787.158 124.304 786.732 144.838C786.732 165.799 770.51 182.482 748.313 182.482C726.115 182.482 709.894 165.799 710.321 145.266ZM770.51 145.266C770.51 132.86 761.546 122.166 748.74 122.166C735.933 122.166 726.969 132.432 726.969 144.838C726.969 157.243 735.933 167.938 748.74 167.938C761.546 167.938 770.51 157.671 770.51 145.266Z" fill="#231F20"/>
<path d="M802.526 108.904H818.321V181.199H802.526V108.904Z" fill="#231F20"/>
<path d="M838.384 108.904H852.898L886.621 153.393V108.904H902.415V181.199H888.755L853.751 134.999V181.199H837.957V108.904H838.384Z" fill="#231F20"/>
<path d="M938.699 123.877H916.929V109.332H976.691V124.304H954.921V182.054H939.126V124.304L938.699 123.877Z" fill="#231F20"/>
<path d="M217.28 53.294C205.754 67.4107 185.264 69.5496 171.177 58.4274C157.09 46.8773 154.956 26.344 166.055 12.2272C177.58 -1.88945 198.07 -4.02835 212.157 7.0939C226.244 18.6439 228.378 39.1773 217.28 53.294Z" fill="#231F20"/>
<path d="M172.885 104.628C163.92 108.906 152.822 108.906 143.43 103.345L117.818 137.567C121.233 141.417 122.94 146.123 122.94 150.828C122.94 155.106 122.086 159.384 119.525 163.234C113.122 173.073 99.4621 176.067 89.6439 169.651C88.7902 168.795 87.5095 168.367 86.6558 167.512C86.6558 167.512 86.2289 167.084 85.802 166.656C85.3752 166.228 84.5214 165.373 84.0945 164.517C84.0945 164.517 83.6677 164.089 83.2408 163.662C82.8139 162.806 81.9602 161.951 81.5333 160.667C81.5333 160.667 81.5333 160.239 81.5333 159.812C81.5333 158.956 80.6795 158.101 80.6795 157.245C80.6795 157.245 80.6795 156.817 80.6795 156.389C80.6795 155.534 80.6795 154.251 80.2527 153.395C80.2527 153.395 80.2527 152.967 80.2527 152.539C80.2527 151.684 80.2527 150.401 80.2527 149.545C80.2527 149.545 80.2527 149.545 80.2527 149.117C80.2527 147.834 80.2527 146.978 81.1064 145.695C81.1064 145.695 81.1064 145.267 81.1064 144.839C81.1064 143.556 81.9602 142.701 82.387 141.417L61.4701 125.589L55.067 134.145L31.1619 116.178L49.0907 92.2226L72.9958 110.189L66.5926 118.745L87.5095 134.573C93.9127 129.012 103.304 127.728 111.415 132.006L137.027 97.7837C126.782 87.5171 124.221 71.6892 131.905 58.4281C133.185 55.8614 135.32 53.7225 137.027 51.5836C122.94 42.1725 106.292 36.6114 87.9364 36.1836C39.6994 36.1836 0.426876 75.1115 0 123.878C0 172.217 38.8457 211.573 87.5095 212.001C135.747 212.001 175.019 173.073 175.446 124.306C175.446 117.034 174.592 110.189 172.885 103.773V104.628Z" fill="#EE0C5D"/>
</g>
<defs>
<clipPath id="clip0_890_19927">
<rect width="977" height="212" fill="white"/>
</clipPath>
</defs>
</svg>
