<svg width="552" height="336" viewBox="0 0 552 336" fill="none" xmlns="http://www.w3.org/2000/svg">
<path fill-rule="evenodd" clip-rule="evenodd" d="M342.842 0.81711C327.101 3.1474 312.303 8.88001 299.239 17.7058C295.46 20.2595 292.367 22.4972 292.367 22.6778C292.367 22.8595 295.301 21.582 298.889 19.8408C306.466 16.1609 306.734 16.1045 306.734 18.2102C306.734 19.4289 293.754 25.6874 290.098 26.2325C288.287 26.5022 278.651 36.9089 277.599 39.7323C275.794 44.5746 277.29 52.9004 281.016 58.7459C283.609 62.814 285.316 64.1309 290.009 65.6815C296.24 67.7409 300.135 71.791 302.424 78.5923C303.526 81.8626 303.42 82.7822 301.731 84.6657C299.842 86.7714 299.986 86.7624 304.515 84.4795C310.289 81.5703 310.491 81.5556 310.605 84.0484C310.658 85.2276 310.924 85.4556 311.266 84.6126C312.06 82.6547 313.918 82.8421 313.918 84.8801C313.918 85.802 312.259 87.2724 310.231 88.1459C308.203 89.0193 303.483 91.0652 299.739 92.6936L292.934 95.6524L296.337 92.8189C298.208 91.2593 299.038 89.9819 298.183 89.9785C296.863 89.974 296.863 89.6817 298.183 88.0635C299.038 87.0129 299.176 86.4904 298.486 86.9C297.798 87.3108 295.095 90.4039 292.481 93.7747C288.705 98.644 287.88 100.499 288.461 102.807L289.194 105.712L292.766 103.007C296.476 100.198 315.023 92.9531 316.005 93.9304C316.312 94.2362 315.969 94.4867 315.241 94.4867C313.809 94.4867 313.344 103.696 314.707 105.051C315.141 105.484 315.582 106.456 315.687 107.215C315.792 107.973 316.239 111.504 316.679 115.063C317.119 118.622 317.963 121.832 318.552 122.194C319.143 122.557 319.333 123.327 318.973 123.905C318.615 124.483 318.892 124.955 319.589 124.955C320.287 124.955 320.577 125.407 320.235 125.959C319.492 127.155 320.705 133.061 324.643 147.418C326.245 153.255 327.421 158.15 327.259 158.295C326.911 158.605 307.214 166.71 306.815 166.708C306.666 166.706 306.403 164.548 306.23 161.912C306.056 159.274 305.639 156.229 305.303 155.142C304.966 154.055 305.182 153.167 305.781 153.167C306.468 153.167 306.445 151.498 305.719 148.653C305.086 146.171 304.136 144.139 303.607 144.139C303.079 144.139 302.931 143.402 303.278 142.501C304.165 140.201 302.582 137.788 301.416 139.665C300.873 140.54 299.559 138.039 297.951 133.074C296.526 128.674 295 125.295 294.56 125.566C294.12 125.837 292.86 129.364 291.761 133.405C290.435 138.277 289.191 140.754 288.07 140.754C286.692 140.754 286.5 139.572 287.038 134.394C287.535 129.607 288.556 126.973 291.167 123.74C294.831 119.202 295.343 117.625 293.515 116.5C291.448 115.229 282.249 120.245 277.744 125.1C273.395 129.785 273.092 129.91 265.528 130.127C261.262 130.25 256.297 130.928 254.495 131.634C250.484 133.206 244.367 138.181 245.819 138.691C247.157 139.161 242.375 153.423 240.474 154.634C239.695 155.131 239.056 156.527 239.056 157.737C239.056 158.947 238.435 159.938 237.676 159.938C236.916 159.938 228.877 162.704 219.811 166.085C210.745 169.466 182.4 179.094 156.822 187.48C131.244 195.868 103.681 205.083 95.5713 207.96C87.4613 210.836 76.7425 214.468 71.7517 216.03C66.7609 217.591 57.5734 220.904 51.3349 223.392C25.1356 233.837 18.3504 235.026 24.7511 228.049L27.5153 225.036L24.1125 227.004C17.3692 230.903 2.57046 243.019 0.882671 246.023C-3.30391 253.475 8.11363 262.425 20.1425 261.122C22.9498 260.817 29.8405 259.022 35.4551 257.132C41.0698 255.24 50.5125 252.386 56.4391 250.789C87.5089 242.412 106.271 235.891 184.044 206.436C197.145 201.475 218.268 193.747 230.985 189.263C252.45 181.696 254.408 181.203 258.339 182.374C268.121 185.29 276.871 183.178 283.873 176.212C287.662 172.442 288.256 172.227 292.704 173.001C295.326 173.457 299.315 173.736 301.57 173.618C304.798 173.451 306.054 173.991 307.482 176.16C309.143 178.681 314.795 181.138 323.082 182.944C326.338 183.654 328.663 187.671 328.663 192.59C328.663 194.467 326.899 198.305 324.41 201.847C320.305 207.686 320.156 208.234 320.156 217.49C320.156 225.412 320.601 227.83 322.708 231.378C324.113 233.741 325.26 235.818 325.26 235.995C325.26 236.172 314.415 236.654 301.157 237.07C274.179 237.913 256.203 239.303 247.178 241.244C242.048 242.346 241.208 242.879 241.691 244.715C242.122 246.357 241.214 247.417 237.95 249.072C235.58 250.276 231.792 253.764 229.534 256.824C227.134 260.077 224.196 262.696 222.46 263.129L219.49 263.871L219.979 290.484C220.589 323.693 218.43 320.936 247.649 325.797C276.594 330.611 292.032 331.542 353.05 332.154C398.083 332.606 413.829 333.128 419.628 334.363C434.116 337.445 489.885 335.922 509.579 331.906C513.946 331.016 524.635 329.294 533.334 328.08C550.534 325.678 554.759 323.833 550.413 320.624C547.443 318.431 535.497 315 525.175 313.372L516.952 312.077L516.828 294.97C516.653 270.574 515.883 264.69 512.659 263.097C511.233 262.393 508.936 259.597 507.554 256.885C505.73 253.305 503.719 251.328 500.221 249.675C497.219 248.256 495.401 246.64 495.401 245.392C495.401 244.291 494.18 242.927 492.689 242.363C486.624 240.068 419.719 235.932 407.495 237.096C401.85 237.633 401.172 237.526 403.525 236.463C422.29 227.989 428.212 224.801 432.256 220.997C434.857 218.549 438.9 214.778 441.239 212.617C445.102 209.049 445.493 208.149 445.493 202.824C445.493 194.629 442.637 185.683 438.945 182.315C437.243 180.763 433.441 178.612 430.496 177.534C424.223 175.239 419.405 170.085 419.405 165.67C419.405 163.307 420.794 161.382 425.117 157.757C432.913 151.216 434.69 148.379 432.981 145.203C432.249 143.844 431.499 141.651 431.313 140.332C430.863 137.134 419.93 90.0947 417.642 81.5093C414.044 68.0129 411.666 65.7221 398.288 62.8738L392.484 61.6381L391.814 56.0071C391.017 49.3198 391.778 47.0109 397.048 40.142C402.557 32.9626 403.525 30.9032 403.525 26.3622C403.525 14.9444 397.902 9.86291 379.138 4.321C364.696 0.055394 354.579 -0.921859 342.842 0.81711ZM309.791 17.1867C309.432 18.1177 308.937 18.8794 308.692 18.8794C308.447 18.8794 308.246 18.1177 308.246 17.1867C308.246 16.2557 308.741 15.494 309.346 15.494C309.949 15.494 310.15 16.2557 309.791 17.1867ZM378.028 20.0349C380.817 23.0998 379.347 24.331 371.355 25.6253C364.237 26.7775 362.08 26.3758 361.051 23.7092C360.127 21.3112 360.45 21.1149 368.005 19.4752C371.633 18.6887 374.905 17.9789 375.276 17.8976C375.647 17.8175 376.886 18.7789 378.028 20.0349ZM309.381 22.1847C309.381 23.7002 306.056 26.7786 304.419 26.7786C302.911 26.7786 291.232 37.709 291.232 39.1218C291.232 40.4986 282.475 44.0341 281.123 43.2024C275.784 39.9197 288.626 28.2818 303.677 22.7636C308.643 20.9422 309.381 20.8666 309.381 22.1847ZM369.497 52.7334C369.497 53.3541 369.272 53.8619 368.997 53.8619C368.721 53.8619 368.181 53.3541 367.796 52.7334C367.41 52.1128 367.636 51.6049 368.296 51.6049C368.956 51.6049 369.497 52.1128 369.497 52.7334ZM389.914 71.8959C389.914 73.091 387.801 73.6654 379.422 74.7464C376.458 75.1279 374.034 74.9868 374.034 74.4316C374.034 73.8764 374.673 73.3483 375.452 73.258C382.264 72.4714 387.138 71.6691 387.54 71.2696C388.429 70.3849 389.914 70.7765 389.914 71.8959ZM314.855 78.4771C312.925 80.7973 311.238 81.6323 308.577 81.5804C305.347 81.5172 305.128 81.3186 306.629 79.8166C308.151 78.2921 314.172 75.6075 316.556 75.3885C317.071 75.3411 316.305 76.7314 314.855 78.4771ZM400.83 78.0664C402.257 79.0606 403.214 81.023 403.273 83.0745C403.325 84.9286 403.897 87.427 404.541 88.6255C405.187 89.8239 405.403 91.1126 405.024 91.4895C404.646 91.8664 404.87 92.8222 405.522 93.6133C406.175 94.4043 407.082 98.0978 407.538 101.822C407.993 105.546 408.887 109.862 409.523 111.414C410.912 114.805 410.931 114.887 411.938 122.641C412.378 126.022 413.544 130.338 414.532 132.233C418.514 139.875 418.785 139.307 410.742 140.165C406.677 140.598 398.159 141.859 391.812 142.968C378.639 145.269 377.996 145.038 377.007 137.634C376.654 134.987 375.833 131.835 375.184 130.627C374.534 129.42 374.094 128.03 374.205 127.541C374.418 126.594 373.144 121.018 372.066 118.185C370.454 113.945 368.186 105.525 367.887 102.676C367.742 101.285 367.279 99.8029 366.859 99.3854C366.438 98.9667 366.083 97.3124 366.069 95.7089C366.056 94.1053 365.02 90.5484 363.769 87.8039C362.413 84.8327 361.908 82.402 362.518 81.7948C363.788 80.531 386.367 76.6795 393.347 76.5362C396.173 76.4786 399.539 77.167 400.83 78.0664ZM415.853 95.6152C415.823 96.5462 414.834 93.7532 413.657 89.4086C412.48 85.064 411.558 80.4937 411.609 79.2524C411.659 78.0111 412.648 80.804 413.805 85.459C414.962 90.1139 415.884 94.6842 415.853 95.6152ZM318.268 83.0632C319.435 83.799 319.284 84.1466 317.605 84.5833C316.248 84.9365 315.43 84.572 315.43 83.6117C315.43 81.8467 316.125 81.7125 318.268 83.0632ZM420.411 114.799C420.369 115.73 419.371 112.937 418.194 108.593C417.017 104.248 416.088 99.9316 416.13 99.0006C416.172 98.0696 417.17 100.863 418.346 105.207C419.524 109.552 420.453 113.868 420.411 114.799ZM421.314 119.525C420.952 120.425 420.683 120.157 420.629 118.842C420.58 117.653 420.847 116.987 421.224 117.362C421.601 117.737 421.641 118.71 421.314 119.525ZM422.448 124.039C422.086 124.938 421.817 124.671 421.763 123.356C421.714 122.167 421.982 121.501 422.358 121.876C422.735 122.25 422.776 123.224 422.448 124.039ZM281.803 125.375C281.475 126.227 280.089 130.671 278.725 135.249C275.757 145.21 275.357 145.962 274.094 143.978C271.621 140.095 273.599 130.927 277.895 126.366C280.556 123.539 282.723 122.991 281.803 125.375ZM268.335 143.13C268.053 145.922 266.993 147.184 263.129 149.337C260.461 150.823 257.781 152.039 257.174 152.039C255.657 152.039 255.784 146.788 257.375 143.783C259.152 140.422 260.539 139.663 264.932 139.642C268.46 139.627 268.668 139.841 268.335 143.13ZM241.845 141.958C241.434 142.619 241.341 143.404 241.638 143.699C241.935 143.995 242.481 143.453 242.85 142.495C243.617 140.507 242.964 140.157 241.845 141.958ZM239.015 146.859C238.102 147.734 231.276 150.373 223.848 152.724C216.418 155.074 210.817 157.156 211.402 157.349C211.985 157.543 217.781 155.919 224.28 153.741C230.781 151.564 236.96 149.782 238.013 149.782C239.065 149.782 240.193 148.766 240.519 147.525C241.225 144.838 241.157 144.807 239.015 146.859ZM409.196 146.229C409.196 147.263 394.339 150.046 393.464 149.176C392.261 147.978 395.013 146.932 401.061 146.287C404.599 145.909 407.877 145.525 408.346 145.434C408.814 145.342 409.196 145.7 409.196 146.229ZM185.178 165.036C173.325 168.953 164.08 172.201 164.633 172.254C166.392 172.423 208.203 159.225 209.471 158.101C210.912 156.822 204.502 158.653 185.178 165.036ZM323.559 163.901C312.196 169.44 310.077 170.029 313.398 166.724C315.375 164.756 329.57 159.022 332.633 158.952C333.257 158.937 329.174 161.165 323.559 163.901ZM397.286 167.837C397.672 168.458 397.446 168.966 396.786 168.966C396.126 168.966 395.585 168.458 395.585 167.837C395.585 167.216 395.81 166.709 396.085 166.709C396.361 166.709 396.901 167.216 397.286 167.837ZM125.798 183.78C106.864 189.989 91.564 195.259 91.7976 195.491C92.0313 195.725 108.289 190.653 127.925 184.22C147.562 177.788 162.862 172.517 161.926 172.508C160.99 172.499 144.733 177.571 125.798 183.78ZM342.044 185.728C343.25 186.488 343.25 186.868 342.044 187.826C339.501 189.848 333.014 192.854 332.436 192.279C331.395 191.244 334.48 186.895 336.96 185.901C340.14 184.627 340.292 184.621 342.044 185.728ZM335.469 193.792C334.533 194.393 333.257 194.885 332.633 194.885C332.009 194.885 332.265 194.393 333.2 193.792C334.136 193.19 335.412 192.698 336.036 192.698C336.66 192.698 336.405 193.19 335.469 193.792ZM421.021 195.057C420.286 196.241 418.27 195.291 418.27 193.76C418.27 193.196 419.033 193.026 419.965 193.381C420.897 193.738 421.373 194.492 421.021 195.057ZM418.961 196.527C419.865 198.87 417.608 203.199 415.337 203.479C414.143 203.625 412.018 204.016 410.614 204.346C409.21 204.677 408.062 204.468 408.062 203.884C408.062 203.298 407.242 202.82 406.239 202.82C405.122 202.82 404.658 202.193 405.041 201.2C405.385 200.309 405.093 199.39 404.392 199.158C403.691 198.925 403.443 197.888 403.843 196.852C404.416 195.364 406.016 194.991 411.502 195.068C415.79 195.128 418.637 195.685 418.961 196.527ZM87.0643 197.177C86.1285 197.779 85.8733 198.271 86.4972 198.271C87.121 198.271 88.3971 197.779 89.3328 197.177C90.2686 196.576 90.5238 196.084 89.9 196.084C89.2761 196.084 88.0001 196.576 87.0643 197.177ZM347.379 198.306C346.993 198.926 345.99 199.434 345.15 199.434C344.309 199.434 340.974 201.973 337.737 205.077C332.723 209.885 331.198 210.719 327.422 210.719C323.801 210.719 322.992 210.322 322.992 208.539C322.992 205.759 327.664 202.5 334.902 200.23C344.693 197.158 348.452 196.578 347.379 198.306ZM72.3188 202.82C71.3831 203.421 71.1279 203.913 71.7517 203.913C72.3756 203.913 73.6516 203.421 74.5874 202.82C75.5231 202.218 75.7784 201.726 75.1545 201.726C74.5307 201.726 73.2546 202.218 72.3188 202.82ZM65.5132 205.641C63.9536 206.528 63.188 207.253 63.8118 207.253C64.4357 207.253 66.2222 206.528 67.7818 205.641C69.3414 204.754 70.107 204.028 69.4832 204.028C68.8593 204.028 67.0729 204.754 65.5132 205.641ZM53.0363 211.283C48.9813 213.396 46.174 215.123 46.7978 215.123C47.4217 215.123 51.2498 213.396 55.3048 211.283C59.3598 209.171 62.1671 207.443 61.5433 207.443C60.9195 207.443 57.0913 209.171 53.0363 211.283ZM40.5594 217.49C39.5374 218.146 39.3967 218.59 40.2089 218.601C40.9518 218.61 41.8751 218.11 42.2608 217.49C43.1307 216.088 42.7383 216.088 40.5594 217.49ZM254.107 247.57C253.339 247.879 251.808 247.899 250.704 247.612C249.6 247.325 250.229 247.073 252.1 247.05C253.972 247.027 254.875 247.261 254.107 247.57ZM264.861 248.736C263.77 249.02 261.982 249.02 260.891 248.736C259.8 248.453 260.692 248.22 262.876 248.22C265.059 248.22 265.952 248.453 264.861 248.736ZM261.715 250.736C266.409 251.642 272.545 252.85 275.353 253.421L280.457 254.458L273.651 254.576C269.908 254.641 263.783 253.958 260.04 253.059C256.297 252.16 251.703 251.398 249.832 251.366C247.96 251.335 245.663 250.817 244.727 250.215C242.081 248.514 251.75 248.81 261.715 250.736ZM436.702 254.427C434.051 254.665 429.712 254.665 427.061 254.427C424.41 254.19 426.579 253.995 431.882 253.995C437.184 253.995 439.353 254.19 436.702 254.427ZM254.936 257.462C259.615 258.345 265.995 259.198 269.114 259.358C272.233 259.518 276.229 260.129 277.993 260.716L281.202 261.782L276.389 263.926C273.742 265.105 270.385 266.168 268.927 266.288C264.662 266.639 265.863 267.933 271.666 269.239C276.42 270.309 275.709 270.396 265.611 269.984C255.367 269.565 247.525 268.265 234.236 264.782C229.55 263.553 228.774 261.314 231.859 257.922C234.206 255.341 242.784 255.17 254.936 257.462ZM243.593 270.026C247.648 270.938 255.305 272.119 260.607 272.649L270.249 273.613L259.473 273.762C251.315 273.875 245.804 273.201 236.788 270.989C230.237 269.382 224.623 267.801 224.311 267.477C223.457 266.588 235.234 268.146 243.593 270.026ZM444.376 268.553C444.388 269.569 444.672 269.526 445.388 268.401C446.085 267.305 447.354 267.088 449.625 267.675C452.554 268.433 452.648 268.597 450.597 269.377C446.972 270.756 425.736 271.634 423.904 270.48C422.708 269.728 423.436 269.429 426.494 269.416C428.834 269.407 430.747 268.891 430.747 268.271C430.747 267.643 433.772 267.142 437.553 267.142C442.232 267.142 444.364 267.584 444.376 268.553Z" fill="white"/>
</svg>
