<svg width="896" height="159" viewBox="0 0 896 159" fill="none" xmlns="http://www.w3.org/2000/svg">
<path fill-rule="evenodd" clip-rule="evenodd" d="M233.622 131.186C252.629 131.186 266.578 128.735 266.578 107.05V98.1869H255.797V105.824C255.797 119.307 250.454 121.664 233.244 121.664H220.525C202.605 121.664 201.659 112 201.659 90.4085V64.3389C201.659 47.1321 209.603 44.445 231.731 44.445H237.877C251.826 44.445 254.568 49.3478 254.568 62.5947V65.3289H265.396V62.3118C265.396 43.6436 259.249 35.0166 239.39 35.0166H230.501C207.522 35.0166 190.973 38.0337 190.973 64.7632V101.298C190.973 120.249 201.234 131.186 218.492 131.186H233.622ZM330.882 72.2588V64.0561H271.117V72.2588H296.035V130.385H306.011V72.2588H330.882ZM364.689 122.984C353.199 122.984 347.998 122.465 347.998 109.784C347.998 99.1297 352.773 98.3283 364.689 98.3283C377.407 98.3283 384.784 98.1869 384.784 110.727C384.784 122.889 374.665 122.984 364.689 122.984ZM395.044 130.385V85.2228C395.044 65.0461 382.845 63.3961 366.202 63.3961C351.449 63.3961 339.676 64.3389 339.676 81.4043V82.7715H350.078V80.6029C350.078 71.4574 359.535 71.4574 367.431 71.4574C378.637 71.4574 385.067 72.5416 385.067 84.7043V96.9612H384.5C382.987 90.8327 370.126 90.267 363.554 90.267C347.147 90.267 337.548 92.7184 337.548 111.01C337.548 128.311 347.951 131.186 362.845 131.186C371.166 131.186 381.048 130.903 384.736 123.266L385.02 123.549V130.385H395.044ZM458.969 64.1032H447.338L432.302 88.3814L416.841 64.1032H405.635L427.101 95.8769L403.035 130.385H415.091L432.35 103.655L449.608 130.385H461.665L437.976 95.8769L458.969 64.1032ZM494.242 122.984C482.752 122.984 477.551 122.418 477.551 109.737C477.551 99.0826 482.327 98.2812 494.242 98.2812C506.961 98.2812 514.337 98.1398 514.337 110.68C514.337 122.889 504.219 122.984 494.242 122.984ZM524.597 130.385V85.2228C524.597 65.0461 512.398 63.3961 495.755 63.3961C481.003 63.3961 469.23 64.3389 469.23 81.4043V82.7715H479.632V80.6029C479.632 71.4574 489.088 71.4574 496.984 71.4574C508.19 71.4574 514.621 72.5416 514.621 84.7043V96.9612H514.053C512.54 90.8327 499.68 90.267 493.107 90.267C476.7 90.267 467.102 92.7184 467.102 111.01C467.102 128.311 477.504 131.186 492.398 131.186C500.72 131.186 510.602 130.903 514.29 123.266L514.573 123.549V130.385H524.597ZM587.672 91.917H551.832V64.1032H541.855V130.385H551.832V100.12H587.672V130.385H597.648V64.1032H587.672V91.917ZM612.968 97.3855C612.968 125.199 617.743 131.233 642.519 131.233C667.154 131.233 671.929 125.246 671.929 97.3855C671.929 69.2888 667.154 63.4432 642.519 63.4432C617.791 63.3961 612.968 69.2888 612.968 97.3855ZM623.37 97.3855C623.37 74.1916 624.599 71.4574 642.519 71.4574C660.298 71.4574 661.527 74.1916 661.527 97.3855C661.527 120.296 660.298 123.031 642.519 123.031C624.599 122.984 623.37 120.296 623.37 97.3855ZM687.248 130.385H718.833C733.065 130.385 744.129 130.385 744.129 111.01C744.129 101.204 741.954 96.6784 732.356 96.0184V95.7355C741.387 95.1698 742.9 88.8999 742.9 80.6029C742.9 63.6789 731.978 64.1032 716.516 64.1032H687.248V130.385ZM697.225 91.917V72.2588H715.429C731.032 72.2588 732.545 72.4002 732.545 81.8286C732.545 91.7756 728.573 91.917 719.117 91.917H697.225ZM697.225 100.073H718.975C728.431 100.073 733.727 99.6483 733.727 110.727C733.727 122.606 729.093 122.182 719.779 122.182H697.225V100.073ZM805.171 110.302V112.754C805.171 122.182 800.679 122.984 786.967 122.984C769.047 122.984 767.534 120.391 767.534 99.3655H815.431V92.6713C815.431 68.2517 808.575 63.349 786.967 63.349C763.184 63.349 757.132 69.7603 757.132 97.2912C757.132 122.512 761.103 131.139 786.967 131.139C801.861 131.139 815.431 130.196 815.431 112.707V110.255H805.171V110.302ZM767.581 91.3513C768.243 76.0773 768.952 71.4574 787.014 71.4574C802.192 71.4574 804.509 72.5416 805.076 91.3513H767.581ZM885.078 130.385V152.73H895.054V122.182H886.733V64.1032H876.756V122.229H840.916V64.1032H830.939V130.385H885.078Z" fill="#3C3C3C"/>
<path fill-rule="evenodd" clip-rule="evenodd" d="M91.3967 157.633V74.4744H117.355V66.0831L104.73 52.7891C84.3989 52.7891 64.0675 52.7891 44.4454 52.7891V74.4744H69.6941V117.091L91.3967 157.633Z" fill="#E03A3A"/>
<path fill-rule="evenodd" clip-rule="evenodd" d="M159.294 79.1887C159.294 101.581 149.932 121.805 134.896 136.183L123.312 115.158C131.492 105.447 136.362 92.9542 136.362 79.3301C136.362 68.346 133.194 58.1162 127.662 49.4892L144.258 32.9424C153.715 45.9064 159.294 61.9347 159.294 79.1887Z" fill="#FA7347"/>
<path fill-rule="evenodd" clip-rule="evenodd" d="M24.5395 79.3301C24.5395 105.824 43.0742 127.981 67.8974 133.638L81.3729 158.104C80.9473 158.104 80.5218 158.104 80.0963 158.104C36.3601 158.104 0.945648 122.795 0.945648 79.1887C0.945648 35.5823 36.3601 0.272949 80.0963 0.272949C100.239 0.272949 118.584 7.76853 132.532 20.0726L116.125 36.4309C106.433 28.4167 93.9973 23.5611 80.4272 23.5611C49.5519 23.5611 24.5395 48.5464 24.5395 79.3301Z" fill="#E03A3A"/>
</svg>
