<svg width="892" height="222" viewBox="0 0 892 222" fill="none" xmlns="http://www.w3.org/2000/svg">
<g clip-path="url(#clip0_965_30160)">
<path fill-rule="evenodd" clip-rule="evenodd" d="M68.681 52.0879H109.43L119.621 62.2367L41.9378 140.058L52.1287 150.207L32.5958 169.668L-0.0893555 138.794L76.745 62.6643L68.681 52.0879ZM108.586 108.339L128.534 129.487L80.5696 177.693L90.3312 188.274L71.2276 208.572L39.3913 177.693L108.586 108.339Z" fill="#CC2229"/>
<path fill-rule="evenodd" clip-rule="evenodd" d="M110.703 93.957H150.608L194.753 137.94L111.132 222.109L80.5694 214.916L154.852 137.522L110.703 93.957ZM73.2827 37.2265C74.3414 33.9386 75.3381 31.81 77.0119 28.5173C77.5174 25.3055 77.6557 23.0058 75.0662 20.4069C74.2521 18.5065 73.8879 16.4449 74.002 14.3817C74.1162 12.3186 74.7055 10.3093 75.7243 8.50962C77.8035 5.66359 80.1211 3.06461 82.6104 0.631942C84.7516 -0.589142 86.1679 0.19957 85.6243 2.6845L81.2895 11.9923C80.6791 15.5843 81.8188 18.991 84.0744 20.7014C85.7721 22.1506 86.7688 26.441 84.2795 29.9095C82.2242 33.2544 79.5823 35.5778 75.8769 37.8869C74.3843 38.2718 73.5212 38.4381 73.2827 37.2265ZM88.0277 37.2265C89.0864 33.9386 90.0831 31.81 91.7569 28.5173C92.2624 25.3055 92.4055 23.0058 89.8113 20.4069C88.9971 18.5065 88.633 16.4449 88.7471 14.3817C88.8612 12.3186 89.4505 10.3093 90.4694 8.50962C92.5485 5.66359 94.8662 3.06461 97.3555 0.631942C99.4966 -0.589142 100.908 0.19957 100.369 2.6845L96.0345 11.9923C95.4241 15.5843 96.5638 18.991 98.8242 20.7014C100.522 22.1506 101.519 26.441 99.0293 29.9095C96.974 33.2544 94.3321 35.5778 90.6267 37.8869C89.1246 38.2718 88.2614 38.4381 88.0277 37.2265ZM102.773 37.2265C103.831 33.9386 104.828 31.81 106.502 28.5173C107.007 25.3055 107.146 23.0058 104.556 20.4069C103.742 18.5066 103.378 16.4453 103.491 14.3824C103.605 12.3194 104.193 10.3101 105.21 8.50962C107.289 5.66359 109.606 3.06461 112.1 0.631942C114.237 -0.589142 115.653 0.19957 115.11 2.6845L110.775 11.9923C110.164 15.5843 111.304 18.991 113.56 20.7014C115.257 22.1506 116.259 26.441 113.765 29.9095C111.709 33.2544 109.068 35.5778 105.362 37.8869C103.87 38.2718 103.011 38.4381 102.773 37.2265ZM480.578 99.8961H414.259V117.2H481.518C484.994 117.2 488.456 117.2 488.456 124.114C488.456 131.027 484.989 131.963 481.518 131.963H414.259V192.076H482.152C485.619 192.076 489.091 192.076 489.091 198.98C489.091 205.893 481.222 205.893 477.746 205.893H407.321C403.849 205.893 400.382 202.439 400.382 198.98V131.027H394.698C392.204 130.442 390.086 129.169 388.823 127.036C387.626 125.002 387.683 124.009 388.355 121.885C389.8 117.338 391.66 117.205 394.698 117.205H400.382V92.9925C400.382 89.5335 403.849 86.0793 407.321 86.0793H482.777C486.253 86.0793 489.715 86.0793 489.715 92.9925C489.715 99.8961 484.041 99.8961 480.578 99.8961ZM684.133 99.8961H617.819V117.2H685.082C688.549 117.2 692.011 117.2 692.011 124.114C692.011 131.027 688.544 131.963 685.082 131.963H617.819V192.076H685.707C689.174 192.076 692.646 192.076 692.646 198.98C692.646 205.893 684.777 205.893 681.31 205.893H610.875C607.409 205.893 603.937 202.439 603.937 198.98V131.027H598.257C595.763 130.442 593.646 129.169 592.382 127.036C591.18 125.002 591.247 124.009 591.915 121.885C593.36 117.338 595.22 117.205 598.257 117.205H603.937V92.9925C603.937 89.5335 607.413 86.0793 610.875 86.0793H686.336C689.803 86.0793 693.265 86.0793 693.265 92.9925C693.27 99.8961 687.61 99.8961 684.133 99.8961ZM853.081 100.742V199.255C853.081 202.709 853.081 206.677 846.143 207.784C839.214 206.225 839.214 202.709 839.214 199.255V100.742H812.108C809.781 100.742 802.68 100.742 802.68 93.8287C805.141 87.2149 810.382 86.9156 812.704 86.9156H882.943C885.261 86.9156 890.592 86.9156 892.09 93.8287C892.09 100.742 885.261 100.742 882.943 100.742H853.081Z" fill="#CC2229"/>
<path fill-rule="evenodd" clip-rule="evenodd" d="M502.333 198.846V170.253H496.587C493.12 170.253 488.69 170.253 488.69 163.34C488.69 156.426 494.67 156.426 498.132 156.426H502.333V93.2626C502.333 89.8084 507.808 85.8506 511.284 85.8506H582.034C585.501 85.8506 590.918 86.4873 591.867 92.4502C591.867 99.3633 586.846 99.6721 583.383 99.6721H516.864V156.422H579.769C583.245 156.422 590.193 156.422 590.193 163.335C590.193 170.248 583.245 170.248 579.769 170.248H516.864V199.639C516.864 200.371 516.94 200.884 516.659 201.549C513.836 208.315 506.516 209.389 502.772 201.977C502.205 200.842 502.333 200.115 502.333 198.846ZM316.828 155.571L379.9 155.291H379.929C385.599 155.291 387.831 158.289 387.831 163.159V163.002C387.893 164.049 387.709 165.095 387.292 166.057C384.235 178.159 376.529 188.032 366.476 195.002C355.742 202.443 342.241 206.61 328.936 206.61C320.871 206.611 312.885 205.025 305.437 201.944C297.988 198.863 291.224 194.347 285.531 188.654C279.818 182.983 275.285 176.243 272.192 168.822C269.1 161.4 267.508 153.444 267.51 145.408C267.51 128.498 274.367 112.705 285.488 101.197C296.485 89.8132 311.64 82.6055 328.483 82.6055C337.072 82.6055 345.47 84.3444 353.128 87.5135C360.901 90.7397 362.208 90.4689 367.888 96.3985C370.596 99.2303 375.365 102.746 369.685 108.134C366.133 109.935 364.192 110.215 361.955 109.702C357.124 108.595 356.147 105.882 352.284 104.043C351.101 103.483 349.647 103.008 347.115 101.958C341.209 99.5208 334.88 98.268 328.488 98.2705C316.104 98.2705 304.93 103.606 296.795 112.025C288.127 120.996 283.271 132.956 283.242 145.408C283.242 157.937 288.378 169.321 296.656 177.574C304.935 185.827 316.595 190.26 329.17 190.26C339.337 190.26 349.38 187.79 357.511 182.159C361.898 179.114 365.637 174.448 368.341 170.096L314.387 170.329C310.457 170.338 305.612 171.265 305.584 163.435C305.555 155.604 312.899 155.59 316.828 155.571ZM387.02 166.623C387.007 166.658 386.99 166.692 386.967 166.722L387.015 166.656L387.02 166.623ZM777.715 110.182C761.154 94.7308 740.638 94.3459 725.688 109.64V109.669C725.085 110.282 724.501 110.915 723.938 111.565H723.967C722.46 113.313 721.506 114.62 721.015 115.812C720.528 117 720.29 118.54 720.175 120.796V120.763C719.98 124.878 721.024 127.857 722.903 129.924C725.326 132.58 729.284 134.228 733.938 135.103C736.246 135.54 736.647 135.611 737.028 135.677C747.238 137.535 767.782 141.275 780.71 147.081C785.937 149.437 789.8 152.26 792.67 156.065C795.551 159.862 797.186 164.333 797.978 169.949C798.656 174.705 798.17 179.555 796.562 184.084C795.155 188.065 793.376 190.959 791.011 193.501C788.831 195.848 786.342 197.63 783.233 199.654C777.705 203.275 771.578 205.895 765.135 207.394C758.698 208.862 752.117 209.099 745.464 208.268L745.522 208.296C734.458 206.999 726.074 204.51 719.06 200.946C711.964 197.345 706.475 192.779 701.186 187.324C698.645 184.697 696.103 182.074 701.449 177.099C706.794 172.134 710.485 176.757 713.027 179.38C717.295 183.77 720.462 185.405 725.827 188.132C731.292 190.897 738.063 192.874 747.257 193.952L747.315 193.981C752.14 194.618 757.04 194.397 761.788 193.33C766.522 192.228 771.023 190.295 775.078 187.623C777.258 186.212 778.936 185.034 780.1 183.78C781.087 182.73 781.869 181.385 782.58 179.389C783.445 176.987 783.71 174.41 783.352 171.882C782.913 168.708 782.122 166.371 780.83 164.656C779.537 162.94 777.487 161.529 774.535 160.199C763.228 155.115 743.948 151.604 734.372 149.86C732.331 149.499 731.716 149.385 731.168 149.285C723.495 147.836 716.637 144.776 711.868 139.521C707.472 134.694 704.987 128.337 705.378 120.141V120.112C705.564 116.311 706.112 113.361 707.324 110.439C708.525 107.512 710.204 105.07 712.631 102.238H712.66C713.537 101.226 714.319 100.361 714.997 99.6674V99.6959C736.327 77.8637 767.138 81.6172 789.609 102.589C792.284 105.084 794.955 107.583 789.871 112.805C783.915 113.745 780.386 112.676 777.715 110.182Z" fill="#CC2229"/>
</g>
<defs>
<clipPath id="clip0_965_30160">
<rect width="892" height="222" fill="white"/>
</clipPath>
</defs>
</svg>
