<svg width="802" height="614" viewBox="0 0 802 614" fill="none" xmlns="http://www.w3.org/2000/svg">
<g clip-path="url(#clip0_886_11618)">
<path d="M466.635 97.199C442.196 72.7354 417.755 48.2746 393.315 23.8121C388.16 18.6527 388.785 17.559 388.785 10.1899V-0.132812C382.984 3.65842 380.987 3.97786 380.792 10.1995C380.766 11.0253 380.776 11.8523 380.776 12.6792C380.776 33.6104 380.776 54.5433 380.776 75.4745C380.776 88.6582 379.059 99.7658 388.242 110.634C413.799 136.214 439.356 161.794 464.913 187.373C469.841 192.307 469.354 193.172 469.354 200.212C469.354 202.682 469.354 205.151 469.354 207.618C474.727 204.228 476.38 201.018 476.38 194.838C476.38 192.441 476.38 190.044 476.38 187.646C476.38 169.262 476.342 150.874 476.342 132.447C476.342 117.73 476.424 107.624 466.635 97.199ZM388.521 162.048C385.939 159.464 383.358 156.881 380.776 154.296C380.776 175.7 380.776 207.807 380.776 229.21C380.776 237.862 381.097 242.072 383.913 247.018C385.388 249.606 392.722 256.418 398.583 262.496C404.107 268.025 415.794 271.008 433.108 253.827C454.587 232.514 465.109 225.582 465.109 200.446C465.109 198.814 438.077 173.247 429.569 165.089C426.644 167.64 424.242 169.607 420.745 172.092C406.154 182.465 401.388 174.927 388.521 162.048ZM366.229 174.008C350.098 157.864 333.968 141.717 317.837 125.573C313.016 120.746 312.702 120.502 312.702 113.697V107.087C308.713 109.692 307.339 109.913 307.206 114.19C307.188 114.757 307.195 115.326 307.195 115.895C307.195 130.286 307.195 139.482 307.195 153.873C307.195 162.938 306.014 170.575 312.328 178.048C329.9 195.636 347.472 213.224 365.044 230.811C368.433 234.203 368.098 234.798 368.098 239.639C368.098 241.336 368.098 243.034 368.098 244.732C371.792 242.4 372.929 240.193 372.929 235.942C372.929 234.296 372.929 232.647 372.929 230.999C372.929 218.357 372.902 210.913 372.902 198.243C372.902 188.126 372.959 181.176 366.229 174.008ZM367.795 142.839C369.469 144.514 371.143 146.189 372.816 147.866C372.816 133.986 372.816 113.168 372.816 99.2886C372.816 93.6772 372.608 90.9488 370.782 87.742C369.826 86.0628 365.071 81.6456 361.27 77.7056C357.688 74.1198 350.11 72.1857 338.882 83.3276C324.955 97.1462 318.132 101.641 318.132 117.94C318.132 118.998 335.66 135.578 341.178 140.867C343.074 139.214 344.631 137.938 346.899 136.326C356.361 129.599 359.452 134.49 367.795 142.839Z" fill="#B67F24"/>
<path d="M52.1488 382.368L97.2438 432.178C104.647 440.496 110.944 446.145 116.166 449.123C121.388 452.101 126.61 453.779 131.833 454.19V457.887H73.6516V454.19C77.1537 454.19 79.6418 453.539 81.1779 452.238C82.7139 450.937 83.4819 449.465 83.4819 447.856C83.4819 446.247 83.1743 444.81 82.6218 443.543C82.038 442.276 80.1645 439.88 77.0004 436.423L34.8854 389.899V433.855C34.8854 440.736 35.2845 445.289 36.0834 447.48C36.6667 449.157 37.9569 450.595 39.8926 451.793C42.5032 453.403 45.2682 454.19 48.1864 454.19H52.3948V457.887H0.0507812V454.19H4.38208C9.45053 454.19 13.1059 452.546 15.4099 449.294C16.8539 447.137 17.5602 442.002 17.5602 433.855V345.738C17.5602 338.857 17.161 334.27 16.393 332.01C15.7788 330.401 14.5499 328.998 12.6759 327.8C10.0344 326.191 7.26943 325.403 4.38208 325.403H0.0507812V321.706H52.3948V325.403H48.1864C45.3294 325.403 42.565 326.156 39.8926 327.697C38.0186 328.758 36.6976 330.367 35.9914 332.524C35.2537 334.647 34.8854 339.063 34.8854 345.738V387.503C36.0834 386.202 40.1997 381.957 47.2034 374.734C65.0198 356.522 75.8023 344.369 79.5189 338.275C81.147 335.571 81.9459 333.243 81.9459 331.223C81.9459 329.683 81.3008 328.348 80.0416 327.15C78.7818 325.985 76.6624 325.403 73.6516 325.403H70.8872V321.706H115.828V325.403C113.186 325.472 110.79 325.882 108.64 326.636C106.459 327.354 103.817 328.792 100.715 330.915C97.5813 333.071 93.7417 336.495 89.1954 341.219C87.8744 342.554 81.7617 349.401 70.8568 361.76L52.1488 382.368ZM214.65 412.493H167.312L159.141 433.821C157.114 439.093 156.069 443.064 156.069 445.666C156.069 447.719 156.96 449.568 158.742 451.143C160.493 452.683 164.332 453.71 170.2 454.19V457.887H131.679V454.19C136.778 453.197 140.065 451.896 141.57 450.287C144.642 447.069 148.021 440.53 151.738 430.706L194.713 318.625H197.754L240.238 431.904C243.647 441.01 246.75 446.898 249.545 449.637C252.341 452.341 256.211 453.847 261.218 454.19V457.887H213.052V454.19C217.905 453.916 221.192 453.026 222.912 451.485C224.633 449.945 225.462 448.062 225.462 445.836C225.462 442.893 224.264 438.237 221.868 431.87L214.65 412.493ZM211.885 405.098L191.303 350.154L170.169 405.098H211.885ZM338.69 457.887L291.506 343.307V434.266C291.506 442.653 292.336 447.891 293.964 449.979C296.206 452.786 299.769 454.19 304.654 454.19H309.016V457.887H266.072V454.19H270.464C275.686 454.19 279.373 452.444 281.585 448.952C282.905 446.795 283.581 441.9 283.581 434.266V345.327C283.581 339.302 282.967 334.92 281.769 332.25C280.909 330.298 279.342 328.69 277.069 327.354C274.765 326.054 271.109 325.403 266.072 325.403V321.706H301.09L345.141 428.172L388.792 321.706H423.472V325.403H419.202C413.888 325.403 410.171 327.149 407.96 330.641C406.639 332.798 405.963 337.693 405.963 345.327V434.266C405.963 442.653 406.823 447.891 408.512 449.979C410.755 452.786 414.319 454.19 419.202 454.19H423.472V457.887H371.128V454.19H375.521C380.805 454.19 384.491 452.444 386.641 448.952C387.962 446.795 388.638 441.9 388.638 434.266V343.307L341.638 457.887H338.69ZM557.957 321.706V325.403C553.657 326.293 550.37 327.834 548.158 330.059C544.994 333.346 542.168 338.412 539.711 345.224L497.289 460.968H493.971L448.293 343.684C445.959 337.625 444.3 333.927 443.348 332.592C441.842 330.504 439.999 328.861 437.787 327.663C435.606 326.499 432.657 325.745 428.941 325.403V321.706H478.765V325.403C473.113 326.019 469.458 327.08 467.769 328.621C466.11 330.161 465.249 332.113 465.249 334.544C465.249 337.864 466.632 343.102 469.397 350.188L500.453 429.918L529.297 351.181C532.123 343.41 533.536 338.035 533.536 335.023C533.536 333.106 532.645 331.223 530.925 329.477C529.174 327.697 526.226 326.43 522.109 325.712C521.802 325.643 521.28 325.54 520.573 325.403V321.706H557.957ZM627.627 318.625C643.447 318.625 657.178 325.335 668.759 338.754C680.37 352.174 686.176 368.914 686.176 389.009C686.176 409.686 680.339 426.837 668.636 440.496C656.963 454.155 642.802 460.968 626.183 460.968C609.411 460.968 595.311 454.292 583.884 440.976C572.456 427.658 566.743 410.439 566.743 389.283C566.743 367.681 573.347 350.051 586.525 336.392C597.983 324.547 611.684 318.625 627.627 318.625ZM625.906 325.814C615.032 325.814 606.277 330.333 599.704 339.37C591.502 350.633 587.386 367.1 587.386 388.803C587.386 411.021 591.625 428.138 600.134 440.119C606.677 449.226 615.278 453.779 625.999 453.779C637.456 453.779 646.887 448.78 654.352 438.819C661.817 428.823 665.533 413.109 665.533 391.611C665.533 368.298 661.417 350.907 653.215 339.473C646.642 330.367 637.549 325.814 625.906 325.814ZM799.189 420.298L802.138 421.017L791.632 457.887H697.081V454.19H701.658C706.818 454.19 710.505 452.341 712.717 448.61C713.976 446.487 714.59 441.557 714.59 433.855V345.738C714.59 337.248 713.761 331.942 712.072 329.819C709.737 326.876 706.265 325.403 701.658 325.403H697.081V321.706H752.374V325.403C745.892 325.335 741.346 325.985 738.704 327.389C736.093 328.758 734.311 330.538 733.359 332.627C732.407 334.749 731.916 339.816 731.916 347.792V433.649C731.916 439.23 732.407 443.029 733.359 445.118C734.066 446.556 735.202 447.582 736.708 448.267C738.182 448.917 742.882 449.26 750.777 449.26H759.685C769.085 449.26 775.658 448.507 779.437 446.966C783.215 445.426 786.686 442.687 789.82 438.784C792.922 434.882 796.056 428.72 799.189 420.298Z" fill="#464747"/>
<path d="M276.352 589.266L281.104 588.501C281.368 590.404 282.114 591.861 283.334 592.881C284.554 593.891 286.266 594.401 288.451 594.401C290.663 594.401 292.302 593.955 293.376 593.054C294.441 592.161 294.979 591.105 294.979 589.894C294.979 588.81 294.496 587.955 293.54 587.336C292.867 586.908 291.228 586.371 288.624 585.706C285.11 584.823 282.679 584.058 281.313 583.412C279.956 582.757 278.928 581.864 278.227 580.717C277.526 579.579 277.171 578.314 277.171 576.93C277.171 575.664 277.462 574.499 278.036 573.424C278.619 572.35 279.401 571.458 280.394 570.748C281.14 570.202 282.16 569.737 283.443 569.355C284.736 568.973 286.111 568.781 287.586 568.781C289.808 568.781 291.756 569.1 293.431 569.746C295.116 570.384 296.354 571.258 297.155 572.35C297.947 573.452 298.502 574.918 298.802 576.757L294.105 577.413C293.895 575.937 293.277 574.781 292.256 573.953C291.237 573.124 289.799 572.714 287.932 572.714C285.738 572.714 284.163 573.079 283.225 573.807C282.287 574.535 281.814 575.391 281.814 576.365C281.814 576.984 282.005 577.549 282.397 578.05C282.788 578.56 283.398 578.987 284.236 579.324C284.718 579.506 286.12 579.916 288.469 580.553C291.856 581.455 294.223 582.201 295.57 582.775C296.918 583.348 297.974 584.195 298.739 585.288C299.513 586.389 299.895 587.755 299.895 589.393C299.895 590.986 299.431 592.489 298.493 593.9C297.556 595.311 296.208 596.404 294.451 597.178C292.684 597.951 290.691 598.334 288.469 598.334C284.791 598.334 281.978 597.569 280.048 596.049C278.118 594.519 276.889 592.261 276.352 589.266ZM305.576 564.084V558.621H310.383V564.084H305.576ZM305.576 597.733V569.382H310.383V597.733H305.576ZM317.712 597.733V569.382H322.028V573.406C324.103 570.32 327.108 568.781 331.032 568.781C332.743 568.781 334.309 569.091 335.738 569.701C337.168 570.311 338.242 571.121 338.953 572.113C339.663 573.106 340.164 574.289 340.445 575.655C340.618 576.547 340.71 578.104 340.71 580.326V597.733H335.902V580.508C335.902 578.55 335.72 577.084 335.347 576.12C334.974 575.154 334.309 574.38 333.363 573.798C332.415 573.224 331.296 572.933 330.021 572.933C327.981 572.933 326.225 573.579 324.74 574.881C323.257 576.174 322.519 578.641 322.519 582.265V597.733H317.712ZM366.611 587.354L371.309 588.009C370.79 591.242 369.479 593.763 367.358 595.593C365.236 597.424 362.623 598.334 359.537 598.334C355.668 598.334 352.554 597.068 350.206 594.537C347.848 592.007 346.673 588.383 346.673 583.667C346.673 580.608 347.183 577.94 348.193 575.646C349.204 573.361 350.742 571.64 352.818 570.502C354.885 569.355 357.133 568.781 359.574 568.781C362.642 568.781 365.164 569.555 367.112 571.112C369.07 572.669 370.326 574.881 370.872 577.74L366.229 578.45C365.783 576.547 365 575.118 363.862 574.153C362.733 573.197 361.368 572.714 359.765 572.714C357.343 572.714 355.377 573.579 353.856 575.309C352.345 577.048 351.589 579.78 351.589 583.53C351.589 587.336 352.318 590.094 353.774 591.815C355.24 593.536 357.143 594.401 359.483 594.401C361.376 594.401 362.951 593.827 364.208 592.671C365.473 591.524 366.274 589.749 366.611 587.354ZM394.744 588.556L399.714 589.211C398.941 592.098 397.493 594.346 395.381 595.939C393.269 597.533 390.573 598.334 387.287 598.334C383.154 598.334 379.876 597.059 377.454 594.51C375.033 591.97 373.822 588.392 373.822 583.794C373.822 579.042 375.042 575.345 377.491 572.724C379.94 570.092 383.117 568.781 387.023 568.781C390.801 568.781 393.888 570.065 396.282 572.642C398.676 575.218 399.878 578.841 399.878 583.512C399.878 583.794 399.869 584.222 399.851 584.787H378.738C378.92 587.891 379.794 590.276 381.379 591.925C382.953 593.572 384.929 594.401 387.287 594.401C389.044 594.401 390.546 593.937 391.785 593.008C393.032 592.079 394.015 590.595 394.744 588.556ZM379.011 580.854H394.798C394.589 578.468 393.979 576.684 392.986 575.491C391.466 573.643 389.482 572.714 387.051 572.714C384.847 572.714 382.999 573.452 381.497 574.927C380.004 576.402 379.175 578.377 379.011 580.854ZM437.679 597.733H432.873V567.124C431.716 568.235 430.196 569.337 428.32 570.438C426.445 571.54 424.751 572.368 423.258 572.915V568.272C425.944 567.015 428.293 565.486 430.305 563.683C432.317 561.89 433.746 560.15 434.584 558.457H437.679V597.733ZM450.744 588.665L455.333 588.283C455.724 590.45 456.471 592.016 457.573 592.99C458.674 593.964 460.085 594.455 461.815 594.455C463.29 594.455 464.582 594.119 465.702 593.436C466.822 592.762 467.732 591.861 468.434 590.723C469.135 589.594 469.727 588.064 470.209 586.143C470.692 584.222 470.929 582.265 470.929 580.271C470.929 580.061 470.919 579.734 470.901 579.306C469.945 580.836 468.634 582.082 466.977 583.03C465.32 583.986 463.517 584.459 461.587 584.459C458.355 584.459 455.624 583.284 453.384 580.936C451.154 578.596 450.034 575.5 450.034 571.658C450.034 567.689 451.199 564.502 453.539 562.08C455.87 559.668 458.793 558.457 462.315 558.457C464.847 558.457 467.168 559.14 469.281 560.515C471.383 561.88 472.977 563.829 474.069 566.368C475.162 568.9 475.708 572.569 475.708 577.367C475.708 582.365 475.171 586.344 474.088 589.302C473.004 592.27 471.383 594.519 469.244 596.067C467.105 597.615 464.601 598.389 461.724 598.389C458.665 598.389 456.17 597.542 454.231 595.839C452.301 594.137 451.135 591.742 450.744 588.665ZM470.355 571.413C470.355 568.663 469.627 566.478 468.17 564.867C466.722 563.255 464.956 562.445 462.88 562.445C460.732 562.445 458.874 563.31 457.308 565.049C455.733 566.787 454.95 569.045 454.95 571.813C454.95 574.298 455.697 576.32 457.181 577.867C458.674 579.424 460.531 580.198 462.744 580.198C464.965 580.198 466.786 579.424 468.215 577.867C469.645 576.32 470.355 574.162 470.355 571.413ZM480.415 587.464L485.441 587.081C485.814 589.53 486.678 591.369 488.026 592.607C489.374 593.836 491.022 594.455 492.961 594.455C495.301 594.455 497.258 593.581 498.851 591.843C500.435 590.094 501.227 587.782 501.227 584.905C501.227 582.165 500.472 580.007 498.952 578.423C497.431 576.839 495.419 576.047 492.915 576.047C491.358 576.047 489.966 576.402 488.727 577.112C487.498 577.822 486.533 578.741 485.823 579.87L481.289 579.215L485.058 559.113H504.451V563.701H488.891L486.806 574.253C489.146 572.605 491.604 571.786 494.172 571.786C497.577 571.786 500.454 572.97 502.793 575.337C505.133 577.703 506.308 580.745 506.308 584.459C506.308 588 505.279 591.059 503.221 593.636C500.718 596.804 497.294 598.389 492.961 598.389C489.41 598.389 486.515 597.387 484.266 595.393C482.018 593.399 480.734 590.759 480.415 587.464ZM510.796 587.464L515.822 587.081C516.195 589.53 517.06 591.369 518.407 592.607C519.755 593.836 521.402 594.455 523.342 594.455C525.682 594.455 527.639 593.581 529.232 591.843C530.816 590.094 531.608 587.782 531.608 584.905C531.608 582.165 530.853 580.007 529.332 578.423C527.812 576.839 525.8 576.047 523.296 576.047C521.739 576.047 520.346 576.402 519.109 577.112C517.879 577.822 516.914 578.741 516.204 579.87L511.67 579.215L515.439 559.113H534.831V563.701H519.272L517.187 574.253C519.527 572.605 521.985 571.786 524.553 571.786C527.958 571.786 530.835 572.97 533.174 575.337C535.514 577.703 536.689 580.745 536.689 584.459C536.689 588 535.66 591.059 533.603 593.636C531.099 596.804 527.676 598.389 523.342 598.389C519.791 598.389 516.896 597.387 514.648 595.393C512.399 593.399 511.115 590.759 510.796 587.464Z" fill="#373737"/>
<path d="M250.777 578.953V586.875H55.9512V578.953H250.777Z" fill="#B67F24"/>
<path d="M752.996 578.953V586.875H558.17V578.953H752.996Z" fill="#B67F24"/>
</g>
<defs>
<clipPath id="clip0_886_11618">
<rect width="802" height="614" fill="white"/>
</clipPath>
</defs>
</svg>
