<svg width="230" height="40" viewBox="0 0 230 40" fill="none" xmlns="http://www.w3.org/2000/svg">
<g clip-path="url(#clip0_483_6593)">
<mask id="mask0_483_6593" style="mask-type:luminance" maskUnits="userSpaceOnUse" x="0" y="0" width="230" height="40">
<path d="M230 0H0V40H230V0Z" fill="white"/>
</mask>
<g mask="url(#mask0_483_6593)">
<path d="M37.3475 11.6711H39.1951V16.3318H36.8366C33.6857 16.3318 31.442 18.2535 31.442 21.1092V31.2527H25.8563V11.6711H31.2845V14.7653C32.8217 12.7657 34.631 11.6711 37.3475 11.6711ZM62.2681 21.4011C62.2681 27.4678 57.7422 31.8171 51.4071 31.8171C45.0719 31.8171 40.5079 27.4678 40.5079 21.4011C40.5079 15.3345 45.0719 11.0581 51.4071 11.0581C57.7422 11.0581 62.2681 15.3928 62.2681 21.4254V21.4011ZM57.2601 21.4644C57.2601 17.9372 54.8206 15.3539 51.3975 15.3539C47.9745 15.3539 45.4968 17.9372 45.4968 21.4644C45.4968 24.9915 47.9364 27.5748 51.3975 27.5748C54.8588 27.5748 57.2601 24.9866 57.2601 21.4644ZM219.144 0C212.818 0 208.259 4.30066 208.259 10.3187C208.259 16.3367 212.78 20.7152 219.144 20.7152C225.508 20.7152 229.99 16.3804 229.99 10.3187C229.99 4.25688 225.441 0 219.153 0H219.144ZM21.0489 16.0545C21.8532 17.7445 22.271 19.5983 22.271 21.4765C22.271 23.3548 21.8532 25.2086 21.0489 26.8986C20.2729 28.4033 19.1028 29.6596 17.6688 30.5279C16.148 31.4218 14.4161 31.8744 12.6609 31.8365C10.951 31.8634 9.26613 31.416 7.7865 30.5425C6.95061 30.042 6.19139 29.4191 5.53313 28.6937V36.6675H0V11.71H5.54269V14.2301C6.20445 13.5182 6.96335 12.907 7.79604 12.4155C9.30823 11.5619 11.0085 11.1141 12.7372 11.1141C14.4659 11.1141 16.1662 11.5619 17.6783 12.4155C19.1144 13.2877 20.2845 14.5492 21.0583 16.0593L21.0489 16.0545ZM17.2296 21.4741C17.2499 20.3997 17.0191 19.3358 16.5564 18.3702C16.1364 17.5013 15.4929 16.7649 14.6946 16.2394C13.8835 15.7136 12.9392 15.4413 11.9781 15.4561C10.9348 15.4574 9.90851 15.7268 8.99433 16.2394C8.03572 16.7679 7.19526 17.4935 6.52615 18.3702C5.81087 19.2992 5.26292 20.3501 4.90773 21.4741C5.2608 22.6005 5.80891 23.6533 6.52615 24.5828C7.19526 25.4596 8.03572 26.1852 8.99433 26.7137C9.90851 27.2262 10.9348 27.4956 11.9781 27.497C12.9392 27.5118 13.8835 27.2395 14.6946 26.7137C15.4929 26.1882 16.1364 25.4517 16.5564 24.5828C17.0243 23.6185 17.26 22.5545 17.2439 21.479L17.2296 21.4741Z" fill="#FFC800"/>
<path d="M37.3475 11.6711H39.1951V16.3318H36.8366C33.6857 16.3318 31.442 18.2535 31.442 21.1092V31.2527H25.8563V11.6711H31.2845V14.7653C32.8217 12.7657 34.631 11.6711 37.3475 11.6711ZM62.2681 21.4011C62.2681 27.4678 57.7422 31.8171 51.4071 31.8171C45.0719 31.8171 40.5079 27.4678 40.5079 21.4011C40.5079 15.3345 45.0719 11.0581 51.4071 11.0581C57.7422 11.0581 62.2681 15.3928 62.2681 21.4254V21.4011ZM57.2601 21.4644C57.2601 17.9372 54.8206 15.3539 51.3975 15.3539C47.9745 15.3539 45.4968 17.9372 45.4968 21.4644C45.4968 24.9915 47.9364 27.5748 51.3975 27.5748C54.8588 27.5748 57.2601 24.9866 57.2601 21.4644ZM219.144 0C212.818 0 208.259 4.30066 208.259 10.3187C208.259 16.3367 212.78 20.7152 219.144 20.7152C225.508 20.7152 229.99 16.3804 229.99 10.3187C229.99 4.25688 225.441 0 219.153 0H219.144ZM21.0489 16.0545C21.8532 17.7445 22.271 19.5983 22.271 21.4765C22.271 23.3548 21.8532 25.2086 21.0489 26.8986C20.2729 28.4033 19.1028 29.6596 17.6688 30.5279C16.148 31.4218 14.4161 31.8744 12.6609 31.8365C10.951 31.8634 9.26613 31.416 7.7865 30.5425C6.95061 30.042 6.19139 29.4191 5.53313 28.6937V36.6675H0V11.71H5.54269V14.2301C6.20445 13.5182 6.96335 12.907 7.79604 12.4155C9.30823 11.5619 11.0085 11.1141 12.7372 11.1141C14.4659 11.1141 16.1662 11.5619 17.6783 12.4155C19.1144 13.2877 20.2845 14.5492 21.0583 16.0593L21.0489 16.0545ZM17.2296 21.4741C17.2499 20.3997 17.0191 19.3358 16.5564 18.3702C16.1364 17.5013 15.4929 16.7649 14.6946 16.2394C13.8835 15.7136 12.9392 15.4413 11.9781 15.4561C10.9348 15.4574 9.90851 15.7268 8.99433 16.2394C8.03572 16.7679 7.19526 17.4935 6.52615 18.3702C5.81087 19.2992 5.26292 20.3501 4.90773 21.4741C5.2608 22.6005 5.80891 23.6533 6.52615 24.5828C7.19526 25.4596 8.03572 26.1852 8.99433 26.7137C9.90851 27.2262 10.9348 27.4956 11.9781 27.497C12.9392 27.5118 13.8835 27.2395 14.6946 26.7137C15.4929 26.1882 16.1364 25.4517 16.5564 24.5828C17.0243 23.6185 17.26 22.5545 17.2439 21.479L17.2296 21.4741Z" fill="url(#paint0_linear_483_6593)"/>
<path d="M114.55 14.2584C113.88 13.5327 113.11 12.9114 112.263 12.4145C110.751 11.5609 109.052 11.1131 107.324 11.1131C105.596 11.1131 103.896 11.5609 102.385 12.4145C100.951 13.2829 99.7811 14.5391 99.0052 16.0438C98.2009 17.7338 97.783 19.5876 97.783 21.4659C97.783 23.3441 98.2009 25.1979 99.0052 26.8879C99.7811 28.3927 100.951 29.6489 102.385 30.5172C103.903 31.4159 105.634 31.8735 107.388 31.8405C109.097 31.8666 110.78 31.4194 112.258 30.5464C113.107 30.0389 113.878 29.4061 114.545 28.6685V31.2907L119.701 31.2518V11.6702H114.55V14.2584ZM113.523 24.577C112.853 25.4526 112.013 26.178 111.055 26.7079C110.141 27.2204 109.115 27.4898 108.071 27.4912C107.11 27.5068 106.165 27.2345 105.355 26.7079C104.556 26.1824 103.913 25.4459 103.493 24.577C103.047 23.6046 102.815 22.5442 102.815 21.4707C102.815 20.3972 103.047 19.3368 103.493 18.3644C103.913 17.4955 104.556 16.7591 105.355 16.2336C106.165 15.707 107.11 15.4346 108.071 15.4503C109.115 15.4516 110.141 15.721 111.055 16.2336C112.013 16.7635 112.853 17.4889 113.523 18.3644C114.235 19.2949 114.781 20.3454 115.136 21.4683C114.783 22.5936 114.237 23.6461 113.523 24.577ZM85.6426 11.0718C79.3503 11.0718 75.216 15.4211 75.216 21.4537C75.216 27.7198 79.6655 31.8307 85.8431 31.8307C89.6958 31.8307 92.923 30.2253 94.9711 27.3258L91.1518 24.8933C89.7769 26.6933 88.1251 27.715 85.8001 27.715C84.4708 27.7611 83.1712 27.3079 82.1484 26.4414C81.1256 25.5749 80.451 24.3556 80.2526 23.0154H95.5631V21.4099C95.5631 15.1146 91.7056 11.0815 85.6426 11.0815V11.0718ZM80.2909 19.8288C80.8446 17.1239 82.7303 15.246 85.6855 15.2071C88.4784 15.2071 90.2496 16.8903 90.7222 19.8288H80.2909ZM65.792 1.88672H71.6927V31.2615H65.792V1.88672ZM176.178 19.1623V31.2615H170.626V20.2472C170.626 17.1531 169.055 15.6644 166.219 15.6644C162.953 15.6644 160.968 17.586 160.968 20.2472V31.2518H155.439V11.6702H160.83V14.0589C162.715 12.0254 165.274 11.0815 168.186 11.0815C173.303 11.0815 176.178 13.9422 176.178 19.1526V19.1623ZM144.889 1.88672H150.713V7.13604H144.889V1.88672ZM196.234 14.4919C195.385 13.4016 194.301 12.5266 193.066 11.9357C191.829 11.3448 190.476 11.0541 189.111 11.0864C183.525 11.0864 179.472 15.5135 179.472 21.4683C179.472 27.4231 183.525 31.6848 189.111 31.6848C190.468 31.7176 191.815 31.435 193.049 30.8584C194.283 30.2818 195.373 29.4264 196.234 28.3571V30.3275C196.234 33.3827 193.914 35.2606 190.448 35.2606C187.932 35.2606 185.674 34.2438 183.602 32.2832L180.771 35.533C183.542 38.2359 187.242 39.727 191.078 39.6877C197.413 39.6877 201.782 36.1606 201.782 30.8723V11.6702H196.234V14.4919ZM195.231 24.577C194.56 25.4515 193.72 26.1767 192.763 26.7079C191.849 27.2204 190.822 27.4898 189.779 27.4912C188.818 27.5068 187.873 27.2345 187.063 26.7079C186.265 26.1803 185.62 25.4445 185.196 24.577C184.753 23.6038 184.523 22.5437 184.523 21.4707C184.523 20.3977 184.753 19.3376 185.196 18.3644C185.62 17.497 186.265 16.7612 187.063 16.2336C187.873 15.707 188.818 15.4346 189.779 15.4503C190.822 15.4516 191.849 15.721 192.763 16.2336C193.72 16.7648 194.56 17.4899 195.231 18.3644C195.943 19.2949 196.49 20.3454 196.845 21.4683C196.492 22.5936 195.945 23.6461 195.231 24.577ZM141.519 25.8371C141.519 29.3642 138.21 31.8307 133.489 31.8307C129.989 31.8307 126.251 30.4977 122.905 27.9923L125.067 24.7035C127.86 26.6495 130.795 27.7588 133.33 27.7588C135.612 27.7588 136.753 26.8587 136.753 25.7592C136.753 24.8981 136.085 24.2997 134.71 23.8132C130.261 22.1689 123.887 21.264 123.887 16.6033C123.887 13.3146 127.034 11.0815 131.603 11.0815C134.908 11.1477 138.133 12.1372 140.926 13.9422L138.878 17.192C136.558 15.859 134.08 14.9979 131.76 14.9979C129.75 14.9979 128.609 15.6254 128.609 16.5644C128.609 17.2309 129.158 17.7417 130.103 18.1309C134.376 19.6585 141.499 20.6412 141.499 25.8468L141.519 25.8371ZM144.908 11.6605H150.733V31.2421H144.908V11.6605ZM220.873 10.8918L224.138 14.4043L221.479 16.4768L219.168 12.1226L216.829 16.4136L214.122 14.3605L217.33 10.9988L212.829 10.0745L214.069 6.66901L218.085 8.71717L217.473 4.29489H220.854L220.213 8.84366L224.415 6.79063L225.432 10.0648L220.873 10.8918Z" fill="#3E3D40"/>
</g>
</g>
<defs>
<linearGradient id="paint0_linear_483_6593" x1="254.892" y1="-4.99996" x2="-12.5011" y2="36.6457" gradientUnits="userSpaceOnUse">
<stop stop-color="#FFD640"/>
<stop offset="1" stop-color="#FFD640" stop-opacity="0"/>
</linearGradient>
<clipPath id="clip0_483_6593">
<rect width="230" height="40" fill="white"/>
</clipPath>
</defs>
</svg>
