<svg width="181" height="44" viewBox="0 0 181 44" fill="none" xmlns="http://www.w3.org/2000/svg">
<path d="M80.3595 18.215H82.1297C85.7964 18.215 89.2712 19.8547 91.5943 22.6753L91.8115 22.9371L101.858 35.1308V18.215H108.987V43.4699H106.927C103.532 43.4699 100.322 41.9576 98.1558 39.3486L97.8585 38.9859L87.5394 26.5159V43.4699H80.3595V18.215Z" fill="#002F6C"/>
<path d="M147.829 23.618H135.05V43.4699H127.587V23.618H118.184V18.2085H136.464C138.112 18.2085 139.732 18.6633 141.14 19.5237L147.829 23.618Z" fill="#002F6C"/>
<path d="M167.849 40.3471C169.685 42.3354 172.283 43.4695 174.995 43.4695H180.5L167.612 18.1785H163.737C161.417 18.1785 159.292 19.4776 158.244 21.5446L147.069 43.4695H154.676L163.761 24.3837L169.599 36.8472L161.317 31.8704L167.849 40.3471Z" fill="#002F6C"/>
<path d="M56.7493 31.8705L48.5893 36.8656L54.4455 24.3838L63.5298 43.4699H71.1435L58.2558 18.1786H55.1273C52.348 18.1786 49.8049 19.7339 48.5465 22.2034L37.7092 43.4699H43.4753C45.9572 43.4699 48.3203 42.4504 50.0168 40.6473L56.7493 31.8705Z" fill="#002F6C"/>
<path d="M87.3363 13.291L109.093 0L130.913 13.291C130.913 13.291 118.266 7.34139 109.126 7.34139C99.9841 7.34139 87.3363 13.291 87.3363 13.291Z" fill="#00ADEF"/>
<path d="M21.5031 28.4478C14.7535 27.0254 11.1385 26.8782 11.1385 24.9783C11.1385 23.2945 14.4224 22.7945 17.6264 22.7945C20.5604 22.7945 24.4206 23.4763 26.1153 25.6949L31.6243 22.3189C30.0476 20.5949 27.1656 17.6472 17.0354 17.6472C9.13839 17.6472 4.00322 20.6285 4.00322 25.2025C4.00322 30.3476 9.28005 31.6464 14.7959 32.8156C21.7896 34.3074 24.0743 34.3939 24.0743 36.3747C24.0743 36.9684 23.7488 37.4727 22.9678 37.8602C21.9986 38.3511 20.4057 38.6338 18.1927 38.6338C18.0164 38.6338 17.5399 38.6192 17.4663 38.6192C11.5885 38.6192 8.2235 36.7003 6.31353 34.2691L0.5 37.6959C2.06018 40.0596 6.8727 44 17.461 44C24.3598 44 31.3968 41.8053 31.3968 35.8411C31.3968 31.6258 27.5429 29.7216 21.5031 28.4478Z" fill="#002F6C"/>
</svg>
