<svg width="230" height="33" viewBox="0 0 230 33" fill="none" xmlns="http://www.w3.org/2000/svg">
<path fill-rule="evenodd" clip-rule="evenodd" d="M17.0971 6.82561C17.0222 6.72815 16.9405 6.63635 16.852 6.55023C16.4715 6.18333 15.9957 5.91224 15.4237 5.73695C14.8482 5.56165 14.2068 5.4758 13.4924 5.4758H10.457L10.8341 3.72979H16.7066L17.4802 0H6.19165L3.15625 14.3239H11.1514C11.947 14.3218 12.6748 14.2417 13.3354 14.0839L14.8733 6.82561H17.0971ZM9.80242 8.57065H10.4374C11.1018 8.57065 11.578 8.67972 11.8657 8.89469C12.1534 9.11284 12.2525 9.43356 12.1632 9.86018C12.0939 10.2073 11.9715 10.4852 11.7995 10.6934C11.6243 10.8985 11.3864 11.0473 11.0787 11.1364C10.7747 11.2257 10.3877 11.2721 9.92131 11.2689H9.22692L9.80242 8.57065Z" fill="#334384"/>
<path fill-rule="evenodd" clip-rule="evenodd" d="M27.6763 29.0348H33.3505L36.3859 14.7109H22.6173L19.582 29.0348H25.2559L27.3988 18.9168H29.8191L27.6763 29.0348Z" fill="#334384"/>
<path fill-rule="evenodd" clip-rule="evenodd" d="M34.5876 29.031H35.9466L39.253 13.2735C40.7849 5.97306 36.0639 0 28.7645 0H18.7171L17.6406 5.08001H30.9847C35.7297 5.08001 38.7982 8.96257 37.8027 13.7082L34.5876 29.031Z" fill="#9CCEF3"/>
<path fill-rule="evenodd" clip-rule="evenodd" d="M12.4219 21.8592H18.0958L20.3574 11.2649H25.5751L26.3489 7.53516H15.457L12.4219 21.8592Z" fill="#334384"/>
<path fill-rule="evenodd" clip-rule="evenodd" d="M4.95404 0H3.59497L0.288613 15.7575C-1.24326 23.058 3.47774 29.031 10.7771 29.031H18.3447L19.4212 23.951H8.55693C3.81188 23.951 0.743435 20.0685 1.73906 15.3229L4.95404 0Z" fill="#9CCEF3"/>
<path fill-rule="evenodd" clip-rule="evenodd" d="M17.6406 5.08069H30.9847C35.7297 5.08069 38.7983 8.96338 37.8027 13.7088L38.0888 12.3586C39.0843 7.61316 36.0157 3.73047 31.2708 3.73047H17.9268L17.6406 5.08069Z" fill="#334384"/>
<path fill-rule="evenodd" clip-rule="evenodd" d="M19.4215 23.9524H8.55731C3.81239 23.9524 0.743677 20.0697 1.7393 15.3242L1.45314 16.6744C0.45765 21.4199 3.52651 25.3026 8.27115 25.3026H19.1355L19.4215 23.9524Z" fill="#334384"/>
<path d="M53.8299 25.4221C53.9712 24.7537 53.988 24.1769 53.8769 23.6972C53.7661 23.2146 53.5526 22.8209 53.2365 22.5129C52.9174 22.2052 52.5182 21.9779 52.0385 21.8308C51.5559 21.6838 51.0179 21.6118 50.4188 21.6118H47.8731L48.1892 20.1474H53.1145L53.7633 17.0193H44.2956L41.75 29.0327H48.4553C49.4565 29.0299 50.3302 28.8804 51.0761 28.5836C51.822 28.2895 52.4294 27.8735 52.8954 27.3356C53.3613 26.7948 53.6718 26.157 53.8299 25.4221ZM47.324 24.2075H47.8565C48.4137 24.2075 48.8132 24.299 49.0545 24.4793C49.2957 24.6622 49.3789 24.9312 49.304 25.2889C49.2459 25.5801 49.1431 25.8132 48.9989 25.9878C48.852 26.1599 48.6525 26.2846 48.3944 26.3594C48.1393 26.4343 47.8149 26.4731 47.4238 26.4704H46.8415L47.324 24.2075ZM54.2293 29.0327H63.5139L64.1794 25.9045H59.4538L59.7367 24.5568H63.963L64.6287 21.4287H60.4022L60.6851 20.1474H65.2608L65.9098 17.0193H56.7749L54.2293 29.0327ZM67.6404 17.0193L66.6089 21.9113C66.4673 22.5795 66.3397 23.1426 66.2288 23.6C66.1152 24.0576 65.9986 24.4266 65.8738 24.7038C65.7462 24.9812 65.5937 25.1836 65.4108 25.3057C65.2277 25.4305 64.9947 25.4915 64.712 25.4887H64.6454L63.8967 29.0327H65.3608C65.9681 29.0299 66.5172 28.9467 67.0136 28.7832C67.5072 28.6223 67.9538 28.3949 68.3475 28.1037C68.7412 27.8126 69.0909 27.4742 69.3957 27.0887C69.7008 26.7005 69.9643 26.2846 70.1889 25.8353C70.4136 25.3861 70.6021 24.9229 70.7575 24.4432C70.9128 23.9633 71.0376 23.4864 71.1347 23.0095L71.6504 20.5468H73.2976L71.5006 29.0327H76.2595L78.8052 17.0193H67.6404ZM77.9568 29.0327H82.7154L84.6122 20.1474H88.9883L89.6372 17.0193H80.5024L77.9568 29.0327ZM88.955 23.026C88.7552 23.9662 88.7026 24.8203 88.7969 25.5941C88.8911 26.365 89.1382 27.0305 89.5373 27.5907C89.9367 28.151 90.4914 28.5836 91.2013 28.8885C91.9113 29.1909 92.782 29.3461 93.8136 29.349C94.8508 29.3461 95.7882 29.1909 96.6283 28.8885C97.4713 28.5836 98.2091 28.151 98.8442 27.5907C99.4819 27.0305 100.012 26.365 100.433 25.5941C100.855 24.8203 101.168 23.9662 101.368 23.026C101.567 22.0859 101.62 21.2292 101.526 20.4581C101.431 19.6871 101.185 19.0216 100.785 18.4614C100.386 17.9012 99.8314 17.4685 99.1215 17.1634C98.4115 16.8612 97.5409 16.706 96.5091 16.7032C95.4719 16.706 94.5346 16.8612 93.6944 17.1634C92.8512 17.4685 92.1136 17.9012 91.4786 18.4614C90.8408 19.0216 90.311 19.6871 89.8897 20.4581C89.468 21.2292 89.1546 22.0859 88.955 23.026ZM93.8802 23.026C94.0244 22.3523 94.1742 21.803 94.3238 21.3817C94.4764 20.96 94.6318 20.6356 94.7925 20.4109C94.9534 20.1864 95.1226 20.031 95.2944 19.9478C95.4691 19.8646 95.6523 19.8259 95.8435 19.8314C96.0377 19.8259 96.2041 19.8646 96.3429 19.9478C96.4814 20.031 96.5839 20.1864 96.6478 20.4109C96.7143 20.6356 96.7309 20.96 96.7032 21.3817C96.6728 21.803 96.5867 22.3523 96.4427 23.026C96.3289 23.5779 96.2123 24.0466 96.0904 24.4266C95.9711 24.8037 95.8463 25.1143 95.7187 25.3499C95.5885 25.5884 95.4581 25.7716 95.325 25.8964C95.1891 26.024 95.0505 26.1098 94.909 26.1542C94.7703 26.2014 94.6261 26.2235 94.4791 26.2208C94.3295 26.2235 94.1936 26.2014 94.0743 26.1542C93.9551 26.1098 93.8581 26.024 93.7831 25.8964C93.7056 25.7716 93.6555 25.5884 93.6307 25.3499C93.6056 25.1143 93.6139 24.8037 93.6529 24.4266C93.6916 24.0466 93.7692 23.5779 93.8802 23.026ZM109.188 24.5901C109.077 25.0089 108.947 25.3362 108.803 25.5747C108.656 25.8132 108.492 25.9824 108.315 26.0793C108.137 26.1763 107.946 26.2235 107.741 26.2208C107.449 26.2179 107.23 26.1376 107.089 25.9795C106.947 25.8215 106.864 25.5968 106.839 25.3112C106.814 25.0228 106.831 24.6844 106.886 24.2961C106.942 23.9107 107.022 23.4864 107.125 23.026C107.222 22.5408 107.327 22.1026 107.438 21.7115C107.549 21.3205 107.68 20.985 107.829 20.705C107.976 20.4249 108.159 20.2084 108.376 20.0588C108.589 19.9089 108.85 19.8314 109.155 19.8314C109.302 19.8286 109.435 19.8509 109.557 19.8951C109.676 19.9366 109.776 20.0172 109.854 20.1337C109.931 20.25 109.981 20.4164 110.001 20.63C110.023 20.8464 110.006 21.1237 109.954 21.462H114.313C114.46 20.7576 114.493 20.142 114.413 19.6124C114.332 19.0825 114.158 18.6332 113.886 18.2618C113.617 17.893 113.273 17.5908 112.854 17.3632C112.433 17.133 111.958 16.964 111.426 16.8586C110.894 16.7531 110.325 16.7005 109.721 16.7032C108.703 16.706 107.777 16.8586 106.939 17.1581C106.099 17.4603 105.358 17.8874 104.718 18.4421C104.077 18.9967 103.545 19.6567 103.12 20.4221C102.696 21.1902 102.388 22.0416 102.2 22.9761C102.011 23.9329 101.958 24.801 102.044 25.5801C102.128 26.3594 102.361 27.0305 102.746 27.5907C103.129 28.1536 103.672 28.5863 104.377 28.8885C105.081 29.1909 105.958 29.3461 107.008 29.349C107.61 29.349 108.201 29.2907 108.781 29.1741C109.36 29.055 109.912 28.8747 110.433 28.6333C110.955 28.3895 111.432 28.0788 111.864 27.7017C112.294 27.3273 112.663 26.8807 112.971 26.3621C113.276 25.8465 113.5 25.2556 113.647 24.5901H109.188ZM120.752 29.0327H125.511L128.057 17.0193H116.509L113.964 29.0327H118.722L120.519 20.5468H122.549L120.752 29.0327ZM134.579 29.0327H138.756L141.302 17.0193H136.044L132.699 23.076H132.649L133.931 17.0193H129.754L127.208 29.0327H132.466L135.794 23.1093H135.844L134.579 29.0327ZM140.453 29.0327H156.177L155.495 32.2275H159.505L160.936 25.5052H159.538L161.335 17.0193H156.576L154.779 25.5052H152.749L154.546 17.0193H149.788L147.991 25.5052H145.961L147.758 17.0193H142.999L140.453 29.0327ZM161.086 29.0327H170.37L171.036 25.9045H166.31L166.593 24.5568H170.819L171.485 21.4287H167.259L167.541 20.1474H172.117L172.766 17.0193H163.631L161.086 29.0327ZM178.357 29.0327H183.116L185.661 17.0193H174.114L171.568 29.0327H176.327L178.124 20.5468H180.154L178.357 29.0327ZM191.019 22.2607L191.552 19.7483H192.051C192.398 19.7483 192.669 19.7898 192.861 19.873C193.052 19.9589 193.174 20.0921 193.227 20.2696C193.282 20.4498 193.28 20.6799 193.216 20.9628C193.157 21.2458 193.052 21.4842 192.902 21.6756C192.753 21.8696 192.545 22.0138 192.276 22.1138C192.007 22.2107 191.665 22.2607 191.252 22.2607H191.019ZM184.813 29.0327H189.572L190.437 24.9895H192.001C192.841 24.9868 193.59 24.8896 194.247 24.6984C194.905 24.5041 195.47 24.2297 195.95 23.8747C196.427 23.5197 196.818 23.0954 197.12 22.6018C197.425 22.1109 197.642 21.5645 197.775 20.9628C197.897 20.3945 197.922 19.8702 197.847 19.3904C197.775 18.9135 197.6 18.4975 197.323 18.1426C197.043 17.7876 196.657 17.5131 196.166 17.3161C195.673 17.1218 195.065 17.0222 194.347 17.0193H187.359L184.813 29.0327ZM197.974 23.026C197.775 23.9662 197.722 24.8203 197.816 25.5941C197.911 26.365 198.158 27.0305 198.557 27.5907C198.956 28.151 199.511 28.5836 200.221 28.8885C200.931 29.1909 201.802 29.3461 202.833 29.349C203.87 29.3461 204.808 29.1909 205.648 28.8885C206.491 28.5836 207.229 28.151 207.864 27.5907C208.501 27.0305 209.031 26.365 209.453 25.5941C209.874 24.8203 210.188 23.9662 210.387 23.026C210.587 22.0859 210.64 21.2292 210.545 20.4581C210.451 19.6871 210.204 19.0216 209.805 18.4614C209.406 17.9012 208.851 17.4685 208.141 17.1634C207.431 16.8612 206.56 16.706 205.529 16.7032C204.491 16.706 203.554 16.8612 202.714 17.1634C201.871 17.4685 201.133 17.9012 200.498 18.4614C199.86 19.0216 199.331 19.6871 198.909 20.4581C198.488 21.2292 198.174 22.0859 197.974 23.026ZM202.9 23.026C203.044 22.3523 203.194 21.803 203.343 21.3817C203.496 20.96 203.651 20.6356 203.812 20.4109C203.973 20.1864 204.142 20.031 204.314 19.9478C204.489 19.8646 204.672 19.8259 204.863 19.8314C205.057 19.8259 205.224 19.8646 205.362 19.9478C205.501 20.031 205.603 20.1864 205.667 20.4109C205.734 20.6356 205.75 20.96 205.723 21.3817C205.692 21.803 205.606 22.3523 205.462 23.026C205.348 23.5779 205.232 24.0466 205.11 24.4266C204.991 24.8037 204.866 25.1143 204.738 25.3499C204.608 25.5884 204.477 25.7716 204.344 25.8964C204.209 26.024 204.07 26.1098 203.929 26.1542C203.79 26.2014 203.646 26.2235 203.499 26.2208C203.349 26.2235 203.213 26.2014 203.094 26.1542C202.975 26.1098 202.877 26.024 202.803 25.8964C202.725 25.7716 202.675 25.5884 202.65 25.3499C202.625 25.1143 202.633 24.8037 202.672 24.4266C202.711 24.0466 202.789 23.5779 202.9 23.026ZM222.218 29.0327H226.244L228.79 17.0193H222.184L219.356 24.1742H219.322L219.522 17.0193H212.916L210.371 29.0327H214.397L216.228 20.4471H216.261L216.128 29.0327H220.487L224.015 20.4471H224.048L222.218 29.0327Z" fill="#334384"/>
<path d="M47.3667 13.8292C47.4074 13.6333 47.4202 13.4684 47.4047 13.3347C47.3899 13.2017 47.353 13.0931 47.2925 13.0101C47.2329 12.9273 47.1562 12.8644 47.062 12.8213C46.968 12.7772 46.8617 12.7479 46.7446 12.7322C46.6271 12.7168 46.5028 12.7097 46.3726 12.7105H45.9944L46.1964 11.7578H47.4599L47.5791 11.1831H45.5336L44.7412 14.9219H45.9789C46.0349 14.9227 46.1015 14.9219 46.1791 14.9201C46.2569 14.9174 46.3414 14.908 46.4312 14.8916C46.5208 14.8751 46.6116 14.8449 46.7038 14.8027C46.7963 14.7604 46.8852 14.6993 46.9698 14.6188C47.0553 14.5387 47.1318 14.4342 47.201 14.3056C47.2693 14.1769 47.3244 14.0183 47.3667 13.8292ZM45.8702 13.2802H46.1809C46.3112 13.2802 46.4105 13.301 46.4777 13.3424C46.5451 13.3838 46.5866 13.4452 46.6021 13.5245C46.6174 13.6048 46.6116 13.7033 46.5848 13.819C46.5563 13.9509 46.515 14.0536 46.4612 14.1261C46.4069 14.1996 46.3473 14.2521 46.2828 14.2832C46.2172 14.3143 46.1541 14.3331 46.0928 14.3393C46.0325 14.3461 45.9797 14.3487 45.9374 14.3469H45.6475L45.8702 13.2802ZM49.8644 14.9219L49.9886 14.3469H48.6887L48.9166 13.2544H50.0767L50.2008 12.6797H49.041L49.2378 11.7578H50.496L50.6152 11.1831H48.5748L47.7826 14.9219H49.8644ZM53.874 11.1831H51.6473L51.4298 12.229C51.3813 12.456 51.34 12.6536 51.3037 12.8236C51.2666 12.993 51.2339 13.1395 51.2037 13.2631C51.1743 13.3864 51.1449 13.4934 51.1164 13.5823C51.0879 13.6722 51.0578 13.7497 51.0257 13.8172C50.9931 13.8835 50.9568 13.9457 50.9153 14.0019C50.8748 14.058 50.8272 14.114 50.7721 14.1711C50.7488 14.1969 50.723 14.2177 50.6945 14.2338C50.6652 14.2495 50.6367 14.2615 50.6082 14.2685C50.5798 14.2761 50.5554 14.2797 50.5339 14.2797C50.5019 14.2788 50.4717 14.2746 50.4432 14.2667C50.4147 14.2582 50.3951 14.2486 50.3836 14.2383L50.2491 14.8751C50.282 14.9045 50.3275 14.928 50.388 14.9459C50.4484 14.9642 50.514 14.9726 50.5856 14.9736C50.627 14.9736 50.6799 14.9676 50.7444 14.9538C50.8099 14.9409 50.8792 14.9183 50.9515 14.8872C51.0241 14.8563 51.0915 14.8149 51.1553 14.7612C51.2372 14.6931 51.3105 14.6249 51.3772 14.5568C51.4435 14.4885 51.5041 14.4162 51.5592 14.3375C51.6145 14.2591 51.6652 14.1693 51.7128 14.07C51.7604 13.9699 51.805 13.8551 51.8491 13.723C51.8931 13.5917 51.9363 13.4391 51.9803 13.2656C52.0244 13.0914 52.0702 12.8911 52.1184 12.6641L52.31 11.7578H52.9728L52.2998 14.9219H53.0817L53.874 11.1831ZM55.17 14.9841C55.4255 14.9831 55.6422 14.9468 55.8207 14.8769C55.9986 14.807 56.1469 14.7095 56.2653 14.5862C56.3827 14.4618 56.4793 14.3184 56.5545 14.1555C56.6294 13.9922 56.6916 13.8163 56.74 13.629C56.7891 13.4417 56.834 13.2493 56.8737 13.0524C56.9092 12.8867 56.942 12.7244 56.9705 12.5658C56.9989 12.407 57.0161 12.2557 57.024 12.1118C57.0317 11.9684 57.0222 11.8364 56.9946 11.7155C56.9678 11.5956 56.916 11.4903 56.8411 11.4012C56.765 11.3135 56.6587 11.2445 56.5208 11.1951C56.3827 11.1459 56.2074 11.1217 55.9934 11.1209C55.7794 11.1217 55.5929 11.1459 55.4343 11.1951C55.2755 11.2445 55.1398 11.3135 55.0259 11.4012C54.9129 11.4903 54.817 11.5956 54.7384 11.7155C54.66 11.8364 54.5945 11.9684 54.5408 12.1118C54.4873 12.2557 54.4416 12.407 54.4027 12.5658C54.3649 12.7244 54.3285 12.8867 54.295 13.0524C54.2595 13.2165 54.2266 13.377 54.1981 13.5347C54.1697 13.6936 54.1509 13.8448 54.143 13.988C54.1352 14.1322 54.1448 14.2641 54.1715 14.3851C54.1981 14.5058 54.2491 14.6111 54.3244 14.701C54.3993 14.7897 54.5056 14.8597 54.6427 14.9089C54.7807 14.958 54.956 14.9831 55.17 14.9841ZM55.2893 14.4247C55.1812 14.4247 55.1002 14.3989 55.045 14.3454C54.9905 14.2918 54.9578 14.209 54.9474 14.0977C54.9369 13.9864 54.9448 13.8439 54.9698 13.6713C54.9957 13.4977 55.0346 13.2916 55.0872 13.0524C55.138 12.8132 55.1874 12.6071 55.2355 12.4336C55.284 12.2601 55.3366 12.1186 55.3935 12.0073C55.4505 11.896 55.5179 11.8132 55.5947 11.7596C55.6724 11.7061 55.7655 11.6794 55.8745 11.6802C55.9822 11.6794 56.0641 11.7061 56.1193 11.7596C56.1746 11.8132 56.2074 11.896 56.2186 12.0073C56.23 12.1186 56.223 12.2601 56.198 12.4336C56.1731 12.6071 56.1341 12.8132 56.0814 13.0524C56.0307 13.2916 55.9805 13.4977 55.9323 13.6713C55.8839 13.8439 55.8304 13.9864 55.7726 14.0977C55.7147 14.209 55.6475 14.2918 55.5696 14.3454C55.492 14.3989 55.3979 14.4247 55.2893 14.4247ZM57.2742 14.9219H58.0561L58.3771 13.3994H58.957C59.1402 13.3976 59.2979 13.3735 59.4326 13.326C59.5674 13.2787 59.6813 13.2155 59.7753 13.1369C59.8684 13.0577 59.9461 12.9695 60.0075 12.8738C60.0686 12.7772 60.117 12.6797 60.1532 12.5805C60.1896 12.482 60.2172 12.3887 60.236 12.3015C60.287 12.0728 60.2964 11.8743 60.2645 11.7079C60.2319 11.5413 60.1514 11.4117 60.0229 11.3211C59.8951 11.2304 59.7122 11.1839 59.4749 11.1831H58.0665L57.2742 14.9219ZM58.7292 11.7578H59.1229C59.2394 11.7586 59.3239 11.7847 59.3774 11.8346C59.4309 11.8855 59.461 11.953 59.4673 12.0376C59.474 12.123 59.4637 12.217 59.4388 12.3224C59.4241 12.3853 59.4006 12.4466 59.3695 12.5052C59.3387 12.5648 59.2996 12.6183 59.2556 12.6667C59.211 12.715 59.1616 12.7528 59.1073 12.7813C59.053 12.8091 58.996 12.8236 58.9364 12.8245H58.5012L58.7292 11.7578ZM61.4184 13.7826L60.6882 14.9219H61.4599L63.6295 11.1831H62.8581L61.9414 12.8712L61.6462 11.1831H60.8332L61.4184 13.7826ZM64.6099 14.9841C64.7928 14.9849 64.9595 14.9632 65.1097 14.9183C65.2606 14.8733 65.3944 14.8002 65.5128 14.6983C65.6308 14.5964 65.7327 14.4608 65.8182 14.2918C65.9036 14.1217 65.9717 13.912 66.0237 13.6634H65.252C65.2382 13.723 65.2218 13.7879 65.2037 13.856C65.1865 13.924 65.1648 13.9922 65.1399 14.0588C65.1141 14.1261 65.083 14.1866 65.0466 14.2417C65.0096 14.297 64.9655 14.341 64.9138 14.3739C64.8619 14.4065 64.7998 14.4238 64.7291 14.4247C64.6211 14.4247 64.54 14.3989 64.4848 14.3454C64.4305 14.2918 64.3976 14.209 64.3873 14.0977C64.3768 13.9864 64.3847 13.8439 64.4096 13.6713C64.4354 13.4977 64.4746 13.2916 64.5271 13.0524C64.578 12.8132 64.6272 12.6071 64.6754 12.4336C64.7238 12.2601 64.7763 12.1186 64.8333 12.0073C64.8904 11.896 64.9579 11.8132 65.0345 11.7596C65.1123 11.7061 65.2055 11.6794 65.3143 11.6802C65.3918 11.6794 65.4488 11.7016 65.4866 11.7466C65.524 11.7923 65.5421 11.8649 65.5421 11.9658C65.5421 12.0661 65.5248 12.1988 65.4902 12.3637H66.2565C66.3249 12.0936 66.3429 11.8667 66.3109 11.6828C66.2792 11.4981 66.192 11.3581 66.0486 11.2633C65.9046 11.1684 65.6998 11.1209 65.4333 11.1209C65.2191 11.1217 65.0328 11.1459 64.8741 11.1951C64.7152 11.2445 64.5796 11.3135 64.4657 11.4012C64.3526 11.4903 64.257 11.5956 64.1783 11.7155C64.0999 11.8364 64.0344 11.9684 63.9806 12.1118C63.9273 12.2557 63.8815 12.407 63.8427 12.5658C63.8048 12.7244 63.7684 12.8867 63.7348 13.0524C63.6994 13.2165 63.6665 13.377 63.6381 13.5347C63.6096 13.6936 63.5906 13.8448 63.5828 13.988C63.5752 14.1322 63.5846 14.2641 63.6112 14.3851C63.6381 14.5058 63.6891 14.6111 63.7643 14.701C63.8392 14.7897 63.9454 14.8597 64.0825 14.9089C64.2206 14.958 64.3959 14.9831 64.6099 14.9841ZM67.6616 14.9841C67.8445 14.9849 68.0112 14.9632 68.1614 14.9183C68.3123 14.8733 68.4462 14.8002 68.5645 14.6983C68.6825 14.5964 68.7844 14.4608 68.8699 14.2918C68.9553 14.1217 69.0235 13.912 69.0754 13.6634H68.3038C68.2899 13.723 68.2735 13.7879 68.2554 13.856C68.2382 13.924 68.2165 13.9922 68.1915 14.0588C68.1657 14.1261 68.1346 14.1866 68.0982 14.2417C68.0611 14.297 68.0172 14.341 67.9655 14.3739C67.9135 14.4065 67.8516 14.4238 67.7808 14.4247C67.6728 14.4247 67.5917 14.3989 67.5365 14.3454C67.4822 14.2918 67.4493 14.209 67.439 14.0977C67.4285 13.9864 67.4364 13.8439 67.4613 13.6713C67.4872 13.4977 67.5261 13.2916 67.5788 13.0524C67.6295 12.8132 67.6789 12.6071 67.7271 12.4336C67.7755 12.2601 67.8281 12.1186 67.885 12.0073C67.942 11.896 68.0094 11.8132 68.0862 11.7596C68.164 11.7061 68.257 11.6794 68.366 11.6802C68.4435 11.6794 68.5005 11.7016 68.5384 11.7466C68.5757 11.7923 68.5938 11.8649 68.5938 11.9658C68.5938 12.0661 68.5765 12.1988 68.5419 12.3637H69.3082C69.3767 12.0936 69.3946 11.8667 69.3626 11.6828C69.3308 11.4981 69.2437 11.3581 69.1003 11.2633C68.9561 11.1684 68.7515 11.1209 68.4849 11.1209C68.2709 11.1217 68.0844 11.1459 67.9258 11.1951C67.767 11.2445 67.6313 11.3135 67.5174 11.4012C67.4043 11.4903 67.3087 11.5956 67.23 11.7155C67.1515 11.8364 67.086 11.9684 67.0323 12.1118C66.979 12.2557 66.9331 12.407 66.8944 12.5658C66.8565 12.7244 66.8201 12.8867 66.7865 13.0524C66.751 13.2165 66.7182 13.377 66.6898 13.5347C66.6613 13.6936 66.6424 13.8448 66.6345 13.988C66.6269 14.1322 66.6363 14.2641 66.663 14.3851C66.6898 14.5058 66.7408 14.6111 66.8158 14.701C66.8908 14.7897 66.9971 14.8597 67.1342 14.9089C67.2723 14.958 67.4475 14.9831 67.6616 14.9841ZM70.6771 12.7831H70.6666L71.0034 11.1831H70.2215L69.4289 14.9219H70.211L70.6202 13.006H70.6304L71.1173 14.9219H71.9976L71.3916 12.8608L72.7897 11.1831H71.9303L70.6771 12.7831ZM73.6457 13.4564L74.1275 11.1831H73.3456L72.5532 14.9219H73.3871L74.7022 12.6486H74.7126L74.2309 14.9219H75.0128L75.8054 11.1831H74.9715L73.6563 13.4564H73.6457ZM77.2981 10.1836C77.2785 10.3225 77.2931 10.4417 77.3431 10.5418C77.3932 10.6428 77.4734 10.7194 77.583 10.774C77.6928 10.8284 77.8273 10.856 77.987 10.8568C78.1467 10.856 78.2924 10.8284 78.4237 10.774C78.5549 10.7194 78.6653 10.6428 78.7569 10.5418C78.8482 10.4417 78.9149 10.3225 78.9554 10.1836H78.5669C78.5496 10.2371 78.522 10.282 78.4849 10.3158C78.4478 10.3502 78.4055 10.3762 78.3582 10.3941C78.3106 10.4132 78.2615 10.4252 78.2122 10.4323C78.163 10.4391 78.1174 10.4425 78.0751 10.4425C78.0361 10.4425 77.9947 10.4391 77.9488 10.4323C77.9033 10.4252 77.8602 10.4132 77.8187 10.3941C77.7773 10.3762 77.7445 10.3502 77.7195 10.3158C77.6943 10.282 77.684 10.2371 77.6866 10.1836H77.2981ZM78.3493 14.9219L79.1419 11.1831H78.308L76.9927 13.4564H76.9822L77.464 11.1831H76.6821L75.8897 14.9219H76.7236L78.0387 12.6486H78.0491L77.5674 14.9219H78.3493Z" fill="#334384"/>
<path d="M81.863 14.9219L82.5362 11.7578H83.6961L83.8152 11.1831H81.8732L81.0811 14.9219H81.863ZM84.8057 14.9841C85.0612 14.9831 85.2778 14.9468 85.4564 14.8769C85.6344 14.807 85.7826 14.7095 85.9009 14.5862C86.0184 14.4618 86.115 14.3184 86.1901 14.1555C86.265 13.9922 86.3272 13.8163 86.3758 13.629C86.4248 13.4417 86.4696 13.2493 86.5093 13.0524C86.5448 12.8867 86.5777 12.7244 86.6062 12.5658C86.6347 12.407 86.6517 12.2557 86.6596 12.1118C86.6673 11.9684 86.6579 11.8364 86.6303 11.7155C86.6036 11.5956 86.5516 11.4903 86.4767 11.4012C86.4006 11.3135 86.2945 11.2445 86.1564 11.1951C86.0184 11.1459 85.8431 11.1217 85.6291 11.1209C85.415 11.1217 85.2286 11.1459 85.0699 11.1951C84.9111 11.2445 84.7755 11.3135 84.6615 11.4012C84.5485 11.4903 84.4528 11.5956 84.3741 11.7155C84.2956 11.8364 84.2302 11.9684 84.1765 12.1118C84.1231 12.2557 84.0772 12.407 84.0385 12.5658C84.0006 12.7244 83.9642 12.8867 83.9307 13.0524C83.8951 13.2165 83.8624 13.377 83.8339 13.5347C83.8054 13.6936 83.7865 13.8448 83.7786 13.988C83.771 14.1322 83.7804 14.2641 83.8071 14.3851C83.8339 14.5058 83.8849 14.6111 83.96 14.701C84.0349 14.7897 84.1412 14.8597 84.2783 14.9089C84.4164 14.958 84.5916 14.9831 84.8057 14.9841ZM84.9249 14.4247C84.8169 14.4247 84.7358 14.3989 84.6806 14.3454C84.6263 14.2918 84.5934 14.209 84.5832 14.0977C84.5727 13.9864 84.5805 13.8439 84.6054 13.6713C84.6313 13.4977 84.6703 13.2916 84.7229 13.0524C84.7737 12.8132 84.823 12.6071 84.8713 12.4336C84.9196 12.2601 84.9722 12.1186 85.0291 12.0073C85.0861 11.896 85.1535 11.8132 85.2303 11.7596C85.3081 11.7061 85.4011 11.6794 85.5101 11.6802C85.6179 11.6794 85.6997 11.7061 85.755 11.7596C85.8102 11.8132 85.8431 11.896 85.8543 12.0073C85.8656 12.1186 85.8586 12.2601 85.8337 12.4336C85.8087 12.6071 85.7697 12.8132 85.7172 13.0524C85.6663 13.2916 85.6161 13.4977 85.5679 13.6713C85.5195 13.8439 85.466 13.9864 85.4082 14.0977C85.3504 14.209 85.2831 14.2918 85.2054 14.3454C85.1276 14.3989 85.0336 14.4247 84.9249 14.4247ZM88.1422 14.9841C88.3251 14.9849 88.4918 14.9632 88.642 14.9183C88.7929 14.8733 88.9268 14.8002 89.0451 14.6983C89.1632 14.5964 89.265 14.4608 89.3505 14.2918C89.4359 14.1217 89.5041 13.912 89.556 13.6634H88.7844C88.7706 13.723 88.7541 13.7879 88.736 13.856C88.7188 13.924 88.6971 13.9922 88.6721 14.0588C88.6463 14.1261 88.6152 14.1866 88.5788 14.2417C88.5419 14.297 88.4978 14.341 88.4461 14.3739C88.3941 14.4065 88.3322 14.4238 88.2614 14.4247C88.1534 14.4247 88.0723 14.3989 88.0171 14.3454C87.9628 14.2918 87.9299 14.209 87.9197 14.0977C87.9091 13.9864 87.917 13.8439 87.9419 13.6713C87.9678 13.4977 88.0068 13.2916 88.0594 13.0524C88.1102 12.8132 88.1595 12.6071 88.2078 12.4336C88.2561 12.2601 88.3087 12.1186 88.3656 12.0073C88.4226 11.896 88.4902 11.8132 88.5668 11.7596C88.6446 11.7061 88.7376 11.6794 88.8466 11.6802C88.9241 11.6794 88.9811 11.7016 89.019 11.7466C89.0563 11.7923 89.0744 11.8649 89.0744 11.9658C89.0744 12.0661 89.0571 12.1988 89.0226 12.3637H89.7888C89.8573 12.0936 89.8752 11.8667 89.8432 11.6828C89.8114 11.4981 89.7243 11.3581 89.5809 11.2633C89.4367 11.1684 89.2321 11.1209 88.9656 11.1209C88.7515 11.1217 88.5651 11.1459 88.4064 11.1951C88.2476 11.2445 88.1119 11.3135 87.998 11.4012C87.885 11.4903 87.7893 11.5956 87.7106 11.7155C87.6321 11.8364 87.5667 11.9684 87.5129 12.1118C87.4596 12.2557 87.4137 12.407 87.375 12.5658C87.3371 12.7244 87.3008 12.8867 87.2672 13.0524C87.2316 13.2165 87.1989 13.377 87.1704 13.5347C87.1419 13.6936 87.123 13.8448 87.1151 13.988C87.1075 14.1322 87.1169 14.2641 87.1436 14.3851C87.1704 14.5058 87.2214 14.6111 87.2965 14.701C87.3714 14.7897 87.4777 14.8597 87.6148 14.9089C87.7529 14.958 87.9281 14.9831 88.1422 14.9841ZM91.0542 13.7826L90.3238 14.9219H91.0955L93.2651 11.1831H92.4937L91.577 12.8712L91.282 11.1831H90.4689L91.0542 13.7826ZM93.966 14.3469C94.0075 14.2858 94.0498 14.215 94.0929 14.1346C94.136 14.0536 94.1783 13.9655 94.2206 13.8707C94.2629 13.7767 94.3043 13.6781 94.3439 13.5755C94.3795 13.4883 94.425 13.3657 94.4814 13.2077C94.5374 13.0499 94.5994 12.8514 94.6676 12.6122C94.7359 12.3732 94.8058 12.0883 94.8774 11.7578H95.566L95.0172 14.3469H93.966ZM94.2144 11.1831C94.142 11.5169 94.0747 11.8114 94.0134 12.0642C93.9522 12.3171 93.8952 12.5347 93.8442 12.7168C93.7933 12.8988 93.7467 13.0499 93.7062 13.1716C93.6656 13.2931 93.6292 13.39 93.5984 13.4616C93.5482 13.5797 93.4957 13.6936 93.4422 13.8025C93.3876 13.912 93.3342 14.0131 93.2816 14.1061C93.229 14.1986 93.1788 14.2788 93.1321 14.3469H92.8888L92.5887 15.7555H93.3706L93.5464 14.9219H95.1362L94.9602 15.7555H95.7421L96.0425 14.3469H95.7991L96.4671 11.1831H94.2144ZM98.2189 13.5186H97.6131L98.1723 12.2032H98.1828L98.2189 13.5186ZM97.3646 14.0932H98.2345L98.2554 14.9219H99.0268L98.8299 11.1831H97.9135L96.1995 14.9219H97.0125L97.3646 14.0932ZM99.5567 14.9219H100.339L100.66 13.3994H101.24C101.423 13.3976 101.58 13.3735 101.715 13.326C101.85 13.2787 101.964 13.2155 102.058 13.1369C102.151 13.0577 102.229 12.9695 102.29 12.8738C102.351 12.7772 102.4 12.6797 102.436 12.5805C102.472 12.482 102.5 12.3887 102.519 12.3015C102.57 12.0728 102.579 11.8743 102.547 11.7079C102.514 11.5413 102.434 11.4117 102.305 11.3211C102.178 11.2304 101.995 11.1839 101.758 11.1831H100.349L99.5567 14.9219ZM101.012 11.7578H101.405C101.522 11.7586 101.607 11.7847 101.66 11.8346C101.713 11.8855 101.744 11.953 101.75 12.0376C101.757 12.123 101.746 12.217 101.721 12.3224C101.707 12.3853 101.683 12.4466 101.652 12.5052C101.621 12.5648 101.582 12.6183 101.538 12.6667C101.493 12.715 101.444 12.7528 101.39 12.7813C101.335 12.8091 101.278 12.8236 101.219 12.8245H100.784L101.012 11.7578ZM103.841 14.9841C104.024 14.9849 104.19 14.9632 104.341 14.9183C104.491 14.8733 104.625 14.8002 104.744 14.6983C104.862 14.5964 104.964 14.4608 105.049 14.2918C105.135 14.1217 105.203 13.912 105.255 13.6634H104.483C104.469 13.723 104.453 13.7879 104.434 13.856C104.417 13.924 104.396 13.9922 104.371 14.0588C104.345 14.1261 104.314 14.1866 104.277 14.2417C104.24 14.297 104.196 14.341 104.145 14.3739C104.093 14.4065 104.031 14.4238 103.96 14.4247C103.852 14.4247 103.771 14.3989 103.716 14.3454C103.661 14.2918 103.628 14.209 103.618 14.0977C103.608 13.9864 103.615 13.8439 103.641 13.6713C103.666 13.4977 103.705 13.2916 103.758 13.0524C103.809 12.8132 103.858 12.6071 103.906 12.4336C103.955 12.2601 104.007 12.1186 104.064 12.0073C104.121 11.896 104.189 11.8132 104.265 11.7596C104.343 11.7061 104.436 11.6794 104.545 11.6802C104.623 11.6794 104.68 11.7016 104.718 11.7466C104.755 11.7923 104.773 11.8649 104.773 11.9658C104.773 12.0661 104.756 12.1988 104.721 12.3637H105.487C105.556 12.0936 105.574 11.8667 105.542 11.6828C105.51 11.4981 105.423 11.3581 105.28 11.2633C105.135 11.1684 104.931 11.1209 104.664 11.1209C104.45 11.1217 104.264 11.1459 104.105 11.1951C103.946 11.2445 103.811 11.3135 103.697 11.4012C103.584 11.4903 103.488 11.5956 103.409 11.7155C103.331 11.8364 103.265 11.9684 103.212 12.1118C103.158 12.2557 103.112 12.407 103.074 12.5658C103.036 12.7244 102.999 12.8867 102.966 13.0524C102.93 13.2165 102.897 13.377 102.869 13.5347C102.84 13.6936 102.822 13.8448 102.814 13.988C102.806 14.1322 102.815 14.2641 102.842 14.3851C102.869 14.5058 102.92 14.6111 102.995 14.701C103.07 14.7897 103.176 14.8597 103.313 14.9089C103.451 14.958 103.627 14.9831 103.841 14.9841ZM106.152 11.1831L106.022 11.8044H106.892L106.23 14.9219H107.012L107.674 11.8044H108.544L108.674 11.1831H106.152ZM109.752 14.9219C109.809 14.9227 109.876 14.9201 109.954 14.9141C110.033 14.9089 110.117 14.896 110.208 14.876C110.299 14.8563 110.39 14.8252 110.483 14.7829C110.575 14.7406 110.663 14.6829 110.747 14.6103C110.83 14.5377 110.905 14.4462 110.969 14.3349C111.034 14.2244 111.084 14.0898 111.12 13.9329C111.147 13.8043 111.162 13.6868 111.163 13.5797C111.164 13.4736 111.146 13.3795 111.111 13.2975C111.075 13.2165 111.019 13.1492 110.938 13.0955C110.858 13.0429 110.751 13.006 110.617 12.9851L110.622 12.9747C110.769 12.9462 110.898 12.8952 111.007 12.8213C111.117 12.7469 111.207 12.6528 111.278 12.5397C111.35 12.4266 111.403 12.2972 111.435 12.1515C111.476 11.9521 111.48 11.7889 111.451 11.6611C111.421 11.5342 111.363 11.4359 111.278 11.366C111.193 11.2962 111.088 11.2486 110.962 11.221C110.837 11.1943 110.7 11.1823 110.55 11.1831H109.219L108.427 14.9219H109.752ZM109.882 11.7578H110.306C110.395 11.7586 110.469 11.7795 110.527 11.82C110.586 11.8613 110.628 11.9174 110.65 11.9882C110.672 12.0598 110.673 12.1418 110.654 12.2343C110.632 12.325 110.602 12.3999 110.564 12.4613C110.526 12.5225 110.483 12.5716 110.435 12.6081C110.387 12.645 110.338 12.6709 110.288 12.6873C110.238 12.7029 110.191 12.7105 110.146 12.7105H109.68L109.882 11.7578ZM109.556 13.2855H109.954C110.085 13.2855 110.184 13.3072 110.251 13.3501C110.319 13.3926 110.36 13.4537 110.376 13.5332C110.391 13.6126 110.385 13.7074 110.358 13.819C110.33 13.9482 110.288 14.0491 110.235 14.1217C110.181 14.1951 110.121 14.2468 110.056 14.2788C109.991 14.3108 109.928 14.3307 109.866 14.3383C109.806 14.3454 109.753 14.3487 109.711 14.3469H109.333L109.556 13.2855ZM113.778 14.9219L113.902 14.3469H112.602L112.83 13.2544H113.99L114.114 12.6797H112.954L113.151 11.7578H114.409L114.529 11.1831H112.488L111.696 14.9219H113.778ZM115.742 12.6797L116.058 11.1831H115.276L114.483 14.9219H115.265L115.618 13.2544H116.514L116.161 14.9219H116.943L117.736 11.1831H116.954L116.638 12.6797H115.742ZM119.078 12.6797L119.394 11.1831H118.612L117.82 14.9219H118.602L118.954 13.2544H119.85L119.498 14.9219H120.28L121.072 11.1831H120.29L119.974 12.6797H119.078ZM124.657 14.9219L125.449 11.1831H124.667L123.875 14.9219H124.657ZM122.984 13.7826C122.961 13.8871 122.929 13.982 122.888 14.0674C122.846 14.152 122.789 14.2192 122.717 14.2694C122.644 14.3202 122.549 14.3461 122.43 14.3469H122.063L122.285 13.2802H122.694C122.751 13.2811 122.802 13.2949 122.844 13.3234C122.886 13.3518 122.921 13.39 122.946 13.4381C122.972 13.4857 122.988 13.54 122.995 13.5987C123.002 13.6583 122.998 13.7197 122.984 13.7826ZM123.771 13.8033C123.79 13.7161 123.802 13.6228 123.808 13.5235C123.814 13.4253 123.808 13.3278 123.789 13.2312C123.769 13.1354 123.729 13.0473 123.67 12.9678C123.611 12.8893 123.524 12.8254 123.41 12.778C123.295 12.7314 123.147 12.7064 122.964 12.7056H122.41L122.731 11.1831H121.949L121.156 14.9219H122.539C122.775 14.9209 122.977 14.8743 123.143 14.7838C123.31 14.6931 123.444 14.5637 123.547 14.3971C123.651 14.2307 123.726 14.0321 123.771 13.8033ZM126.942 10.1836C126.922 10.3225 126.937 10.4417 126.987 10.5418C127.037 10.6428 127.117 10.7194 127.227 10.774C127.337 10.8284 127.471 10.856 127.631 10.8568C127.791 10.856 127.936 10.8284 128.068 10.774C128.199 10.7194 128.309 10.6428 128.401 10.5418C128.492 10.4417 128.559 10.3225 128.599 10.1836H128.211C128.194 10.2371 128.166 10.282 128.129 10.3158C128.092 10.3502 128.049 10.3762 128.002 10.3941C127.955 10.4132 127.905 10.4252 127.856 10.4323C127.807 10.4391 127.761 10.4425 127.719 10.4425C127.68 10.4425 127.639 10.4391 127.593 10.4323C127.547 10.4252 127.504 10.4132 127.463 10.3941C127.421 10.3762 127.388 10.3502 127.363 10.3158C127.338 10.282 127.328 10.2371 127.331 10.1836H126.942ZM127.993 14.9219L128.786 11.1831H127.952L126.637 13.4564H126.626L127.108 11.1831H126.326L125.534 14.9219H126.367L127.683 12.6486H127.693L127.211 14.9219H127.993Z" fill="#334384"/>
<path d="M131.943 12.7833H131.932L132.269 11.1833H131.487L130.694 14.9221H131.476L131.886 13.0062H131.896L132.383 14.9221H133.263L132.657 12.861L134.055 11.1833H133.196L131.943 12.7833ZM135.03 14.9843C135.286 14.9833 135.503 14.947 135.681 14.8772C135.859 14.8072 136.007 14.7097 136.126 14.5864C136.243 14.462 136.34 14.3187 136.415 14.1557C136.49 13.9924 136.552 13.8166 136.6 13.6292C136.649 13.4419 136.694 13.2495 136.734 13.0526C136.769 12.8869 136.802 12.7246 136.831 12.566C136.859 12.4072 136.876 12.2559 136.884 12.112C136.892 11.9687 136.883 11.8366 136.855 11.7157C136.828 11.5958 136.776 11.4905 136.701 11.4015C136.625 11.3137 136.519 11.2447 136.381 11.1953C136.243 11.1461 136.068 11.1219 135.854 11.1211C135.64 11.1219 135.453 11.1461 135.295 11.1953C135.136 11.2447 135 11.3137 134.886 11.4015C134.773 11.4905 134.677 11.5958 134.599 11.7157C134.52 11.8366 134.455 11.9687 134.401 12.112C134.348 12.2559 134.302 12.4072 134.263 12.566C134.225 12.7246 134.189 12.8869 134.155 13.0526C134.12 13.2167 134.087 13.3772 134.058 13.535C134.03 13.6938 134.011 13.845 134.003 13.9883C133.996 14.1324 134.005 14.2643 134.032 14.3853C134.058 14.506 134.109 14.6113 134.185 14.7012C134.26 14.7899 134.366 14.8599 134.503 14.9091C134.641 14.9582 134.816 14.9833 135.03 14.9843ZM135.149 14.425C135.042 14.425 134.961 14.3991 134.905 14.3456C134.851 14.292 134.818 14.2092 134.808 14.0979C134.797 13.9866 134.805 13.8441 134.83 13.6715C134.856 13.4979 134.895 13.2918 134.948 13.0526C134.998 12.8135 135.048 12.6073 135.096 12.4338C135.144 12.2604 135.197 12.1188 135.254 12.0075C135.311 11.8962 135.378 11.8134 135.455 11.7598C135.533 11.7063 135.626 11.6796 135.735 11.6804C135.843 11.6796 135.924 11.7063 135.98 11.7598C136.035 11.8134 136.068 11.8962 136.079 12.0075C136.09 12.1188 136.083 12.2604 136.058 12.4338C136.033 12.6073 135.994 12.8135 135.942 13.0526C135.891 13.2918 135.841 13.4979 135.793 13.6715C135.744 13.8441 135.691 13.9866 135.633 14.0979C135.575 14.2092 135.508 14.292 135.43 14.3456C135.352 14.3991 135.258 14.425 135.149 14.425ZM138.414 12.6799L138.729 11.1833H137.948L137.155 14.9221H137.937L138.289 13.2546H139.185L138.833 14.9221H139.615L140.407 11.1833H139.625L139.309 12.6799H138.414ZM142.413 14.9221L142.237 15.7557H143.019L143.319 14.3471H143.076L143.744 11.1833H142.962L142.294 14.3471H141.398L142.066 11.1833H141.284L140.492 14.9221H142.413ZM145.884 14.9221L146.008 14.3471H144.708L144.936 13.2546H146.096L146.221 12.6799H145.061L145.257 11.758H146.516L146.635 11.1833H144.594L143.802 14.9221H145.884ZM146.569 14.9221H147.351L147.672 13.3996H148.252C148.435 13.3978 148.593 13.3738 148.728 13.3262C148.862 13.2789 148.976 13.2158 149.07 13.1371C149.163 13.0579 149.241 12.9697 149.302 12.874C149.364 12.7774 149.412 12.6799 149.448 12.5807C149.484 12.4822 149.512 12.3889 149.531 12.3017C149.582 12.073 149.591 11.8745 149.559 11.7081C149.527 11.5415 149.446 11.412 149.318 11.3213C149.19 11.2306 149.007 11.1841 148.77 11.1833H147.361L146.569 14.9221ZM148.024 11.758H148.418C148.534 11.7588 148.619 11.7849 148.672 11.8348C148.726 11.8857 148.756 11.9532 148.762 12.0378C148.769 12.1232 148.759 12.2172 148.734 12.3226C148.719 12.3855 148.696 12.4468 148.664 12.5055C148.634 12.565 148.595 12.6185 148.55 12.6669C148.506 12.7152 148.456 12.7531 148.402 12.7815C148.348 12.8093 148.291 12.8238 148.231 12.8247H147.796L148.024 11.758ZM150.9 12.6799L151.216 11.1833H150.434L149.641 14.9221H150.423L150.776 13.2546H151.671L151.319 14.9221H152.101L152.894 11.1833H152.112L151.796 12.6799H150.9Z" fill="#334384"/>
<path d="M158.127 11.1831H155.668L154.875 14.9219H155.657L156.33 11.7578H157.226L156.553 14.9219H157.335L158.127 11.1831ZM159.304 13.4564L159.786 11.1831H159.004L158.212 14.9219H159.045L160.361 12.6486H160.371L159.889 14.9219H160.671L161.464 11.1831H160.63L159.315 13.4564H159.304ZM161.548 14.9219H165.147L164.971 15.7555H165.753L166.053 14.3469H165.81L166.478 11.1831H165.696L165.028 14.3469H164.132L164.8 11.1831H164.018L163.35 14.3469H162.454L163.122 11.1831H162.341L161.548 14.9219ZM168.618 14.9219L168.742 14.3469H167.443L167.67 13.2544H168.83L168.955 12.6797H167.795L167.992 11.7578H169.25L169.369 11.1831H167.329L166.536 14.9219H168.618ZM170.634 14.9219C170.69 14.9227 170.757 14.9201 170.836 14.9141C170.915 14.9089 170.999 14.896 171.09 14.876C171.18 14.8563 171.272 14.8252 171.364 14.7829C171.457 14.7406 171.545 14.6829 171.628 14.6103C171.712 14.5377 171.786 14.4462 171.851 14.3349C171.916 14.2244 171.966 14.0898 172.001 13.9329C172.029 13.8043 172.044 13.6868 172.044 13.5797C172.045 13.4736 172.028 13.3795 171.993 13.2975C171.957 13.2165 171.9 13.1492 171.82 13.0955C171.74 13.0429 171.633 13.006 171.499 12.9851L171.504 12.9747C171.651 12.9462 171.779 12.8952 171.889 12.8213C171.999 12.7469 172.088 12.6528 172.16 12.5397C172.232 12.4266 172.284 12.2972 172.317 12.1515C172.358 11.9521 172.362 11.7889 172.333 11.6611C172.302 11.5342 172.245 11.4359 172.16 11.366C172.075 11.2962 171.969 11.2486 171.844 11.221C171.719 11.1943 171.582 11.1823 171.432 11.1831H170.101L169.308 14.9219H170.634ZM170.764 11.7578H171.188C171.277 11.7586 171.351 11.7795 171.409 11.82C171.468 11.8613 171.509 11.9174 171.532 11.9882C171.554 12.0598 171.555 12.1418 171.535 12.2343C171.514 12.325 171.484 12.3999 171.445 12.4613C171.407 12.5225 171.364 12.5716 171.317 12.6081C171.269 12.645 171.219 12.6709 171.169 12.6873C171.12 12.7029 171.073 12.7105 171.028 12.7105H170.562L170.764 11.7578ZM170.437 13.2855H170.836C170.966 13.2855 171.066 13.3072 171.133 13.3501C171.2 13.3926 171.242 13.4537 171.257 13.5332C171.273 13.6126 171.267 13.7074 171.24 13.819C171.212 13.9482 171.17 14.0491 171.116 14.1217C171.062 14.1951 171.003 14.2468 170.938 14.2788C170.872 14.3108 170.809 14.3307 170.748 14.3383C170.688 14.3454 170.635 14.3487 170.593 14.3469H170.215L170.437 13.2855ZM173.815 14.9841C174.071 14.9831 174.287 14.9468 174.466 14.8769C174.644 14.807 174.792 14.7095 174.91 14.5862C175.028 14.4618 175.125 14.3184 175.2 14.1555C175.275 13.9922 175.337 13.8163 175.385 13.629C175.434 13.4417 175.479 13.2493 175.519 13.0524C175.554 12.8867 175.587 12.7244 175.616 12.5658C175.644 12.407 175.661 12.2557 175.669 12.1118C175.677 11.9684 175.667 11.8364 175.64 11.7155C175.613 11.5956 175.561 11.4903 175.486 11.4012C175.41 11.3135 175.304 11.2445 175.166 11.1951C175.028 11.1459 174.853 11.1217 174.639 11.1209C174.424 11.1217 174.238 11.1459 174.079 11.1951C173.921 11.2445 173.785 11.3135 173.671 11.4012C173.558 11.4903 173.462 11.5956 173.384 11.7155C173.305 11.8364 173.24 11.9684 173.186 12.1118C173.133 12.2557 173.087 12.407 173.048 12.5658C173.01 12.7244 172.974 12.8867 172.94 13.0524C172.905 13.2165 172.872 13.377 172.843 13.5347C172.815 13.6936 172.796 13.8448 172.788 13.988C172.781 14.1322 172.79 14.2641 172.817 14.3851C172.843 14.5058 172.894 14.6111 172.97 14.701C173.045 14.7897 173.151 14.8597 173.288 14.9089C173.426 14.958 173.601 14.9831 173.815 14.9841ZM173.934 14.4247C173.826 14.4247 173.745 14.3989 173.69 14.3454C173.636 14.2918 173.603 14.209 173.593 14.0977C173.582 13.9864 173.59 13.8439 173.615 13.6713C173.641 13.4977 173.68 13.2916 173.732 13.0524C173.783 12.8132 173.833 12.6071 173.881 12.4336C173.929 12.2601 173.982 12.1186 174.039 12.0073C174.096 11.896 174.163 11.8132 174.24 11.7596C174.318 11.7061 174.411 11.6794 174.52 11.6802C174.627 11.6794 174.709 11.7061 174.765 11.7596C174.82 11.8132 174.853 11.896 174.864 12.0073C174.875 12.1186 174.868 12.2601 174.843 12.4336C174.818 12.6071 174.779 12.8132 174.727 13.0524C174.676 13.2916 174.626 13.4977 174.577 13.6713C174.529 13.8439 174.476 13.9864 174.418 14.0977C174.36 14.209 174.293 14.2918 174.215 14.3454C174.137 14.3989 174.043 14.4247 173.934 14.4247ZM177.348 10.1836C177.329 10.3225 177.343 10.4417 177.393 10.5418C177.444 10.6428 177.524 10.7194 177.633 10.774C177.743 10.8284 177.878 10.856 178.037 10.8568C178.197 10.856 178.343 10.8284 178.474 10.774C178.605 10.7194 178.716 10.6428 178.807 10.5418C178.899 10.4417 178.965 10.3225 179.006 10.1836H178.617C178.6 10.2371 178.572 10.282 178.535 10.3158C178.498 10.3502 178.456 10.3762 178.408 10.3941C178.361 10.4132 178.312 10.4252 178.263 10.4323C178.213 10.4391 178.168 10.4425 178.125 10.4425C178.086 10.4425 178.045 10.4391 177.999 10.4323C177.954 10.4252 177.91 10.4132 177.869 10.3941C177.828 10.3762 177.795 10.3502 177.77 10.3158C177.745 10.282 177.734 10.2371 177.737 10.1836H177.348ZM178.4 14.9219L179.192 11.1831H178.358L177.043 13.4564H177.033L177.514 11.1831H176.732L175.94 14.9219H176.774L178.089 12.6486H178.099L177.618 14.9219H178.4Z" fill="#334384"/>
<path d="M184.425 11.1833H181.965L181.173 14.9221H181.955L182.628 11.758H183.524L182.851 14.9221H183.632L184.425 11.1833ZM184.489 14.9221H185.271L185.592 13.3996H186.172C186.355 13.3978 186.512 13.3738 186.647 13.3262C186.782 13.2789 186.896 13.2158 186.99 13.1371C187.083 13.0579 187.161 12.9697 187.222 12.874C187.283 12.7774 187.332 12.6799 187.368 12.5807C187.404 12.4822 187.432 12.3889 187.451 12.3017C187.502 12.073 187.511 11.8745 187.479 11.7081C187.446 11.5415 187.366 11.412 187.237 11.3213C187.11 11.2306 186.927 11.1841 186.689 11.1833H185.281L184.489 14.9221ZM185.944 11.758H186.337C186.454 11.7588 186.538 11.7849 186.592 11.8348C186.645 11.8857 186.676 11.9532 186.682 12.0378C186.689 12.1232 186.678 12.2172 186.653 12.3226C186.639 12.3855 186.615 12.4468 186.584 12.5055C186.553 12.565 186.514 12.6185 186.47 12.6669C186.425 12.7152 186.376 12.7531 186.322 12.7815C186.268 12.8093 186.211 12.8238 186.151 12.8247H185.716L185.944 11.758ZM188.773 14.9843C189.028 14.9833 189.245 14.947 189.423 14.8772C189.601 14.8072 189.75 14.7097 189.868 14.5864C189.985 14.462 190.082 14.3187 190.157 14.1557C190.232 13.9924 190.294 13.8166 190.343 13.6292C190.392 13.4419 190.437 13.2495 190.476 13.0526C190.512 12.8869 190.545 12.7246 190.573 12.566C190.602 12.4072 190.619 12.2559 190.627 12.112C190.634 11.9687 190.625 11.8366 190.597 11.7157C190.571 11.5958 190.519 11.4905 190.444 11.4015C190.368 11.3137 190.262 11.2447 190.123 11.1953C189.985 11.1461 189.81 11.1219 189.596 11.1211C189.382 11.1219 189.196 11.1461 189.037 11.1953C188.878 11.2447 188.742 11.3137 188.629 11.4015C188.515 11.4905 188.42 11.5958 188.341 11.7157C188.263 11.8366 188.197 11.9687 188.143 12.112C188.09 12.2559 188.044 12.4072 188.006 12.566C187.968 12.7246 187.931 12.8869 187.898 13.0526C187.862 13.2167 187.829 13.3772 187.801 13.535C187.772 13.6938 187.753 13.845 187.746 13.9883C187.738 14.1324 187.747 14.2643 187.774 14.3853C187.801 14.506 187.852 14.6113 187.927 14.7012C188.002 14.7899 188.108 14.8599 188.245 14.9091C188.383 14.9582 188.559 14.9833 188.773 14.9843ZM188.892 14.425C188.784 14.425 188.703 14.3991 188.648 14.3456C188.593 14.292 188.56 14.2092 188.55 14.0979C188.54 13.9866 188.548 13.8441 188.572 13.6715C188.598 13.4979 188.637 13.2918 188.69 13.0526C188.741 12.8135 188.79 12.6073 188.838 12.4338C188.887 12.2604 188.939 12.1188 188.996 12.0075C189.053 11.8962 189.121 11.8134 189.197 11.7598C189.275 11.7063 189.368 11.6796 189.477 11.6804C189.585 11.6796 189.667 11.7063 189.722 11.7598C189.777 11.8134 189.81 11.8962 189.821 12.0075C189.833 12.1188 189.826 12.2604 189.801 12.4338C189.776 12.6073 189.737 12.8135 189.684 13.0526C189.633 13.2918 189.583 13.4979 189.535 13.6715C189.487 13.8441 189.433 13.9866 189.375 14.0979C189.317 14.2092 189.25 14.292 189.172 14.3456C189.095 14.3991 189.001 14.425 188.892 14.425ZM191.617 14.9221L192.228 12.0378H192.239L192.311 14.9221H193.057L194.388 12.0378H194.398L193.787 14.9221H194.548L195.341 11.1833H194.124L192.964 13.7259H192.953L192.907 11.1833H191.648L190.856 14.9221H191.617ZM198.884 14.9221L199.676 11.1833H198.894L198.102 14.9221H198.884ZM197.212 13.7828C197.188 13.8873 197.156 13.9822 197.115 14.0676C197.073 14.1522 197.016 14.2194 196.944 14.2696C196.871 14.3205 196.776 14.3463 196.658 14.3471H196.29L196.512 13.2804H196.921C196.978 13.2813 197.029 13.2951 197.071 13.3236C197.113 13.3521 197.148 13.3902 197.174 13.4383C197.2 13.4859 197.215 13.5402 197.222 13.599C197.229 13.6585 197.225 13.7199 197.212 13.7828ZM197.999 13.8036C198.017 13.7163 198.029 13.623 198.035 13.5238C198.041 13.4255 198.035 13.328 198.016 13.2314C197.996 13.1356 197.956 13.0475 197.897 12.968C197.838 12.8895 197.751 12.8256 197.637 12.7782C197.522 12.7316 197.374 12.7066 197.191 12.7058H196.637L196.958 11.1833H196.176L195.384 14.9221H196.766C197.002 14.9211 197.204 14.8745 197.371 14.784C197.537 14.6933 197.671 14.5639 197.774 14.3973C197.878 14.2309 197.953 14.0324 197.999 13.8036ZM199.761 14.9221H203.898L204.691 11.1833H203.909L203.241 14.3471H202.345L203.013 11.1833H202.231L201.563 14.3471H200.667L201.335 11.1833H200.553L199.761 14.9221ZM208.079 11.1833H205.852L205.635 12.2293C205.586 12.4562 205.545 12.6538 205.509 12.8238C205.471 12.9932 205.439 13.1397 205.409 13.2633C205.379 13.3866 205.35 13.4936 205.321 13.5825C205.293 13.6724 205.263 13.7499 205.231 13.8174C205.198 13.8837 205.162 13.9459 205.12 14.0021C205.08 14.0582 205.032 14.1142 204.977 14.1713C204.954 14.1971 204.928 14.2179 204.899 14.234C204.87 14.2497 204.842 14.2617 204.813 14.2687C204.785 14.2764 204.76 14.2799 204.739 14.2799C204.707 14.279 204.677 14.2748 204.648 14.267C204.62 14.2584 204.6 14.2488 204.589 14.2385L204.454 14.8754C204.487 14.9047 204.532 14.9282 204.593 14.9461C204.653 14.9644 204.719 14.9728 204.791 14.9738C204.832 14.9738 204.885 14.9678 204.949 14.954C205.015 14.9412 205.084 14.9185 205.156 14.8874C205.229 14.8566 205.296 14.8151 205.36 14.7614C205.442 14.6933 205.516 14.6251 205.582 14.557C205.649 14.4887 205.709 14.4164 205.764 14.3377C205.819 14.2593 205.87 14.1695 205.918 14.0702C205.965 13.9701 206.01 13.8553 206.054 13.7232C206.098 13.5919 206.141 13.4393 206.185 13.2658C206.229 13.0916 206.275 12.8913 206.323 12.6643L206.515 11.758H207.178L206.505 14.9221H207.287L208.079 11.1833ZM210.219 14.9221L210.343 14.3471H209.043L209.271 13.2546H210.431L210.556 12.6799H209.396L209.593 11.758H210.851L210.97 11.1833H208.93L208.137 14.9221H210.219ZM212.183 12.6799L212.499 11.1833H211.717L210.925 14.9221H211.707L212.059 13.2546H212.955L212.603 14.9221H213.384L214.177 11.1833H213.395L213.079 12.6799H212.183ZM215.52 12.6799L215.836 11.1833H215.054L214.261 14.9221H215.043L215.395 13.2546H216.291L215.939 14.9221H216.721L217.513 11.1833H216.731L216.416 12.6799H215.52ZM218.81 14.9843C219.065 14.9833 219.282 14.947 219.46 14.8772C219.638 14.8072 219.786 14.7097 219.905 14.5864C220.022 14.462 220.119 14.3187 220.194 14.1557C220.269 13.9924 220.331 13.8166 220.38 13.6292C220.429 13.4419 220.474 13.2495 220.513 13.0526C220.549 12.8869 220.582 12.7246 220.61 12.566C220.638 12.4072 220.656 12.2559 220.663 12.112C220.671 11.9687 220.662 11.8366 220.634 11.7157C220.607 11.5958 220.556 11.4905 220.481 11.4015C220.405 11.3137 220.298 11.2447 220.16 11.1953C220.022 11.1461 219.847 11.1219 219.633 11.1211C219.419 11.1219 219.232 11.1461 219.074 11.1953C218.915 11.2447 218.779 11.3137 218.665 11.4015C218.552 11.4905 218.457 11.5958 218.378 11.7157C218.3 11.8366 218.234 11.9687 218.18 12.112C218.127 12.2559 218.081 12.4072 218.042 12.566C218.004 12.7246 217.968 12.8869 217.935 13.0526C217.899 13.2167 217.866 13.3772 217.838 13.535C217.809 13.6938 217.79 13.845 217.782 13.9883C217.775 14.1324 217.784 14.2643 217.811 14.3853C217.838 14.506 217.889 14.6113 217.964 14.7012C218.039 14.7899 218.145 14.8599 218.282 14.9091C218.42 14.9582 218.596 14.9833 218.81 14.9843ZM218.929 14.425C218.821 14.425 218.74 14.3991 218.684 14.3456C218.63 14.292 218.597 14.2092 218.587 14.0979C218.576 13.9866 218.584 13.8441 218.609 13.6715C218.635 13.4979 218.674 13.2918 218.727 13.0526C218.778 12.8135 218.827 12.6073 218.875 12.4338C218.923 12.2604 218.976 12.1188 219.033 12.0075C219.09 11.8962 219.157 11.8134 219.234 11.7598C219.312 11.7063 219.405 11.6796 219.514 11.6804C219.622 11.6796 219.704 11.7063 219.759 11.7598C219.814 11.8134 219.847 11.8962 219.858 12.0075C219.87 12.1188 219.863 12.2604 219.837 12.4338C219.813 12.6073 219.774 12.8135 219.721 13.0526C219.67 13.2918 219.62 13.4979 219.572 13.6715C219.523 13.8441 219.47 13.9866 219.412 14.0979C219.354 14.2092 219.287 14.292 219.209 14.3456C219.131 14.3991 219.037 14.425 218.929 14.425ZM222.146 14.9843C222.329 14.9851 222.496 14.9634 222.646 14.9185C222.797 14.8736 222.931 14.8004 223.049 14.6985C223.167 14.5967 223.269 14.461 223.354 14.292C223.44 14.1219 223.508 13.9122 223.56 13.6637H222.788C222.774 13.7232 222.758 13.7881 222.74 13.8562C222.723 13.9242 222.701 13.9924 222.676 14.059C222.65 14.1264 222.619 14.1868 222.583 14.2419C222.546 14.2972 222.502 14.3412 222.45 14.3741C222.398 14.4067 222.336 14.424 222.265 14.425C222.157 14.425 222.076 14.3991 222.021 14.3456C221.967 14.292 221.934 14.2092 221.923 14.0979C221.913 13.9866 221.921 13.8441 221.946 13.6715C221.972 13.4979 222.011 13.2918 222.063 13.0526C222.114 12.8135 222.163 12.6073 222.212 12.4338C222.26 12.2604 222.313 12.1188 222.37 12.0075C222.427 11.8962 222.494 11.8134 222.571 11.7598C222.648 11.7063 222.742 11.6796 222.85 11.6804C222.928 11.6796 222.985 11.7019 223.023 11.7468C223.06 11.7925 223.078 11.8651 223.078 11.966C223.078 12.0663 223.061 12.199 223.026 12.3639H223.793C223.861 12.0938 223.879 11.8669 223.847 11.6831C223.815 11.4984 223.728 11.3583 223.585 11.2635C223.441 11.1686 223.236 11.1211 222.969 11.1211C222.755 11.1219 222.569 11.1461 222.41 11.1953C222.251 11.2447 222.116 11.3137 222.002 11.4015C221.889 11.4905 221.793 11.5958 221.714 11.7157C221.636 11.8366 221.571 11.9687 221.517 12.112C221.463 12.2559 221.418 12.4072 221.379 12.566C221.341 12.7246 221.305 12.8869 221.271 13.0526C221.236 13.2167 221.203 13.3772 221.174 13.535C221.146 13.6938 221.127 13.845 221.119 13.9883C221.111 14.1324 221.121 14.2643 221.147 14.3853C221.174 14.506 221.225 14.6113 221.3 14.7012C221.375 14.7899 221.482 14.8599 221.619 14.9091C221.757 14.9582 221.932 14.9833 222.146 14.9843ZM224.457 11.1833L224.328 11.8046H225.198L224.535 14.9221H225.317L225.98 11.8046H226.85L226.979 11.1833H224.457ZM227.84 13.4566L228.322 11.1833H227.54L226.748 14.9221H227.581L228.897 12.6488H228.907L228.425 14.9221H229.207L230 11.1833H229.166L227.851 13.4566H227.84Z" fill="#334384"/>
</svg>
