<svg width="1280" height="225" viewBox="0 0 1280 225" fill="none" xmlns="http://www.w3.org/2000/svg">
<g clip-path="url(#clip0_2208_207)">
<path d="M733.766 65.1201C733.766 58.0375 735.046 51.5948 737.606 45.7921C740.166 39.9041 743.665 34.8268 748.102 30.5601C752.539 26.2935 757.745 23.0081 763.718 20.7041C769.777 18.3148 776.219 17.1201 783.046 17.1201C790.982 17.1201 798.363 18.7415 805.19 21.9841C812.017 25.1415 817.819 29.7921 822.598 35.9361L812.742 44.7681C804.721 35.0401 794.779 30.1761 782.918 30.1761C778.054 30.1761 773.446 31.0721 769.094 32.8641C764.827 34.5708 761.073 37.0028 757.83 40.1601C754.587 43.2321 752.027 46.9441 750.15 51.2961C748.273 55.5628 747.334 60.2561 747.334 65.3761C747.334 70.5815 748.23 75.3601 750.022 79.7121C751.899 84.0641 754.417 87.8188 757.574 90.9761C760.817 94.0481 764.614 96.4801 768.966 98.2721C773.403 99.9788 778.182 100.832 783.302 100.832C789.361 100.832 794.779 99.6375 799.558 97.2481C804.337 94.7735 808.902 91.1895 813.254 86.4961L822.982 95.7121C817.521 101.685 811.59 106.165 805.19 109.152C798.875 112.139 791.451 113.632 782.918 113.632C775.494 113.632 768.753 112.395 762.694 109.92C756.635 107.445 751.43 104.075 747.078 99.8081C742.811 95.4561 739.526 90.3361 737.222 84.4481C734.918 78.4748 733.766 72.0321 733.766 65.1201Z" fill="#B4213B"/>
<path d="M18.404 17.6621C21.4427 17.6621 23.9367 17.9774 25.886 18.6081C27.8927 19.2388 29.4693 20.0701 30.616 21.1021C31.82 22.1341 32.6513 23.3381 33.11 24.7141C33.626 26.0328 33.884 27.3801 33.884 28.7561C33.884 33.1708 31.7913 36.4388 27.606 38.5601C30.3007 39.3628 32.422 40.7388 33.97 42.6881C35.518 44.6374 36.292 46.9881 36.292 49.7401C36.292 54.0401 34.7727 57.3941 31.734 59.8021C28.6953 62.1528 23.9653 63.3281 17.544 63.3281H0V17.6621H18.404ZM11.524 44.0641V54.4701H17.286C19.2927 54.4701 20.812 53.9828 21.844 53.0081C22.876 51.9761 23.392 50.7434 23.392 49.3101C23.392 47.8194 22.9047 46.5868 21.93 45.6121C20.9553 44.5801 19.3787 44.0641 17.2 44.0641H11.524ZM16.77 35.4641C18.662 35.4641 20.0667 35.0341 20.984 34.1741C21.9013 33.2568 22.36 32.1961 22.36 30.9921C22.36 29.6734 21.9873 28.5554 21.242 27.6381C20.554 26.7208 19.092 26.2621 16.856 26.2621H11.524V35.4641H16.77Z" fill="#B4213B"/>
<path d="M0.144043 202.328V106.834H18.365V134.328L45.896 106.834H66.3781L33.128 151.522L69.171 202.328H48.556L18.365 166.828V202.328H0.144043Z" fill="#B4213B"/>
<path d="M80.489 154.448C80.489 147.355 81.819 140.794 84.479 134.764C87.139 128.646 90.73 123.371 95.252 118.937C99.774 114.415 105.05 110.869 111.079 108.297C117.108 105.726 123.492 104.44 130.231 104.44C136.792 104.44 143.043 105.726 148.984 108.297C155.013 110.78 160.289 114.282 164.811 118.804C169.422 123.238 173.057 128.558 175.717 134.764C178.466 140.882 179.84 147.577 179.84 154.847C179.84 161.852 178.554 168.413 175.983 174.531C173.412 180.561 169.909 185.792 165.476 190.225C161.043 194.659 155.811 198.161 149.782 200.732C143.753 203.304 137.324 204.589 130.497 204.589C123.404 204.589 116.798 203.304 110.68 200.732C104.651 198.072 99.375 194.481 94.853 189.959C90.4197 185.437 86.9173 180.117 84.346 173.999C81.7747 167.881 80.489 161.364 80.489 154.448ZM98.843 154.847C98.843 159.724 99.6853 164.157 101.37 168.147C103.055 172.049 105.316 175.418 108.153 178.255C111.079 181.093 114.448 183.309 118.261 184.905C122.074 186.413 126.108 187.166 130.364 187.166C134.709 187.166 138.743 186.324 142.467 184.639C146.28 182.955 149.56 180.649 152.309 177.723C155.146 174.797 157.363 171.384 158.959 167.482C160.644 163.492 161.486 159.236 161.486 154.714C161.486 150.281 160.688 146.114 159.092 142.212C157.585 138.222 155.412 134.72 152.575 131.705C149.826 128.691 146.501 126.297 142.6 124.523C138.787 122.75 134.62 121.863 130.098 121.863C125.842 121.863 121.808 122.661 117.995 124.257C114.182 125.853 110.857 128.114 108.02 131.04C105.183 133.878 102.922 137.336 101.237 141.414C99.641 145.404 98.843 149.882 98.843 154.847Z" fill="#B4213B"/>
<path d="M205.144 106.834H223.764C228.641 106.834 233.163 107.277 237.33 108.164C241.586 109.051 245.221 110.469 248.236 112.42C251.339 114.371 253.733 116.942 255.418 120.134C257.191 123.237 258.078 127.006 258.078 131.439C258.078 135.252 257.236 138.621 255.551 141.547C253.866 144.473 251.384 147.222 248.103 149.793C253.689 152.453 257.856 155.778 260.605 159.768C263.442 163.669 264.861 168.546 264.861 174.398C264.861 178.654 264.063 182.511 262.467 185.969C260.96 189.427 258.832 192.353 256.083 194.747C253.334 197.141 250.009 199.003 246.108 200.333C242.295 201.663 238.128 202.328 233.606 202.328H205.144V106.834ZM223.365 160.433V185.038H229.483C235.246 185.038 239.591 184.196 242.517 182.511C245.532 180.738 247.039 177.812 247.039 173.733C247.039 169.477 245.443 166.196 242.251 163.891C239.059 161.586 234.271 160.433 227.887 160.433H223.365ZM223.365 124.124V144.207H227.355C231.611 144.207 234.803 143.32 236.931 141.547C239.148 139.774 240.256 137.202 240.256 133.833C240.256 130.73 239.236 128.336 237.197 126.651C235.158 124.966 232.099 124.124 228.02 124.124H223.365Z" fill="#B4213B"/>
<path d="M296.144 106.834H320.084C325.227 106.834 329.837 107.366 333.916 108.43C337.995 109.494 341.453 111.179 344.29 113.484C347.127 115.701 349.3 118.582 350.807 122.129C352.314 125.587 353.068 129.71 353.068 134.498C353.068 138.931 352.27 142.877 350.674 146.335C349.078 149.704 346.861 152.542 344.024 154.847C341.187 157.152 337.773 158.926 333.783 160.167C329.882 161.32 325.581 161.896 320.882 161.896H314.365V202.328H296.144V106.834ZM314.365 124.656V144.207H322.877C331.123 144.207 335.246 140.971 335.246 134.498C335.246 127.937 330.857 124.656 322.079 124.656H314.365Z" fill="#B4213B"/>
<path d="M392.365 106.834V140.749H398.217C409.3 140.749 417.99 143.32 424.285 148.463C430.669 153.606 433.861 161.231 433.861 171.339C433.861 175.861 433.107 180.028 431.6 183.841C430.093 187.654 427.832 190.934 424.817 193.683C421.891 196.343 418.211 198.471 413.778 200.067C409.345 201.574 404.158 202.328 398.217 202.328H374.144V106.834H392.365ZM449.688 202.328V106.834H467.909V202.328H449.688ZM392.365 184.506H398.217C404.601 184.506 409.079 183.398 411.65 181.181C414.221 178.964 415.507 175.684 415.507 171.339C415.507 168.945 415.064 166.95 414.177 165.354C413.379 163.669 412.226 162.339 410.719 161.364C409.212 160.3 407.394 159.591 405.266 159.236C403.138 158.793 400.788 158.571 398.217 158.571H392.365V184.506Z" fill="#B4213B"/>
<path d="M54.438 17.6621V43.9781L74.39 17.6621H83.592V63.3281H72.154V37.5281L52.546 63.3281H43V17.6621H54.438Z" fill="#B4213B"/>
<path d="M91.668 17.6621H130.712V27.5521H116.952V63.3281H105.514V27.5521H91.668V17.6621Z" fill="#B4213B"/>
<path d="M138.678 40.452C138.678 37.356 139.223 34.3747 140.312 31.508C141.401 28.584 142.978 26.004 145.042 23.768C147.106 21.532 149.6 19.7547 152.524 18.436C155.448 17.1173 158.745 16.458 162.414 16.458C166.026 16.458 169.323 17.0887 172.304 18.35C175.285 19.554 177.837 21.2453 179.958 23.424C182.079 25.6027 183.713 28.2113 184.86 31.25C186.064 34.2887 186.666 37.614 186.666 41.226C186.666 41.742 186.666 42.172 186.666 42.516C186.666 42.86 186.637 43.29 186.58 43.806H149.772C150.345 47.246 151.807 49.8833 154.158 51.718C156.509 53.4953 159.318 54.384 162.586 54.384C165.338 54.384 167.66 53.954 169.552 53.094C171.444 52.234 173.365 50.9727 175.314 49.31L183.484 56.104C182.452 57.2507 181.248 58.34 179.872 59.372C178.496 60.3467 176.948 61.2353 175.228 62.038C173.508 62.7833 171.587 63.3853 169.466 63.844C167.402 64.3027 165.109 64.532 162.586 64.532C158.974 64.532 155.677 63.9013 152.696 62.64C149.772 61.3787 147.249 59.6873 145.128 57.566C143.064 55.3873 141.459 52.836 140.312 49.912C139.223 46.9307 138.678 43.7773 138.678 40.452ZM150.288 34.776H175.142C174.339 32.0813 172.82 29.9887 170.584 28.498C168.348 26.95 165.682 26.176 162.586 26.176C159.719 26.176 157.225 26.8927 155.104 28.326C153.04 29.702 151.435 31.852 150.288 34.776Z" fill="#B4213B"/>
<path d="M207.138 5.622C208.514 4.53267 209.947 3.67266 211.438 3.042C212.986 2.354 214.763 1.80933 216.77 1.408C218.777 0.949332 221.07 0.605331 223.65 0.375998C226.287 0.146664 229.383 -0.054002 232.938 -0.226C237.811 -0.512666 241.395 -0.770666 243.688 -1V9.836C242.025 10.0653 240.391 10.2373 238.786 10.352C237.238 10.4093 235.69 10.438 234.142 10.438C231.39 10.438 228.982 10.4953 226.918 10.61C224.911 10.6673 223.134 10.8393 221.586 11.126C220.038 11.4127 218.662 11.814 217.458 12.33C216.311 12.7887 215.193 13.4193 214.104 14.222C213.129 14.9673 212.269 15.7413 211.524 16.544C210.779 17.2893 210.148 18.178 209.632 19.21C209.116 20.1847 208.715 21.3027 208.428 22.564C208.199 23.768 208.027 25.2013 207.912 26.864L207.826 28.584C211.209 20.672 216.885 16.716 224.854 16.716C227.778 16.716 230.559 17.2893 233.196 18.436C235.891 19.5253 238.213 21.102 240.162 23.166C242.169 25.23 243.745 27.6953 244.892 30.562C246.096 33.3713 246.698 36.496 246.698 39.936C246.698 43.4333 246.067 46.7013 244.806 49.74C243.602 52.7213 241.911 55.33 239.732 57.566C237.553 59.7447 235.002 61.4647 232.078 62.726C229.154 63.93 225.972 64.532 222.532 64.532C216.971 64.532 212.04 62.812 207.74 59.372C205.619 57.652 203.899 55.7887 202.58 53.782C201.319 51.718 200.315 49.5393 199.57 47.246C198.882 44.8953 198.423 42.4587 198.194 39.936C197.965 37.356 197.85 34.7473 197.85 32.11C197.85 25.1727 198.681 19.5827 200.344 15.34C202.064 11.04 204.329 7.80067 207.138 5.622ZM222.618 53.782C224.338 53.782 225.943 53.4667 227.434 52.836C228.982 52.2053 230.301 51.3167 231.39 50.17C232.537 48.966 233.425 47.5613 234.056 45.956C234.744 44.2933 235.088 42.4587 235.088 40.452C235.088 38.56 234.773 36.8113 234.142 35.206C233.569 33.6007 232.737 32.2247 231.648 31.078C230.616 29.874 229.326 28.9567 227.778 28.326C226.23 27.638 224.51 27.294 222.618 27.294C220.841 27.294 219.178 27.638 217.63 28.326C216.139 28.9567 214.849 29.874 213.76 31.078C212.671 32.2247 211.811 33.6007 211.18 35.206C210.549 36.8113 210.234 38.56 210.234 40.452C210.234 42.4587 210.521 44.2933 211.094 45.956C211.725 47.5613 212.585 48.966 213.674 50.17C214.821 51.3167 216.139 52.2053 217.63 52.836C219.178 53.4667 220.841 53.782 222.618 53.782Z" fill="#B4213B"/>
<path d="M257.678 40.796C257.678 37.4133 258.28 34.26 259.484 31.336C260.745 28.3547 262.465 25.7747 264.644 23.596C266.823 21.4173 269.431 19.6973 272.47 18.436C275.509 17.1173 278.863 16.458 282.532 16.458C287.061 16.458 291.046 17.2607 294.486 18.866C297.983 20.4713 300.678 22.5927 302.57 25.23L294.142 32.11C292.651 30.6193 290.989 29.444 289.154 28.584C287.319 27.724 285.112 27.294 282.532 27.294C280.468 27.294 278.605 27.6667 276.942 28.412C275.337 29.1 273.961 30.046 272.814 31.25C271.667 32.454 270.779 33.8873 270.148 35.55C269.517 37.1553 269.202 38.904 269.202 40.796C269.202 42.6307 269.489 44.3507 270.062 45.956C270.693 47.504 271.581 48.8513 272.728 49.998C273.875 51.1447 275.251 52.062 276.856 52.75C278.461 53.3807 280.239 53.696 282.188 53.696C284.768 53.696 287.004 53.266 288.896 52.406C290.845 51.546 292.594 50.342 294.142 48.794L302.312 56.018C300.191 58.598 297.467 60.662 294.142 62.21C290.817 63.758 286.832 64.532 282.188 64.532C278.461 64.532 275.079 63.93 272.04 62.726C269.059 61.522 266.479 59.8593 264.3 57.738C262.179 55.5593 260.545 53.0367 259.398 50.17C258.251 47.246 257.678 44.1213 257.678 40.796Z" fill="#B4213B"/>
<path d="M313.086 63.3281V17.6621H324.524V32.3281L341.466 17.6621H355.742L336.478 39.1621L358.15 63.3281H343.96L324.524 44.3281V63.3281H313.086Z" fill="#B4213B"/>
<path d="M377.438 17.6621V43.9781L397.39 17.6621H406.592V63.3281H395.154V37.5281L375.546 63.3281H366V17.6621H377.438Z" fill="#B4213B"/>
<path d="M419.678 40.452C419.678 37.356 420.223 34.3747 421.312 31.508C422.401 28.584 423.978 26.004 426.042 23.768C428.106 21.532 430.6 19.7547 433.524 18.436C436.448 17.1173 439.745 16.458 443.414 16.458C447.026 16.458 450.323 17.0887 453.304 18.35C456.285 19.554 458.837 21.2453 460.958 23.424C463.079 25.6027 464.713 28.2113 465.86 31.25C467.064 34.2887 467.666 37.614 467.666 41.226C467.666 41.742 467.666 42.172 467.666 42.516C467.666 42.86 467.637 43.29 467.58 43.806H430.772C431.345 47.246 432.807 49.8833 435.158 51.718C437.509 53.4953 440.318 54.384 443.586 54.384C446.338 54.384 448.66 53.954 450.552 53.094C452.444 52.234 454.365 50.9727 456.314 49.31L464.484 56.104C463.452 57.2507 462.248 58.34 460.872 59.372C459.496 60.3467 457.948 61.2353 456.228 62.038C454.508 62.7833 452.587 63.3853 450.466 63.844C448.402 64.3027 446.109 64.532 443.586 64.532C439.974 64.532 436.677 63.9013 433.696 62.64C430.772 61.3787 428.249 59.6873 426.128 57.566C424.064 55.3873 422.459 52.836 421.312 49.912C420.223 46.9307 419.678 43.7773 419.678 40.452ZM431.288 34.776H456.142C455.339 32.0813 453.82 29.9887 451.584 28.498C449.348 26.95 446.682 26.176 443.586 26.176C440.719 26.176 438.225 26.8927 436.104 28.326C434.04 29.702 432.435 31.852 431.288 34.776Z" fill="#B4213B"/>
<path d="M738.068 156.255H749.356L760.738 177.328L771.6 156.255H782.805L764.462 200.328H756.494L738.068 156.255Z" fill="#B4213B"/>
<path d="M828.882 200.328V146.255H839.921V200.328H828.882Z" fill="#B4213B"/>
<path d="M896.483 156.255H902.127V144.987H913.166V156.255H919.723V165.8H913.166V200.328H902.127V165.8H896.483V156.255Z" fill="#B4213B"/>
<path d="M971.558 178.25C971.558 175.262 972.084 172.385 973.135 169.618C974.186 166.796 975.708 164.306 977.7 162.148C979.692 159.99 982.099 158.275 984.921 157.002C987.743 155.73 990.925 155.093 994.466 155.093C997.952 155.093 1001.13 155.702 1004.01 156.919C1006.89 158.081 1009.35 159.714 1011.4 161.816C1013.45 163.919 1015.02 166.437 1016.13 169.369C1017.29 172.302 1017.87 175.511 1017.87 178.997C1017.87 179.495 1017.87 179.91 1017.87 180.242C1017.87 180.574 1017.84 180.989 1017.79 181.487H982.265C982.818 184.807 984.229 187.353 986.498 189.123C988.767 190.839 991.478 191.696 994.632 191.696C997.288 191.696 999.529 191.281 1001.35 190.451C1003.18 189.621 1005.03 188.404 1006.92 186.799L1014.8 193.356C1013.8 194.463 1012.64 195.514 1011.31 196.51C1009.99 197.451 1008.49 198.309 1006.83 199.083C1005.17 199.803 1003.32 200.384 1001.27 200.826C999.28 201.269 997.067 201.49 994.632 201.49C991.146 201.49 987.964 200.882 985.087 199.664C982.265 198.447 979.83 196.815 977.783 194.767C975.791 192.665 974.242 190.202 973.135 187.38C972.084 184.503 971.558 181.46 971.558 178.25ZM982.763 172.772H1006.75C1005.98 170.172 1004.51 168.152 1002.35 166.713C1000.19 165.219 997.62 164.472 994.632 164.472C991.865 164.472 989.458 165.164 987.411 166.547C985.419 167.875 983.87 169.95 982.763 172.772Z" fill="#B4213B"/>
<path d="M1071.88 143.24H1082.92V161.069C1086.91 157.085 1091.53 155.093 1096.78 155.093C1099.6 155.093 1102.29 155.674 1104.83 156.836C1107.38 157.943 1109.59 159.52 1111.47 161.567C1113.35 163.615 1114.85 166.077 1115.96 168.954C1117.06 171.776 1117.62 174.903 1117.62 178.333C1117.62 181.709 1117.03 184.835 1115.87 187.712C1114.77 190.534 1113.24 192.969 1111.31 195.016C1109.37 197.064 1107.13 198.668 1104.58 199.83C1102.04 200.937 1099.36 201.49 1096.53 201.49C1093.71 201.49 1091.22 201.02 1089.06 200.079C1086.96 199.083 1084.91 197.617 1082.92 195.68V200.328H1071.88V143.24ZM1094.54 191.364C1096.26 191.364 1097.83 191.032 1099.27 190.368C1100.77 189.704 1102.04 188.791 1103.09 187.629C1104.14 186.467 1104.97 185.084 1105.58 183.479C1106.19 181.875 1106.49 180.132 1106.49 178.25C1106.49 176.424 1106.22 174.737 1105.66 173.187C1105.11 171.583 1104.31 170.199 1103.26 169.037C1102.2 167.875 1100.93 166.962 1099.44 166.298C1098 165.579 1096.37 165.219 1094.54 165.219C1092.77 165.219 1091.14 165.551 1089.64 166.215C1088.21 166.824 1086.93 167.709 1085.83 168.871C1084.77 169.978 1083.94 171.334 1083.34 172.938C1082.73 174.488 1082.42 176.231 1082.42 178.167C1082.42 180.159 1082.73 181.985 1083.34 183.645C1084 185.25 1084.86 186.633 1085.91 187.795C1087.02 188.902 1088.29 189.787 1089.73 190.451C1091.22 191.06 1092.83 191.364 1094.54 191.364Z" fill="#B4213B"/>
<path d="M1161.31 193.937L1168.12 186.467C1169.39 187.961 1170.89 189.206 1172.6 190.202C1174.32 191.143 1175.89 191.613 1177.33 191.613C1178.72 191.613 1179.88 191.281 1180.82 190.617C1181.76 189.898 1182.23 189.04 1182.23 188.044C1182.23 187.048 1181.79 186.191 1180.9 185.471C1180.02 184.697 1178.38 183.701 1176 182.483C1173.62 181.266 1171.6 180.132 1169.94 179.08C1168.34 177.974 1167.01 176.839 1165.96 175.677C1164.91 174.515 1164.13 173.298 1163.64 172.025C1163.19 170.753 1162.97 169.342 1162.97 167.792C1162.97 166.077 1163.3 164.445 1163.97 162.895C1164.69 161.346 1165.66 159.99 1166.87 158.828C1168.15 157.666 1169.67 156.753 1171.44 156.089C1173.21 155.425 1175.15 155.093 1177.25 155.093C1180.13 155.093 1182.81 155.73 1185.3 157.002C1187.85 158.22 1190 160.018 1191.77 162.397L1184.97 169.286C1183.7 168.014 1182.42 167.018 1181.15 166.298C1179.93 165.579 1178.66 165.219 1177.33 165.219C1176.23 165.219 1175.28 165.441 1174.51 165.883C1173.74 166.326 1173.35 166.99 1173.35 167.875C1173.35 168.705 1173.71 169.369 1174.43 169.867C1175.15 170.365 1176.11 170.919 1177.33 171.527C1180.04 172.855 1182.34 174.1 1184.22 175.262C1186.16 176.424 1187.73 177.642 1188.95 178.914C1190.22 180.132 1191.14 181.46 1191.69 182.898C1192.3 184.282 1192.6 185.886 1192.6 187.712C1192.6 189.704 1192.22 191.53 1191.44 193.19C1190.72 194.85 1189.67 196.317 1188.29 197.589C1186.9 198.807 1185.24 199.747 1183.31 200.411C1181.37 201.131 1179.19 201.49 1176.75 201.49C1170.33 201.49 1165.19 198.973 1161.31 193.937Z" fill="#B4213B"/>
<path d="M1236.88 200.328V144.24H1247.92V174.432L1264.27 156.255H1278.05L1259.46 177.005L1280.37 200.328H1266.68L1247.92 179.246V200.328H1236.88Z" fill="#B4213B"/>
<path d="M868.534 19.4241H878.774L917.686 111.328H903.606L893.494 87.0081H853.814L843.574 111.328H829.494L868.534 19.4241ZM859.318 73.9521H887.99L873.654 39.5201L859.318 73.9521Z" fill="#B4213B"/>
<path d="M955.822 19.4241C966.062 19.4241 973.827 21.6427 979.118 26.0801C984.494 30.4321 987.182 36.7467 987.182 45.0241C987.182 52.1921 985.006 57.8241 980.654 61.9201C976.302 65.9307 970.329 68.4907 962.734 69.6001L989.87 111.328H974.51L948.27 70.6241H944.558V111.328H930.99V19.4241H955.822ZM944.558 57.4401H956.718C962.094 57.4401 966.233 56.4587 969.134 54.4961C972.121 52.4481 973.614 49.2481 973.614 44.8961C973.614 41.1414 972.291 38.1547 969.646 35.9361C967.086 33.7174 963.033 32.6081 957.486 32.6081H944.558V57.4401Z" fill="#B4213B"/>
<path d="M1011.99 19.4241H1035.93C1040.7 19.4241 1045.06 19.8934 1048.98 20.8321C1052.91 21.6854 1056.28 23.1361 1059.09 25.1841C1062 27.1467 1064.21 29.7494 1065.75 32.9921C1067.37 36.2347 1068.18 40.2454 1068.18 45.0241C1068.18 49.6321 1067.33 53.5574 1065.62 56.8001C1063.92 60.0427 1061.61 62.6881 1058.71 64.7361C1055.81 66.7841 1052.4 68.2774 1048.47 69.2161C1044.54 70.1547 1040.36 70.6241 1035.93 70.6241H1025.56V111.328H1011.99V19.4241ZM1025.56 32.6081V57.4401H1037.21C1042.58 57.4401 1046.81 56.5441 1049.88 54.7521C1053.04 52.9601 1054.61 49.7174 1054.61 45.0241C1054.61 40.4161 1053.04 37.2161 1049.88 35.4241C1046.72 33.5467 1042.5 32.6081 1037.21 32.6081H1025.56Z" fill="#B4213B"/>
<path d="M1086.99 111.328V19.4241H1138.32V32.4801H1100.56V55.1361H1138.32V68.0641H1100.56V98.1441H1138.32V111.328H1086.99Z" fill="#B4213B"/>
<path d="M1152.9 19.4241H1219.59V32.6081H1193.03V111.328H1179.46V32.6081H1152.9V19.4241Z" fill="#B4213B"/>
<path d="M1223.82 93.9201L1235.21 87.0081C1240.16 96.0535 1245.88 100.576 1252.37 100.576C1254.24 100.576 1255.99 100.277 1257.61 99.6801C1259.32 98.9975 1260.77 98.1441 1261.97 97.1201C1263.16 96.0108 1264.1 94.7308 1264.78 93.2801C1265.55 91.8295 1265.93 90.2935 1265.93 88.6721C1265.93 86.9655 1265.64 85.4295 1265.04 84.0641C1264.44 82.6135 1263.46 81.1201 1262.09 79.5841C1260.73 78.0481 1259.02 76.4268 1256.97 74.7201C1254.93 72.9281 1252.41 70.8375 1249.42 68.4481C1246.09 65.7175 1243.15 63.2001 1240.59 60.8961C1238.03 58.5921 1235.85 56.3308 1234.06 54.1121C1232.36 51.8935 1231.03 49.6321 1230.09 47.3281C1229.24 44.9388 1228.81 42.3361 1228.81 39.5201C1228.81 36.2775 1229.41 33.2908 1230.61 30.5601C1231.89 27.8295 1233.59 25.4828 1235.73 23.5201C1237.94 21.4721 1240.5 19.8935 1243.41 18.7841C1246.31 17.6748 1249.38 17.1201 1252.62 17.1201C1255.52 17.1201 1258.17 17.5041 1260.56 18.2721C1262.95 19.0401 1265.17 20.1068 1267.21 21.4721C1269.26 22.7521 1271.18 24.3308 1272.97 26.2081C1274.77 28.0001 1276.47 29.9201 1278.09 31.9681L1267.85 40.2881C1265.38 37.3015 1262.95 34.9121 1260.56 33.1201C1258.25 31.3281 1255.52 30.4321 1252.37 30.4321C1249.29 30.4321 1246.86 31.3281 1245.07 33.1201C1243.28 34.8268 1242.38 36.8748 1242.38 39.2641C1242.38 41.8241 1243.36 44.2561 1245.33 46.5601C1247.29 48.8641 1250.53 51.7655 1255.05 55.2641C1258.64 57.9948 1261.92 60.5975 1264.91 63.0721C1267.9 65.4615 1270.46 67.9361 1272.59 70.4961C1274.81 73.0561 1276.52 75.7868 1277.71 78.6881C1278.9 81.5041 1279.5 84.6615 1279.5 88.1601C1279.5 91.7441 1278.82 95.0721 1277.45 98.1441C1276.17 101.216 1274.34 103.904 1271.95 106.208C1269.56 108.512 1266.7 110.304 1263.37 111.584C1260.13 112.949 1256.5 113.632 1252.49 113.632C1245.92 113.632 1240.33 111.968 1235.73 108.64C1231.2 105.312 1227.24 100.405 1223.82 93.9201Z" fill="#B4213B"/>
<path d="M514.245 107.468C513.745 144.968 540.745 154.468 540.745 154.468C528.245 144.917 509.845 113.744 536.245 65.4685C551.412 38.6351 584.745 -6.2316 596.745 28.9684C602.245 47.9684 565.245 85.4685 563.745 87.9685C562.245 90.4685 557.745 97.9685 568.745 100.468C582.245 105.468 615.745 94.9685 626.745 116.968C640.745 138.468 615.745 192.468 600.245 221.468L603.745 225.468C629.745 179.968 647.745 116.968 626.745 98.4685C608.245 83.9685 576.745 91.9685 574.745 91.4685C572.745 90.9685 569.745 90.4685 572.745 85.4685C572.745 85.4685 592.245 67.4685 601.245 48.9685C610.245 30.4685 609.245 -1.03158 580.245 1.46842C551.245 3.96842 514.745 69.9685 514.245 107.468Z" fill="#B4213B"/>
<path d="M675.245 62.9685L671.245 64.4685C672.745 129.469 649.245 132.469 622.245 136.969C600.645 141.769 619.578 164.969 631.745 175.969C675.245 208.969 685.245 180.802 682.745 149.969C682.345 205.569 643.745 171.969 624.745 146.469C624.745 146.469 621.745 141.969 624.745 141.469C673.245 136.969 675.245 98.9685 675.245 62.9685Z" fill="#B4213B"/>
<mask id="mask0_2208_207" style="mask-type:alpha" maskUnits="userSpaceOnUse" x="506" y="19" width="182" height="179">
<rect x="506.238" y="19.3281" width="181" height="178" fill="#B4213B"/>
</mask>
<g mask="url(#mask0_2208_207)">
<rect x="506.238" y="19.3281" width="181" height="178" fill="#B4213B"/>
<path d="M514.245 107.468C513.745 144.968 540.745 154.468 540.745 154.468C528.245 144.917 509.845 113.744 536.245 65.4685C551.412 38.6351 584.745 -6.2316 596.745 28.9684C602.245 47.9684 565.245 85.4685 563.745 87.9685C562.245 90.4685 557.745 97.9685 568.745 100.468C582.245 105.468 615.745 94.9685 626.745 116.968C640.745 138.468 615.745 192.468 600.245 221.468L603.745 225.468C629.745 179.968 647.745 116.968 626.745 98.4685C608.245 83.9685 576.745 91.9685 574.745 91.4685C572.745 90.9685 569.745 90.4685 572.745 85.4685C572.745 85.4685 592.245 67.4685 601.245 48.9685C610.245 30.4685 609.245 -1.03158 580.245 1.46842C551.245 3.96842 514.745 69.9685 514.245 107.468Z" fill="white"/>
<path d="M675.245 62.9685L671.245 64.4685C672.745 129.469 649.245 132.469 622.245 136.969C600.645 141.769 619.578 164.969 631.745 175.969C675.245 208.969 685.245 180.802 682.745 149.969C682.345 205.569 643.745 171.969 624.745 146.469C624.745 146.469 621.745 141.969 624.745 141.469C673.245 136.969 675.245 98.9685 675.245 62.9685Z" fill="white"/>
</g>
</g>
<defs>
<clipPath id="clip0_2208_207">
<rect width="1280" height="225" fill="white"/>
</clipPath>
</defs>
</svg>
