<svg width="420" height="299" viewBox="0 0 420 299" fill="none" xmlns="http://www.w3.org/2000/svg">
<g clip-path="url(#clip0_628_13586)">
<rect width="420" height="299" rx="8" fill="#033860"/>
<foreignObject x="150" y="90" width="120" height="120"><div xmlns="http://www.w3.org/1999/xhtml" style="backdrop-filter:blur(5px);clip-path:url(#bgblur_1_628_13586_clip_path);height:100%;width:100%"></div></foreignObject><g data-figma-bg-blur-radius="10">
<rect x="160" y="100" width="100" height="100" rx="8" fill="white" fill-opacity="0.1"/>
<path d="M243.334 147.501H236.534C235.334 134.801 225.2 124.635 212.5 123.468V116.668C212.5 115.301 211.367 114.168 210 114.168C208.634 114.168 207.5 115.301 207.5 116.668V123.468C194.8 124.668 184.634 134.801 183.467 147.501H176.667C175.3 147.501 174.167 148.635 174.167 150.001C174.167 151.368 175.3 152.501 176.667 152.501H183.467C184.667 165.201 194.8 175.368 207.5 176.535V183.335C207.5 184.701 208.634 185.835 210 185.835C211.367 185.835 212.5 184.701 212.5 183.335V176.535C225.2 175.335 235.367 165.201 236.534 152.501H243.334C244.7 152.501 245.834 151.368 245.834 150.001C245.834 148.635 244.7 147.501 243.334 147.501ZM210 160.401C204.267 160.401 199.6 155.735 199.6 150.001C199.6 144.268 204.267 139.601 210 139.601C215.734 139.601 220.4 144.268 220.4 150.001C220.4 155.735 215.734 160.401 210 160.401Z" fill="white"/>
</g>
<line opacity="0.3" x1="160" y1="150.5" x2="-4.37114e-08" y2="150.5" stroke="url(#paint0_linear_628_13586)"/>
<line opacity="0.3" x1="209.5" y1="100" x2="209.5" y2="-5.96243e-09" stroke="url(#paint1_linear_628_13586)"/>
<line opacity="0.3" x1="260" y1="149.5" x2="420" y2="149.5" stroke="url(#paint2_linear_628_13586)"/>
<line opacity="0.3" x1="210.5" y1="200" x2="210.5" y2="299" stroke="url(#paint3_linear_628_13586)"/>
</g>
<defs>
<clipPath id="bgblur_1_628_13586_clip_path" transform="translate(-150 -90)"><rect x="160" y="100" width="100" height="100" rx="8"/>
</clipPath><linearGradient id="paint0_linear_628_13586" x1="160" y1="149.5" x2="4.37114e-08" y2="149.5" gradientUnits="userSpaceOnUse">
<stop stop-color="white"/>
<stop offset="1" stop-color="white" stop-opacity="0"/>
</linearGradient>
<linearGradient id="paint1_linear_628_13586" x1="210.5" y1="100" x2="210.5" y2="5.96243e-09" gradientUnits="userSpaceOnUse">
<stop stop-color="white"/>
<stop offset="1" stop-color="white" stop-opacity="0"/>
</linearGradient>
<linearGradient id="paint2_linear_628_13586" x1="260" y1="150.5" x2="420" y2="150.5" gradientUnits="userSpaceOnUse">
<stop stop-color="white"/>
<stop offset="1" stop-color="white" stop-opacity="0"/>
</linearGradient>
<linearGradient id="paint3_linear_628_13586" x1="209.5" y1="200" x2="209.5" y2="299" gradientUnits="userSpaceOnUse">
<stop stop-color="white"/>
<stop offset="1" stop-color="white" stop-opacity="0"/>
</linearGradient>
<clipPath id="clip0_628_13586">
<rect width="420" height="299" rx="8" fill="white"/>
</clipPath>
</defs>
</svg>
