<svg width="420" height="220" viewBox="0 0 420 220" fill="none" xmlns="http://www.w3.org/2000/svg">
<g clip-path="url(#clip0_827_7486)">
<rect width="420" height="220" fill="#033860"/>
<foreignObject x="160" y="60" width="100" height="100"><div xmlns="http://www.w3.org/1999/xhtml" style="backdrop-filter:blur(5px);clip-path:url(#bgblur_1_827_7486_clip_path);height:100%;width:100%"></div></foreignObject><g data-figma-bg-blur-radius="10">
<rect x="170" y="70" width="80" height="80" rx="8" fill="white" fill-opacity="0.1"/>
<path d="M224.775 106.802H217.05V88.8022C217.05 84.6022 214.775 83.7522 212 86.9022L210 89.1772L193.075 108.427C190.75 111.052 191.725 113.202 195.225 113.202H202.95V131.202C202.95 135.402 205.225 136.252 208 133.102L210 130.827L226.925 111.577C229.25 108.952 228.275 106.802 224.775 106.802Z" fill="white"/>
</g>
<line opacity="0.3" x1="209.5" y1="70" x2="209.5" y2="-2.18557e-08" stroke="url(#paint0_linear_827_7486)"/>
<line opacity="0.3" x1="210.5" y1="150" x2="210.5" y2="220" stroke="url(#paint1_linear_827_7486)"/>
<line opacity="0.3" x1="250" y1="109.5" x2="420" y2="109.5" stroke="url(#paint2_linear_827_7486)"/>
<line opacity="0.3" x1="170" y1="110.5" x2="-4.37114e-08" y2="110.5" stroke="url(#paint3_linear_827_7486)"/>
</g>
<defs>
<clipPath id="bgblur_1_827_7486_clip_path" transform="translate(-160 -60)"><rect x="170" y="70" width="80" height="80" rx="8"/>
</clipPath><linearGradient id="paint0_linear_827_7486" x1="210.5" y1="70" x2="210.5" y2="2.18557e-08" gradientUnits="userSpaceOnUse">
<stop stop-color="white"/>
<stop offset="1" stop-color="white" stop-opacity="0"/>
</linearGradient>
<linearGradient id="paint1_linear_827_7486" x1="209.5" y1="150" x2="209.5" y2="220" gradientUnits="userSpaceOnUse">
<stop stop-color="white"/>
<stop offset="1" stop-color="white" stop-opacity="0"/>
</linearGradient>
<linearGradient id="paint2_linear_827_7486" x1="250" y1="110.5" x2="420" y2="110.5" gradientUnits="userSpaceOnUse">
<stop stop-color="white"/>
<stop offset="1" stop-color="white" stop-opacity="0"/>
</linearGradient>
<linearGradient id="paint3_linear_827_7486" x1="170" y1="109.5" x2="4.37114e-08" y2="109.5" gradientUnits="userSpaceOnUse">
<stop stop-color="white"/>
<stop offset="1" stop-color="white" stop-opacity="0"/>
</linearGradient>
<clipPath id="clip0_827_7486">
<rect width="420" height="220" fill="white"/>
</clipPath>
</defs>
</svg>
