<svg width="420" height="220" viewBox="0 0 420 220" fill="none" xmlns="http://www.w3.org/2000/svg">
<g clip-path="url(#clip0_828_7548)">
<rect width="420" height="220" fill="#033860"/>
<foreignObject x="160" y="60" width="100" height="100"><div xmlns="http://www.w3.org/1999/xhtml" style="backdrop-filter:blur(5px);clip-path:url(#bgblur_1_828_7548_clip_path);height:100%;width:100%"></div></foreignObject><g data-figma-bg-blur-radius="10">
<rect x="170" y="70" width="80" height="80" rx="8" fill="white" fill-opacity="0.1"/>
<path d="M229.75 113.75H190.25C186.5 113.75 185 115.35 185 119.325V129.425C185 133.4 186.5 135 190.25 135H229.75C233.5 135 235 133.4 235 129.425V119.325C235 115.35 233.5 113.75 229.75 113.75Z" fill="white"/>
<path d="M212.25 85H190.25C186.5 85 185 86.6 185 90.575V100.675C185 104.65 186.5 106.25 190.25 106.25H212.25C216 106.25 217.5 104.65 217.5 100.675V90.575C217.5 86.6 216 85 212.25 85Z" fill="white"/>
</g>
<line opacity="0.3" x1="209.5" y1="70" x2="209.5" y2="-2.18557e-08" stroke="url(#paint0_linear_828_7548)"/>
<line opacity="0.3" x1="210.5" y1="150" x2="210.5" y2="220" stroke="url(#paint1_linear_828_7548)"/>
<line opacity="0.3" x1="250" y1="109.5" x2="420" y2="109.5" stroke="url(#paint2_linear_828_7548)"/>
<line opacity="0.3" x1="170" y1="110.5" x2="-4.37114e-08" y2="110.5" stroke="url(#paint3_linear_828_7548)"/>
</g>
<defs>
<clipPath id="bgblur_1_828_7548_clip_path" transform="translate(-160 -60)"><rect x="170" y="70" width="80" height="80" rx="8"/>
</clipPath><linearGradient id="paint0_linear_828_7548" x1="210.5" y1="70" x2="210.5" y2="2.18557e-08" gradientUnits="userSpaceOnUse">
<stop stop-color="white"/>
<stop offset="1" stop-color="white" stop-opacity="0"/>
</linearGradient>
<linearGradient id="paint1_linear_828_7548" x1="209.5" y1="150" x2="209.5" y2="220" gradientUnits="userSpaceOnUse">
<stop stop-color="white"/>
<stop offset="1" stop-color="white" stop-opacity="0"/>
</linearGradient>
<linearGradient id="paint2_linear_828_7548" x1="250" y1="110.5" x2="420" y2="110.5" gradientUnits="userSpaceOnUse">
<stop stop-color="white"/>
<stop offset="1" stop-color="white" stop-opacity="0"/>
</linearGradient>
<linearGradient id="paint3_linear_828_7548" x1="170" y1="109.5" x2="4.37114e-08" y2="109.5" gradientUnits="userSpaceOnUse">
<stop stop-color="white"/>
<stop offset="1" stop-color="white" stop-opacity="0"/>
</linearGradient>
<clipPath id="clip0_828_7548">
<rect width="420" height="220" fill="white"/>
</clipPath>
</defs>
</svg>
