<svg width="389" height="220" viewBox="0 0 389 220" fill="none" xmlns="http://www.w3.org/2000/svg">
<g clip-path="url(#clip0_917_8933)">
<rect width="389" height="220" fill="#033860"/>
<foreignObject x="145" y="60" width="100" height="100"><div xmlns="http://www.w3.org/1999/xhtml" style="backdrop-filter:blur(5px);clip-path:url(#bgblur_1_917_8933_clip_path);height:100%;width:100%"></div></foreignObject><g data-figma-bg-blur-radius="10">
<rect x="155" y="70" width="80" height="80" rx="8" fill="#1D4C70"/>
<path d="M212.923 96.6008C211.848 91.1758 207.823 88.8008 202.223 88.8008H180.273C173.673 88.8008 169.273 92.1008 169.273 99.8008V112.676C169.273 118.226 171.548 121.476 175.298 122.876C175.848 123.076 176.448 123.251 177.073 123.351C178.073 123.576 179.148 123.676 180.273 123.676H202.248C208.848 123.676 213.248 120.376 213.248 112.676V99.8008C213.248 98.6258 213.148 97.5758 212.923 96.6008ZM178.823 110.001C178.823 111.026 177.973 111.876 176.948 111.876C175.923 111.876 175.073 111.026 175.073 110.001V102.501C175.073 101.476 175.923 100.626 176.948 100.626C177.973 100.626 178.823 101.476 178.823 102.501V110.001ZM191.248 112.851C187.598 112.851 184.648 109.901 184.648 106.251C184.648 102.601 187.598 99.6508 191.248 99.6508C194.898 99.6508 197.848 102.601 197.848 106.251C197.848 109.901 194.898 112.851 191.248 112.851ZM207.398 110.001C207.398 111.026 206.548 111.876 205.523 111.876C204.498 111.876 203.648 111.026 203.648 110.001V102.501C203.648 101.476 204.498 100.626 205.523 100.626C206.548 100.626 207.398 101.476 207.398 102.501V110.001Z" fill="white"/>
<path d="M220.75 107.302V120.177C220.75 127.877 216.35 131.202 209.725 131.202H187.775C185.9 131.202 184.225 130.927 182.775 130.377C181.6 129.952 180.575 129.327 179.75 128.527C179.3 128.102 179.65 127.427 180.275 127.427H202.225C211.475 127.427 216.975 121.927 216.975 112.702V99.8017C216.975 99.2017 217.65 98.8267 218.075 99.2767C219.775 101.077 220.75 103.702 220.75 107.302Z" fill="white"/>
</g>
<line opacity="0.3" x1="235" y1="109.5" x2="389" y2="109.5" stroke="url(#paint0_linear_917_8933)"/>
<line opacity="0.3" x1="155" y1="110.5" y2="110.5" stroke="url(#paint1_linear_917_8933)"/>
<line opacity="0.3" x1="195.5" y1="150" x2="195.5" y2="220" stroke="url(#paint2_linear_917_8933)"/>
<line opacity="0.3" x1="194.5" y1="70" x2="194.5" y2="-5.96243e-09" stroke="url(#paint3_linear_917_8933)"/>
</g>
<defs>
<clipPath id="bgblur_1_917_8933_clip_path" transform="translate(-145 -60)"><rect x="155" y="70" width="80" height="80" rx="8"/>
</clipPath><linearGradient id="paint0_linear_917_8933" x1="235" y1="110.5" x2="389" y2="110.5" gradientUnits="userSpaceOnUse">
<stop stop-color="white"/>
<stop offset="1" stop-color="white" stop-opacity="0"/>
</linearGradient>
<linearGradient id="paint1_linear_917_8933" x1="155" y1="109.5" x2="0" y2="109.5" gradientUnits="userSpaceOnUse">
<stop stop-color="white"/>
<stop offset="1" stop-color="white" stop-opacity="0"/>
</linearGradient>
<linearGradient id="paint2_linear_917_8933" x1="194.5" y1="150" x2="194.5" y2="220" gradientUnits="userSpaceOnUse">
<stop stop-color="white"/>
<stop offset="1" stop-color="white" stop-opacity="0"/>
</linearGradient>
<linearGradient id="paint3_linear_917_8933" x1="195.5" y1="70" x2="195.5" y2="5.96243e-09" gradientUnits="userSpaceOnUse">
<stop stop-color="white"/>
<stop offset="1" stop-color="white" stop-opacity="0"/>
</linearGradient>
<clipPath id="clip0_917_8933">
<rect width="389" height="220" fill="white"/>
</clipPath>
</defs>
</svg>
