<svg width="420" height="299" viewBox="0 0 420 299" fill="none" xmlns="http://www.w3.org/2000/svg">
<g clip-path="url(#clip0_628_13726)">
<rect width="420" height="299" rx="8" fill="#033860"/>
<foreignObject x="150" y="90" width="120" height="120"><div xmlns="http://www.w3.org/1999/xhtml" style="backdrop-filter:blur(5px);clip-path:url(#bgblur_1_628_13726_clip_path);height:100%;width:100%"></div></foreignObject><g data-figma-bg-blur-radius="10">
<rect x="160" y="100" width="100" height="100" rx="8" fill="white" fill-opacity="0.1"/>
<path d="M235.967 124.066C226.1 114.233 210.1 114.233 200.3 124.066C193.4 130.9 191.333 140.733 194 149.4L178.333 165.066C177.233 166.2 176.467 168.433 176.7 170.033L177.7 177.3C178.067 179.7 180.3 181.966 182.7 182.3L189.967 183.3C191.567 183.533 193.8 182.8 194.933 181.633L197.667 178.9C198.333 178.266 198.333 177.2 197.667 176.533L191.2 170.066C190.233 169.1 190.233 167.5 191.2 166.533C192.167 165.566 193.767 165.566 194.733 166.533L201.233 173.033C201.867 173.666 202.933 173.666 203.567 173.033L210.633 166C219.267 168.7 229.1 166.6 235.967 159.766C245.8 149.933 245.8 133.9 235.967 124.066ZM218.333 150C213.733 150 210 146.266 210 141.666C210 137.066 213.733 133.333 218.333 133.333C222.933 133.333 226.667 137.066 226.667 141.666C226.667 146.266 222.933 150 218.333 150Z" fill="white"/>
</g>
<line opacity="0.3" x1="160" y1="150.5" x2="-4.37114e-08" y2="150.5" stroke="url(#paint0_linear_628_13726)"/>
<line opacity="0.3" x1="209.5" y1="100" x2="209.5" y2="-5.96243e-09" stroke="url(#paint1_linear_628_13726)"/>
<line opacity="0.3" x1="260" y1="149.5" x2="420" y2="149.5" stroke="url(#paint2_linear_628_13726)"/>
<line opacity="0.3" x1="210.5" y1="200" x2="210.5" y2="299" stroke="url(#paint3_linear_628_13726)"/>
</g>
<defs>
<clipPath id="bgblur_1_628_13726_clip_path" transform="translate(-150 -90)"><rect x="160" y="100" width="100" height="100" rx="8"/>
</clipPath><linearGradient id="paint0_linear_628_13726" x1="160" y1="149.5" x2="4.37114e-08" y2="149.5" gradientUnits="userSpaceOnUse">
<stop stop-color="white"/>
<stop offset="1" stop-color="white" stop-opacity="0"/>
</linearGradient>
<linearGradient id="paint1_linear_628_13726" x1="210.5" y1="100" x2="210.5" y2="5.96243e-09" gradientUnits="userSpaceOnUse">
<stop stop-color="white"/>
<stop offset="1" stop-color="white" stop-opacity="0"/>
</linearGradient>
<linearGradient id="paint2_linear_628_13726" x1="260" y1="150.5" x2="420" y2="150.5" gradientUnits="userSpaceOnUse">
<stop stop-color="white"/>
<stop offset="1" stop-color="white" stop-opacity="0"/>
</linearGradient>
<linearGradient id="paint3_linear_628_13726" x1="209.5" y1="200" x2="209.5" y2="299" gradientUnits="userSpaceOnUse">
<stop stop-color="white"/>
<stop offset="1" stop-color="white" stop-opacity="0"/>
</linearGradient>
<clipPath id="clip0_628_13726">
<rect width="420" height="299" rx="8" fill="white"/>
</clipPath>
</defs>
</svg>
