<svg width="109" height="40" viewBox="0 0 109 40" fill="none" xmlns="http://www.w3.org/2000/svg">
<path d="M0.1079 21.2004C0.0393064 21.262 0 21.3507 0 21.4439V32.3194C0 32.5947 0.315312 32.7448 0.522347 32.568L23.0943 13.2912C23.3014 13.1144 23.6167 13.2644 23.6167 13.5398V21.3856C23.6167 21.6616 23.9334 21.8115 24.1401 21.6332L34.8231 12.4238C34.8448 12.4051 34.8573 12.3777 34.8573 12.3488V0.32433C34.8573 0.145211 34.7149 6.15337e-06 34.5392 6.05391e-06L23.8461 0C23.7687 -4.38105e-08 23.694 0.0287603 23.6359 0.0808961L0.1079 21.2004Z" fill="#0091EC"/>
<path d="M14.1965 24.1127C14.1208 24.1127 14.0475 24.1402 13.9899 24.1904L4.51582 32.4432C4.29109 32.6389 4.42686 33.0141 4.72244 33.0141H23.2986C23.4742 33.0141 23.6167 33.1593 23.6167 33.3384V39.6757C23.6167 39.8548 23.7591 40 23.9348 40H34.7663C34.942 40 35.0844 39.8548 35.0844 39.6757V33.1614C35.0844 33.0678 35.124 32.9787 35.1932 32.9172L44.4379 24.6812C44.6591 24.4841 44.5224 24.1127 44.2286 24.1127H14.1965Z" fill="#0091EC"/>
<path d="M50.0493 24.1127C49.8737 24.1127 49.7312 23.9675 49.7312 23.7884V21.7328C49.7312 21.5537 49.8737 21.4085 50.0493 21.4085H59.2913C59.467 21.4085 59.6094 21.5537 59.6094 21.7328V23.7884C59.6094 23.9675 59.467 24.1127 59.2913 24.1127H50.0493Z" fill="#0091EC"/>
<path d="M74.2562 0.68813C74.2562 0.413887 73.9432 0.263431 73.7357 0.437979L63.9646 8.65901C63.867 8.74116 63.8104 8.86348 63.8104 8.99255V39.9803C63.8104 39.9912 63.819 40 63.8297 40H74.237C74.2476 40 74.2562 39.9912 74.2562 39.9803V0.68813Z" fill="#0091EC"/>
<path d="M86.9766 6.234e-06C86.9009 6.234e-06 86.8277 0.0275113 86.7702 0.0775825L77.4108 8.21766C77.1858 8.41332 77.3215 8.78874 77.6172 8.78874H108.981C108.991 8.78874 109 8.77994 109 8.76909V0.0196526C109 0.00880221 108.991 6.234e-06 108.981 6.234e-06H86.9766Z" fill="#0091EC"/>
<path d="M97.7594 10.8395C97.7594 10.5635 97.4427 10.4136 97.236 10.5918L87.5399 18.9451C87.4683 19.0067 87.4271 19.0973 87.4271 19.1928V39.9803C87.4271 39.9912 87.4357 40 87.4463 40H97.7401C97.7507 40 97.7594 39.9912 97.7594 39.9803V10.8395Z" fill="#0091EC"/>
</svg>
