<svg width="1218" height="216" viewBox="0 0 1218 216" fill="none" xmlns="http://www.w3.org/2000/svg">
<path d="M383.672 25.6145C443.152 25.6145 457.66 67.3836 457.66 99.7165C457.66 128.858 445.264 172.542 383.672 172.542H302.985V25.6145H383.672ZM359.296 135.796H370.664C383.255 135.796 398.403 132.022 398.403 98.8839C398.403 64.858 384.311 60.2509 370.664 60.2509H359.296V135.796ZM519.086 62.5545V87.5327H519.919C524.116 73.6837 535.484 60.0567 553.134 60.0567C555.857 60.0567 558.998 60.473 561.75 61.0836V105.156C558.19 104.161 554.522 103.602 550.827 103.491C535.039 103.491 522.449 113.566 522.449 132.632V172.514H469.473V62.5545H519.086ZM561.75 132.133H607.555V172.653H561.75V132.133ZM670.62 119.644H671.454L694.801 26.0586H748.805L771.513 119.644H772.347L790.218 26.0586H840.443L805.144 172.514H744.608L720.233 76.8476H719.399L696.274 172.514H634.487L600.217 26.0586H652.97L670.62 119.644ZM977.524 25.6145V60.2509H905.481V81.4547H974.411V115.036H905.481V137.905H979.025V172.542H849.17V25.6145H977.524ZM1080.36 25.6145C1126.36 25.6145 1134.78 50.2042 1134.78 63.8312C1134.78 80.5943 1123.22 94.249 1104.93 97.6072V98.4398C1119.64 100.549 1138.15 110.207 1138.15 133.271C1138.15 170.433 1096.09 172.542 1077.39 172.542H991.866V25.6145H1080.36ZM1045.26 83.7582H1058.49C1077.81 83.7582 1079.7 73.6837 1079.7 69.4929C1079.7 63.3871 1075.3 55.4218 1059.77 55.4218H1045.26V83.7582ZM1045.26 142.707H1059.52C1077.61 142.707 1080.56 132.854 1080.56 127.609C1080.56 112.705 1063.1 112.705 1058.27 112.705H1045.26V142.707ZM1145.57 62.1104C1145.57 42.0446 1161.77 25.9476 1181.78 25.9476C1201.8 25.9476 1218 42.0446 1218 62.1104C1218 82.1763 1201.8 98.2733 1181.78 98.2733C1161.77 98.2733 1145.57 82.1763 1145.57 62.1104ZM1181.78 86.6168C1194.49 86.6168 1205.02 75.5154 1205.02 62.1104C1205.02 48.7332 1194.49 37.6318 1181.78 37.6318C1169.05 37.6318 1158.55 48.7332 1158.55 62.1104C1158.55 75.5154 1169.05 86.6168 1181.78 86.6168ZM1185.12 45.9301C1189.57 45.9301 1196.93 46.4297 1196.93 54.2562C1197.05 56.1613 1196.44 58.0399 1195.23 59.5166C1194.02 60.9933 1192.29 61.9593 1190.4 62.2215V62.499C1193.18 62.721 1195.24 65.1078 1195.9 68.0219L1197.9 77.0974H1186.04L1185.01 69.3264C1184.62 66.7175 1182.7 66.218 1181.39 66.218H1178.73V77.0974H1167.47V45.9301H1185.12ZM1178.28 59.5294H1181.01C1182.26 59.5294 1185.68 59.5294 1185.68 56.1157C1185.68 52.924 1182.53 52.924 1181.31 52.924H1178.28V59.5294ZM139.972 43.9041L183.22 68.0219C184.303 65.0895 184.858 61.9888 184.86 58.8633C184.86 39.9353 164.848 24.5876 140.194 24.5876C115.485 24.5876 95.5011 39.9353 95.5011 58.891C95.5011 61.9717 96.0569 64.9968 97.0297 67.8277L139.972 43.9041ZM215.1 113.732L249.704 134.547L184.86 213.09L215.1 113.732ZM216.906 93.694L213.015 76.459L279.694 96.0808L238.364 118.173L244.034 100.216L216.906 93.694ZM209.152 65.3021L200.341 53.146L259.459 34.2736L244.728 80.7331L238.669 59.3628L209.152 65.3021ZM192.892 43.7098L180.468 30.6379L196.756 13.9858L178.939 2.91211H226.19L192.892 43.7098ZM64.5939 113.732L29.99 134.547L94.834 213.09L64.5939 113.732ZM62.7594 93.694L66.6506 76.459L0 96.0808L41.3579 118.173L35.66 100.216L62.7594 93.694ZM70.5418 65.3021L79.3526 53.146L20.2342 34.2736L34.9652 80.7331L41.0243 59.3628L70.5418 65.3021ZM86.8293 43.7098L99.2255 30.6379L82.9381 13.9858L100.782 2.91211H53.4761L86.8293 43.7098Z" fill="#73B419"/>
<path d="M122.934 92.4452L130.938 68.7992H149.31L157.76 92.4452H158.038L162.957 70.6587L139.86 57.5312L116.847 70.5754L122.656 92.4452H122.934Z" fill="#73B419"/>
<path d="M202.481 93.1673L178.384 79.457L169.684 105.767H148.171L140 81.6218H139.722L131.55 105.767H109.926L101.227 79.457L77.1293 93.1673C77.1293 93.1673 68.3463 124.196 101.866 149.701C113.595 158.638 122.351 164.438 130.216 167.13L128.771 162.69H150.895L149.394 167.186C157.26 164.577 165.988 158.749 177.661 149.701C210.903 123.946 202.481 93.1673 202.481 93.1673ZM153.397 155.113H126.27L123.323 146.26H156.315L153.397 155.113ZM158.817 138.683H120.85L117.903 129.802H161.763L158.817 138.683ZM164.264 122.253H115.374L112.428 113.372H167.183L164.264 122.253Z" fill="#73B419"/>
</svg>
