<svg width="924" height="202" viewBox="0 0 924 202" fill="none" xmlns="http://www.w3.org/2000/svg">
<g clip-path="url(#clip0_890_19899)">
<path d="M339.576 66.7295H318.354V168.05H339.576V126.974H386.129V168.05H406.667V66.7295H386.129V107.805H339.576V66.7295ZM502.511 124.92C502.511 141.351 494.295 150.251 479.234 150.251C464.173 150.251 455.958 141.351 455.958 124.236V66.7295H435.42V124.92C435.42 153.674 451.166 170.104 479.234 170.104C507.303 170.104 523.049 153.674 523.049 124.236V66.7295H502.511V124.92ZM701.044 66.7295L677.768 136.559L655.176 66.7295H633.269L668.868 168.05H685.983L709.26 101.644L731.851 168.05H749.651L784.565 66.7295H763.343L740.751 136.559L717.475 66.7295H701.044ZM859.187 105.752H821.534V85.2137H876.302V66.7295H800.996V168.05H878.355V149.566H821.534V124.236H859.187V105.752ZM903.001 66.7295H923.539V168.05H903.001V66.7295ZM609.993 146.828L618.892 168.05H640.8L596.301 66.7295L595.616 66.0449H577.817L533.318 168.05H554.54L563.44 148.197L564.125 146.828H609.993ZM586.716 92.0597L601.093 126.29L601.777 128.343H570.286L570.971 126.29L586.716 92.0597Z" fill="#262729"/>
<path d="M115.712 157.781C115.712 157.781 116.397 157.096 115.712 157.096C84.2206 88.6365 41.0909 35.9224 41.0909 35.9224C41.0909 35.9224 17.8145 57.8296 19.1837 80.4213C19.8683 97.5363 32.8757 107.121 32.8757 107.121C53.4137 126.974 102.705 152.304 114.343 157.781H115.712ZM107.497 174.896C107.497 174.211 106.128 174.211 106.128 174.211L23.9759 176.95C32.8757 192.696 47.9369 205.018 63.6826 201.595C74.6362 198.857 99.2818 181.742 106.812 176.265C108.182 174.896 107.497 174.896 107.497 174.896ZM108.866 167.365C109.551 166.681 108.866 165.996 108.866 165.996C72.5824 141.351 2.75334 104.382 2.75334 104.382C-3.40805 124.236 4.80714 139.981 4.80714 139.981C13.7069 159.15 30.8219 164.627 30.8219 164.627C38.3525 168.05 46.5677 168.05 46.5677 168.05H108.182C108.866 168.05 108.866 167.365 108.866 167.365ZM114.343 0.323271C110.92 0.323271 101.336 3.06167 101.336 3.06167C79.4284 8.53846 74.6362 28.3918 74.6362 28.3918C70.5286 40.7146 74.6362 54.4066 74.6362 54.4066C82.1668 86.5827 117.766 139.981 125.297 150.935L125.981 151.62C126.666 151.62 126.666 150.935 126.666 150.935C138.989 31.1302 114.343 0.323271 114.343 0.323271ZM141.727 150.935C142.412 150.935 143.096 150.25 143.096 150.25C151.311 138.612 186.226 85.8981 193.756 53.722C193.756 53.722 197.864 37.9762 193.756 27.7072C193.756 27.7072 188.28 7.85386 166.372 2.37707C166.372 2.37707 160.211 1.00787 153.365 -0.361328C153.365 -0.361328 128.72 31.1302 141.042 149.566C141.042 150.935 141.727 150.935 141.727 150.935ZM160.896 174.211C160.896 174.211 160.211 174.211 160.211 174.896V176.265C168.426 181.742 191.703 198.857 203.341 201.595C203.341 201.595 224.563 209.126 243.048 176.95L160.896 174.211ZM265.639 103.698C265.639 103.698 195.81 141.351 159.527 165.996C159.527 165.996 158.842 166.681 158.842 167.365C158.842 167.365 158.842 168.05 159.527 168.05H222.51C222.51 168.05 228.671 168.05 236.886 164.627C236.886 164.627 254.001 159.15 263.586 139.297C263.586 138.612 271.801 122.866 265.639 103.698ZM152.681 157.781C152.681 157.781 153.365 158.466 154.05 157.781C165.688 151.62 214.979 126.974 235.517 107.121C235.517 107.121 248.524 96.8517 249.209 80.4213C250.578 57.145 227.302 35.9224 227.302 35.9224C227.302 35.9224 184.172 87.2673 152.681 156.412C152.681 156.412 151.996 157.096 152.681 157.781Z" fill="#CF0A2C"/>
</g>
<defs>
<clipPath id="clip0_890_19899">
<rect width="924" height="202" fill="white"/>
</clipPath>
</defs>
</svg>
