<svg width="486" height="80" viewBox="0 0 486 80" fill="none" xmlns="http://www.w3.org/2000/svg">
<g clip-path="url(#clip0_209_2075)">
<path d="M94.6556 40.3965C91.6699 47.9093 86.5232 54.2004 79.5831 58.702C68.8377 65.693 55.6006 66.0398 51.7969 66.0016V73.998H52.5064C58.0517 73.998 72.1635 73.1518 84.1969 65.3288C93.4374 59.3224 100.24 50.7057 103.595 40.3965H94.6523H94.6556Z" fill="#027D32"/>
<path d="M8.95994 33.6048C11.9456 26.092 17.0907 19.8009 24.0308 15.2992C34.7779 8.3098 48.0149 7.95988 51.8186 8.00124V0.00488281H51.1091C45.5638 0.00488281 31.4504 0.851143 19.4186 8.6741C10.1652 14.6821 3.36121 23.2972 0.0078125 33.6064H8.96641L8.95994 33.6048Z" fill="#027D32"/>
<path d="M51.8092 20.7197C42.6529 20.7197 35.2188 28.0178 35.2188 37.0099C35.2188 46.002 42.6529 53.3 51.8092 53.3C60.967 53.3 68.3996 46.002 68.3996 37.0099C68.3996 28.0178 60.98 20.7213 51.8108 20.7213L51.8092 20.7197ZM47.1436 37.2787C44.5694 37.2787 42.4893 35.2362 42.4893 32.7087C42.4893 30.1811 44.5694 28.1387 47.1436 28.1387C49.7161 28.1387 51.7978 30.1811 51.7978 32.7087C51.814 35.2378 49.7242 37.2739 47.1484 37.2739L47.1436 37.2787Z" fill="#027D32"/>
<path d="M116.703 79.48V40.4209H125.176V79.48H116.703Z" fill="black"/>
<path d="M161.026 79.48L142.055 54.0085V79.48H133.582V40.4209H142.288L160.712 64.9635V40.4209H169.185V79.48H161.036H161.026Z" fill="black"/>
<path d="M177.52 79.48V40.4209H205.678V47.7443H185.994V55.9968H204.541V63.3219H185.994V79.4911H177.521L177.52 79.48Z" fill="black"/>
<path d="M210.715 59.8029C210.715 48.0286 219.489 39.5996 231.467 39.5996C243.513 39.5996 252.289 48.0271 252.289 59.8029C252.289 71.5755 243.513 80.0028 231.467 80.0028C219.479 80.0028 210.715 71.5723 210.715 59.8013V59.8029ZM243.568 59.8029C243.568 52.4762 238.793 46.9788 231.467 46.9788C224.13 46.9788 219.421 52.4889 219.421 59.8029C219.421 67.0595 224.128 72.6253 231.467 72.6253C238.806 72.6253 243.568 67.0723 243.568 59.8029Z" fill="black"/>
<path d="M359.347 79.4794V47.7454H347.711V40.4219H379.442V47.7454H367.873V79.4937H359.346V79.4778L359.347 79.4794Z" fill="black"/>
<path d="M382.352 59.8029C382.352 47.798 391.59 39.5996 403.527 39.5996C412.301 39.5996 417.365 44.2905 420.17 49.1421L412.889 52.6512C411.22 49.4921 407.646 46.9661 403.527 46.9661C396.313 46.9661 391.056 52.4094 391.056 59.7885C391.056 67.1693 396.298 72.6126 403.527 72.6126C407.646 72.6126 411.22 70.1534 412.889 66.9275L420.17 70.3825C417.31 75.2483 412.301 79.9917 403.527 79.9917C391.603 79.9917 382.353 71.7838 382.353 59.7901L382.352 59.8029Z" fill="black"/>
<path d="M452.678 79.48V63.0817H433.883V79.48H425.41V40.4209H433.883V55.7693H452.678V40.4209H461.207V79.48H452.67H452.678Z" fill="black"/>
<path d="M340.963 79.48L338.693 72.8675H321.706L319.528 79.48H310.52L324.306 40.4209H336.31L350.12 79.48H340.967H340.963ZM330.19 47.062L324.098 65.5711H336.266L330.191 47.0556L330.19 47.062Z" fill="black"/>
<path d="M304.124 40.4287L295.571 67.343L288.054 40.4287H283.858H279.679L272.162 67.343L263.608 40.4287H254.066L267.869 79.4799H276.876L283.858 52.677V52.7406L283.874 52.677L290.857 79.4799H299.864L313.666 40.4287H304.124Z" fill="black"/>
<path d="M475.808 20.5614C470.182 20.5614 465.625 25.036 465.625 30.562C465.625 36.0864 470.182 40.5626 475.808 40.5626C481.435 40.5626 485.992 36.0864 485.992 30.562C485.992 25.0423 481.439 20.5566 475.802 20.5566L475.808 20.5614ZM475.808 38.5679C471.305 38.5679 467.665 34.9793 467.665 30.5699C467.665 26.1606 471.319 22.5736 475.808 22.5736C480.31 22.5736 483.952 26.1622 483.952 30.5699C483.952 34.9777 480.307 38.571 475.803 38.571L475.808 38.5679Z" fill="black"/>
<path d="M477.608 35.1478L475.719 31.801H474.227V35.1478H472.188V25.7119H476.677C478.674 25.7119 479.907 27.0036 479.907 28.7501C479.907 30.4171 478.839 31.3031 477.798 31.5449L479.96 35.1335H477.606L477.608 35.1478ZM477.819 28.7533C477.819 27.9595 477.203 27.476 476.382 27.476H474.232V30.0163H476.382C477.192 30.0163 477.823 29.5391 477.823 28.7438L477.819 28.7533Z" fill="black"/>
</g>
<defs>
<clipPath id="clip0_209_2075">
<rect width="486" height="80" fill="white"/>
</clipPath>
</defs>
</svg>
