<svg width="494" height="80" viewBox="0 0 494 80" fill="none" xmlns="http://www.w3.org/2000/svg">
<path d="M42.4642 0.00683594L26.4697 58.9172H49.3224L44.6251 75.894H0L20.551 0.00683594H42.4642Z" fill="#4BC1F0"/>
<path d="M76.2131 75.8919H56.6016L72.5726 16.9818H92.2076L76.2131 75.8919ZM97.6097 0.00488281C96.8626 1.77715 95.9423 3.47358 94.8616 5.07018C93.7844 6.66681 92.5494 8.15438 91.174 9.51101C90.0448 10.7298 88.7293 11.7677 87.2752 12.5872C86.0817 13.24 84.7418 13.5898 83.3764 13.6049C82.2036 13.6292 81.0502 13.307 80.0648 12.6797C79.0271 11.9566 78.2141 10.9636 77.7163 9.8117C77.0093 8.43641 76.556 6.94847 76.3775 5.41712C76.15 3.62087 76.134 1.80471 76.3305 0.00488281H97.6097Z" fill="#4BC1F0"/>
<path d="M112.268 61.1597H114.429C114.883 61.192 115.338 61.192 115.792 61.1597L117.248 60.9051C117.742 60.7791 118.228 60.6249 118.704 60.4426C120.075 60.0754 121.381 59.506 122.579 58.7543C123.963 57.8966 125.267 56.9214 126.478 55.84C127.915 54.5206 129.093 52.9526 129.954 51.214C131.049 49.1151 131.907 46.9049 132.514 44.6223C133.023 42.8986 133.315 41.1197 133.383 39.3257C133.461 38.0591 133.269 36.7906 132.819 35.6017C132.379 34.7249 131.835 33.9017 131.199 33.15C130.653 32.5109 130.011 31.9571 129.296 31.508L128.874 31.2997C128.735 31.2671 128.59 31.2671 128.451 31.2997C128.189 31.1694 127.913 31.0686 127.629 30.9991L126.83 30.7909C126.459 30.6589 126.072 30.5734 125.679 30.5366L124.74 30.3746L128.686 15.6412C133.786 15.4223 138.885 16.1038 143.741 17.6535C147.116 18.6865 149.948 20.9773 151.632 24.0372C153.105 26.9751 153.952 30.1786 154.122 33.4509C154.295 37.1697 153.875 40.8926 152.877 44.4834C151.764 48.914 150.016 53.1663 147.686 57.112C145.739 60.4111 143.163 63.3091 140.1 65.6466C137.421 67.6834 134.55 69.4649 131.528 70.9663C127.311 73.118 122.751 74.5417 118.046 75.176C116.519 75.384 114.993 75.546 113.466 75.6849L109.379 75.8234H105.88H88.6875L109.238 0.00585938H128.874L112.268 61.1597Z" fill="#4BC1F0"/>
<path d="M173.522 75.8926H153.887L169.881 16.9823H189.516L173.522 75.8926ZM193.462 16.9823H194.073H194.449C194.543 16.9422 194.63 16.8875 194.707 16.8203H195.341C195.575 16.8499 195.812 16.8499 196.046 16.8203H197.925C198.135 16.8532 198.349 16.8532 198.559 16.8203H199.991C202.438 16.7515 204.876 17.136 207.179 17.9537C208.938 18.5654 210.458 19.7062 211.524 21.2149C212.562 22.6175 213.356 24.1809 213.872 25.8407C214.32 27.4837 214.518 29.1829 214.46 30.8829C214.46 31.2991 214.319 31.6926 214.295 32.0626C214.267 32.4283 214.212 32.7917 214.131 33.1497C214.059 33.3437 214.012 33.5457 213.99 33.7509C213.97 33.92 213.97 34.0909 213.99 34.2597C213.892 34.3991 213.805 34.5463 213.731 34.6991C213.731 34.8611 213.731 35.0463 213.567 35.2543C213.424 35.8254 213.252 36.3889 213.05 36.9429C212.839 37.5211 212.604 38.1223 212.322 38.7237C212.04 39.3251 212.04 39.302 211.923 39.6026C211.79 39.8789 211.68 40.1651 211.594 40.4586L211.195 41.3837C211.054 41.6611 210.913 41.9617 210.772 42.3089L210.138 43.3266C209.95 43.6734 209.739 44.0203 209.527 44.3443L208.893 45.3849C208.682 45.7089 208.494 46.0557 208.283 46.4026H190.972C190.951 46.3349 190.951 46.2623 190.972 46.1946C191.012 46.1149 191.068 46.044 191.137 45.9863C191.137 45.9863 191.137 45.8706 191.137 45.8474C191.151 45.7946 191.151 45.7389 191.137 45.6857C191.138 45.5317 191.196 45.3834 191.301 45.2694C191.396 45.1437 191.482 45.0123 191.56 44.876C191.701 44.5986 191.818 44.298 191.959 43.9971L192.382 43.0257L192.805 42.008C192.946 41.6611 193.086 41.2911 193.227 40.8749C193.206 40.8071 193.206 40.7343 193.227 40.6666C193.258 40.5874 193.306 40.5163 193.368 40.4586C193.435 40.408 193.491 40.3451 193.533 40.2734C193.544 40.2046 193.544 40.1343 193.533 40.0651C193.521 39.9266 193.521 39.7874 193.533 39.6489C193.577 39.5063 193.632 39.3674 193.697 39.2326C193.948 38.3489 194.106 37.442 194.167 36.5266C194.208 35.8897 194.153 35.2506 194.002 34.63C193.835 34.1751 193.631 33.7343 193.392 33.3114C193.287 32.9609 193.093 32.6426 192.828 32.3863C192.633 32.2494 192.429 32.126 192.217 32.0163L191.583 31.7617H191.325C191.209 31.7877 191.089 31.7877 190.972 31.7617H189.422L193.462 16.9823Z" fill="#4BC1F0"/>
<path d="M230.43 16.8895L235.574 16.3113C237.14 16.1571 238.643 16.0415 240.084 15.9644C241.469 15.8256 242.808 15.7331 244.076 15.71H247.881H249.22H252.132C253.209 15.74 254.283 15.8249 255.35 15.9644L257.018 16.1725C257.572 16.2391 258.121 16.3395 258.662 16.4732L260.329 16.8895L261.997 17.2827C264.158 17.9563 266.208 18.9382 268.08 20.197C269.983 21.5388 271.65 23.1798 273.012 25.0542C274.513 27.3026 275.327 29.9273 275.361 32.6176C275.452 36.3576 274.945 40.0884 273.858 43.6733L265.144 75.8921H231.37H229.233L226.485 75.7536C225.435 75.683 224.392 75.5438 223.361 75.3373C222.328 75.129 221.318 74.8976 220.355 74.6201C218.872 74.175 217.469 73.5038 216.197 72.631C214.91 71.711 213.756 70.6216 212.768 69.393C211.742 68.0147 211.168 66.3601 211.124 64.6516C211.016 62.3098 211.294 59.9667 211.946 57.7127C211.946 57.5044 212.087 57.2964 212.158 57.0418C212.228 56.7876 212.299 56.5561 212.369 56.2787C212.435 56.033 212.521 55.7933 212.628 55.5616C212.729 55.2856 212.847 55.0153 212.98 54.7521C213.871 52.6553 215.082 50.7053 216.573 48.9698C218.271 46.9653 220.203 45.1641 222.328 43.6038C224.753 41.7944 227.525 40.4884 230.477 39.7644C234.092 38.8653 237.812 38.4376 241.54 38.4921H249.643C249.916 39.2858 250.089 40.109 250.16 40.9438C250.251 41.7124 250.251 42.4884 250.16 43.257C250.08 43.5213 250.025 43.7924 249.995 44.0664C249.959 44.3093 249.904 44.549 249.831 44.7833C249.775 45.2967 249.689 45.8064 249.572 46.3098C249.48 46.7936 249.362 47.2721 249.22 47.7438C249.197 47.8116 249.197 47.8847 249.22 47.9521V48.2527C249.193 48.3196 249.193 48.3941 249.22 48.461L248.586 50.7738H241.916C241.784 50.8036 241.648 50.8036 241.516 50.7738H240.248C240.112 50.8504 239.958 50.8901 239.802 50.8896H239.332C239.176 50.8678 239.018 50.8678 238.862 50.8896C238.662 50.925 238.465 50.9793 238.275 51.0516C237.806 51.1901 237.289 51.3521 236.772 51.5604C236.28 51.7381 235.814 51.9793 235.386 52.2773C234.711 52.5907 234.135 53.0781 233.719 53.6881C233.255 54.4018 232.906 55.1821 232.685 56.001C232.485 56.6604 232.429 57.3541 232.521 58.0364C232.616 58.6367 232.934 59.1807 233.413 59.563C233.863 60.0744 234.462 60.4378 235.128 60.6038C235.955 60.8201 236.809 60.9216 237.665 60.9044H249.408L253.142 47.3044C253.283 46.8881 253.401 46.4256 253.518 45.9167C253.636 45.4078 253.706 44.899 253.777 44.4364C253.847 43.9738 254.035 43.3493 254.129 42.7944C254.223 42.2393 254.317 41.7073 254.387 41.1521C254.535 39.8341 254.432 38.5007 254.082 37.2201C253.731 35.957 253.167 34.7607 252.414 33.6813C251.394 32.4033 249.974 31.4924 248.375 31.091C245.974 30.441 243.489 30.145 241 30.2118H239.567C239.341 30.247 239.111 30.247 238.886 30.2118H236.96C236.773 30.2436 236.583 30.2436 236.396 30.2118H235.832L233.695 30.4664L231.347 30.8133C230.555 30.8984 229.77 31.0376 228.998 31.2296L226.25 31.8541L230.43 16.8895Z" fill="#4BC1F0"/>
<path d="M344.645 16.9819H321.91C321.826 17.0141 321.733 17.0141 321.651 16.9819H320.57C320.448 17.0089 320.317 17.0089 320.195 16.9819H319.844C319.344 17.0558 318.853 17.1878 318.385 17.3751C317.868 17.5943 317.38 17.8739 316.929 18.2078C316.447 18.4774 316.034 18.8583 315.732 19.318C315.389 19.8968 315.127 20.5195 314.956 21.1683C314.956 21.4459 314.956 21.7003 314.793 21.9316C314.756 22.1537 314.756 22.3802 314.793 22.6023C314.744 22.8391 314.744 23.0826 314.793 23.3193L315.005 23.9207C315.18 24.4735 315.441 24.9962 315.778 25.4704C316.208 26.0436 316.679 26.5848 317.188 27.0894C317.751 27.6445 318.411 28.269 319.207 28.986C320.006 29.7031 320.922 30.4663 321.956 31.2989C322.45 31.692 322.918 32.1086 323.366 32.5249C323.813 32.9411 324.258 33.3343 324.656 33.7506C324.868 33.9549 325.095 34.1406 325.339 34.3057C325.58 34.48 325.81 34.6734 326.019 34.884C326.359 35.1389 326.675 35.4254 326.96 35.7397C327.242 36.0611 327.559 36.3554 327.899 36.6186L328.768 37.4283L329.66 38.2377C330.784 39.4617 331.79 40.7857 332.667 42.1929C333.475 43.4709 334.167 44.8177 334.733 46.2174C335.245 47.7534 335.474 49.3666 335.413 50.982C335.358 52.9003 335.059 54.804 334.521 56.6486C333.923 59.1911 332.891 61.6154 331.467 63.8186C330.212 65.7752 328.622 67.504 326.771 68.9303C324.996 70.17 323.119 71.2609 321.157 72.1914C319.332 73.0706 317.42 73.7603 315.45 74.25C314.137 74.5969 312.89 74.8514 311.716 75.0594C310.583 75.2623 309.438 75.4014 308.287 75.4757L305.279 75.6146H302.932H274.043L278.6 58.6377H302.978C304.114 58.6517 305.25 58.5432 306.36 58.314C307.154 58.1914 307.889 57.8369 308.476 57.2963C309.016 56.92 309.493 56.4591 309.885 55.9317C310.24 55.4514 310.504 54.9103 310.658 54.3357C310.792 54.028 310.865 53.6983 310.87 53.3643V52.4854C310.882 52.3546 310.882 52.2231 310.87 52.092C310.844 51.9234 310.844 51.752 310.87 51.5831C310.795 51.4531 310.74 51.3129 310.705 51.1669C310.661 51.0246 310.606 50.8854 310.542 50.7506L309.627 49.4786C309.272 49.0391 308.897 48.5766 308.476 48.0909L306.854 46.5643C306.267 46.0091 305.634 45.4077 304.951 44.714L303.074 42.9329C302.437 42.3549 301.851 41.7997 301.31 41.2446C300.642 40.7297 300.014 40.1651 299.433 39.556C298.892 38.9777 298.329 38.4229 297.765 37.8677C296.507 36.556 295.344 35.1569 294.289 33.6811C293.31 32.2777 292.433 30.8094 291.66 29.2866C290.948 27.656 290.573 25.9031 290.554 24.1289C290.509 22.1339 290.738 20.1422 291.235 18.2078C291.892 15.8424 292.938 13.5997 294.336 11.5697C295.876 9.3296 297.753 7.33309 299.904 5.6486C302.35 3.6362 305.224 2.18282 308.31 1.39281C312.143 0.412303 316.095 -0.0544909 320.053 0.00505464H349.248L344.645 16.9819Z" fill="#4BC1F0"/>
<path d="M355.099 75.1066C351.79 73.9338 348.86 71.9043 346.62 69.2317C344.307 66.4877 342.898 63.1155 342.581 59.5637C342.221 55.1409 342.674 50.6903 343.92 46.4263C345.112 41.7906 347.044 37.3715 349.651 33.3352C352.13 29.5409 355.317 26.2446 359.046 23.6208C362.605 21.0207 366.572 19.0055 370.788 17.6535C375.051 16.2951 379.506 15.6158 383.987 15.6412C388.072 15.5601 392.138 16.2429 395.965 17.6535C399.292 18.8957 402.242 20.949 404.54 23.6208C406.807 26.411 408.216 29.7817 408.602 33.3352C409.021 37.7386 408.588 42.18 407.333 46.4263C406.164 51.096 404.203 55.5377 401.532 59.5637C399.004 63.306 395.822 66.5792 392.138 69.2317C388.578 71.8137 384.612 73.7989 380.395 75.1066C376.155 76.386 371.744 77.0255 367.313 77.0032V77.2112C363.152 77.1806 359.022 76.4692 355.099 75.1066ZM371.704 62.4549H372.267C372.479 62.4777 372.692 62.4777 372.901 62.4549C373.119 62.4309 373.331 62.3843 373.537 62.316C374.81 62.0737 376.033 61.62 377.152 60.9746C378.495 60.2277 379.747 59.3355 380.886 58.3146C382.237 56.9432 383.377 55.3849 384.269 53.6889C385.463 51.4112 386.384 49.0052 387.018 46.5189C387.715 44.1946 388.119 41.7937 388.215 39.3717C388.357 37.7677 388.014 36.1583 387.23 34.746C386.695 33.6869 385.954 32.7432 385.045 31.9706C384.213 31.2946 383.217 30.8406 382.156 30.652H381.874C381.758 30.678 381.639 30.678 381.523 30.652H380.63C380.546 30.6823 380.453 30.6823 380.372 30.652H379.971H379.198C378.861 30.676 378.524 30.676 378.187 30.652C378.102 30.6352 378.012 30.6352 377.928 30.652H377.576L376.684 30.9066L375.696 31.1609L375.228 31.3692L374.781 31.5772C372.517 32.618 370.527 34.1526 368.958 36.0643C367.909 37.3346 367.045 38.744 366.397 40.2509C365.508 42.244 364.802 44.3106 364.282 46.4263C363.648 48.4057 363.224 50.444 363.015 52.5092C362.864 53.9666 362.974 55.4383 363.343 56.8575C363.646 57.8703 364.122 58.8249 364.753 59.6795C365.258 60.4115 365.956 60.9949 366.772 61.3677C367.092 61.6292 367.458 61.8329 367.853 61.9692C368.24 62.1149 368.641 62.2235 369.051 62.2929C369.463 62.362 369.879 62.4083 370.294 62.4317C370.64 62.4517 370.983 62.4517 371.329 62.4317L371.704 62.4549Z" fill="#4BC1F0"/>
<path d="M421.285 33.8433H415.485L419.431 19.1331H425.231C425.443 18.578 425.679 18.046 425.914 17.5372L426.687 15.8487C426.969 15.2474 427.277 14.6229 427.629 14.0215C427.992 13.3737 428.41 12.755 428.872 12.1712C429.947 10.5599 431.217 9.08403 432.653 7.77663C434.269 6.32957 435.989 4.99997 437.799 3.7984C439.897 2.50198 442.199 1.54906 444.608 0.97662C447.452 0.298611 450.373 -0.0277122 453.299 0.00519069H460.157L456.307 14.3222H453.299C452.218 14.3032 451.14 14.404 450.082 14.6229C449.263 14.7901 448.472 15.0704 447.731 15.4555C447.176 15.7454 446.668 16.1201 446.229 16.5657C445.883 16.9385 445.584 17.3499 445.337 17.7916C445.276 17.8495 445.227 17.9207 445.198 17.9997C445.198 17.9997 445.198 17.9997 445.032 17.9997C445.046 18.0607 445.046 18.1238 445.032 18.1848C445.009 18.2525 445.009 18.3252 445.032 18.3929C445.046 18.4461 445.046 18.5017 445.032 18.5549C445.02 18.5801 445.012 18.6078 445.012 18.6358C445.012 18.6639 445.02 18.6915 445.032 18.7168C445.032 18.7168 445.032 18.7168 445.032 18.8555C445.017 18.9086 445.017 18.9643 445.032 19.0174H455.107L450.951 33.8433H440.874L429.459 75.8921H409.824L421.285 33.8433Z" fill="#4BC1F0"/>
<path d="M458.413 32.387L462.688 16.9828H468.607L472.085 3.38281H491.694L488.079 16.9828H493.999L489.887 32.387H483.968L472.225 75.9624H452.59L464.333 32.387H458.413Z" fill="#4BC1F0"/>
</svg>
