<svg width="179" height="52" viewBox="0 0 179 52" fill="none" xmlns="http://www.w3.org/2000/svg">
<path d="M153.601 0.655273L154.967 16.4985L162.694 2.59999L158.245 17.8669L170.471 7.6982L160.807 20.3269L175.881 15.2614L162.307 23.5463L178.193 24.2681L162.543 27.0903L177.095 33.5019L161.483 30.4802L172.737 41.7157L159.27 33.2582L165.705 47.8002L156.203 35.0492L156.95 50.9337L152.696 35.6113L147.654 50.693L149.222 34.8684L139.073 47.1105L146.252 32.9211L132.366 40.6702L144.186 30.0322L128.438 32.2417L143.302 26.592L127.82 22.9635L143.722 23.065L130.595 14.0886L145.387 19.9276L136.389 6.81557L148.072 17.6035L144.419 2.12671L151.417 16.4066L153.601 0.655273Z" fill="#FF0000"/>
<path d="M145.227 26.7984C146.987 24.0232 152.613 19.7012 161.03 24.6139C158.53 27.1119 152.072 32.1115 145.227 26.7984Z" fill="white"/>
<path d="M153.471 28.1716C154.825 27.9845 155.77 26.7359 155.583 25.3827C155.396 24.0295 154.147 23.0841 152.794 23.2712C151.441 23.4582 150.495 24.7069 150.682 26.0601C150.869 27.4133 152.118 28.3586 153.471 28.1716Z" fill="#FF0000"/>
<path d="M153.212 26.522C153.669 26.4589 153.988 26.0375 153.924 25.5808C153.861 25.124 153.44 24.805 152.983 24.8681C152.526 24.9312 152.207 25.3527 152.271 25.8094C152.334 26.2661 152.755 26.5851 153.212 26.522Z" fill="black"/>
<path d="M153.212 26.522C153.669 26.4589 153.988 26.0375 153.924 25.5808C153.861 25.124 153.44 24.805 152.983 24.8681C152.526 24.9312 152.207 25.3527 152.271 25.8094C152.334 26.2661 152.755 26.5851 153.212 26.522Z" fill="black"/>
<path d="M19.5678 24.2575C19.5678 29.1244 17.3991 31.3688 12.9356 31.3688H6.8582V35.0001H1.28516V17.6001H12.8852C17.6008 17.6001 19.5678 19.4662 19.5678 24.2575ZM11.3217 21.6349H6.8582V27.334H11.3721C13.1374 27.334 13.9948 26.5523 13.9948 24.3836C13.9948 22.1897 13.3643 21.6349 11.3217 21.6349ZM27.2242 17.6001V24.2323H35.319V17.6001H40.8921V35.0001H35.319V28.6705H27.2242V35.0001H21.6512V17.6001H27.2242ZM55.0197 31.0914L49.0432 25.2158V35.0001H43.4701V17.6001H47.8327L55.0701 25.0644L62.2319 17.6001H66.5441V35.0001H60.971V25.241L55.0197 31.0914ZM69.1308 17.6001H73.443L83.1012 27.5358V17.6001H88.3465V35.0001H84.0847L74.376 25.2662V35.0001H69.1308V17.6001Z" fill="black"/>
</svg>
