<svg width="801" height="54" viewBox="0 0 801 54" fill="none" xmlns="http://www.w3.org/2000/svg">
<path d="M16.3731 3.06445V20.3844H18.3188L41.8073 3.06445H61.5293L32.2035 24.7488V27.0343L62.0296 51.0041H41.6543L18.6941 32.5412H16.387V51.0041H1.2793V3.06445H16.3731Z" fill="#00174D"/>
<path d="M83.3634 3.06445V33.8354H85.5317L114.204 3.06445H131.897V51.0041H116.734V20.2329H114.566L85.8931 51.0041H68.2002V3.06445H83.3634Z" fill="#00174D"/>
<path d="M195.665 3.06445V15.2214H156.805V20.6597H179.196C194.22 20.6597 199.71 25.7401 199.71 35.3225V36.7681C199.71 46.4331 193.997 51.0041 179.196 51.0041H141.628V3.06445H195.665ZM156.805 39.7006H179.196C182.378 39.7006 184.102 38.6957 184.102 36.1898V35.4739C184.102 33.1885 182.434 31.9632 179.196 31.9632H156.805V39.7006Z" fill="#00174D"/>
<path d="M262.268 3.06445V14.7946H222.615V21.0865H258.084V32.0318H222.615V39.1912H262.628V51.0041H207.521V3.06445H262.268Z" fill="#00174D"/>
<path d="M310.926 3.06445C325.088 3.06445 330.426 9.57662 330.426 18.6634V20.6735C330.426 30.0493 325.075 36.4102 310.926 36.4102H286.438V51.0041H271.272V3.06445H310.926ZM286.438 24.2393H309.05C312.733 24.2393 314.9 23.1655 314.9 20.2329V19.0902C314.9 16.2953 312.733 15.2214 309.05 15.2214H286.438V24.2393Z" fill="#00174D"/>
<path d="M396.804 3.06445V51.0041H381.642V15.2214H352.609V51.0041H337.443V3.06445H396.804Z" fill="#00174D"/>
<path d="M446.169 3.06445C460.331 3.06445 465.67 9.57662 465.67 18.6634V20.6735C465.67 30.0493 460.319 36.4102 446.169 36.4102H421.681V51.0041H406.519V3.06445H446.169ZM421.694 24.2393H444.306C447.991 24.2393 450.159 23.1655 450.159 20.2329V19.0902C450.159 16.2953 447.991 15.2214 444.306 15.2214H421.694V24.2393Z" fill="#00174D"/>
<path d="M506.49 2.3457C524.043 2.3457 538.123 10.7854 538.123 25.9576V28.1052C538.123 43.2774 524.043 51.7171 506.49 51.7171H502.877C484.891 51.7171 470.52 43.2774 470.52 28.1052V25.9576C470.52 10.7854 484.891 2.3457 502.877 2.3457H506.49ZM486.046 25.9576V28.1052C486.046 35.0442 492.397 38.8443 502.877 38.8443H505.766C516.246 38.8443 522.597 35.0581 522.597 28.1052V25.9576C522.597 18.9497 516.246 15.2186 505.766 15.2186H502.877C492.41 15.2186 486.046 18.9497 486.046 25.9576Z" fill="#00174D"/>
<path d="M602.915 3.06445V15.2214H579.44V51.0041H564.277V15.2214H540.803V3.06445H602.915Z" fill="#00174D"/>
<path d="M663.471 3.06445V14.7946H623.82V21.0865H659.289V32.0318H623.82V39.1912H663.834V51.0041H608.727V3.06445H663.471Z" fill="#00174D"/>
<path d="M687.558 3.06445V20.3844H689.502L712.977 3.06445H732.7L703.375 24.7488V27.0343L733.199 51.0041H712.826L689.85 32.5412H687.545V51.0041H672.451V3.06445H687.558Z" fill="#00174D"/>
<path d="M799.72 3.06445V15.2214H776.246V51.0041H761.083V15.2214H737.608V3.06445H799.72Z" fill="#00174D"/>
</svg>
