<svg width="801" height="208" viewBox="0 0 801 208" fill="none" xmlns="http://www.w3.org/2000/svg">
<path d="M247.896 22.8477H269.608V52.4149H273.556L297.242 22.8477H322.901L290.333 60.7921L324.382 101.2H297.735L273.556 71.1406H269.608V101.2H247.896V22.8477Z" fill="black"/>
<path d="M321.421 61.7782C321.421 39.11 339.679 20.877 363.365 20.877C387.544 20.877 405.308 38.6172 405.308 61.2853C405.308 83.4607 387.05 101.693 363.365 101.693C339.185 102.186 321.421 84.4461 321.421 61.7782ZM383.596 61.7782C383.596 49.9512 375.701 40.5883 363.858 40.5883C352.015 40.5883 344.12 49.9512 344.12 61.2853C344.12 72.6192 352.015 82.4747 364.351 82.4747C375.701 82.9677 383.596 73.1121 383.596 61.7782Z" fill="black"/>
<path d="M418.138 81.4895L443.798 22.3555H467.484L493.143 81.4895H503.012V117.463H482.781V100.708H428.501V117.463H408.763V81.4895H418.138ZM440.343 82.4749H470.444L455.147 44.5308L440.343 82.4749Z" fill="black"/>
<path d="M251.844 176.104C247.403 171.669 245.43 165.756 245.43 156.886C245.43 138.16 252.338 128.797 267.141 126.333L281.945 123.869L283.426 132.246L269.115 134.711C259.74 136.189 255.792 140.624 254.311 148.508C257.766 145.059 262.701 142.595 269.115 142.595C280.958 142.595 287.867 150.48 287.867 161.321C287.867 172.655 279.478 182.018 266.648 182.018C259.739 181.525 254.805 179.554 251.844 176.104ZM278.491 161.321C278.491 154.422 274.05 149.494 267.141 149.494C259.246 149.494 254.805 154.915 254.805 161.321C254.805 168.22 259.739 173.64 266.648 173.64C273.556 173.64 278.491 168.712 278.491 161.321Z" fill="black"/>
<path d="M294.774 160.826C294.774 148.999 303.164 139.637 314.513 139.637C327.343 139.637 333.758 149.985 333.758 161.319C333.758 162.305 333.758 162.798 333.758 163.783H304.15C305.137 170.189 310.072 174.131 315.993 174.131C320.434 174.131 323.889 172.653 326.849 169.204L332.277 174.131C328.33 178.567 322.901 181.523 315.5 181.523C304.15 181.523 294.774 173.146 294.774 160.826ZM324.875 157.869C324.382 151.956 320.928 147.029 314.513 147.029C308.591 147.029 304.644 151.464 304.15 157.869H324.875Z" fill="black"/>
<path d="M344.12 169.697C348.067 172.654 353.002 174.132 357.936 174.132C363.858 174.132 366.819 172.161 366.819 168.711C366.819 165.754 363.858 163.784 358.43 163.784H349.548V156.885H358.43C363.364 156.885 365.831 154.914 365.831 151.957C365.831 149 362.871 147.029 357.936 147.029C353.002 147.029 349.054 148.507 345.106 151.464L340.172 145.55C345.106 141.608 350.534 139.145 358.43 139.145C368.793 139.145 375.207 143.58 375.207 150.478C375.207 155.406 372.247 157.87 368.299 159.841C372.74 160.827 376.688 164.276 376.688 169.204C376.688 175.611 370.273 181.031 358.43 181.031C351.028 181.031 345.106 179.06 340.172 175.118L344.12 169.697Z" fill="black"/>
<path d="M383.104 160.826C383.104 148.999 392.479 139.637 404.816 139.637C417.152 139.637 426.528 148.999 426.528 160.826C426.528 172.161 417.152 182.016 404.816 182.016C392.479 181.523 383.104 172.161 383.104 160.826ZM417.152 160.826C417.152 153.434 412.218 147.521 404.816 147.521C397.414 147.521 392.479 153.434 392.479 160.334C392.479 167.233 397.414 173.146 404.816 173.146C412.218 173.639 417.152 167.726 417.152 160.826Z" fill="black"/>
<path d="M435.902 140.131H473.405V180.54H464.029V148.509H445.278V180.54H435.902V140.131Z" fill="black"/>
<path d="M481.794 169.204C481.794 160.334 488.702 155.899 498.571 155.899C503.013 155.899 506.467 156.392 509.427 157.377V156.392C509.427 150.478 505.973 147.522 499.558 147.522C495.117 147.522 491.663 148.507 487.715 149.985L485.248 142.594C489.689 140.623 494.13 139.145 500.545 139.145C506.467 139.145 510.908 140.623 513.869 143.58C516.829 146.536 518.31 150.971 518.31 155.899V180.046H509.427V175.118C506.467 178.567 502.519 181.031 496.104 181.031C488.702 181.524 481.794 177.089 481.794 169.204ZM509.921 166.247V163.291C507.454 162.305 504.493 161.812 500.545 161.812C494.624 161.812 491.17 164.276 491.17 168.711C491.17 172.654 494.624 174.625 499.065 174.625C504.987 174.625 509.921 171.175 509.921 166.247Z" fill="black"/>
<path d="M527.688 160.826C527.688 148.999 536.566 139.637 548.904 139.637C556.305 139.637 561.241 142.593 565.189 146.536L559.265 152.942C556.305 149.985 553.345 148.014 548.904 148.014C541.996 148.014 537.06 153.927 537.06 160.826C537.06 168.218 541.996 173.639 549.398 173.639C553.84 173.639 556.799 171.668 559.759 168.711L565.189 174.131C561.241 178.567 556.305 181.523 548.409 181.523C536.566 181.523 527.688 172.161 527.688 160.826Z" fill="black"/>
<path d="M573.578 140.131H582.951V155.9H601.702V140.131H611.079V180.54H601.702V164.278H582.951V180.54H573.578V140.131Z" fill="black"/>
<path d="M620.452 160.826C620.452 148.999 629.83 139.637 642.168 139.637C654.505 139.637 663.878 148.999 663.878 160.826C663.878 172.161 654.505 182.016 642.168 182.016C629.336 181.523 620.452 172.161 620.452 160.826ZM654.505 160.826C654.505 153.434 649.569 147.521 642.168 147.521C634.766 147.521 629.83 153.434 629.83 160.334C629.83 167.233 634.766 173.146 642.168 173.146C649.569 173.639 654.505 167.726 654.505 160.826Z" fill="black"/>
<path d="M670.785 160.826C670.785 148.999 679.669 139.637 692.006 139.637C699.408 139.637 704.344 142.593 708.292 146.536L702.367 152.942C699.408 149.985 696.448 148.014 692.006 148.014C685.099 148.014 680.163 153.927 680.163 160.826C680.163 168.218 685.099 173.639 692.501 173.639C696.943 173.639 699.902 171.668 702.862 168.711L708.292 174.131C704.344 178.567 699.408 181.523 691.512 181.523C679.669 181.523 670.785 172.161 670.785 160.826Z" fill="black"/>
<path d="M727.042 148.509H712.729V140.131H750.724V148.509H736.415V180.54H727.042V148.509Z" fill="black"/>
<path d="M759.114 140.131H768.492V166.248L787.737 140.131H796.621V180.54H787.243V153.929L767.504 180.54H759.114V140.131Z" fill="black"/>
<path d="M102.182 204.048C98.728 204.048 95.2738 203.555 91.8196 202.569C75.0423 198.627 62.2128 184.829 59.2517 168.075C58.265 162.161 62.2128 156.741 68.1339 155.262C74.0556 154.277 79.4837 158.219 80.964 164.133C82.4443 172.51 88.859 179.409 97.7413 181.38C109.584 184.337 121.427 176.945 124.388 165.118C125.868 159.205 124.881 153.291 121.921 148.363C118.96 143.436 114.025 139.986 108.104 138.508C102.182 137.029 98.728 131.116 100.209 125.202C101.689 119.289 107.61 115.84 113.532 117.318C137.218 123.231 151.528 146.885 145.606 170.046C140.178 190.743 121.921 204.048 102.182 204.048Z" fill="url(#paint0_linear_890_19905)"/>
<path d="M44.448 145.9C40.9938 145.9 37.5396 145.408 34.0854 144.422C10.3996 138.509 -3.91062 114.855 2.01084 91.6945C5.95848 74.9395 19.7752 62.1273 36.5527 59.1706C42.4741 58.1846 47.9022 62.1273 49.3825 68.0407C50.3694 73.9542 46.4218 79.3746 40.5003 80.853C32.1116 82.3314 25.2032 88.7377 23.2294 97.6074C19.7752 108.942 27.177 120.769 39.02 123.725C44.9414 125.204 50.8629 124.218 55.7975 121.261C60.732 118.304 64.1862 113.377 65.6665 107.463C67.1468 101.55 73.0684 98.1004 78.9896 99.5787C84.9113 101.057 88.3655 106.971 86.8852 112.884C83.9246 124.218 77.0162 134.073 67.1468 139.987C60.2384 143.93 52.3434 145.9 44.448 145.9Z" fill="url(#paint1_linear_890_19905)"/>
<path d="M159.912 58.4277C163.366 58.4277 166.82 58.9207 170.274 59.9061C193.96 65.8195 208.27 89.4733 202.349 112.634C198.401 129.388 184.584 142.201 167.807 145.158C161.885 146.143 156.457 142.201 154.977 136.288C153.99 130.374 157.938 124.954 163.859 123.476C172.248 121.997 179.156 115.591 181.13 106.721C184.584 95.3867 177.182 83.5599 165.34 80.6031C159.418 79.1248 153.497 80.1102 148.562 83.0669C143.628 86.0236 140.174 90.9517 138.693 96.8651C137.213 102.779 131.291 106.228 125.37 104.749C119.449 103.271 115.994 97.3575 117.475 91.4441C120.435 80.1102 127.344 70.2546 137.213 64.3412C144.121 60.3991 152.017 58.4277 159.912 58.4277Z" fill="url(#paint2_linear_890_19905)"/>
<path d="M58.4453 44.4361C58.4453 40.9827 58.9384 37.5294 59.924 34.0761C65.839 10.3962 89.4986 -3.91046 112.665 2.00953C129.424 5.95617 142.24 19.7694 145.197 36.5428C146.183 42.4627 142.24 47.8894 136.325 49.3694C130.41 50.3561 124.988 46.4094 123.509 40.4894C122.031 32.1028 115.623 25.1961 106.75 23.2228C95.4135 19.7695 83.5837 27.1695 80.6262 39.0094C79.1475 44.9294 80.1337 50.8494 83.0911 55.7829C86.0486 60.7162 90.9774 64.1695 96.8923 65.6494C102.807 67.1293 106.258 73.0495 104.779 78.9692C103.3 84.8894 97.3854 88.3427 91.4704 86.8628C80.1337 83.9025 70.2751 76.9958 64.3602 67.1293C60.4171 60.2227 58.4453 52.3296 58.4453 44.4361Z" fill="url(#paint3_linear_890_19905)"/>
<defs>
<linearGradient id="paint0_linear_890_19905" x1="97.2653" y1="20.9362" x2="103.51" y2="185.191" gradientUnits="userSpaceOnUse">
<stop stop-color="#02C786"/>
<stop offset="1" stop-color="#178E82"/>
</linearGradient>
<linearGradient id="paint1_linear_890_19905" x1="17.1678" y1="92.827" x2="165.883" y2="163.6" gradientUnits="userSpaceOnUse">
<stop stop-color="#03C947"/>
<stop offset="1" stop-color="#028BA0"/>
</linearGradient>
<linearGradient id="paint2_linear_890_19905" x1="57.0699" y1="36.4256" x2="189.888" y2="117.63" gradientUnits="userSpaceOnUse">
<stop stop-color="#03C947"/>
<stop offset="1" stop-color="#028BA0"/>
</linearGradient>
<linearGradient id="paint3_linear_890_19905" x1="102.919" y1="20.8425" x2="112.155" y2="179.896" gradientUnits="userSpaceOnUse">
<stop stop-color="#02C786"/>
<stop offset="1" stop-color="#178E82"/>
</linearGradient>
</defs>
</svg>
